<?xml version="1.0" encoding="utf-8"?>
<!-- Generator: Adobe Illustrator 16.0.3, SVG Export Plug-In . SVG Version: 6.00 Build 0)  -->
<!DOCTYPE svg PUBLIC "-//W3C//DTD SVG 1.1//EN" "http://www.w3.org/Graphics/SVG/1.1/DTD/svg11.dtd">
<svg version="1.1" id="Capa_1" xmlns="http://www.w3.org/2000/svg" xmlns:xlink="http://www.w3.org/1999/xlink" x="0px" y="0px"
	 width="258.85px" height="82.641px" viewBox="120.574 42.145 258.85 82.641" enable-background="new 120.574 42.145 258.85 82.641"
	 xml:space="preserve">
<g id="XMLID_24_">
	<path id="XMLID_26_" fill="#4285F4" d="M184.238,71.328h-30.223v8.728h21.408c-1.05,12.273-11.543,17.456-21.408,17.456
		c-12.663,0-23.646-9.683-23.646-23.25c0-13.228,10.493-23.388,23.646-23.388c10.146,0,16.16,6.341,16.16,6.341l6.297-6.341
		c0,0-8.045-8.728-22.737-8.728c-18.68,0-33.16,15.411-33.16,31.979c0,16.296,13.642,32.185,33.649,32.185
		c17.631,0,30.503-11.795,30.503-29.185C184.729,73.442,184.238,71.328,184.238,71.328L184.238,71.328z"/>
	<path id="XMLID_32_" fill="#EA4335" d="M208.934,64.987c-12.383,0-21.268,9.477-21.268,20.455c0,11.182,8.604,20.796,21.406,20.796
		c11.614,0,21.06-8.659,21.06-20.523C230.203,72.01,219.148,64.987,208.934,64.987z M209.073,73.101
		c6.089,0,11.896,4.772,11.896,12.546c0,7.568-5.737,12.544-11.896,12.544c-6.784,0-12.103-5.25-12.103-12.544
		C196.971,78.418,202.218,73.101,209.073,73.101z"/>
	<path id="XMLID_35_" fill="#FBBC05" d="M255.247,64.987c-12.384,0-21.269,9.477-21.269,20.455c0,11.182,8.605,20.796,21.408,20.796
		c11.613,0,21.057-8.659,21.057-20.523C276.445,72.01,265.391,64.987,255.247,64.987L255.247,64.987z M255.388,73.101
		c6.086,0,11.893,4.772,11.893,12.546c0,7.568-5.735,12.544-11.893,12.544c-6.787,0-12.104-5.25-12.104-12.544
		C243.214,78.418,248.531,73.101,255.388,73.101z"/>
	<path id="XMLID_38_" fill="#4285F4" d="M300.581,64.987c-11.402,0-20.288,9.683-20.288,20.592
		c0,12.409,10.354,20.659,20.147,20.659c6.019,0,9.235-2.317,11.614-5.045v4.092c0,7.09-4.408,11.386-11.124,11.386
		c-6.437,0-9.725-4.705-10.844-7.362l-8.115,3.34c2.868,5.933,8.675,12.138,19.03,12.138c11.333,0,19.938-6.955,19.938-21.478
		V66.214h-8.885v3.478C309.325,66.896,305.548,64.987,300.581,64.987L300.581,64.987z M301.421,73.101
		c5.596,0,11.333,4.637,11.333,12.546c0,8.044-5.736,12.478-11.403,12.478c-6.086,0-11.685-4.773-11.685-12.41
		C289.598,77.805,295.475,73.101,301.421,73.101L301.421,73.101z"/>
	<path id="XMLID_42_" fill="#EA4335" d="M360.325,64.987c-10.705,0-19.729,8.318-19.729,20.592
		c0,13.022,10.074,20.728,20.776,20.728c8.955,0,14.482-4.772,17.701-9.068l-7.346-4.772c-1.889,2.863-5.107,5.659-10.355,5.659
		c-5.944,0-8.674-3.205-10.354-6.273l28.404-11.456l-1.472-3.34C375.227,70.442,368.79,64.987,360.325,64.987L360.325,64.987z
		 M360.745,72.896c3.849,0,6.646,1.977,7.836,4.432l-18.961,7.704C348.782,79.033,354.59,72.896,360.745,72.896z"/>
	<rect id="XMLID_43_" x="327.096" y="44.259" fill="#34A853" width="9.305" height="60.822"/>
</g>
</svg>
