<?xml version="1.0" encoding="utf-8"?>
<!-- Generator: Adobe Illustrator 16.0.3, SVG Export Plug-In . SVG Version: 6.00 Build 0)  -->
<!DOCTYPE svg PUBLIC "-//W3C//DTD SVG 1.1//EN" "http://www.w3.org/Graphics/SVG/1.1/DTD/svg11.dtd">
<svg version="1.1" id="Capa_1" xmlns="http://www.w3.org/2000/svg" xmlns:xlink="http://www.w3.org/1999/xlink" x="0px" y="0px"
	 width="178.95px" height="49.82px" viewBox="0 0 178.95 49.82" enable-background="new 0 0 178.95 49.82" xml:space="preserve">
<g>
	<path fill-rule="evenodd" clip-rule="evenodd" fill="#B92B27" d="M165.806,37.26c-1.637,3.146-4.992,5.264-9.688,5.264
		c-5.451,0-8.974-2.896-8.974-7.989c0-10.251,14.278-7.527,18.472-14.319V19.48c0-5.22-2.055-6.038-4.319-6.038
		c-6.353,0-3.46,6.832-9.311,6.832c-2.809,0-3.899-1.695-3.899-3.604c0-3.858,4.613-6.983,13.274-6.983
		c8.196,0,13.229,2.265,13.229,10.422v13.02c0,2.013,0.734,3.104,2.496,3.104c0.754,0,1.383-0.21,1.864-0.546l1.05,2.556
		c-0.86,1.323-3.146,3.65-7.487,3.65c-3.772,0-6.143-1.762-6.457-4.634L165.806,37.26L165.806,37.26L165.806,37.26z M160.018,37.281
		c3.964,0,5.598-3.753,5.598-7.524v-5.034c-2.893,2.996-9.624,3.102-9.624,8.449C155.991,35.792,157.544,37.281,160.018,37.281
		L160.018,37.281L160.018,37.281z"/>
	<path fill-rule="evenodd" clip-rule="evenodd" fill="#B92B27" d="M118.628,41.894v-3.962h1.321c3.271,0,3.586-0.943,3.586-3.773
		V16.921c0-1.698-0.881-2.453-2.893-2.453h-1.762v-3.962h12.433l0.629,6.479h0.253c1.384-4.657,5.095-7.11,8.575-7.11
		c2.872,0,5.115,1.636,5.115,4.95c0,2.306-1.109,4.76-4.213,4.76c-2.79,0-3.334-1.888-5.642-1.888c-2.054,0-3.648,1.951-3.648,4.822
		v11.639c0,2.83,0.692,3.773,3.901,3.773h1.823v3.962H118.628L118.628,41.894L118.628,41.894z"/>
	<path fill-rule="evenodd" clip-rule="evenodd" fill="#B92B27" d="M101.614,42.523c-8.722,0-16.587-6.669-16.587-16.606
		c0-9.75,7.676-16.229,16.587-16.229c9.289,0,16.732,6.604,16.732,16.229C118.347,35.854,110.903,42.523,101.614,42.523
		L101.614,42.523z M101.614,38.562c4.823,0,6.655-4.196,6.752-12.645c0.094-8.264-1.929-12.264-6.752-12.264
		c-4.214,0-6.856,4.002-6.856,12.264C94.758,34.367,97.357,38.562,101.614,38.562L101.614,38.562z"/>
	<path fill-rule="evenodd" clip-rule="evenodd" fill="#B92B27" d="M51.219,31.83V16.921c0-1.698-0.627-2.453-2.578-2.453h-2.077
		v-3.962h13.566v21.136c0,3.563,1.929,5.134,4.866,5.134c2.41,0,4.821-1.065,6.121-3.501V16.921c0-1.699-0.629-2.453-2.578-2.453
		h-2.202v-3.962h13.693v22.14c0,2.204,0.817,3.21,3.333,3.21h0.441v4.089l-12.245,1.949v-4.214h-0.252
		c-2.368,2.892-5.702,4.843-10.462,4.843C55.497,42.523,51.219,39.819,51.219,31.83L51.219,31.83L51.219,31.83z"/>
	<path fill-rule="evenodd" clip-rule="evenodd" fill="#B92B27" d="M27.698,42.895c-1.83,0.49-3.774,0.761-5.702,0.761
		C10.882,43.655,0,34.787,0,21.89C0,8.87,10.882,0,21.996,0c11.3,0,22.078,8.807,22.078,21.89c0,7.277-3.396,13.191-8.331,17.014
		c1.595,2.39,3.236,3.977,5.522,3.977c2.495,0,3.5-1.928,3.669-3.44h3.249c0.19,2.014-0.817,10.381-9.897,10.381
		C32.786,49.82,29.878,46.633,27.698,42.895L27.698,42.895L27.698,42.895z M25.628,38.848c-1.726-3.397-3.751-6.829-7.701-6.829
		c-0.755,0-1.509,0.125-2.202,0.44l-1.342-2.686c1.635-1.402,4.278-2.515,7.674-2.515c5.284,0,7.996,2.545,10.148,5.794
		c1.278-2.774,1.885-6.52,1.885-11.163c0-11.595-3.626-17.548-12.096-17.548c-8.346,0-11.953,5.954-11.953,17.548
		c0,11.534,3.606,17.426,11.953,17.426C23.323,39.315,24.524,39.17,25.628,38.848L25.628,38.848z"/>
</g>
</svg>
