<?xml version="1.0" encoding="utf-8"?>
<!-- Generator: Adobe Illustrator 16.0.3, SVG Export Plug-In . SVG Version: 6.00 Build 0)  -->
<!DOCTYPE svg PUBLIC "-//W3C//DTD SVG 1.1//EN" "http://www.w3.org/Graphics/SVG/1.1/DTD/svg11.dtd">
<svg version="1.1" id="Capa_1" xmlns="http://www.w3.org/2000/svg" xmlns:xlink="http://www.w3.org/1999/xlink" x="0px" y="0px"
	 width="1468.5px" height="228.13px" viewBox="0 346.691 1468.5 228.13" enable-background="new 0 346.691 1468.5 228.13"
	 xml:space="preserve">
<g>
	<path fill="#F26522" d="M108.429,346.691H0v108.43h108.429V346.691z"/>
	<path fill="#8DC63F" d="M228.129,346.691H119.7v108.43h108.429V346.691z"/>
	<path fill="#00AEEF" d="M108.429,466.391H0v108.43h108.429V466.391z"/>
	<path fill="#FFC20E" d="M228.129,466.391H119.7v108.43h108.429V466.391z"/>
</g>
<g>
	<path fill="#737373" d="M444.698,392.26v136.898h-23.691V421.876h-0.479l-42.318,107.282h-15.762l-43.658-107.282H318.5v107.282
		h-21.97V392.26h34.105l39.263,101.454h0.574l41.554-101.454H444.698z M464.569,402.767c0-3.82,1.433-7.07,4.205-9.649
		c2.769-2.579,6.019-3.82,9.838-3.82c7.595-0.215,13.926,5.769,14.14,13.363c0,0.002,0,0.007,0,0.009
		c0,3.823-1.337,6.977-4.108,9.556c-2.676,2.483-6.113,3.819-10.031,3.819c-3.916,0-7.259-1.336-9.935-3.915
		c-2.77-2.58-4.108-5.733-4.108-9.46V402.767z M490.075,431.046v98.112h-23.117v-98.112H490.075z M560.198,512.344
		c3.344,0,7.163-0.765,11.271-2.293c4.204-1.626,8.025-3.727,11.463-6.306v21.398c-3.629,2.103-7.833,3.821-12.417,4.778
		c-5.082,1.124-10.273,1.67-15.476,1.623c-13.169,0.549-25.972-4.398-35.35-13.661c-9.039-9.344-13.868-21.973-13.374-34.966
		c0-15.762,4.586-28.754,13.854-38.976c9.171-10.223,22.259-15.286,39.168-15.286c8.216,0.01,16.321,1.907,23.691,5.541v22.067
		c-3.354-2.472-7.013-4.495-10.892-6.017c-3.65-1.435-7.539-2.181-11.464-2.197c-9.074,0-16.43,2.961-21.971,8.884
		c-5.541,5.924-8.502,13.948-8.502,23.979c0,9.936,2.769,17.674,8.119,23.214c5.35,5.541,12.707,8.217,21.971,8.217H560.198z
		 M648.754,429.422c2.956-0.088,5.901,0.365,8.693,1.336v23.406c-4.103-2.612-8.894-3.944-13.756-3.82
		c-5.733,0-10.51,2.483-14.329,7.26c-3.822,4.776-5.924,12.133-5.924,21.971v49.677h-23.12V430.95h23.12v15.476h0.383
		c2.101-5.349,5.348-9.553,9.553-12.514c4.298-3.058,9.363-4.587,15.283-4.587L648.754,429.422z M658.689,481.581
		c0-16.239,4.587-29.136,13.757-38.596c9.171-9.456,21.974-14.232,38.214-14.232c15.283,0,27.226,4.584,35.917,13.661
		c8.695,9.074,12.899,21.495,12.899,37.066c0,15.858-4.587,28.563-13.757,37.926c-9.961,9.735-23.539,14.863-37.449,14.139
		c-15.189,0-27.226-4.49-36.206-13.375C662.781,508.321,657.946,495.094,658.689,481.581L658.689,481.581z M682.763,480.817
		c0,10.221,2.294,18.056,6.973,23.502c4.684,5.444,11.274,8.024,19.968,8.024c8.313,0,14.711-2.676,19.107-8.024
		c4.394-5.352,6.685-13.471,6.685-24.074c0-10.509-2.291-18.533-6.878-23.885c-4.78-5.501-11.826-8.495-19.105-8.119
		c-8.502,0-14.999,2.865-19.68,8.405C685.057,462.38,682.763,470.403,682.763,480.817L682.763,480.817z M793.867,456.84
		c0,3.343,0.954,5.922,3.151,7.833c2.102,1.912,6.688,4.202,13.946,7.07c9.171,3.726,15.668,7.831,19.395,12.418
		c3.726,4.681,5.541,10.221,5.541,16.814c0,9.17-3.536,16.622-10.604,22.259c-7.069,5.636-16.718,8.406-28.757,8.406
		c-8.957-0.08-17.813-1.896-26.079-5.351v-22.642c4.204,2.868,8.691,5.256,13.564,6.975c4.777,1.721,9.268,2.58,13.183,2.58
		c5.255,0,9.077-0.764,11.561-2.199c2.485-1.525,3.726-3.915,3.726-7.355c0-3.248-1.336-5.923-3.822-8.12
		c-2.673-2.197-7.545-4.776-14.711-7.642c-8.503-3.534-14.519-7.548-18.151-12.036c-3.63-4.49-5.349-10.031-5.349-16.911
		c0-8.885,3.534-16.239,10.507-21.876c7.166-5.731,16.24-8.597,27.418-8.597c7.604,0.136,15.132,1.558,22.26,4.202v21.973
		c-3.058-2.101-6.688-3.821-10.699-5.351c-3.886-1.428-7.991-2.174-12.133-2.196c-4.394,0-7.833,0.956-10.223,2.579
		c-2.446,1.548-3.897,4.27-3.82,7.166H793.867z M845.835,481.581c0-16.239,4.587-29.136,13.757-38.596
		c10.179-9.89,24.045-15.054,38.211-14.232c15.286,0,27.325,4.584,35.921,13.661c8.599,9.074,12.896,21.495,12.896,37.066
		c0,15.858-4.583,28.563-13.754,37.926c-9.938,9.711-23.477,14.835-37.354,14.139c-15.285,0-27.321-4.49-36.302-13.375
		C849.927,508.321,845.092,495.094,845.835,481.581L845.835,481.581z M869.909,480.817c0,10.221,2.293,18.056,6.974,23.502
		c4.68,5.444,11.273,8.024,20.062,8.024c8.311,0,14.712-2.676,19.106-8.024c4.394-5.352,6.688-13.471,6.688-24.074
		c0-10.509-2.39-18.533-6.878-23.885c-4.78-5.501-11.827-8.495-19.107-8.119c-8.502,0-15.094,2.865-19.774,8.405
		C871.814,463.604,869.307,472.177,869.909,480.817L869.909,480.817z M1023.333,449.962h-34.392v79.289h-23.406v-79.289h-16.43
		v-18.916h16.43v-13.66c-0.713-18.771,13.924-34.565,32.694-35.278c1.043-0.04,2.089-0.031,3.13,0.026
		c2.868,0,5.351,0.19,7.452,0.479c2.196,0.286,4.108,0.765,5.733,1.336v19.966c-3.251-1.679-6.853-2.563-10.51-2.579
		c-4.872,0-8.599,1.529-11.271,4.49c-2.58,3.059-3.822,7.452-3.822,13.375v11.94h34.392v-22.067l23.117-7.069v29.137h23.502v18.821
		h-23.405v45.854c0,6.113,1.146,10.412,3.343,12.896c2.198,2.484,5.637,3.727,10.317,3.727c3.456-0.316,6.79-1.429,9.745-3.25
		v19.108c-1.433,0.86-3.822,1.624-7.26,2.293c-3.439,0.668-6.687,0.954-10.127,0.954c-9.649,0-17.005-2.483-21.877-7.642
		c-4.776-5.255-7.26-12.993-7.26-23.503v-50.438H1023.333z"/>
	<path fill="#737373" d="M1122.495,530.494V395.126h42.99c13.086,0,23.499,2.866,31.141,8.599
		c7.645,5.73,11.465,13.182,11.465,22.353c0,7.643-2.198,14.329-6.496,20.063c-4.599,5.815-10.918,10.029-18.056,12.036v0.383
		c9.361,1.05,16.719,4.489,22.261,10.412c5.634,5.733,8.405,13.375,8.405,22.642c0,11.561-4.587,21.017-13.66,28.087
		c-9.077,7.069-20.635,10.795-34.584,10.795H1122.495z M1144.944,413.18v38.5h14.522c7.833,0,13.947-1.911,18.341-5.444
		c4.49-3.822,6.688-8.981,6.688-15.668c0-11.654-7.738-17.388-23.214-17.388H1144.944z M1144.944,469.736v42.797h19.106
		c8.408,0,14.903-1.91,19.395-5.73c4.586-3.918,6.877-9.268,6.877-16.051c0-14.043-9.649-21.016-29.137-21.016H1144.944z
		 M1241.623,413.563c-3.535,0-6.687-1.243-9.173-3.533c-2.579-2.293-3.819-5.255-3.819-8.885c0-3.633,1.24-6.594,3.819-8.981
		c2.579-2.389,5.638-3.536,9.267-3.536c3.632,0,6.783,1.147,9.363,3.536c2.579,2.387,3.822,5.445,3.822,8.981
		c0,3.438-1.243,6.306-3.822,8.788C1248.5,412.32,1245.349,413.563,1241.623,413.563L1241.623,413.563z M1252.513,530.494h-21.877
		v-96.679h21.973L1252.513,530.494z M1360.942,530.494h-21.878v-54.453c0-18.151-6.398-27.133-19.104-27.133
		c-6.688,0-12.229,2.58-16.623,7.646c-4.422,5.249-6.739,11.958-6.497,18.819v55.121h-21.971v-96.679h21.971v16.05h0.383
		c6.103-11.579,18.252-18.688,31.335-18.344c10.507,0,18.531,3.44,24.072,10.32c5.543,6.78,8.313,16.622,8.313,29.613V530.494z
		 M1469.37,522.757c0,35.441-17.769,53.211-53.499,53.211c-11.309,0.258-22.544-1.89-32.956-6.306v-20.063
		c10.507,6.116,20.635,9.077,30.091,9.077c22.927,0,34.487-11.273,34.487-33.915v-10.507h-0.383
		c-6.479,11.879-19.154,19.029-32.673,18.437c-10.954,0.353-21.459-4.37-28.468-12.803c-7.613-9.904-11.44-22.201-10.793-34.678
		c0-16.43,3.819-29.423,11.653-39.168c7.835-9.744,18.342-14.521,31.908-14.521c12.704,0,22.163,5.256,28.372,15.668h0.383v-13.374
		h21.974L1469.37,522.757z M1447.683,486.261v-12.61c0-6.78-2.291-12.608-6.781-17.387c-4.281-4.75-10.42-7.402-16.813-7.26
		c-8.311,0-14.809,3.154-19.488,9.268c-5.121,7.554-7.606,16.586-7.069,25.699c0,9.552,2.293,17.098,6.687,22.831
		c4.584,5.73,10.51,8.502,17.959,8.502c7.645,0,13.757-2.771,18.44-8.12c4.775-5.541,7.066-12.421,7.066-21.017V486.261z"/>
</g>
</svg>
