<?xml version="1.0" encoding="utf-8"?>
<!-- Generator: Adobe Illustrator 16.0.3, SVG Export Plug-In . SVG Version: 6.00 Build 0)  -->
<!DOCTYPE svg PUBLIC "-//W3C//DTD SVG 1.1//EN" "http://www.w3.org/Graphics/SVG/1.1/DTD/svg11.dtd">
<svg version="1.1" xmlns="http://www.w3.org/2000/svg" xmlns:xlink="http://www.w3.org/1999/xlink" x="0px" y="0px" width="2475px"
	 height="1650px" viewBox="0 0 2475 1650" enable-background="new 0 0 2475 1650" xml:space="preserve">
<g id="Background">
</g>
<g id="Illustration">
	
		<linearGradient id="SVGID_1_" gradientUnits="userSpaceOnUse" x1="-1368.019" y1="3204.0957" x2="432.8716" y2="3204.0957" gradientTransform="matrix(-1 0 0 -1 774 4250)">
		<stop  offset="0" style="stop-color:#DAE3FE"/>
		<stop  offset="1" style="stop-color:#E9EFFD"/>
	</linearGradient>
	<path fill="url(#SVGID_1_)" d="M361.235,1002.393c20.893,36.967,54.095,68.059,79.677,102.624
		c73.923,99.881-2.99,216.756,30.749,324.43c29.396,93.813,151.653,118.964,241.021,122.771
		c150.589,6.416,301.008-3.197,446.194-44.039c100.751-28.341,201.629-65.447,307.82-67.694
		c108.558-2.296,210.671,41.286,315.546,61.897c115.159,22.632,252.893-1.943,280.657-130.543
		c17.201-79.669-29.103-153.038-33.437-231.477c-5.737-103.845,97.785-160.832,111.181-257.912
		c8.445-61.208-23.111-115.898-64.283-160.183c-43.44-46.725-101.86-88.01-168.886-91.847
		c-70.058-4.011-132.583,32.776-198.061,50.336c-184.008,49.348-288.455-115.237-457.796-138.199
		c-76.365-10.355-170.222-5.438-239.564,30.114c-64.477,33.057-95.767,106.493-168.09,128.056
		c-76.548,22.822-146.595-22.791-219.336-37.364c-75.283-15.082-146.487,11.689-193.605,70.394
		c-45.685,56.918-95.12,131.893-89.448,207.046C343.297,963.624,350.702,983.755,361.235,1002.393z"/>
	<g>
		<g>
			<path fill="#91B3FA" d="M491.941,1529.681c-44.89,8.977-102.216-39.965-120.684-93.432
				c-19.005-55.022,15.841-78.072,15.572-154.424c-0.306-86.732-45.422-99.803-75.265-216.712
				c-6.733-26.376-45.698-179.017,2.595-207.627c44.651-26.454,170.073,49.465,192.056,146.637
				c15.674,69.287-32.781,98.38-14.275,179.079c16.238,70.809,58.915,71.833,75.265,140.148
				C587.112,1406.52,550.882,1517.896,491.941,1529.681z"/>
			<path fill="#7D97F4" d="M488.681,1550.693c12.102-93.446-11.505-237.613-33.441-342.101
				c-23.748-113.123-50.701-205.396-50.97-206.315l-3.736,1.096c0.27,0.918,27.187,93.068,50.903,206.048
				c21.87,104.183,45.414,247.872,33.383,340.773L488.681,1550.693z"/>
		</g>
		<g>
			<path fill="#BDD0FB" d="M440.243,1519.248c58.884-30.682,79.039-136.038,45.567-170.278
				c-22.616-23.137-55.05,1.198-86.339-22.784c-39.949-30.621-10.562-88.29-41.97-163.084
				c-26.729-63.649-90.843-123.879-128.309-111.521c-39.218,12.936-59.875,108.918-26.381,166.682
				c21.781,37.564,55.123,39.409,62.356,74.347c8.393,40.539-32.156,59.027-32.377,98.33
				C232.394,1461.539,362.343,1559.837,440.243,1519.248z"/>
			<path fill="#91B3FA" d="M408.467,1546.229c0.351,0,0.708-0.078,1.045-0.241c1.192-0.579,1.689-2.013,1.11-3.205
				c-78.064-160.859-100.956-347.472-101.178-349.337c-0.156-1.316-1.352-2.257-2.665-2.099c-1.315,0.156-2.255,1.35-2.098,2.665
				c0.224,1.874,23.212,189.288,101.625,350.864C406.723,1545.731,407.578,1546.229,408.467,1546.229z"/>
			<path fill="#DCE5FE" d="M248.307,1241.773c0.247,0,0.495-0.08,0.704-0.242c0.499-0.39,0.589-1.109,0.2-1.608
				c-24.641-31.629-51.95-79.146-42.119-125.908c5.854-27.85,22.334-42.374,22.5-42.518c0.479-0.414,0.531-1.138,0.117-1.616
				c-0.415-0.479-1.139-0.531-1.617-0.116c-0.701,0.605-17.231,15.18-23.243,43.778c-5.526,26.285-2.628,69.792,42.553,127.788
				C247.628,1241.62,247.967,1241.773,248.307,1241.773z"/>
			<path fill="#F0F0F0" d="M445.552,1505.2c0.366,0,0.725-0.174,0.946-0.498c37.868-55.266,50.781-97.97,38.38-126.922
				c-11.024-25.741-38.862-30.532-39.142-30.578c-0.626-0.098-1.213,0.324-1.314,0.948c-0.102,0.623,0.322,1.214,0.947,1.315
				c0.268,0.043,26.903,4.66,37.415,29.245c12.05,28.185-0.794,70.138-38.176,124.695c-0.358,0.523-0.225,1.235,0.297,1.594
				C445.103,1505.136,445.329,1505.2,445.552,1505.2z"/>
		</g>
	</g>
	<g>
		<g>
			<path fill="#91B3FA" d="M1971.864,1529.681c44.891,8.977,102.217-39.965,120.684-93.432
				c19.006-55.022-15.84-78.072-15.571-154.424c0.305-86.732,45.422-99.803,75.265-216.712
				c6.733-26.376,45.697-179.017-2.596-207.627c-44.651-26.454-170.072,49.465-192.055,146.637
				c-15.675,69.287,32.78,98.38,14.273,179.079c-16.238,70.809-58.913,71.833-75.265,140.148
				C1876.693,1406.52,1912.923,1517.896,1971.864,1529.681z"/>
			<path fill="#7D97F4" d="M1975.125,1550.693c-12.102-93.446,11.506-237.613,33.44-342.101
				c23.748-113.123,50.701-205.396,50.972-206.315l3.734,1.096c-0.269,0.918-27.186,93.068-50.901,206.048
				c-21.87,104.183-45.415,247.872-33.384,340.773L1975.125,1550.693z"/>
		</g>
		<g>
			<path fill="#BDD0FB" d="M2023.563,1519.248c-58.885-30.682-79.04-136.038-45.568-170.278
				c22.617-23.137,55.05,1.198,86.339-22.784c39.949-30.621,10.562-88.29,41.97-163.084
				c26.729-63.649,90.843-123.879,128.309-111.521c39.219,12.936,59.875,108.918,26.382,166.682
				c-21.781,37.564-55.123,39.409-62.356,74.347c-8.393,40.539,32.156,59.027,32.377,98.33
				C2231.412,1461.539,2101.462,1559.837,2023.563,1519.248z"/>
			<path fill="#91B3FA" d="M2055.338,1546.229c-0.352,0-0.707-0.078-1.044-0.241c-1.192-0.579-1.689-2.013-1.111-3.205
				c78.064-160.859,100.955-347.472,101.178-349.337c0.157-1.316,1.352-2.257,2.665-2.099c1.315,0.156,2.254,1.35,2.098,2.665
				c-0.223,1.874-23.212,189.288-101.625,350.864C2057.083,1545.731,2056.229,1546.229,2055.338,1546.229z"/>
			<path fill="#DCE5FE" d="M2215.498,1241.773c-0.246,0-0.494-0.08-0.703-0.242c-0.5-0.39-0.589-1.109-0.2-1.608
				c24.641-31.629,51.95-79.146,42.119-125.908c-5.854-27.85-22.334-42.374-22.5-42.518c-0.479-0.414-0.53-1.138-0.116-1.616
				c0.414-0.479,1.139-0.531,1.616-0.116c0.701,0.605,17.231,15.18,23.244,43.778c5.525,26.285,2.628,69.792-42.555,127.788
				C2216.178,1241.62,2215.84,1241.773,2215.498,1241.773z"/>
			<path fill="#F0F0F0" d="M2018.254,1505.2c-0.366,0-0.725-0.174-0.946-0.498c-37.867-55.266-50.781-97.97-38.381-126.922
				c11.025-25.741,38.862-30.532,39.143-30.578c0.626-0.098,1.213,0.324,1.314,0.948c0.102,0.623-0.322,1.214-0.947,1.315
				c-0.267,0.043-26.902,4.66-37.414,29.245c-12.051,28.185,0.793,70.138,38.176,124.695c0.358,0.523,0.225,1.235-0.297,1.594
				C2018.703,1505.136,2018.477,1505.2,2018.254,1505.2z"/>
		</g>
	</g>
	<g>
		<g>
			<path fill="#7D97F4" d="M2010.688,740.099c-0.968-83.63,66.283-152.455,149.914-153.423c30.844-0.357,60.589,8.496,86.115,25.615
				l8.627-8.744c1.11-1.125,2.75-1.576,4.278-1.178c1.528,0.399,2.739,1.593,3.16,3.117l15.083,54.821
				c0.416,1.524-0.01,3.168-1.118,4.293c-1.112,1.125-2.751,1.576-4.28,1.176l-55.017-14.348c-1.528-0.398-2.74-1.594-3.159-3.121
				c-0.421-1.529,0.009-3.176,1.119-4.303l9.715-9.861c-19.345-11.697-41.489-17.731-64.177-17.468
				c-67.053,0.776-120.973,55.927-120.197,122.941c0.774,66.976,55.956,120.834,123.009,120.059
				c31.941-0.37,62.002-13.117,84.647-35.892c22.594-22.727,35.219-52.804,35.546-84.693c0.024-2.312,1.828-4.909,4.379-4.938
				l21.196-0.246c1.366-0.016,2.358,0.995,3.015,1.664l0.175,0.177c0.978,0.975,1.322,2.761,1.313,3.726
				c-0.285,39.852-15.975,77.421-44.179,105.784c-28.241,28.401-65.794,44.296-105.74,44.759
				C2080.48,890.98,2011.654,823.729,2010.688,740.099z M2274.74,661.469c-0.002-0.097-0.015-0.196-0.042-0.292l-15.083-54.821
				c-0.109-0.396-0.424-0.705-0.821-0.809c-0.398-0.104-0.824,0.014-1.112,0.307l-10.55,10.692l-1.132-0.774
				c-25.219-17.241-54.735-26.166-85.361-25.812c-81.819,0.946-147.614,68.282-146.668,150.101
				c0.947,81.819,68.282,147.614,150.102,146.667c39.081-0.451,75.82-16.003,103.45-43.789
				c27.595-27.751,42.945-64.505,43.224-103.493v-0.001c0.033-0.488-0.208-1.198-0.363-1.393l-0.183-0.185
				c-0.199-0.202-0.553-0.562-0.751-0.679l-21.078,0.244c-0.451,0.005-1.125,0.896-1.133,1.688
				c-0.338,32.75-13.302,63.638-36.503,86.975c-23.256,23.391-54.131,36.481-86.938,36.86
				c-68.863,0.797-125.535-54.517-126.331-123.304c-0.796-68.826,54.581-125.467,123.443-126.264
				c24.005-0.278,47.417,6.308,67.705,19.045l1.73,1.087l-12.597,12.788c-0.29,0.294-0.402,0.727-0.291,1.126
				c0.109,0.399,0.423,0.711,0.819,0.813l55.019,14.349c0.398,0.104,0.824-0.013,1.112-0.305
				C2274.626,662.072,2274.743,661.773,2274.74,661.469z"/>
		</g>
		<g>
			<path fill="#7D97F4" d="M2116.018,768.187h-43.704v-9.194l15.694-15.866c4.646-4.761,7.684-8.061,9.108-9.9
				c1.426-1.839,2.452-3.542,3.079-5.11c0.628-1.567,0.941-3.193,0.941-4.876c0-2.508-0.691-4.375-2.074-5.602
				c-1.384-1.226-3.229-1.838-5.538-1.838c-2.423,0-4.775,0.555-7.056,1.667c-2.282,1.112-4.662,2.693-7.142,4.746l-7.185-8.509
				c3.079-2.623,5.631-4.476,7.654-5.56c2.024-1.083,4.234-1.917,6.629-2.501c2.395-0.584,5.074-0.877,8.039-0.877
				c3.906,0,7.356,0.713,10.349,2.139c2.994,1.426,5.317,3.421,6.972,5.986c1.652,2.566,2.479,5.503,2.479,8.81
				c0,2.879-0.506,5.581-1.518,8.103c-1.013,2.523-2.58,5.111-4.704,7.762c-2.124,2.651-5.866,6.43-11.226,11.332l-8.039,7.57v0.598
				h27.239V768.187z"/>
			<path fill="#7D97F4" d="M2167.42,755.229h-7.526v12.958h-12.914v-12.958h-26.685v-9.194l27.412-40.37h12.187v39.3h7.526V755.229z
				 M2146.979,744.966V734.36c0-1.768,0.071-4.333,0.214-7.698c0.143-3.364,0.256-5.316,0.342-5.859h-0.342
				c-1.056,2.338-2.323,4.619-3.806,6.842l-11.461,17.32H2146.979z"/>
			<path fill="#7D97F4" d="M2204.539,705.666l-23.305,62.521h-11.847l23.307-62.521H2204.539z"/>
			<path fill="#7D97F4" d="M2214.675,768.187l23.478-51.317h-30.833v-11.119h44.859v8.297l-23.648,54.139H2214.675z"/>
		</g>
	</g>
	<g>
		<g>
			<path fill="#7D97F4" d="M385.043,835.627c-2.214,0-4.193-1.396-4.935-3.484l-7.307-20.643
				c-10.065-2.451-19.689-6.349-28.656-11.607l-19.618,9.758c-1.999,0.996-4.411,0.609-6.003-0.959l-20.266-19.936
				c-1.59-1.567-2.013-3.969-1.055-5.982l9.435-19.778c-5.403-8.878-9.458-18.436-12.075-28.461l-20.758-6.967
				c-2.112-0.706-3.547-2.681-3.566-4.915l-0.233-28.435c-0.02-2.229,1.381-4.229,3.483-4.975l20.643-7.309
				c2.453-10.065,6.351-19.689,11.607-28.656l-9.757-19.618c-0.996-1.995-0.612-4.409,0.957-6l19.938-20.268
				c1.562-1.591,3.969-2.016,5.982-1.054l19.777,9.435c8.879-5.404,18.437-9.46,28.46-12.076l6.969-20.76
				c0.712-2.114,2.689-3.546,4.918-3.563l28.432-0.234c0.014,0,0.027,0,0.041,0c2.215,0,4.194,1.397,4.934,3.488l7.308,20.64
				c10.063,2.451,19.687,6.35,28.655,11.606l19.618-9.759c1.998-0.986,4.406-0.606,5.997,0.953l20.273,19.944
				c1.591,1.563,2.014,3.968,1.052,5.982l-9.434,19.776c5.405,8.883,9.459,18.44,12.076,28.462l20.758,6.966
				c2.113,0.71,3.547,2.686,3.567,4.916l0.232,28.436c0.019,2.23-1.382,4.23-3.486,4.977l-20.64,7.305
				c-2.452,10.067-6.35,19.689-11.607,28.656l9.757,19.619c0.994,1.998,0.609,4.409-0.954,5.998l-19.941,20.271
				c-1.563,1.593-3.968,2.013-5.982,1.052l-19.777-9.435c-8.877,5.403-18.437,9.458-28.46,12.076l-6.968,20.759
				c-0.709,2.111-2.684,3.543-4.912,3.566l-28.438,0.232C385.071,835.627,385.057,835.627,385.043,835.627z M344.451,792.404
				l1.548,0.943c9.319,5.679,19.42,9.77,30.022,12.162l1.77,0.399l8.192,23.142l26.528-0.216l7.813-23.274l1.762-0.429
				c10.562-2.566,20.594-6.824,29.818-12.651l1.532-0.969l22.172,10.578l18.604-18.911l-10.939-21.996l0.943-1.549
				c5.677-9.318,9.768-19.418,12.16-30.022l0.399-1.767l23.141-8.192l-0.216-26.529l-23.275-7.812l-0.427-1.763
				c-2.564-10.557-6.82-20.59-12.651-29.818l-0.968-1.533l10.577-22.17l-18.911-18.605l-21.995,10.94l-1.548-0.942
				c-9.32-5.678-19.42-9.769-30.021-12.16l-1.769-0.4l-8.193-23.144l-26.527,0.218l-7.812,23.273l-1.763,0.428
				c-10.562,2.565-20.593,6.821-29.818,12.65l-1.532,0.969l-22.171-10.577l-18.603,18.91l10.938,21.996l-0.943,1.547
				c-5.676,9.319-9.768,19.42-12.16,30.023l-0.399,1.768l-23.141,8.194l0.216,26.527l23.274,7.812l0.427,1.763
				c2.566,10.562,6.823,20.595,12.651,29.818l0.968,1.533l-10.578,22.172l18.913,18.602L344.451,792.404z M373.641,606.445h0.017
				H373.641z M397.847,779.743c-18.979,0.001-36.855-7.316-50.402-20.642c-13.69-13.468-21.316-31.461-21.474-50.664
				s7.173-37.317,20.641-51.008c13.468-13.69,31.461-21.315,50.664-21.473c5.109-0.042,10.246,0.458,15.23,1.488
				c1.776,0.369,2.918,2.106,2.55,3.883c-0.367,1.777-2.107,2.906-3.881,2.552c-4.528-0.937-9.167-1.41-13.845-1.354
				c-17.449,0.143-33.798,7.071-46.035,19.511c-12.237,12.438-18.897,28.899-18.755,46.346c0.143,17.449,7.072,33.797,19.512,46.036
				c12.439,12.238,28.859,18.948,46.348,18.754c17.449-0.143,33.798-7.071,46.035-19.512c12.237-12.438,18.898-28.899,18.754-46.348
				c-0.097-11.844-3.393-23.415-9.531-33.465c-0.946-1.548-0.457-3.568,1.091-4.515c1.55-0.943,3.569-0.458,4.515,1.092
				c6.757,11.064,10.386,23.801,10.494,36.833c0.157,19.203-7.173,37.319-20.641,51.009c-13.467,13.691-31.459,21.317-50.664,21.474
				C398.251,779.743,398.047,779.743,397.847,779.743z"/>
			<path fill="#7D97F4" d="M398.202,735.929c-5.005,0-9.94-1.328-14.374-3.926c-6.576-3.852-11.257-10.035-13.184-17.41
				c-1.925-7.373-0.865-15.055,2.987-21.631c3.852-6.575,10.035-11.258,17.409-13.184l0,0c15.219-3.975,30.842,5.175,34.817,20.396
				c1.927,7.374,0.866,15.056-2.988,21.633c-3.852,6.575-10.034,11.258-17.408,13.184
				C403.058,735.617,400.622,735.929,398.202,735.929z M392.7,686.134c-5.676,1.482-10.436,5.085-13.401,10.148
				c-2.965,5.062-3.781,10.975-2.299,16.65c1.483,5.678,5.087,10.438,10.148,13.403c5.063,2.965,10.978,3.78,16.652,2.3
				c5.677-1.483,10.436-5.087,13.401-10.15c2.965-5.062,3.783-10.975,2.3-16.65C416.441,690.118,404.42,683.076,392.7,686.134
				L392.7,686.134z"/>
		</g>
		<g>
			<path fill="#7D97F4" d="M274.158,942.407c-1.059,0-2.084-0.497-2.737-1.384l-5.964-8.096c-4.742,0.227-9.48-0.205-14.119-1.275
				l-7.32,6.904c-1.055,0.996-2.627,1.213-3.913,0.537l-12.113-6.343c-1.282-0.669-2-2.083-1.785-3.519l1.509-9.953
				c-3.521-3.204-6.57-6.854-9.09-10.879l-10.051-0.293c-1.453-0.046-2.714-1.004-3.146-2.383l-4.079-13.055
				c-0.434-1.384,0.06-2.891,1.229-3.752l8.095-5.965c-0.221-4.74,0.207-9.479,1.276-14.117l-6.906-7.321
				c-0.994-1.052-1.211-2.624-0.54-3.909l6.347-12.117c0.676-1.287,2.096-2.004,3.527-1.781l9.943,1.506
				c3.206-3.521,6.856-6.57,10.879-9.089l0.293-10.05c0.041-1.447,0.997-2.711,2.379-3.147l13.059-4.08
				c1.376-0.436,2.886,0.058,3.75,1.226l5.966,8.097c4.741-0.218,9.48,0.209,14.119,1.276l7.32-6.903
				c1.053-0.995,2.622-1.208,3.905-0.544l12.121,6.35c1.284,0.67,2.003,2.088,1.784,3.523l-1.507,9.947
				c3.521,3.205,6.57,6.855,9.089,10.879l10.053,0.295c1.45,0.04,2.715,0.999,3.146,2.387l4.08,13.049
				c0.432,1.388-0.063,2.894-1.23,3.754l-8.095,5.964c0.221,4.741-0.206,9.479-1.276,14.119l6.905,7.319
				c0.994,1.049,1.212,2.622,0.54,3.908l-6.346,12.118c-0.677,1.284-2.084,2.005-3.518,1.783l-9.953-1.507
				c-3.206,3.52-6.856,6.568-10.88,9.088l-0.292,10.053c-0.041,1.444-0.997,2.708-2.379,3.145l-13.059,4.079
				C274.838,942.357,274.497,942.407,274.158,942.407z M273.706,937.55c-0.002,0-0.005,0.001-0.008,0.001L273.706,937.55z
				 M267.822,927.832l6.92,9.394l10.975-3.431l0.34-11.66l1.17-0.691c4.42-2.607,8.369-5.906,11.737-9.805l0.888-1.029l11.542,1.75
				l5.334-10.186l-8.01-8.492l0.339-1.316c1.287-4.987,1.75-10.111,1.376-15.23l-0.099-1.356l9.392-6.919l-3.431-10.976
				l-11.66-0.341l-0.691-1.17c-2.608-4.422-5.906-8.37-9.805-11.736l-1.029-0.889l1.75-11.541l-10.187-5.335l-8.491,8.009
				l-1.317-0.34c-4.987-1.287-10.109-1.752-15.23-1.376l-1.356,0.098l-6.918-9.39l-10.976,3.431l-0.341,11.661l-1.17,0.69
				c-4.418,2.606-8.367,5.905-11.736,9.804l-0.889,1.029l-11.542-1.749l-5.335,10.187l8.01,8.492l-0.339,1.316
				c-1.287,4.988-1.75,10.111-1.376,15.229l0.099,1.357l-9.392,6.918l3.43,10.977l11.661,0.338l0.691,1.173
				c2.607,4.42,5.906,8.368,9.804,11.736l1.029,0.889l-1.749,11.54l10.187,5.336l8.489-8.01l1.317,0.34
				c4.988,1.287,10.113,1.747,15.231,1.375L267.822,927.832z M242.39,934.729l0.002,0.002
				C242.392,934.73,242.391,934.73,242.39,934.729z M230.274,928.385l0.004,0.001C230.277,928.386,230.275,928.386,230.274,928.385z
				 M317.475,902.965c0.001,0.002,0.003,0.003,0.004,0.003L317.475,902.965z M315.973,856.844c0,0.002,0.001,0.004,0.002,0.006
				L315.973,856.844z M213.634,848.577c0.002,0,0.005,0,0.007,0H213.634z M295.826,832.711c0.001,0.002,0.003,0.002,0.004,0.004
				L295.826,832.711z M240.419,826.213v0.005C240.419,826.217,240.419,826.215,240.419,826.213z M237.957,826.145h0.016H237.957z
				 M252.406,823.547l-0.007,0.002C252.401,823.549,252.403,823.547,252.406,823.547z M262.961,916.283
				c-15.102,0.002-29.133-9.73-33.87-24.889c-5.833-18.662,4.605-38.592,23.269-44.426c2.418-0.754,4.908-1.251,7.402-1.479
				c1.342-0.109,2.552,0.875,2.676,2.23s-0.875,2.553-2.23,2.677c-2.148,0.194-4.294,0.624-6.379,1.273
				c-16.07,5.024-25.059,22.187-20.036,38.255c5.023,16.07,22.185,25.063,38.256,20.037c16.07-5.023,25.059-22.186,20.035-38.255
				c-1.652-5.286-4.697-10.014-8.806-13.674c-1.016-0.904-1.106-2.462-0.201-3.479c0.905-1.015,2.461-1.106,3.478-0.2
				c4.775,4.253,8.313,9.746,10.231,15.883c5.833,18.662-4.604,38.593-23.268,44.428
				C270.011,915.763,266.457,916.283,262.961,916.283z"/>
		</g>
	</g>
	<g>
		<linearGradient id="SVGID_2_" gradientUnits="userSpaceOnUse" x1="2116.7002" y1="1043.5957" x2="2226.7673" y2="1504.079">
			<stop  offset="0" style="stop-color:#4042E2"/>
			<stop  offset="1" style="stop-color:#4F52FF"/>
		</linearGradient>
		<path fill="url(#SVGID_2_)" d="M2185.979,1210.238c0,0-18.939,17.963-25.2,49.891c-6.261,31.929-21.129-45.136-21.129-45.136
			h-15.024c0,0-5.668,79.408,36.751,85.721c8.086,1.204,16.2-1.996,21.258-8.419c7.745-9.836,19.831-27.335,22.75-44.015
			C2202.881,1221.985,2185.979,1210.238,2185.979,1210.238z"/>
		
			<linearGradient id="SVGID_3_" gradientUnits="userSpaceOnUse" x1="2306.5654" y1="1672.0459" x2="2308.4224" y2="1616.3405" gradientTransform="matrix(1 0 0 1 -43.1104 0)">
			<stop  offset="0" style="stop-color:#4042E2"/>
			<stop  offset="1" style="stop-color:#4F52FF"/>
		</linearGradient>
		<path fill="url(#SVGID_3_)" d="M2282.21,1577.931c0.004-0.235-0.012-0.474-0.072-0.713c-3.554-14.087-18.082-21.308-18.082-21.308
			l-6.988,0.547c-4.018,12.417-6.609,18.479-5.964,21.869c0.018,0.096,0.047,0.187,0.072,0.278
			C2256.94,1579.12,2268.806,1579.456,2282.21,1577.931z"/>
		
			<linearGradient id="SVGID_4_" gradientUnits="userSpaceOnUse" x1="2372.75" y1="1529.4795" x2="2257.9785" y2="1619.5985" gradientTransform="matrix(1 0 0 1 -43.1104 0)">
			<stop  offset="0" style="stop-color:#09005D"/>
			<stop  offset="1" style="stop-color:#1A0F91"/>
		</linearGradient>
		<path fill="url(#SVGID_4_)" d="M2251.176,1578.604c0.312,1.133,1.147,2.015,2.218,2.239c8.2,1.725,21.234,0.337,26.706-0.379
			c1.207-0.158,2.09-1.274,2.11-2.534C2268.806,1579.456,2256.94,1579.12,2251.176,1578.604z"/>
		
			<linearGradient id="SVGID_5_" gradientUnits="userSpaceOnUse" x1="1133.144" y1="1530.8574" x2="1126.9141" y2="1585.2279" gradientTransform="matrix(-1 0 0 1 3394.3887 0)">
			<stop  offset="0" style="stop-color:#FF928E"/>
			<stop  offset="1" style="stop-color:#FEB3B1"/>
		</linearGradient>
		<path fill="url(#SVGID_5_)" d="M2269.811,1545.035l-3.061,14.729c-0.224,1.079-1.053,1.888-2.058,1.982
			c-1.229,0.115-2.98,0.183-4.741-0.076c-1.578-0.231-2.677-1.836-2.397-3.558l2.127-13.078H2269.811z"/>
		
			<linearGradient id="SVGID_6_" gradientUnits="userSpaceOnUse" x1="1238.9072" y1="1556.2266" x2="1127.9202" y2="1643.3739" gradientTransform="matrix(-1 0 0 1 3394.3887 0)">
			<stop  offset="0" style="stop-color:#09005D"/>
			<stop  offset="1" style="stop-color:#1A0F91"/>
		</linearGradient>
		<path fill="url(#SVGID_6_)" d="M2191.797,1578.482c7.464-0.209,11.324-1.088,13.32-1.903c0.004,0.741,0,1.497-0.023,2.28
			c-0.026,0.835-0.646,1.503-1.406,1.498l-40.98-0.266c-1.308-0.008-2.072-1.524-1.505-2.724
			C2166.575,1577.813,2180.26,1578.805,2191.797,1578.482z"/>
		
			<linearGradient id="SVGID_7_" gradientUnits="userSpaceOnUse" x1="1206.8994" y1="1706.5" x2="1208.7563" y2="1650.7917" gradientTransform="matrix(-1 0 0 1 3394.3887 0)">
			<stop  offset="0" style="stop-color:#4042E2"/>
			<stop  offset="1" style="stop-color:#4F52FF"/>
		</linearGradient>
		<path fill="url(#SVGID_7_)" d="M2161.202,1577.368c0.049-0.104,0.092-0.211,0.161-0.31c3.619-5.057,12.838-15.126,31.052-19.494
			l8.737-0.275c0,0,3.892,6.763,3.965,19.29c-1.996,0.815-5.856,1.694-13.32,1.903
			C2180.26,1578.805,2166.575,1577.813,2161.202,1577.368z"/>
		
			<linearGradient id="SVGID_8_" gradientUnits="userSpaceOnUse" x1="1198.77" y1="1537.8135" x2="1192.9425" y2="1588.6721" gradientTransform="matrix(-1 0 0 1 3394.3887 0)">
			<stop  offset="0" style="stop-color:#FF928E"/>
			<stop  offset="1" style="stop-color:#FEB3B1"/>
		</linearGradient>
		<path fill="url(#SVGID_8_)" d="M2202.773,1544.047c-0.098,0.651-1.295,10.55-1.759,14.389c-0.11,0.912-0.771,1.617-1.604,1.717
			c-1.487,0.179-3.896,0.34-6.002-0.092c-1.137-0.233-1.959-1.324-1.959-2.594v-15.539L2202.773,1544.047z"/>
		
			<linearGradient id="SVGID_9_" gradientUnits="userSpaceOnUse" x1="-649.0425" y1="1536.1885" x2="-642.0516" y2="1317.144" gradientTransform="matrix(-1 0 0 1 1582.5518 0)">
			<stop  offset="0" style="stop-color:#09005D"/>
			<stop  offset="1" style="stop-color:#1A0F91"/>
		</linearGradient>
		<path fill="url(#SVGID_9_)" d="M2263.972,1351.614c0,0,13.982,124.286,6.214,201.966c0,0-9.321,0-13.982-1.554
			c0,0-14.529-121.521-19.23-156.294c-0.177-1.311-2.049-1.37-2.306-0.073c-5.799,29.255-28.577,143.979-31.285,154.813
			c0,0-7.769,3.107-13.982,0c0,0,12.429-166.233,21.75-195.751L2263.972,1351.614z"/>
		<linearGradient id="SVGID_10_" gradientUnits="userSpaceOnUse" x1="2190.2441" y1="1026.0605" x2="2300.2974" y2="1486.4856">
			<stop  offset="0" style="stop-color:#4042E2"/>
			<stop  offset="1" style="stop-color:#4F52FF"/>
		</linearGradient>
		<path fill="url(#SVGID_10_)" d="M2291.936,1207.131c0,0-59.036-9.321-105.644,3.107l3.107,48.161c0,0,12.429,66.804,21.75,96.322
			c0,0,35.732,6.214,52.822-3.107c0,0,13.982-83.895,21.75-96.322C2285.722,1255.292,2293.489,1222.666,2291.936,1207.131z"/>
		<linearGradient id="SVGID_11_" gradientUnits="userSpaceOnUse" x1="2243.9922" y1="1152.6777" x2="2242.3865" y2="1224.4017">
			<stop  offset="0" style="stop-color:#FF928E"/>
			<stop  offset="1" style="stop-color:#FEB3B1"/>
		</linearGradient>
		<path fill="url(#SVGID_11_)" d="M2250.508,1156.428l6.297,48.024c0,0-16.431,7.547-27.936-0.325l2.477-28.067L2250.508,1156.428z"
			/>
		<linearGradient id="SVGID_12_" gradientUnits="userSpaceOnUse" x1="2231.5" y1="1016.2002" x2="2341.5527" y2="1476.624">
			<stop  offset="0" style="stop-color:#4042E2"/>
			<stop  offset="1" style="stop-color:#4F52FF"/>
		</linearGradient>
		<path fill="url(#SVGID_12_)" d="M2291.936,1207.131c0,0,91.661,99.43-16.313,137.492v-7.769c0,0,40.394-34.179,9.321-80.785
			C2284.944,1256.069,2288.828,1211.791,2291.936,1207.131z"/>
		
			<linearGradient id="SVGID_13_" gradientUnits="userSpaceOnUse" x1="-667.4546" y1="1328.751" x2="-717.1684" y2="1371.2147" gradientTransform="matrix(-1 0 0 1 1582.5518 0)">
			<stop  offset="0" style="stop-color:#FF928E"/>
			<stop  offset="1" style="stop-color:#FEB3B1"/>
		</linearGradient>
		<path fill="url(#SVGID_13_)" d="M2274.847,1337.632c0,0-13.982-9.321-20.197-6.215c-6.214,3.107-6.214,7.769-6.214,7.769
			s3.107,6.214,7.768,4.66c4.661-1.554,15.536,1.554,20.196,0C2276.399,1343.846,2277.954,1337.632,2274.847,1337.632z"/>
		<g>
			
				<linearGradient id="SVGID_14_" gradientUnits="userSpaceOnUse" x1="-6740.1553" y1="354.3276" x2="-6758.4072" y2="373.6188" gradientTransform="matrix(0.9577 0.2876 -0.3672 1.2229 8733.1621 2685.144)">
				<stop  offset="0" style="stop-color:#09005D"/>
				<stop  offset="1" style="stop-color:#1A0F91"/>
			</linearGradient>
			<path fill="url(#SVGID_14_)" d="M2123.699,1164.771l19.725,6.646c2.388,0.717,4.033,3.129,4.225,6.193l-1.024,32.915
				c0.319,5.149-3.931,9.689-7.945,8.484l-15.813-5.389c-1.539-0.462-2.562-2.077-2.578-4.075l-0.349-40.981
				C2119.92,1166.196,2121.875,1164.224,2123.699,1164.771z"/>
		</g>
		<linearGradient id="SVGID_15_" gradientUnits="userSpaceOnUse" x1="2120.9609" y1="1176.3945" x2="2123.0146" y2="1209.767">
			<stop  offset="0" style="stop-color:#FF928E"/>
			<stop  offset="1" style="stop-color:#FEB3B1"/>
		</linearGradient>
		<path fill="url(#SVGID_15_)" d="M2119.939,1207.131c0,0-6.173-19.778-3.035-23.109c3.139-3.332,9.391-12.521,9.809-5.009
			C2127.13,1186.525,2130.904,1218.971,2119.939,1207.131z"/>
		<g>
			<linearGradient id="SVGID_16_" gradientUnits="userSpaceOnUse" x1="2285.1572" y1="1148.8223" x2="2212.8989" y2="1167.556">
				<stop  offset="0" style="stop-color:#FF928E"/>
				<stop  offset="1" style="stop-color:#FEB3B1"/>
			</linearGradient>
			<path fill="url(#SVGID_16_)" d="M2214.362,1148.289c-0.092,0.57,6.922,38.132,6.922,38.132l21.361-4.461l-1.357-36.587
				C2241.288,1145.373,2215.903,1138.737,2214.362,1148.289z"/>
			
				<linearGradient id="SVGID_17_" gradientUnits="userSpaceOnUse" x1="-4784.9102" y1="-3094.2773" x2="-4732.5459" y2="-3094.2773" gradientTransform="matrix(-0.9872 -0.1593 -0.1593 0.9872 -2962.9341 3461.4263)">
				<stop  offset="0" style="stop-color:#09005D"/>
				<stop  offset="1" style="stop-color:#1A0F91"/>
			</linearGradient>
			<path fill="url(#SVGID_17_)" d="M2234.898,1151.328c0.831,0.505,1.38,1.359,1.491,2.326l2.191,18.927
				c0.033,0.288,0.029,0.573-0.018,0.858c-0.263,1.572-1.502,6.51-6.571,4.982c-4.319-1.303-8.307-2.439-11.241-1.916
				c-1.713,0.305-2.829,1.972-2.504,3.681c0.671,3.522,2.17,10.601,4.384,16.703c0.555,1.529,2.204,2.361,3.772,1.927
				c4.137-1.148,12.148-3.632,18.269-7.123c1.005-0.574,1.609-1.648,1.58-2.806c-0.127-5.091-0.426-19.362,0.109-23.404
				c0.497-3.755,5.038-5.976,7.198-6.828c0.819-0.323,1.463-0.966,1.784-1.787c0.964-2.461,2.025-7.562-4.346-9.916
				c-1.584-0.585-2.382-2.374-1.829-3.97c0.99-2.859,1.262-7.006-3.892-9.419c-5.217-2.444-9.241,0.071-11.553,2.346
				c-1.022,1.006-2.623,1.295-3.864,0.577c-0.553-0.32-1.24-0.426-2.06-0.024c-1.545,0.757-3.363,0.209-4.13-1.331
				c-1.315-2.642-3.947-5.362-9.162-4.56c-9.563,1.474-10.82,12.023-8.408,18.259c2.412,6.234,12.69,4.047,17.878,1.011
				C2227.79,1147.61,2232.609,1149.937,2234.898,1151.328z"/>
			
				<linearGradient id="SVGID_18_" gradientUnits="userSpaceOnUse" x1="-4814.646" y1="-3062.9526" x2="-4780.2178" y2="-3098.2749" gradientTransform="matrix(-0.9872 -0.1593 -0.1593 0.9872 -2962.9341 3461.4263)">
				<stop  offset="0" style="stop-color:#FF928E"/>
				<stop  offset="1" style="stop-color:#FEB3B1"/>
			</linearGradient>
			<path fill="url(#SVGID_18_)" d="M2246.071,1171.842c0,0-2.707-10.402,1.365-13.023c4.073-2.622,10.016-1.126,8.569,6.805
				C2254.206,1175.489,2246.071,1171.842,2246.071,1171.842z"/>
		</g>
		<path fill="#FFFFFF" d="M2204.307,1142.529c-0.125,0-0.246-0.071-0.302-0.191c-3.474-7.438,4.63-13.374,4.712-13.433
			c0.15-0.107,0.357-0.073,0.465,0.076c0.107,0.148,0.073,0.356-0.076,0.464c-0.078,0.057-7.736,5.676-4.498,12.61
			c0.078,0.167,0.006,0.365-0.161,0.442C2204.4,1142.52,2204.354,1142.529,2204.307,1142.529z"/>
	</g>
	<g>
		<g>
			<linearGradient id="SVGID_19_" gradientUnits="userSpaceOnUse" x1="468.6934" y1="1145.7861" x2="470.2995" y2="1568.1001">
				<stop  offset="0" style="stop-color:#09005D"/>
				<stop  offset="1" style="stop-color:#1A0F91"/>
			</linearGradient>
			<path fill="url(#SVGID_19_)" d="M590.564,1202.458c-0.056,59.696-0.513,265.604-4.085,338.495
				c-0.378,7.722-5.811,13.807-12.421,13.913c-32.694,0.527-152.519,1.046-205.892-2.76c-11.117-0.792-19.734-11.534-19.676-24.566
				c0.276-62.654,1.727-238.86,9.335-319.426c0.912-9.653,7.569-17.21,15.843-17.992c35.668-3.376,156.162-10.891,202.246-6.364
				C584.227,1184.574,590.574,1192.696,590.564,1202.458z"/>
			
				<linearGradient id="SVGID_20_" gradientUnits="userSpaceOnUse" x1="-5315.2334" y1="1247.2217" x2="-5809.9692" y2="1880.1111" gradientTransform="matrix(-0.9998 -0.0221 -0.0221 0.9998 -4875.7969 -93.2316)">
				<stop  offset="0" style="stop-color:#4042E2"/>
				<stop  offset="1" style="stop-color:#4F52FF"/>
			</linearGradient>
			<path fill="url(#SVGID_20_)" d="M575.583,1220.442c0.692,48.199,2.691,208.541-0.38,267.748
				c-0.449,8.654-6.438,15.527-13.843,15.87c-30.49,1.409-134.458,3.706-179.02-1.466c-8.023-0.932-14.165-8.678-14.39-18.111
				c-1.175-49.184-4.369-198.515-1.385-257.059c0.477-9.34,6.833-16.835,14.813-17.495c33.012-2.729,143.564-8.518,181.456-5.255
				C569.946,1205.287,575.464,1212.098,575.583,1220.442z"/>
			<linearGradient id="SVGID_21_" gradientUnits="userSpaceOnUse" x1="452.3828" y1="1194.0625" x2="497.4966" y2="1194.0625">
				<stop  offset="0" style="stop-color:#4042E2"/>
				<stop  offset="1" style="stop-color:#4F52FF"/>
			</linearGradient>
			<path fill="url(#SVGID_21_)" d="M497.496,1193.447L497.496,1193.447c-0.041,1.831-1.293,3.314-2.859,3.376
				c-7.726,0.302-29.491,1.157-39.219,1.602c-1.918,0.088-3.377-1.96-2.965-4.155l0.07-0.374c0.281-1.499,1.373-2.606,2.679-2.718
				c6.582-0.559,26.438-2.071,39.552-1.232C496.33,1190.046,497.537,1191.602,497.496,1193.447z"/>
		</g>
		<g>
			<linearGradient id="SVGID_22_" gradientUnits="userSpaceOnUse" x1="394.5005" y1="1354.8535" x2="547.6963" y2="1354.8535">
				<stop  offset="0" style="stop-color:#DAE3FE"/>
				<stop  offset="1" style="stop-color:#E9EFFD"/>
			</linearGradient>
			<circle fill="url(#SVGID_22_)" cx="471.098" cy="1354.854" r="76.598"/>
			<linearGradient id="SVGID_23_" gradientUnits="userSpaceOnUse" x1="423.4668" y1="1354.8525" x2="518.73" y2="1354.8525">
				<stop  offset="0" style="stop-color:#4042E2"/>
				<stop  offset="1" style="stop-color:#4F52FF"/>
			</linearGradient>
			<path fill="url(#SVGID_23_)" d="M518.215,1374.876c-1.156-4.093-4.154-7.413-8.107-8.981l-5.509-2.185
				c-4.434-1.757-9.497-0.326-12.354,3.492l-4.906,6.556c-7.704,0.221-16.596-2.648-24.484-8.552
				c-7.412-5.548-12.513-12.696-14.727-19.714c-0.031-0.101,0.005-0.209,0.091-0.269s0.201-0.057,0.283,0.008l4.423-5.91
				c3.289-4.396,3.199-10.456-0.221-14.751l-3.661-4.603c-2.665-3.351-6.732-5.275-11.013-5.213
				c-4.28,0.063-8.29,2.108-10.854,5.535c-1.33,1.776-2.302,3.773-2.905,5.935c-4.059,14.354,7.498,36.053,28.827,52.017
				c21.309,15.947,45.379,20.927,58.008,13.004c1.911-1.198,3.563-2.687,4.9-4.474
				C518.555,1383.366,519.372,1378.969,518.215,1374.876z"/>
		</g>
		<g>
			<linearGradient id="SVGID_24_" gradientUnits="userSpaceOnUse" x1="356.3726" y1="1509.4023" x2="380.771" y2="1509.4023">
				<stop  offset="0" style="stop-color:#4042E2"/>
				<stop  offset="1" style="stop-color:#4F52FF"/>
			</linearGradient>
			<path fill="url(#SVGID_24_)" d="M379.935,1541.502c-12.894,0-23.562-10.489-23.562-23.385v-39.965
				c0-0.47,0.354-0.851,0.823-0.851s0.823,0.381,0.823,0.851v39.965c0,11.957,9.933,21.685,21.889,21.685
				c0.47,0,0.864,0.381,0.864,0.85C380.771,1541.121,380.404,1541.502,379.935,1541.502z"/>
		</g>
	</g>
	<g>
		<g>
			
				<linearGradient id="SVGID_25_" gradientUnits="userSpaceOnUse" x1="1498.1475" y1="1535.6865" x2="1345.1561" y2="1702.0983" gradientTransform="matrix(1 0 0 1 -1198.5293 0)">
				<stop  offset="0" style="stop-color:#09005D"/>
				<stop  offset="1" style="stop-color:#1A0F91"/>
			</linearGradient>
			<path fill="url(#SVGID_25_)" d="M251.258,1548.084c0,0-1.585,8.97-2.361,17.849c-0.304,3.47,2.372,6.483,5.852,6.628
				c11.824,0.493,37.116,1.45,46.192,1.045c1.364-0.061,2.256-1.457,1.752-2.726l0,0c-0.424-1.064-1.24-1.924-2.279-2.402
				l-41.778-19.2L251.258,1548.084z"/>
			
				<linearGradient id="SVGID_26_" gradientUnits="userSpaceOnUse" x1="1448.4893" y1="1548.0469" x2="1462.0781" y2="1548.0469" gradientTransform="matrix(1 0 0 1 -1198.5293 0)">
				<stop  offset="0" style="stop-color:#FF928E"/>
				<stop  offset="1" style="stop-color:#FEB3B1"/>
			</linearGradient>
			<path fill="url(#SVGID_26_)" d="M249.959,1542.814l1.273,10.729c0,0,7.318,3.407,12.316-0.43l-3.031-11.956L249.959,1542.814z"/>
			
				<linearGradient id="SVGID_27_" gradientUnits="userSpaceOnUse" x1="1423.8701" y1="1535.9639" x2="1453.8981" y2="1361.5157" gradientTransform="matrix(1 0 0 1 -1198.5293 0)">
				<stop  offset="0" style="stop-color:#09005D"/>
				<stop  offset="1" style="stop-color:#1A0F91"/>
			</linearGradient>
			<path fill="url(#SVGID_27_)" d="M250.916,1341.108c-0.55,2.802-2.951,139.814,11.694,201.216
				c0.239,1.002-0.269,2.034-1.222,2.423c-2.247,0.919-6.65,2.247-11.928,2.425c-1.634,0.055-3.1-1.008-3.561-2.576
				c-4.187-14.246-24.247-85.621-26.864-153.805c-2.924-76.188,0-2.594,0-2.594l1.715-47.095L250.916,1341.108z"/>
			
				<linearGradient id="SVGID_28_" gradientUnits="userSpaceOnUse" x1="1463.8252" y1="1504.1348" x2="1310.8368" y2="1670.5432" gradientTransform="matrix(1 0 0 1 -1198.5293 0)">
				<stop  offset="0" style="stop-color:#09005D"/>
				<stop  offset="1" style="stop-color:#1A0F91"/>
			</linearGradient>
			<path fill="url(#SVGID_28_)" d="M203.199,1552.764c0,0-2.522,4.528-4.964,16.561c-0.441,2.173,1.078,4.253,3.284,4.47
				c3.904,0.384,9.915,0.877,14.73,0.845c2.219-0.016,3.951-1.948,3.684-4.151c-0.533-4.393-2.195-11.599-7.328-17.214
				L203.199,1552.764z"/>
			
				<linearGradient id="SVGID_29_" gradientUnits="userSpaceOnUse" x1="1399.5127" y1="1547.3506" x2="1411.2461" y2="1547.3506" gradientTransform="matrix(1 0 0 1 -1198.5293 0)">
				<stop  offset="0" style="stop-color:#FF928E"/>
				<stop  offset="1" style="stop-color:#FEB3B1"/>
			</linearGradient>
			<path fill="url(#SVGID_29_)" d="M200.983,1538.964l2.975,16.225c0,0,2.94,2.188,8.759,0.602l-1.42-17.456L200.983,1538.964z"/>
			
				<linearGradient id="SVGID_30_" gradientUnits="userSpaceOnUse" x1="1389.915" y1="1530.1191" x2="1419.9431" y2="1355.6707" gradientTransform="matrix(1 0 0 1 -1198.5293 0)">
				<stop  offset="0" style="stop-color:#09005D"/>
				<stop  offset="1" style="stop-color:#1A0F91"/>
			</linearGradient>
			<path fill="url(#SVGID_30_)" d="M192.948,1345.313c-11.979,72.29,2.598,178.669,7.514,199.49c0.301,1.274,1.33,2.252,2.622,2.466
				c2.194,0.364,5.807,0.661,9.369-0.374c1.227-0.356,2.089-1.463,2.14-2.74c0.66-16.833-0.528-120.173,10.633-161.013
				c0.566-2.07,1.83-3.875,3.579-5.119l21.663-15.399l1.661-24.894L192.948,1345.313z"/>
			<g>
				
					<linearGradient id="SVGID_31_" gradientUnits="userSpaceOnUse" x1="1261.9424" y1="1584.4238" x2="1146.3279" y2="1797.9897" gradientTransform="matrix(1 0 0 1 -1198.5293 0)">
					<stop  offset="0" style="stop-color:#FE7062"/>
					<stop  offset="1" style="stop-color:#FF928E"/>
				</linearGradient>
				<path fill="url(#SVGID_31_)" d="M269.273,1208.338c-35.896-0.593-75.504,9.425-75.504,9.425
					c-10.7,62.435-1.871,134.448-1.871,134.448c27.79,7.288,59.139-4.456,59.139-4.456c4.619-26.096,26.169-99.538,26.169-99.538
					c17.539-2.177,31.987-7.237,43.885-13.928c-9.076-10.521-13.354-23.906-15.212-31.819
					C293.188,1206.414,280.346,1208.521,269.273,1208.338z"/>
				
					<linearGradient id="SVGID_32_" gradientUnits="userSpaceOnUse" x1="1504.4092" y1="1193.5166" x2="1573.835" y2="1193.5166" gradientTransform="matrix(1 0 0 1 -1198.5293 0)">
					<stop  offset="0" style="stop-color:#FF928E"/>
					<stop  offset="1" style="stop-color:#FEB3B1"/>
				</linearGradient>
				<path fill="url(#SVGID_32_)" d="M375.306,1155.464c-3.526-4.259-7.989-2.243-7.989-2.243
					c-5.282,22.313-32.98,40.405-61.437,49.249c1.858,7.913,6.137,21.299,15.212,31.819
					C368.317,1207.736,375.306,1155.464,375.306,1155.464z"/>
			</g>
			<g>
				
					<linearGradient id="SVGID_33_" gradientUnits="userSpaceOnUse" x1="7653.4082" y1="1181.8789" x2="7699.9946" y2="1287.8738" gradientTransform="matrix(-1 0 0 1 8013.248 0)">
					<stop  offset="0" style="stop-color:#FF928E"/>
					<stop  offset="1" style="stop-color:#FEB3B1"/>
				</linearGradient>
				<path fill="url(#SVGID_33_)" d="M374.45,1156.547c0.369,1.174-3.904,2.959-6.419-1.838c-0.088-2.3-1.486-12.149-0.113-14.022
					c7.317-9.976,21.504-22.481,21.504-22.481c2.397,2.366,0.422,4.69,0.422,4.69l-6.882,7.169c1.44,2.601,3.195,4.797,4.018,7.943
					c0.624,2.383,0.242,4.93-0.961,7.099c-1.208,2.176-2.856,5.005-4.415,7.219C378.655,1156.516,374.45,1156.547,374.45,1156.547z"
					/>
				<linearGradient id="SVGID_34_" gradientUnits="userSpaceOnUse" x1="316.0005" y1="1213.7705" x2="417.1608" y2="1098.1586">
					<stop  offset="0" style="stop-color:#FF928E"/>
					<stop  offset="1" style="stop-color:#FEB3B1"/>
				</linearGradient>
				<path fill="url(#SVGID_34_)" d="M379.952,1134.717l-6.271,5.315l-1.969,5.293l5.591,6.204c0,0,1.88-10.503,3.277-12.776
					C381.978,1136.479,381.253,1135.382,379.952,1134.717z"/>
			</g>
			
				<linearGradient id="SVGID_35_" gradientUnits="userSpaceOnUse" x1="1216.5044" y1="1559.835" x2="1100.8871" y2="1773.4061" gradientTransform="matrix(1 0 0 1 -1198.5293 0)">
				<stop  offset="0" style="stop-color:#FE7062"/>
				<stop  offset="1" style="stop-color:#FF928E"/>
			</linearGradient>
			<path fill="url(#SVGID_35_)" d="M207.538,1252.521l-13.768-34.759c0,0-33.529,22.782-39.044,51.668
				c6.336,0.466,16.957,2.219,28.241,7.917C188.06,1265.89,207.538,1252.521,207.538,1252.521z"/>
			<linearGradient id="SVGID_36_" gradientUnits="userSpaceOnUse" x1="238.833" y1="1195.9023" x2="224.381" y2="1305.0959">
				<stop  offset="0" style="stop-color:#FF928E"/>
				<stop  offset="1" style="stop-color:#FEB3B1"/>
			</linearGradient>
			<path fill="url(#SVGID_36_)" d="M232.914,1179.195l-11.422,33.031c-0.189,0.547,0.036,1.153,0.542,1.434
				c3.113,1.721,14.331,6.697,27.848-1.873c1.409-0.894,2.367-2.35,2.582-4.003l3.698-28.589H232.914z"/>
			<g>
				
					<linearGradient id="SVGID_37_" gradientUnits="userSpaceOnUse" x1="-3611.8027" y1="1551.1689" x2="-3659.9761" y2="1462.0483" gradientTransform="matrix(0.746 -0.6659 0.6659 0.746 4456.7109 -1476.3188)">
					<stop  offset="0" style="stop-color:#FF928E"/>
					<stop  offset="1" style="stop-color:#FEB3B1"/>
				</linearGradient>
				<path fill="url(#SVGID_37_)" d="M257.766,1148.608c0,0,12.542,23.609,10.935,33.146c-1.607,9.536-17.152,8.852-30.726,1.106
					l-9.485-25.493L257.766,1148.608z"/>
				
					<linearGradient id="SVGID_38_" gradientUnits="userSpaceOnUse" x1="-2551.0044" y1="-3528.1416" x2="-2444.2644" y2="-3650.0032" gradientTransform="matrix(0.746 -0.6659 0.6659 0.746 4456.7109 -1476.3188)">
					<stop  offset="0" style="stop-color:#09005D"/>
					<stop  offset="1" style="stop-color:#1A0F91"/>
				</linearGradient>
				<path fill="url(#SVGID_38_)" d="M238.574,1170.342c0.552-0.244,0.755-0.92,0.425-1.425c-1.004-1.535-2.888-4.666-3.489-7.408
					c0,0-2.255-1.444,5.739-3.357c7.993-1.913,19.914-4.883,22.419-11.687c2.443-6.634-3.975-23.316-14.215-10.023
					c-0.39,0.505-1.153,0.517-1.542,0.01c-1.679-2.184-6.092-6.719-12.219-3.97c-5.734,2.572-6.38,6.774-6.301,8.892
					c0.023,0.623-0.533,1.107-1.146,0.991c-2.899-0.553-9.856-1.028-13.103,6.108c-2.675,5.878-0.937,9.206,0.647,10.834
					c0.513,0.526,0.288,1.396-0.416,1.61c-1.905,0.583-4.365,2.198-4.119,6.662c0.34,6.171,7.24,5.628,9.205,5.347
					c0.322-0.047,0.646,0.063,0.864,0.306c1.684,1.863,9.273,9.777,17.486,10.732c0.711,0.082,1.263-0.62,1.029-1.297l-3.554-10.333
					c-0.165-0.479,0.064-1.006,0.528-1.211L238.574,1170.342z"/>
				
					<linearGradient id="SVGID_39_" gradientUnits="userSpaceOnUse" x1="-3621.2236" y1="1556.1113" x2="-3669.3945" y2="1466.9951" gradientTransform="matrix(0.746 -0.6659 0.6659 0.746 4456.7109 -1476.3188)">
					<stop  offset="0" style="stop-color:#FF928E"/>
					<stop  offset="1" style="stop-color:#FEB3B1"/>
				</linearGradient>
				<path fill="url(#SVGID_39_)" d="M240.003,1171.809c0,0-8.93-6.127-9.583-0.968c-0.652,5.16,8.041,7.474,12.348,5.55
					L240.003,1171.809z"/>
			</g>
			
				<linearGradient id="SVGID_40_" gradientUnits="userSpaceOnUse" x1="1424.2012" y1="1340.9814" x2="1352.6831" y2="1283.767" gradientTransform="matrix(1 0 0 1 -1198.5293 0)">
				<stop  offset="0" style="stop-color:#FF928E"/>
				<stop  offset="1" style="stop-color:#FEB3B1"/>
			</linearGradient>
			<path fill="url(#SVGID_40_)" d="M154.958,1269.709c0,0-22.917,52.198,33.102,59.837l7.639-6.365c0,0-28.009-15.278-12.731-45.833
				C182.967,1277.348,166.416,1263.343,154.958,1269.709z"/>
		</g>
		<g>
			<g>
				
					<linearGradient id="SVGID_41_" gradientUnits="userSpaceOnUse" x1="-8549.2021" y1="888.0586" x2="-8567.4541" y2="907.3495" gradientTransform="matrix(0.9577 0.2876 -0.3672 1.2229 8733.1621 2685.144)">
					<stop  offset="0" style="stop-color:#09005D"/>
					<stop  offset="1" style="stop-color:#1A0F91"/>
				</linearGradient>
				<path fill="url(#SVGID_41_)" d="M195.19,1297.189l19.724,6.645c2.388,0.718,4.034,3.13,4.225,6.194l-1.024,32.915
					c0.32,5.149-3.93,9.688-7.944,8.483l-15.813-5.388c-1.539-0.462-2.562-2.078-2.579-4.075l-0.349-40.982
					C191.409,1298.614,193.365,1296.642,195.19,1297.189z"/>
			</g>
			<linearGradient id="SVGID_42_" gradientUnits="userSpaceOnUse" x1="200.5869" y1="1315.4912" x2="187.3323" y2="1325.3885">
				<stop  offset="0" style="stop-color:#FF928E"/>
				<stop  offset="1" style="stop-color:#FEB3B1"/>
			</linearGradient>
			<path fill="url(#SVGID_42_)" d="M190.088,1336.212c-0.533-0.589-4.22-7.336-3.27-16.361c0.95-9.026-0.809-13.1,3.396-12.749
				c4.204,0.35,7.688,1.059,7.213,5.498C196.952,1317.038,198.276,1345.265,190.088,1336.212z"/>
		</g>
	</g>
</g>
</svg>
