<?xml version="1.0" encoding="utf-8"?>
<!-- Generator: Adobe Illustrator 16.0.3, SVG Export Plug-In . SVG Version: 6.00 Build 0)  -->
<!DOCTYPE svg PUBLIC "-//W3C//DTD SVG 1.1//EN" "http://www.w3.org/Graphics/SVG/1.1/DTD/svg11.dtd">
<svg version="1.1" xmlns="http://www.w3.org/2000/svg" xmlns:xlink="http://www.w3.org/1999/xlink" x="0px" y="0px"
	 width="2926.146px" height="2980.136px" viewBox="0 0 2926.146 2980.136" enable-background="new 0 0 2926.146 2980.136"
	 xml:space="preserve">
<g id="Background">
</g>
<g id="Illustration">
	<g>
		<linearGradient id="SVGID_1_" gradientUnits="userSpaceOnUse" x1="3195.9297" y1="3712.5166" x2="731.2694" y2="651.5629">
			<stop  offset="0" style="stop-color:#DAE3FE"/>
			<stop  offset="1" style="stop-color:#E9EFFD"/>
		</linearGradient>
		<path fill="url(#SVGID_1_)" d="M2517.887,2505.388c-56.613,59.599-110.179,98.034-152.5,128.399
			c-497.48,356.948-1086.132,252.9-1211.237,227.49c-184.741-37.522-541.841-110.051-800.018-413.662
			c-390.6-459.338-329.778-1183.012-26.802-1660.719c55.419-87.381,348.159-572.364,943.15-650.141
			c360.083-47.069,779.823,47.864,1083.788,302.526C2992.316,973.84,2946.895,2053.742,2517.887,2505.388z"/>
		<g>
			<path fill="#91B3FA" d="M1965.215,2801.411c-4.791-0.652-9.08-3.178-11.962-7.062c-41.989-56.588-347.306-499.437,59.029-904.237
				c385.739-384.282,560.592-463.185,583.847-688.968c2.715-26.367,38.361-32.695,50.089-8.925
				c87.649,177.648,224.209,592.19-227.706,864.277c-498.512,300.141-457.656,629.157-433.548,722.656
				C1988.15,2791.512,1977.861,2803.132,1965.215,2801.411L1965.215,2801.411z"/>
			<path fill="#91B3FA" d="M2027.041,2809.826c-11.343-1.544-20.33-10.291-22.078-21.604
				c-11.901-77.007-41.125-364.763,170.867-441.07c233.373-84.002,421.781,133.343,593.328-36.772
				c9.025-8.951,24.203-1.151,22.049,11.377c-15.277,88.863-83.279,294.691-385.857,336.106
				c-323.863,44.329-360.308,81.481-353.769,127.57C2053.598,2799.641,2041.262,2811.762,2027.041,2809.826L2027.041,2809.826z"/>
			<path opacity="0.47" fill="#FFFFFF" d="M2584.848,1431.342c-3.955,16.753-9.217,32.468-15.494,48.072
				c-6.164,15.585-13.262,30.784-21,45.653c-15.322,29.843-33.709,58.071-53.839,84.964
				c-40.533,53.653-89.572,100.782-143.624,140.749c-26.957,19.868-55.775,38.13-84.266,54.63
				c-27.736,16.088-54.426,34.088-79.989,53.581c-51.165,38.979-97.553,84.212-138.521,133.805
				c-81.614,99.264-139.537,219.056-158.604,346.599c-9.731,63.625-9.847,128.771-1.085,192.927
				c8.662,64.238,26.973,127.143,51.117,187.792c1.305,3.233-0.257,6.911-3.49,8.216c-3.105,1.255-6.646-0.184-8.076-3.162
				c-28.232-59.935-49.328-123.652-61.006-189.445c-5.969-32.861-9.501-66.238-10.509-99.744c-0.804-33.5,0.607-67.14,4.83-100.472
				c8.112-66.736,26.938-132.109,54.05-193.647c27.191-61.568,63.111-119.076,105.07-171.534
				c41.943-52.532,90.607-99.53,143.818-140.591c26.658-20.484,54.533-39.436,83.629-56.459
				c28.484-16.347,55.525-32.953,81.717-51.855c52.278-37.34,100.588-80.447,142.148-129.644
				c21.043-24.382,40.093-50.479,57.5-77.685c17.063-27.26,33.011-56.021,44.488-85.761l0.148-0.386
				c1.145-2.97,4.482-4.447,7.451-3.301C2584.033,1425.691,2585.502,1428.581,2584.848,1431.342z"/>
			<path opacity="0.47" fill="#FFFFFF" d="M2013.597,2757.601c0.989-2.786,0.681-5.378,0.59-8.042l-0.246-7.936l-0.185-15.865
				c0.019-10.574,0.246-21.146,0.708-31.712c0.94-21.128,2.741-42.231,5.567-63.23c5.764-41.927,15.265-83.734,32.189-123.109
				c16.735-39.103,42.08-76.474,78.865-100.889c18.324-11.985,38.994-20.521,60.416-24.855c21.405-4.511,43.398-5.181,64.909-3.292
				c84.306,9.777,166.939,25.941,249.79,39.066c41.27,6.152,83.12,11.646,123.637,6.105c10.068-1.476,19.988-3.674,29.625-6.77
				c9.535-3.327,18.905-7.227,27.658-12.355c17.62-10.061,33.111-23.813,46.955-39.075l0.043-0.046
				c1.908-2.103,5.156-2.262,7.258-0.354c2.074,1.88,2.254,5.071,0.43,7.177c-14.029,16.153-30.061,31.084-48.795,42.327
				c-9.303,5.715-19.338,10.171-29.573,13.973c-10.327,3.572-20.947,6.159-31.66,7.96c-43.15,6.321-85.927,0.945-127.669-4.776
				c-41.863-5.957-83.198-13.718-124.68-20.431c-41.352-6.731-83.187-13.237-124.367-18.066c-20.329-1.969-40.885-1.49-60.703,2.508
				c-19.853,3.834-38.829,11.496-55.809,22.371c-34.227,21.795-59.063,56.479-75.926,94.023
				c-17.061,37.731-27.197,78.584-33.626,119.801c-3.167,20.648-5.331,41.474-6.644,62.357c-0.648,10.441-1.067,20.9-1.275,31.363
				l-0.105,15.689l0.1,7.836c0.068,2.594-0.051,5.259,1.227,7.723c1.212,2.341,0.299,5.22-2.039,6.433
				c-2.34,1.213-5.221,0.3-6.434-2.039c-0.629-1.217-0.685-2.581-0.264-3.779L2013.597,2757.601z"/>
		</g>
		<g>
			<g>
				<linearGradient id="SVGID_2_" gradientUnits="userSpaceOnUse" x1="4973.3916" y1="-1803.2686" x2="-177.2273" y2="2586.9204">
					<stop  offset="0" style="stop-color:#E1473D"/>
					<stop  offset="1" style="stop-color:#E9605A"/>
				</linearGradient>
				<path fill="url(#SVGID_2_)" d="M1573.114,126.796c-127.017-1.001-255.137,19.141-368.489,66.172
					C940.761,302.45,716.829,592.138,804.461,888.038c28.468,96.123,13.512,202.169,109.271,243.942
					c51.812,22.602,192.908,36.055,246.556,18.244c142.587-47.341,236.311-176.908,158.763-320.591
					c-24.834-46.013-56.977-88.046-78.421-135.733c-21.445-47.687-31.218-104.288-9.355-151.789
					c42.917-93.235,185.486-122.875,277.941-120.078c109.123,3.301,208,57.275,266.724,149.866
					c73.187,115.397,91.728,255.756,81.017,389.707c-11.461,143.331-71.896,252.787-162.466,362.742
					c-77.977,94.666-163.847,185.535-215.673,296.692c-47.579,102.049-63.127,215.119-65.276,326.762
					c-0.417,21.638-108.028,225.559-107.566,287.856c0.065,8.801,122.05,37.958,130.851,38.056
					c45.927,0.514,176.013,1.969,223.892,2.503c9.848,0.11,17.963-7.76,18.074-17.606c3.408-303.094,96.637-592.06,332.637-795.62
					c85.873-74.069,178.354-134.385,245.126-227.875c95.171-133.25,142.122-264.386,128.572-428.839
					c-12.376-150.196-61.831-300.473-159.734-417.007c-105.226-125.251-259.235-203.467-419.302-237.221
					C1731.445,136.307,1652.495,127.422,1573.114,126.796z"/>
				<linearGradient id="SVGID_3_" gradientUnits="userSpaceOnUse" x1="5724.623" y1="-921.9204" x2="573.9944" y2="3468.2766">
					<stop  offset="0" style="stop-color:#E1473D"/>
					<stop  offset="1" style="stop-color:#E9605A"/>
				</linearGradient>
				<path fill="url(#SVGID_3_)" d="M1807.345,2615.989c0,139.376-77.256,262.685-216.632,262.685
					c-30.107,0-132.512,0.277-159.284-9.395c-97.161-35.102-97.51-109.746-97.51-219.014c0-139.376,47.064-276.45,186.439-276.45
					C1659.734,2373.815,1807.345,2476.613,1807.345,2615.989z"/>
			</g>
			<g>
				<linearGradient id="SVGID_4_" gradientUnits="userSpaceOnUse" x1="165.064" y1="2375.665" x2="4636.3677" y2="-2359.2563">
					<stop  offset="0" style="stop-color:#FF928E"/>
					<stop  offset="1" style="stop-color:#FE7062"/>
				</linearGradient>
				<path fill="url(#SVGID_4_)" d="M1452.424,95.036c-127.017-1.002-255.137,19.141-368.489,66.172
					c-263.864,109.481-487.797,399.17-400.164,695.069c28.468,96.123,94.29,217.12,190.048,258.893
					c51.812,22.602,112.13,21.104,165.778,3.292c142.587-47.341,236.311-176.908,158.763-320.59
					c-24.834-46.013-56.977-88.047-78.422-135.733c-21.445-47.687-31.218-104.289-9.355-151.789
					c42.917-93.236,185.486-122.875,277.94-120.079c109.124,3.302,208.001,57.275,266.724,149.866
					c73.188,115.397,91.729,255.756,81.018,389.707c-11.462,143.332-71.896,252.787-162.467,362.742
					c-77.976,94.665-163.846,185.535-215.672,296.692c-47.579,102.048-63.127,215.119-65.276,326.761
					c-0.417,21.638,6.868,247.604,7.33,309.903c0.065,8.801,7.154,15.911,15.955,16.01c45.926,0.514,176.013,1.968,223.892,2.502
					c9.847,0.11,17.963-7.76,18.074-17.605c3.408-303.095,96.636-592.061,332.636-795.621
					c85.873-74.069,178.354-134.385,245.126-227.875c95.172-133.251,142.123-264.386,128.572-428.839
					c-12.375-150.196-61.831-300.474-159.733-417.008c-105.226-125.25-259.235-203.467-419.302-237.22
					C1610.756,104.546,1531.805,95.662,1452.424,95.036z"/>
				<linearGradient id="SVGID_5_" gradientUnits="userSpaceOnUse" x1="1983.2969" y1="2046.4395" x2="969.5453" y2="3166.6345">
					<stop  offset="0" style="stop-color:#FF928E"/>
					<stop  offset="1" style="stop-color:#FE7062"/>
				</linearGradient>
				<circle fill="url(#SVGID_5_)" cx="1465.59" cy="2618.505" r="252.362"/>
			</g>
			<path opacity="0.63" fill="#FFFFFF" d="M767.305,827.292c-1.485,0-2.825-1.028-3.158-2.54
				c-17.685-79.853-20.283-204.902,67.781-347.156c85.952-138.845,206.519-231.748,358.354-276.131
				c162.307-47.439,355.005-37.284,572.761,30.188c1.709,0.529,2.666,2.345,2.135,4.052c-0.527,1.708-2.355,2.668-4.049,2.135
				c-418.344-129.629-746.381-43.268-923.697,243.165c-86.916,140.402-84.388,263.666-66.963,342.347
				c0.386,1.746-0.716,3.475-2.462,3.861C767.773,827.267,767.536,827.292,767.305,827.292z"/>
			<path opacity="0.63" fill="#FFFFFF" d="M820.39,955.772c-1,0-1.983-0.46-2.617-1.328c-0.766-1.048-18.953-26.175-35.866-70.43
				c-0.637-1.672,0.198-3.543,1.871-4.182c1.66-0.635,3.541,0.195,4.181,1.868c16.577,43.377,34.859,68.672,35.044,68.923
				c1.053,1.444,0.736,3.47-0.706,4.524C821.72,955.569,821.05,955.772,820.39,955.772z"/>
			<path opacity="0.63" fill="#FFFFFF" d="M1550.033,2454.939c-0.492,0-0.994-0.112-1.463-0.352
				c-25.859-13.117-53.778-19.767-82.981-19.767c-1.789,0-3.237-1.45-3.237-3.239c0-1.788,1.449-3.238,3.237-3.238
				c30.229,0,59.136,6.887,85.912,20.469c1.595,0.809,2.231,2.757,1.423,4.353
				C1552.353,2454.291,1551.214,2454.939,1550.033,2454.939z"/>
			<path opacity="0.63" fill="#FFFFFF" d="M1361.077,2776.743c-0.624,0-1.254-0.18-1.809-0.556
				c-52.499-35.467-83.839-94.414-83.839-157.683c0-70.144,38.417-134.368,100.254-167.606c1.574-0.85,3.538-0.258,4.386,1.32
				c0.848,1.575,0.257,3.539-1.317,4.386c-59.739,32.108-96.849,94.144-96.849,161.9c0,61.115,30.278,118.056,80.988,152.316
				c1.482,1.001,1.875,3.015,0.871,4.496C1363.14,2776.243,1362.117,2776.743,1361.077,2776.743z"/>
		</g>
		<g>
			<g>
				<g opacity="0.3">
					<path fill="#91B3FA" d="M626.106,567.135c-2.654,3.279-7.465,3.784-10.742,1.129c-6.369-5.156-13.056-10.114-19.877-14.733
						c-3.451-2.337-4.383-7.002-2.122-10.481c0.027-0.041,0.054-0.083,0.082-0.125c2.365-3.492,7.114-4.405,10.607-2.039
						c7.179,4.862,14.219,10.08,20.923,15.509c3.066,2.481,3.706,6.852,1.602,10.088
						C626.435,566.706,626.278,566.925,626.106,567.135z M560.746,533.324c-7.383-3.645-14.992-7.008-22.622-9.999
						c-3.924-1.538-5.862-5.969-4.324-9.897c1.558-3.936,5.972-5.862,9.899-4.322c8.027,3.146,16.037,6.686,23.807,10.52
						c3.782,1.867,5.334,6.448,3.467,10.229c-0.136,0.275-0.286,0.538-0.448,0.789C568.445,533.845,564.253,535.056,560.746,533.324
						z M499.795,511.304c-7.987-1.904-16.154-3.485-24.278-4.696c-4.171-0.622-7.049-4.51-6.427-8.681
						c0.626-4.167,4.508-7.046,8.681-6.427c8.556,1.276,17.159,2.94,25.568,4.947c4.103,0.979,6.634,5.098,5.658,9.201
						c-0.209,0.875-0.561,1.678-1.023,2.391C506.263,510.67,503.023,512.074,499.795,511.304z M435.451,503.469
						c-8.221-0.072-16.54,0.214-24.728,0.846c-4.206,0.323-7.878-2.823-8.203-7.027c-0.32-4.205,2.826-7.874,7.027-8.202
						c8.622-0.664,17.38-0.964,26.032-0.892c4.217,0.037,7.608,3.485,7.571,7.702c-0.013,1.509-0.462,2.912-1.228,4.09
						C440.548,502.101,438.159,503.49,435.451,503.469z M370.964,510.163c-8.012,1.752-16.064,3.872-23.928,6.304
						c-4.032,1.244-8.307-1.013-9.552-5.042c-1.247-4.032,1.012-8.308,5.043-9.55c8.272-2.558,16.745-4.789,25.175-6.632
						c4.12-0.902,8.19,1.708,9.091,5.83c0.455,2.076,0.017,4.14-1.056,5.792C374.681,508.49,373.008,509.716,370.964,510.163z
						 M309.566,530.959c-7.438,3.485-14.816,7.333-21.935,11.439c-3.653,2.107-8.325,0.853-10.43-2.799
						c-2.108-3.654-0.856-8.324,2.798-10.433c7.489-4.32,15.259-8.37,23.085-12.039c3.82-1.789,8.366-0.144,10.156,3.676
						c1.163,2.481,0.875,5.268-0.516,7.408C311.975,529.366,310.906,530.332,309.566,530.959z M137.443,756.351
						c-4.17-0.628-7.042-4.52-6.413-8.691c1.29-8.543,2.971-17.147,4.996-25.569c0.986-4.102,5.11-6.626,9.211-5.639
						c4.1,0.984,6.625,5.109,5.639,9.209c-1.923,7.997-3.518,16.166-4.741,24.279c-0.168,1.113-0.567,2.132-1.144,3.02
						C143.41,755.393,140.501,756.813,137.443,756.351z M254.339,564.827c-6.473,5.049-12.805,10.441-18.819,16.028
						c-3.092,2.87-7.925,2.691-10.794-0.399c-2.872-3.092-2.676-7.91,0.401-10.794c6.334-5.882,13.002-11.561,19.819-16.877
						c3.326-2.594,8.124-2.001,10.719,1.325c2.058,2.637,2.11,6.203,0.384,8.859C255.599,563.661,255.026,564.29,254.339,564.827z
						 M153.069,691.65c-3.923-1.546-5.85-5.982-4.303-9.907c3.17-8.037,6.729-16.043,10.573-23.798
						c1.859-3.791,6.457-5.321,10.236-3.449c3.777,1.874,5.322,6.456,3.449,10.236c-3.654,7.37-7.037,14.979-10.047,22.617
						c-0.192,0.487-0.431,0.942-0.706,1.365C160.333,691.695,156.504,693.005,153.069,691.65z M208.075,610.18
						c-5.176,6.367-10.146,13.04-14.77,19.839c-2.371,3.489-7.121,4.393-10.61,2.021c-3.441-2.341-4.368-6.999-2.11-10.474
						c0.029-0.045,0.06-0.091,0.091-0.134c4.866-7.159,10.097-14.186,15.544-20.887c2.663-3.271,7.472-3.768,10.746-1.107
						c3.057,2.484,3.69,6.848,1.59,10.079C208.409,609.742,208.247,609.964,208.075,610.18z"/>
					<path fill="#91B3FA" d="M141.821,806.492c0.819-1.261,1.277-2.776,1.226-4.394c-0.125-3.936-0.167-7.938-0.132-11.901
						c0.04-4.217-3.349-7.669-7.565-7.707c-4.218-0.041-7.675,3.346-7.707,7.567c-0.04,4.167,0.007,8.377,0.136,12.519
						c0.132,4.215,3.658,7.527,7.872,7.394C138.251,809.889,140.504,808.518,141.821,806.492z"/>
				</g>
				<g opacity="0.3">
					<path fill="#91B3FA" d="M239.426,1017.882c2.008-3.09,1.535-7.267-1.286-9.819c-2.921-2.64-5.835-5.386-8.661-8.161
						c-3.01-2.956-7.846-2.912-10.8,0.097c-2.967,3.022-2.911,7.846,0.097,10.801c2.976,2.921,6.044,5.813,9.119,8.594
						c3.128,2.828,7.958,2.585,10.787-0.543C238.96,1018.543,239.208,1018.219,239.426,1017.882z"/>
					<path fill="#91B3FA" d="M679.829,972.139c-2.468,3.42-7.243,4.192-10.664,1.721c-3.419-2.469-4.186-7.235-1.72-10.662
						c4.7-6.511,9.195-13.323,13.417-20.323c2.155-3.602,6.874-4.773,10.485-2.595c3.612,2.178,4.774,6.872,2.597,10.484
						c-1.829,3.033-3.701,6.024-5.616,8.97C685.595,963.938,682.737,968.112,679.829,972.139z M702.931,917.737
						c-3.871-1.669-5.658-6.162-3.988-10.035c3.203-7.437,6.129-15.088,8.692-22.744c1.325-3.999,5.666-6.157,9.667-4.819
						c3.998,1.338,6.154,5.667,4.815,9.666c-2.698,8.061-5.776,16.116-9.15,23.94c-0.174,0.406-0.381,0.79-0.614,1.147
						C710.364,917.956,706.4,919.231,702.931,917.737z M653.216,1004.134c-5.868,6.145-12.08,12.124-18.465,17.767
						c-3.16,2.793-7.987,2.496-10.782-0.665c-2.792-3.16-2.491-7.982,0.665-10.78c6.065-5.359,11.963-11.034,17.534-16.871
						c2.914-3.049,7.748-3.162,10.8-0.249c2.697,2.577,3.095,6.658,1.133,9.677C653.846,1003.406,653.551,1003.783,653.216,1004.134
						z M723.679,855.611c-4.145-0.778-6.877-4.77-6.097-8.915c1.492-7.946,2.66-16.051,3.476-24.088
						c0.424-4.2,4.169-7.253,8.368-6.828c4.196,0.425,7.251,4.17,6.827,8.366c-0.858,8.465-2.089,17-3.659,25.367
						c-0.191,1.011-0.569,1.939-1.098,2.752C729.86,854.783,726.812,856.199,723.679,855.611z M601.773,1047.235
						c-7.072,4.7-14.444,9.164-21.913,13.267c-3.696,2.031-8.337,0.682-10.369-3.014c-2.034-3.698-0.682-8.341,3.015-10.372
						c7.094-3.898,14.097-8.137,20.812-12.602c3.514-2.335,8.255-1.38,10.589,2.133c1.74,2.618,1.653,5.916,0.043,8.392
						C603.398,1045.888,602.668,1046.641,601.773,1047.235z M542.124,1078.009c-7.947,3.048-16.116,5.797-24.279,8.169
						c-4.052,1.176-8.288-1.152-9.466-5.203c-1.178-4.057,1.151-8.292,5.204-9.464c7.755-2.255,15.519-4.867,23.071-7.763
						c3.938-1.511,8.355,0.458,9.866,4.396c0.909,2.373,0.556,4.92-0.731,6.9C544.941,1076.351,543.688,1077.409,542.124,1078.009z
						 M477.184,1095.053c-8.427,1.246-17.001,2.149-25.48,2.688c-4.211,0.266-7.837-2.93-8.105-7.138
						c-0.267-4.215,2.931-7.839,7.139-8.105c8.058-0.509,16.203-1.37,24.212-2.554c4.172-0.617,8.055,2.266,8.671,6.437
						c0.284,1.917-0.17,3.771-1.148,5.276C481.319,1093.431,479.439,1094.719,477.184,1095.053z M410.072,1097.525
						c-8.495-0.626-17.061-1.623-25.461-2.964c-4.165-0.665-7.003-4.58-6.338-8.746c0.663-4.158,4.581-7,8.746-6.336
						c7.975,1.272,16.108,2.219,24.179,2.814c4.206,0.31,7.364,3.97,7.053,8.176c-0.098,1.329-0.53,2.551-1.208,3.595
						C415.574,1096.324,412.952,1097.736,410.072,1097.525z M344.024,1085.183c-8.128-2.477-16.257-5.335-24.165-8.496
						c-3.917-1.565-5.824-6.01-4.258-9.927c1.562-3.903,6.008-5.823,9.925-4.257c7.511,3.003,15.233,5.717,22.953,8.071
						c4.034,1.229,6.308,5.498,5.078,9.531c-0.214,0.703-0.52,1.353-0.901,1.939
						C350.849,1084.826,347.355,1086.199,344.024,1085.183z M282.362,1058.668c-5.449-3.085-10.87-6.377-16.11-9.783
						c-1.899-1.234-3.776-2.484-5.638-3.752c-3.484-2.374-4.483-7.127-2.01-10.61c2.373-3.487,7.124-4.388,10.611-2.013
						c1.769,1.204,3.556,2.396,5.359,3.568c4.983,3.238,10.133,6.366,15.314,9.3c3.67,2.077,4.96,6.738,2.881,10.408
						c-0.079,0.137-0.16,0.273-0.245,0.404C290.342,1059.549,285.893,1060.669,282.362,1058.668z"/>
					<path fill="#91B3FA" d="M736.365,786.778c0.828-1.273,1.284-2.803,1.227-4.433c-0.15-4.132-0.391-8.339-0.715-12.504
						c-0.327-4.206-4.001-7.35-8.206-7.022c-4.205,0.329-7.351,3.997-7.022,8.206c0.308,3.957,0.536,7.953,0.679,11.875
						c0.151,4.213,3.692,7.507,7.908,7.354C732.819,790.159,735.056,788.792,736.365,786.778z"/>
				</g>
				<g>
					<path fill="#91B3FA" d="M640.573,697.527c-0.466-1.45-1.798-2.446-3.321-2.479l-43.433-0.955
						c-10.434-17.399-23.717-33.26-39.612-46.797l6.198-42.97c0.217-1.507-0.546-2.986-1.9-3.683l-46.333-23.846
						c-1.354-0.698-3.001-0.458-4.101,0.594l-31.366,30.018c-20.254-5.068-40.881-6.661-61.104-5.039l-26.019-34.79
						c-0.912-1.219-2.498-1.726-3.948-1.261l-49.624,15.9c-1.45,0.464-2.446,1.798-2.479,3.321l-0.954,43.433
						c-17.4,10.433-33.261,23.716-46.797,39.612l-42.97-6.198c-1.507-0.217-2.987,0.545-3.683,1.899l-23.847,46.333
						c-0.697,1.354-0.458,3.001,0.595,4.101l30.018,31.367c-5.068,20.254-6.661,40.881-5.038,61.104l-34.79,26.018
						c-1.219,0.912-1.727,2.498-1.261,3.948l15.9,49.625c0.464,1.449,1.798,2.445,3.32,2.479l43.434,0.954
						c10.433,17.4,23.717,33.26,39.612,46.797l-6.198,42.97c-0.218,1.507,0.545,2.987,1.899,3.684l46.334,23.846
						c1.354,0.697,3,0.458,4.1-0.595l31.367-30.018c20.254,5.068,40.882,6.66,61.104,5.039l26.019,34.79
						c0.911,1.22,2.497,1.726,3.948,1.261l49.624-15.901c1.45-0.465,2.445-1.798,2.479-3.32l0.954-43.433
						c17.4-10.433,33.26-23.716,46.797-39.612l42.97,6.198c1.506,0.217,2.986-0.545,3.683-1.9l23.846-46.333
						c0.697-1.354,0.458-3.001-0.595-4.102l-30.017-31.366c5.068-20.254,6.659-40.881,5.038-61.104l34.79-26.019
						c1.22-0.912,1.726-2.498,1.262-3.947L640.573,697.527z"/>
					<g>
						<path fill="#BDD0FB" d="M469.928,826.795c-19.102,21.664-52.264,23.75-73.931,4.649
							c-10.496-9.252-16.759-22.039-17.636-36.002c-0.879-13.96,3.73-27.432,12.987-37.926c19.101-21.664,52.264-23.75,73.93-4.649
							c19.709,17.378,23.214,46.394,9.302,67.803C473.202,822.792,471.649,824.842,469.928,826.795z M390.558,794.676
							c0.674,10.707,5.475,20.509,13.522,27.604c16.609,14.643,42.039,13.045,56.683-3.565c14.654-16.61,13.044-42.039-3.566-56.685
							c-16.609-14.643-42.039-13.045-56.683,3.565c-1.328,1.506-2.528,3.09-3.602,4.744
							C392.246,777.521,390.011,785.975,390.558,794.676z"/>
					</g>
					<path fill="#BDD0FB" d="M537.433,862.791c2.39-3.677,4.608-7.496,6.643-11.447l0,0c0.641-1.244,1.261-2.499,1.861-3.763
						c2.958-6.233,5.417-12.693,7.336-19.277c0.026-0.09,0.053-0.18,0.079-0.269c0.073-0.255,0.146-0.51,0.216-0.766
						c0.142-0.497,0.277-0.996,0.412-1.494c0.354-1.311-0.202-2.652-1.281-3.355c-0.263-0.171-0.557-0.304-0.875-0.389
						c-1.628-0.439-3.301,0.53-3.742,2.156c-2.256,8.383-5.433,16.578-9.44,24.359c-19.888,38.658-57.606,62.274-97.985,66.007
						c-22.459,2.079-45.742-1.998-67.241-13.063c-3.771-1.939-7.416-4.056-10.922-6.336c-23.602-15.341-41.063-38.143-49.768-65.311
						c-10-31.207-7.249-64.441,7.747-93.578c30.976-60.172,105.08-83.899,165.226-52.943c3.708,1.908,7.307,3.998,10.78,6.257
						c15.055,9.787,27.8,22.758,37.277,38.03c0.245,0.395,0.564,0.713,0.931,0.95c0.96,0.625,2.237,0.68,3.275,0.035
						c1.432-0.895,1.879-2.771,0.984-4.208c-9.949-16.032-23.33-29.653-39.135-39.928c-3.646-2.371-7.422-4.563-11.314-6.568
						c-63.148-32.501-140.967-7.547-173.457,55.579c-15.744,30.589-18.63,65.477-8.132,98.238
						c9.137,28.522,27.47,52.458,52.246,68.565c3.682,2.393,7.508,4.614,11.464,6.651c30.591,15.743,65.479,18.632,98.24,8.135
						C497.387,905.916,521.328,887.575,537.433,862.791z"/>
				</g>
			</g>
			<g>
				<g opacity="0.3">
					<path fill="#91B3FA" d="M937.343,457.62c1.112-1.711,1.02-4.012-0.378-5.64c-2.606-3.039-5.341-6.042-8.128-8.922
						c-1.811-1.871-4.794-1.92-6.669-0.109c-1.882,1.807-1.92,4.798-0.11,6.67c2.656,2.744,5.262,5.605,7.751,8.506
						c1.693,1.976,4.671,2.203,6.651,0.509C936.809,458.331,937.103,457.989,937.343,457.62z"/>
					<path fill="#91B3FA" d="M911.007,432.757c-1.635,2.027-4.603,2.349-6.633,0.713c-5.122-4.122-10.514-8.03-16.026-11.612
						c-1.163-0.755-2.338-1.5-3.525-2.235c-2.211-1.374-2.893-4.281-1.52-6.495c1.382-2.041,4.281-2.893,6.498-1.521
						c1.241,0.771,2.47,1.55,3.687,2.341c5.778,3.755,11.433,7.852,16.802,12.177c1.901,1.529,2.302,4.234,1,6.239
						C911.204,432.498,911.107,432.628,911.007,432.757z M863.736,408.257c-7.235-3.347-14.741-6.278-22.311-8.705
						c-2.481-0.797-3.845-3.449-3.05-5.932c0.795-2.466,3.451-3.848,5.932-3.051c7.933,2.544,15.804,5.615,23.389,9.126
						c2.365,1.095,3.395,3.898,2.302,6.265c-0.096,0.206-0.209,0.405-0.331,0.592C868.41,408.487,865.891,409.254,863.736,408.257z
						 M818.202,393.673c-7.823-1.471-15.819-2.464-23.772-2.956c-2.598-0.161-4.577-2.4-4.416-4.998
						c0.162-2.608,2.394-4.581,4.998-4.419c8.34,0.514,16.73,1.56,24.931,3.1c2.56,0.482,4.249,2.947,3.767,5.507
						c-0.12,0.623-0.354,1.196-0.68,1.698C822.019,393.16,820.137,394.035,818.202,393.673z M770.475,390.722
						c-7.956,0.493-15.957,1.486-23.765,2.951c-2.564,0.479-5.028-1.207-5.506-3.768c-0.477-2.554,1.205-5.023,3.765-5.505
						c8.194-1.536,16.578-2.576,24.923-3.094c2.6-0.162,4.84,1.818,5.001,4.418c0.061,1.048-0.22,2.038-0.752,2.856
						C773.354,389.791,772.026,390.626,770.475,390.722z M723.474,399.512c-7.594,2.413-15.107,5.317-22.338,8.633
						c-2.365,1.086-5.166,0.046-6.253-2.322c-1.087-2.368-0.052-5.17,2.322-6.253c7.576-3.477,15.454-6.52,23.412-9.051
						c2.483-0.787,5.135,0.585,5.923,3.066c0.446,1.402,0.202,2.859-0.541,4.002C725.425,398.47,724.554,399.167,723.474,399.512z
						 M680.031,419.445c-6.772,4.183-13.345,8.828-19.538,13.81c-2.028,1.632-4.999,1.311-6.63-0.719
						c-1.631-2.03-1.312-4.989,0.718-6.634c6.493-5.224,13.391-10.097,20.494-14.485c2.217-1.367,5.123-0.682,6.491,1.534
						c0.99,1.604,0.905,3.571-0.058,5.052C681.139,418.57,680.645,419.067,680.031,419.445z M642.798,449.386
						c-5.521,5.699-10.758,11.821-15.563,18.2c-1.57,2.078-4.527,2.494-6.606,0.926c-2.081-1.565-2.467-4.498-0.93-6.608
						c5.042-6.684,10.531-13.104,16.322-19.081c1.814-1.87,4.801-1.918,6.672-0.105c1.646,1.593,1.879,4.099,0.674,5.953
						C643.204,448.921,643.015,449.162,642.798,449.386z M597.169,511.52c-2.4-1.015-3.52-3.781-2.504-6.181
						c2.811-6.642,6.035-13.243,9.569-19.604c0.532-0.97,1.077-1.926,1.626-2.882c1.23-2.282,4.188-3.03,6.446-1.719
						c2.256,1.304,3.025,4.188,1.722,6.445c-0.519,0.893-1.029,1.795-1.536,2.72c-3.385,6.088-6.46,12.384-9.142,18.717
						c-0.109,0.262-0.242,0.508-0.39,0.736C601.736,511.634,599.306,512.425,597.169,511.52z"/>
				</g>
				<g opacity="0.3">
					<path fill="#91B3FA" d="M951.582,698.051c-4.568,6.834-9.595,13.447-14.936,19.662c-1.699,1.972-4.676,2.199-6.653,0.5
						c-1.978-1.7-2.169-4.675-0.5-6.653c5.096-5.923,9.889-12.233,14.247-18.753c1.446-2.167,4.378-2.747,6.542-1.3
						c2.148,1.437,2.739,4.332,1.336,6.491C951.605,698.014,951.593,698.033,951.582,698.051z M957.712,678.794
						c-2.322-1.177-3.251-4.017-2.073-6.338c3.543-6.99,6.699-14.264,9.377-21.624c0.893-2.43,3.598-3.71,6.048-2.815
						c2.448,0.891,3.707,3.595,2.818,6.044c-2.809,7.712-6.115,15.336-9.831,22.659c-0.079,0.155-0.162,0.301-0.255,0.444
						C962.502,679.157,959.885,679.896,957.712,678.794z M919.416,735.426c-6.088,5.531-12.565,10.738-19.251,15.473
						c-2.126,1.505-5.073,1.002-6.576-1.123c-1.509-2.126-1.004-5.058,1.12-6.576c6.379-4.517,12.556-9.482,18.368-14.756
						c1.929-1.752,4.912-1.607,6.66,0.317c1.473,1.622,1.606,3.988,0.466,5.741C919.986,734.835,919.725,735.146,919.416,735.426z
						 M975.241,633.898c-2.538-0.584-4.122-3.118-3.538-5.656c1.758-7.635,3.065-15.453,3.879-23.241
						c0.275-2.587,2.596-4.468,5.18-4.201c2.592,0.272,4.474,2.592,4.202,5.183c-0.852,8.167-2.222,16.37-4.068,24.376
						c-0.129,0.554-0.349,1.062-0.642,1.511C979.206,633.486,977.224,634.354,975.241,633.898z M879.185,763.91
						c-7.223,3.896-14.761,7.388-22.406,10.386c-2.425,0.951-5.163-0.246-6.114-2.672c-0.951-2.425,0.241-5.164,2.671-6.114
						c7.294-2.855,14.481-6.188,21.369-9.906c2.292-1.235,5.154-0.381,6.392,1.915c0.848,1.57,0.71,3.412-0.199,4.812
						C880.482,762.97,879.905,763.521,879.185,763.91z M833.289,781.913c-7.961,2.056-16.12,3.646-24.245,4.729
						c-2.581,0.344-4.951-1.468-5.295-4.051c-0.346-2.579,1.468-4.955,4.053-5.299c7.747-1.033,15.529-2.552,23.128-4.514
						c2.521-0.652,5.095,0.866,5.747,3.388c0.343,1.332,0.083,2.68-0.614,3.751C835.443,780.872,834.477,781.606,833.289,781.913z
						 M784.398,788.411c-8.228,0.092-16.534-0.323-24.681-1.228c-2.591-0.289-4.455-2.621-4.167-5.21
						c0.286-2.588,2.623-4.451,5.207-4.167c7.771,0.866,15.689,1.26,23.533,1.168c2.605-0.028,4.742,2.061,4.769,4.666
						c0.014,0.967-0.269,1.866-0.758,2.62C787.471,787.537,786.038,788.391,784.398,788.411z"/>
					<path fill="#91B3FA" d="M985.276,583.727c0.496-0.763,0.776-1.676,0.759-2.655c-0.075-4.037-0.27-8.089-0.577-12.046
						c-0.204-2.596-2.472-4.54-5.07-4.339c-2.591,0.209-4.535,2.473-4.338,5.07c0.294,3.773,0.479,7.64,0.553,11.492
						c0.048,2.605,2.201,4.677,4.804,4.627C983.032,585.845,984.452,584.996,985.276,583.727z"/>
				</g>
				<g>
					<path fill="#91B3FA" d="M921.406,520.605c-0.312-0.97-1.204-1.637-2.222-1.659l-29.063-0.639
						c-6.982-11.643-15.871-22.256-26.507-31.314l4.147-28.754c0.145-1.009-0.365-1.998-1.271-2.465l-31.004-15.956
						c-0.906-0.467-2.008-0.307-2.744,0.397l-20.989,20.087c-13.553-3.392-27.356-4.457-40.888-3.372l-17.411-23.279
						c-0.61-0.816-1.671-1.155-2.642-0.844l-33.206,10.64c-0.97,0.311-1.637,1.203-1.659,2.223l-0.639,29.062
						c-11.643,6.982-22.256,15.871-31.314,26.508l-28.754-4.148c-1.009-0.145-1.999,0.365-2.464,1.271l-15.957,31.004
						c-0.467,0.906-0.306,2.008,0.398,2.744l20.087,20.989c-3.392,13.553-4.458,27.356-3.372,40.888l-23.28,17.41
						c-0.816,0.61-1.155,1.671-0.844,2.641l10.64,33.207c0.311,0.97,1.204,1.636,2.221,1.659l29.064,0.639
						c6.981,11.643,15.87,22.256,26.507,31.314l-4.147,28.754c-0.146,1.008,0.364,1.998,1.271,2.464l31.004,15.957
						c0.906,0.466,2.008,0.306,2.744-0.398l20.988-20.086c13.553,3.392,27.356,4.457,40.889,3.371l17.41,23.28
						c0.61,0.816,1.671,1.155,2.642,0.844l33.206-10.64c0.971-0.311,1.637-1.204,1.66-2.222l0.638-29.063
						c11.643-6.981,22.256-15.87,31.314-26.507l28.754,4.148c1.008,0.145,1.998-0.365,2.464-1.271l15.957-31.004
						c0.467-0.906,0.307-2.008-0.398-2.744l-20.085-20.989c3.392-13.553,4.457-27.356,3.372-40.888l23.279-17.411
						c0.816-0.61,1.155-1.671,0.844-2.641L921.406,520.605z"/>
					<g>
						<path fill="#BDD0FB" d="M807.691,607.52c-6.302,7.153-15.012,11.419-24.525,12.016c-9.509,0.6-18.684-2.542-25.833-8.847
							c-14.756-13.008-16.169-35.561-3.168-50.361c13.016-14.754,35.604-16.174,50.356-3.165
							c7.149,6.302,11.417,15.011,12.016,24.522c0.486,7.732-1.5,15.242-5.646,21.623
							C809.937,604.774,808.867,606.183,807.691,607.52z M763.568,603.612c5.26,4.638,12.008,6.949,19.008,6.509
							c6.994-0.44,13.401-3.58,18.038-8.838l0,0c4.629-5.265,6.946-12.008,6.506-19.007c-0.438-6.994-3.581-13.401-8.836-18.036
							c-10.854-9.57-27.47-8.526-37.043,2.326c-0.862,0.981-1.639,2.006-2.331,3.07
							C751.938,580.365,753.695,594.907,763.568,603.612z"/>
					</g>
					<path fill="#BDD0FB" d="M854.676,632.569c1.626-2.502,3.138-5.108,4.535-7.815c2.77-5.377,4.995-11.042,6.617-16.852
						c0.071-0.262,0.142-0.523,0.213-0.785c0.546-2.024-0.312-4.094-1.979-5.181c-0.405-0.264-0.86-0.468-1.351-0.601
						c-2.515-0.678-5.094,0.821-5.778,3.329c-1.463,5.438-3.52,10.743-6.109,15.768l-0.001,0.002
						c-0.141,0.276-0.288,0.552-0.432,0.824c-6.236,11.837-15.187,21.672-26.035,28.897c-5.889,3.921-12.342,7.073-19.233,9.349
						c-0.056,0.019-0.112,0.037-0.168,0.056c-0.173,0.055-0.343,0.112-0.515,0.166c-20.203,6.472-41.717,4.692-60.58-5.017
						c-2.442-1.254-4.799-2.624-7.07-4.1c-15.279-9.931-26.583-24.693-32.221-42.283c-6.472-20.203-4.688-41.716,5.019-60.576
						c9.709-18.846,26.181-32.815,46.381-39.292c20.203-6.472,41.718-4.692,60.58,5.016c2.401,1.234,4.73,2.588,6.978,4.048
						c9.748,6.337,17.998,14.733,24.132,24.619c0.378,0.609,0.871,1.103,1.436,1.467c1.483,0.964,3.455,1.05,5.058,0.054
						c2.21-1.38,2.896-4.28,1.52-6.498c-6.864-11.061-16.096-20.458-26.997-27.547c-2.519-1.637-5.122-3.15-7.807-4.532
						c-21.106-10.862-45.175-12.854-67.78-5.61c-22.6,7.243-41.038,22.834-51.89,43.955c-10.863,21.104-12.857,45.171-5.61,67.775
						c6.303,19.678,18.951,36.192,36.045,47.304c2.538,1.649,5.177,3.184,7.906,4.588
						C780.4,684.125,830.156,670.302,854.676,632.569z"/>
				</g>
			</g>
		</g>
		<g>
			<polygon fill="#91B3FA" points="1892.654,952.776 1755.484,1093.092 1920.023,1049.139 			"/>
			<path fill="#91B3FA" d="M2708.85,1010.856l-779.418,37.826c-20.018,0.972-36.777-14.996-36.777-35.036V692.992
				c0-34.852,27.681-63.403,62.517-64.481l702.458-21.737c52.311,0,94.717,42.407,94.717,94.717v263.707
				C2752.346,989.583,2733.205,1009.674,2708.85,1010.856z"/>
			<path opacity="0.85" fill="#FFFFFF" d="M1952.741,1035.806c-12.422,0-24.128-4.681-33.187-13.319
				c-9.627-9.184-14.93-21.569-14.93-34.876V698.608c0-34.059,27.305-61.563,62.168-62.615l680.137-20.538
				c51.549,0,93.447,40.905,93.447,91.183v249.163c0,23.977-19.207,43.667-43.728,44.827l-741.556,35.122
				C1954.309,1035.786,1953.523,1035.806,1952.741,1035.806z M2646.979,618.834l-680.087,20.538
				c-33.021,0.997-58.889,27.017-58.889,59.236V987.61c0,12.374,4.931,23.89,13.884,32.431c8.954,8.539,20.679,12.935,33.048,12.333
				l741.556-35.122c22.715-1.074,40.506-19.281,40.506-41.451V706.638C2736.997,658.223,2696.617,618.834,2646.979,618.834z"/>
			<linearGradient id="SVGID_6_" gradientUnits="userSpaceOnUse" x1="2010.7305" y1="700.2637" x2="2656.2861" y2="700.2637">
				<stop  offset="0" style="stop-color:#DAE3FE"/>
				<stop  offset="1" style="stop-color:#E9EFFD"/>
			</linearGradient>
			<path fill="url(#SVGID_6_)" d="M2644.706,677.295l-623.234,23.326c-6.12,0.229-10.938,4.285-10.735,9.038l0.234,5.478
				c0.201,4.703,5.247,8.316,11.304,8.096l623.259-22.759c6.125-0.224,10.951-4.282,10.747-9.039l-0.259-6.044
				C2655.82,680.684,2650.768,677.068,2644.706,677.295z"/>
			<linearGradient id="SVGID_7_" gradientUnits="userSpaceOnUse" x1="1954.9658" y1="858.3906" x2="2600.5381" y2="858.3906">
				<stop  offset="0" style="stop-color:#DAE3FE"/>
				<stop  offset="1" style="stop-color:#E9EFFD"/>
			</linearGradient>
			<path fill="url(#SVGID_7_)" d="M2588.934,835.077l-623.239,23.206c-6.12,0.228-10.933,4.422-10.722,9.345l0.242,5.674
				c0.209,4.871,5.26,8.622,11.316,8.402l623.265-22.62c6.126-0.222,10.945-4.418,10.735-9.345l-0.269-6.261
				C2600.055,838.604,2594.995,834.852,2588.934,835.077z"/>
			<linearGradient id="SVGID_8_" gradientUnits="userSpaceOnUse" x1="1954.9707" y1="926.0225" x2="2674.6113" y2="926.0225">
				<stop  offset="0" style="stop-color:#DAE3FE"/>
				<stop  offset="1" style="stop-color:#E9EFFD"/>
			</linearGradient>
			<path fill="url(#SVGID_8_)" d="M2661.746,901.081l-694.777,26.232c-6.822,0.258-12.205,4.516-11.992,9.486l0.244,5.73
				c0.211,4.919,5.824,8.685,12.576,8.436l694.803-25.64c6.828-0.252,12.219-4.512,12.006-9.486l-0.27-6.323
				C2674.125,904.593,2668.502,900.825,2661.746,901.081z"/>
			<linearGradient id="SVGID_9_" gradientUnits="userSpaceOnUse" x1="1957.7373" y1="788.4116" x2="2309.8291" y2="788.4116">
				<stop  offset="0" style="stop-color:#DAE3FE"/>
				<stop  offset="1" style="stop-color:#E9EFFD"/>
			</linearGradient>
			<path fill="url(#SVGID_9_)" d="M2303.004,770.319l-339.689,9.902c-3.336,0.097-5.83,4.675-5.557,10.201l0.314,6.369
				c0.27,5.467,3.148,9.804,6.45,9.714l339.722-9.244c3.339-0.091,5.838-4.671,5.564-10.201l-0.348-7.027
				C2309.191,774.561,2306.307,770.223,2303.004,770.319z"/>
			<linearGradient id="SVGID_10_" gradientUnits="userSpaceOnUse" x1="2350.9785" y1="776.3213" x2="2683.8008" y2="776.3213">
				<stop  offset="0" style="stop-color:#DAE3FE"/>
				<stop  offset="1" style="stop-color:#E9EFFD"/>
			</linearGradient>
			<path fill="url(#SVGID_10_)" d="M2677.295,758.578l-321.072,9.204c-3.153,0.09-5.496,4.663-5.223,10.188l0.318,6.369
				c0.271,5.467,3.007,9.809,6.127,9.726l321.105-8.545c3.156-0.084,5.504-4.659,5.229-10.188l-0.35-7.027
				C2683.158,762.832,2680.418,758.488,2677.295,758.578z"/>
		</g>
		<g>
			
				<linearGradient id="SVGID_11_" gradientUnits="userSpaceOnUse" x1="7389.6357" y1="2729.1846" x2="6769.2842" y2="3403.9531" gradientTransform="matrix(1 0 0 1 -6484.3516 0)">
				<stop  offset="0" style="stop-color:#09005D"/>
				<stop  offset="1" style="stop-color:#1A0F91"/>
			</linearGradient>
			<path fill="url(#SVGID_11_)" d="M709.19,2779.451c0,0-6.425,36.369-9.574,72.373c-1.231,14.069,9.616,26.286,23.729,26.875
				c47.944,1.996,150.5,5.879,187.301,4.237c5.532-0.247,9.149-5.911,7.102-11.056l0,0c-1.716-4.312-5.025-7.798-9.241-9.735
				l-169.404-77.858L709.19,2779.451z"/>
			
				<linearGradient id="SVGID_12_" gradientUnits="userSpaceOnUse" x1="7188.2783" y1="2779.3008" x2="7243.3809" y2="2779.3008" gradientTransform="matrix(1 0 0 1 -6484.3516 0)">
				<stop  offset="0" style="stop-color:#FEBBBA"/>
				<stop  offset="1" style="stop-color:#FF928E"/>
			</linearGradient>
			<path fill="url(#SVGID_12_)" d="M703.927,2758.08l5.162,43.504c0,0,29.675,13.814,49.94-1.74l-12.289-48.482L703.927,2758.08z"/>
			
				<linearGradient id="SVGID_13_" gradientUnits="userSpaceOnUse" x1="7438.4824" y1="1966.0918" x2="6910.6221" y2="2681.5388" gradientTransform="matrix(1 0 0 1 -6484.3516 0)">
				<stop  offset="0" style="stop-color:#09005D"/>
				<stop  offset="1" style="stop-color:#1A0F91"/>
			</linearGradient>
			<path fill="url(#SVGID_13_)" d="M707.807,1940.197c-2.23,11.36-11.967,566.928,47.418,815.896c0.969,4.063-1.091,8.25-4.957,9.83
				c-9.108,3.722-26.965,9.11-48.365,9.829c-6.627,0.223-12.569-4.084-14.439-10.446c-16.975-57.765-98.317-347.181-108.929-623.651
				c-11.856-308.93,0-10.52,0-10.52l6.955-190.961L707.807,1940.197z"/>
			
				<linearGradient id="SVGID_14_" gradientUnits="userSpaceOnUse" x1="7250.4697" y1="2601.2402" x2="6630.1152" y2="3276.0125" gradientTransform="matrix(1 0 0 1 -6484.3516 0)">
				<stop  offset="0" style="stop-color:#09005D"/>
				<stop  offset="1" style="stop-color:#1A0F91"/>
			</linearGradient>
			<path fill="url(#SVGID_14_)" d="M514.319,2798.424c0,0-10.226,18.361-20.127,67.151c-1.788,8.812,4.369,17.245,13.317,18.124
				c15.832,1.557,40.204,3.559,59.726,3.424c9-0.062,16.023-7.898,14.938-16.832c-2.162-17.809-8.899-47.027-29.71-69.8
				L514.319,2798.424z"/>
			
				<linearGradient id="SVGID_15_" gradientUnits="userSpaceOnUse" x1="6989.6885" y1="2776.4746" x2="7037.2646" y2="2776.4746" gradientTransform="matrix(1 0 0 1 -6484.3516 0)">
				<stop  offset="0" style="stop-color:#FEBBBA"/>
				<stop  offset="1" style="stop-color:#FF928E"/>
			</linearGradient>
			<path fill="url(#SVGID_15_)" d="M505.337,2742.469l12.061,65.789c0,0,11.925,8.871,35.515,2.44l-5.756-70.785L505.337,2742.469z"
				/>
			
				<linearGradient id="SVGID_16_" gradientUnits="userSpaceOnUse" x1="7344.4053" y1="1896.6816" x2="6816.5454" y2="2612.1282" gradientTransform="matrix(1 0 0 1 -6484.3516 0)">
				<stop  offset="0" style="stop-color:#09005D"/>
				<stop  offset="1" style="stop-color:#1A0F91"/>
			</linearGradient>
			<path fill="url(#SVGID_16_)" d="M472.756,1957.246c-48.57,293.121,10.536,724.475,30.469,808.9
				c1.22,5.169,5.392,9.129,10.631,9.998c8.898,1.475,23.547,2.678,37.989-1.517c4.976-1.445,8.472-5.934,8.675-11.112
				c2.674-68.256-2.139-487.281,43.117-652.882c2.293-8.393,7.418-15.712,14.509-20.753l87.839-62.445l6.733-100.938
				L472.756,1957.246z"/>
			<g>
				<linearGradient id="SVGID_17_" gradientUnits="userSpaceOnUse" x1="673.4063" y1="1578.3398" x2="1514.9438" y2="128.4606">
					<stop  offset="0" style="stop-color:#4F52FF"/>
					<stop  offset="1" style="stop-color:#4042E2"/>
				</linearGradient>
				<path fill="url(#SVGID_17_)" d="M782.243,1401.837c-145.555-2.405-306.157,38.218-306.157,38.218
					c-43.387,253.16-7.587,545.162-7.587,545.162c112.684,29.551,239.799-18.066,239.799-18.066
					c18.729-105.816,106.113-403.613,106.113-403.613c71.118-8.826,129.703-29.345,177.948-56.473
					c-36.8-42.657-54.149-96.936-61.685-129.022C879.212,1394.036,827.138,1402.579,782.243,1401.837z"/>
				
					<linearGradient id="SVGID_18_" gradientUnits="userSpaceOnUse" x1="-2677.8433" y1="1013.7495" x2="-2580.6218" y2="1291.526" gradientTransform="matrix(-1 0 0 1 -1509.0684 0)">
					<stop  offset="0" style="stop-color:#FEBBBA"/>
					<stop  offset="1" style="stop-color:#FF928E"/>
				</linearGradient>
				<path fill="url(#SVGID_18_)" d="M1212.185,1187.443c-14.299-17.27-32.396-9.1-32.396-9.1
					c-21.419,90.479-133.73,163.84-249.114,199.7c7.535,32.086,24.884,86.365,61.685,129.022
					C1183.85,1399.398,1212.185,1187.443,1212.185,1187.443z"/>
			</g>
			<g>
				
					<linearGradient id="SVGID_19_" gradientUnits="userSpaceOnUse" x1="-2760.9399" y1="1042.8335" x2="-2663.719" y2="1320.6084" gradientTransform="matrix(-1 0 0 1 -1509.0684 0)">
					<stop  offset="0" style="stop-color:#FEBBBA"/>
					<stop  offset="1" style="stop-color:#FF928E"/>
				</linearGradient>
				<path fill="url(#SVGID_19_)" d="M1208.714,1191.834c1.497,4.756-15.829,11.999-26.03-7.454
					c-0.357-9.323-6.026-49.264-0.456-56.859c29.67-40.45,87.194-91.158,87.194-91.158c9.722,9.593,1.713,19.017,1.713,19.017
					l-27.906,29.07c5.837,10.548,12.958,19.452,16.293,32.21c2.528,9.662,0.982,19.987-3.899,28.781
					c-4.898,8.825-11.582,20.296-17.9,29.274C1225.766,1191.707,1208.714,1191.834,1208.714,1191.834z"/>
				
					<linearGradient id="SVGID_20_" gradientUnits="userSpaceOnUse" x1="-2686.2529" y1="1220.3032" x2="-2759.4854" y2="1072.5756" gradientTransform="matrix(-1 0 0 1 -1509.0684 0)">
					<stop  offset="0" style="stop-color:#FEBBBA"/>
					<stop  offset="1" style="stop-color:#FF928E"/>
				</linearGradient>
				<path fill="url(#SVGID_20_)" d="M1231.024,1103.313l-25.43,21.558l-7.984,21.463l22.674,25.153c0,0,7.624-42.588,13.29-51.805
					C1239.239,1110.465,1236.3,1106.008,1231.024,1103.313z"/>
			</g>
			<linearGradient id="SVGID_21_" gradientUnits="userSpaceOnUse" x1="498.3638" y1="1476.7427" x2="1339.9022" y2="26.862">
				<stop  offset="0" style="stop-color:#4F52FF"/>
				<stop  offset="1" style="stop-color:#4042E2"/>
			</linearGradient>
			<path fill="url(#SVGID_21_)" d="M531.915,1580.994l-55.829-140.939c0,0-135.956,92.376-158.315,209.499
				c25.689,1.892,72.434,8.573,118.189,31.677C446.016,1625.927,531.915,1580.994,531.915,1580.994z"/>
			
				<linearGradient id="SVGID_22_" gradientUnits="userSpaceOnUse" x1="6799.0234" y1="1740.4902" x2="7155.2773" y2="1740.4902" gradientTransform="matrix(1 0 0 1 -6484.3516 0)">
				<stop  offset="0" style="stop-color:#FEBBBA"/>
				<stop  offset="1" style="stop-color:#FF928E"/>
			</linearGradient>
			<path fill="url(#SVGID_22_)" d="M650.725,1713.613c0,0-152.644,86.268-204.148,12.605c-10.693-15.296-13.25-30.496-10.616-44.988
				c-45.755-23.104-92.5-29.785-118.189-31.677c-6.741,35.309-3.177,72.861,17.571,110.816
				c90.218,165.034,335.583-9.121,335.583-9.121L650.725,1713.613z"/>
			<g>
				<path fill="#91B3FA" d="M632.384,1822.75l83.308-290.928c0.945-3.303,3.762-5.712,7.175-6.109
					c15.093-1.761,58.829-6.705,109.327-10.977c60.827-5.145,131.464-9.313,173.675-5.767c6.001,0.503,9.628,6.851,6.959,12.249
					c-24.004,48.563-122.739,246.102-172.182,310.813c-1.64,2.144-4.172,3.396-6.87,3.372l-193.287-1.799
					C634.865,1833.553,630.836,1828.157,632.384,1822.75z"/>
				<path fill="#BDD0FB" d="M840.836,1489.514l60.399-10.064c3.217-0.536,5.852,2.538,4.83,5.635l-5.979,18.118
					c-0.521,1.577-1.896,2.718-3.542,2.938l-58.122,7.765c-3.007,0.401-5.486-2.331-4.795-5.285l3.701-15.818
					C837.726,1491.099,839.11,1489.802,840.836,1489.514z"/>
				<path fill="#BDD0FB" d="M795.611,1540.647l4.975-25.918c0.499-2.6,2.646-4.563,5.278-4.831l121.993-12.379
					c4.106-0.417,7.394,3.346,6.431,7.359l-7.757,32.296c-0.62,2.584-2.869,4.45-5.524,4.583l-119.211,6.002
					C797.916,1547.955,794.879,1544.463,795.611,1540.647z"/>
				
					<linearGradient id="SVGID_23_" gradientUnits="userSpaceOnUse" x1="7128.8271" y1="1703.1367" x2="7239.8145" y2="1703.1367" gradientTransform="matrix(1 0 0 1 -6484.3516 0)">
					<stop  offset="0" style="stop-color:#FEBBBA"/>
					<stop  offset="1" style="stop-color:#FF928E"/>
				</linearGradient>
				<path fill="url(#SVGID_23_)" d="M652.512,1752.462c0,0-11.604-47.719-6.924-64.647c4.681-16.93,13.751-38.697,43.981-33.86
					c30.232,4.837,65.894,17.572,65.894,17.572s-1.802,22.052-24.778,14.938l14.248,11.024c0,0-2.037,17.656-21.444,8.224
					l13.252,14.62c0,0-8.335,14.502-22.614,5.201C699.85,1716.231,693.005,1758.208,652.512,1752.462z"/>
			</g>
			
				<linearGradient id="SVGID_24_" gradientUnits="userSpaceOnUse" x1="7072.5771" y1="1359.6333" x2="7213.4277" y2="1359.6333" gradientTransform="matrix(1 0 0 1 -6484.3516 0)">
				<stop  offset="0" style="stop-color:#FEBBBA"/>
				<stop  offset="1" style="stop-color:#FF928E"/>
			</linearGradient>
			<path fill="url(#SVGID_24_)" d="M634.809,1283.669l-46.313,133.935c-0.767,2.218,0.145,4.675,2.199,5.812
				c12.624,6.98,58.108,27.156,112.919-7.596c5.71-3.62,9.597-9.524,10.464-16.23l14.998-115.92H634.809z"/>
			<g>
				
					<linearGradient id="SVGID_25_" gradientUnits="userSpaceOnUse" x1="201.4307" y1="2958.8896" x2="148.7962" y2="2785.2886" gradientTransform="matrix(0.746 -0.6659 0.6659 0.746 -1358.0159 -803.1726)">
					<stop  offset="0" style="stop-color:#FEBBBA"/>
					<stop  offset="1" style="stop-color:#FF928E"/>
				</linearGradient>
				<path fill="url(#SVGID_25_)" d="M735.579,1159.642c0,0,50.856,95.732,44.338,134.403c-6.519,38.67-69.548,35.894-124.586,4.487
					l-38.46-103.369L735.579,1159.642z"/>
				
					<linearGradient id="SVGID_26_" gradientUnits="userSpaceOnUse" x1="153.9434" y1="2656.416" x2="197.9717" y2="2907.5405" gradientTransform="matrix(0.746 -0.6659 0.6659 0.746 -1358.0159 -803.1726)">
					<stop  offset="0" style="stop-color:#09005D"/>
					<stop  offset="1" style="stop-color:#1A0F91"/>
				</linearGradient>
				<path fill="url(#SVGID_26_)" d="M657.763,1247.768c2.237-0.991,3.062-3.728,1.722-5.774
					c-4.075-6.225-11.713-18.923-14.149-30.041c0,0-9.142-5.855,23.271-13.613c32.412-7.758,80.746-19.8,90.905-47.389
					c9.905-26.898-16.12-94.542-57.642-40.644c-1.58,2.05-4.675,2.095-6.252,0.043c-6.807-8.859-24.703-27.247-49.547-16.1
					c-23.25,10.432-25.868,27.469-25.548,36.057c0.092,2.525-2.166,4.49-4.649,4.016c-11.755-2.242-39.964-4.167-53.13,24.77
					c-10.845,23.836-3.796,37.329,2.623,43.928c2.081,2.138,1.169,5.659-1.684,6.531c-7.725,2.365-17.701,8.916-16.703,27.016
					c1.381,25.023,29.357,22.818,37.323,21.678c1.306-0.187,2.62,0.261,3.504,1.238c6.83,7.559,37.601,39.65,70.905,43.519
					c2.884,0.335,5.119-2.513,4.175-5.258l-14.414-41.897c-0.669-1.945,0.262-4.08,2.143-4.914L657.763,1247.768z"/>
				
					<linearGradient id="SVGID_27_" gradientUnits="userSpaceOnUse" x1="147.6255" y1="2958.0791" x2="100.2703" y2="2801.8906" gradientTransform="matrix(0.746 -0.6659 0.6659 0.746 -1358.0159 -803.1726)">
					<stop  offset="0" style="stop-color:#FEBBBA"/>
					<stop  offset="1" style="stop-color:#FF928E"/>
				</linearGradient>
				<path fill="url(#SVGID_27_)" d="M663.557,1253.715c0,0-36.209-24.844-38.855-3.922c-2.646,20.921,32.607,30.304,50.068,22.504
					L663.557,1253.715z"/>
			</g>
		</g>
	</g>
</g>
</svg>
