<svg id="Capa_1" enable-background="new 0 0 512 512" height="512" viewBox="0 0 512 512" width="512" xmlns="http://www.w3.org/2000/svg" xmlns:xlink="http://www.w3.org/1999/xlink"><linearGradient id="SVGID_1_" gradientTransform="matrix(1 0 0 -1 -561.6 -10842.989)" gradientUnits="userSpaceOnUse" x1="917.182" x2="780.182" y1="-11308.203" y2="-10917.203"><stop offset="0" stop-color="#d2dbfc" stop-opacity="0"/><stop offset="1" stop-color="#b8c1fb"/></linearGradient><g><path d="m341.576.425c-95.818 8.652-105.091 192.428-146.416 286.587-20.478 46.658-68.772 94.794-60.258 149.782 9.605 62.035 72.897 80.075 121.683 74.14 120.723-14.685 172.899-141.053 180.797-260.801 4.869-73.829 20.3-260.192-95.806-249.708z" fill="url(#SVGID_1_)"/><g fill="#2b2ab5" opacity=".11"><circle cx="242" cy="411.675" r="71.122"/><path d="m357.45 294.956h-12.29v-38c0-2.761-2.239-5-5-5h-15c-2.761 0-5 2.239-5 5v38h-12.289c-4.445 0-6.737 5.214-3.684 8.384l24.789 25.737c2 2.077 5.368 2.077 7.367 0l24.708-25.653c3.059-3.175.809-8.468-3.601-8.468z"/><path d="m404.45 402.956h-12.29v-38c0-2.761-2.239-5-5-5h-15c-2.761 0-5 2.239-5 5v38h-12.29c-4.445 0-6.737 5.214-3.684 8.384l24.789 25.737c2 2.077 5.367 2.077 7.367 0l24.789-25.737c3.056-3.17.764-8.384-3.681-8.384z"/><path d="m175.805 295.956h-11.645v-34h.67c5.153 0 9.33-4.177 9.33-9.33v-41.422l45 16.364v60.682c0 4.315 2.76 8.139 6.854 9.514l24.929 8.34c6.493 2.168 13.217-2.67 13.217-9.524v-69.673l105.422-38.42c3.955-1.44 6.578-5.2 6.578-9.4v-80.13c0-5.52-4.475-10-10.012-10h-247.865c-5.598 0-10.123 4.5-10.123 10.044v74.956h-27.67c-5.153 0-9.33 4.177-9.33 9.33v69.34c0 5.153 4.177 9.33 9.33 9.33h58.67v34h-12.082c-4.363 0-6.624 5.261-3.616 8.464l24.363 25.996c1.962 2.099 5.269 2.099 7.241 0l24.353-25.996c3.009-3.203.758-8.465-3.614-8.465z"/><path d="m129.451 402.956h-12.291v-38c0-2.761-2.239-5-5-5h-15c-2.762 0-5 2.239-5 5v38h-12.29c-4.445 0-6.737 5.214-3.684 8.384l24.79 25.737c2 2.077 5.368 2.077 7.368 0l24.709-25.653c3.058-3.175.807-8.468-3.602-8.468z"/></g><circle cx="260" cy="393.675" fill="#fff" r="71.122"/><path d="m394.16 80.956v80.13c0 4.2-2.623 7.96-6.578 9.4l-105.422 38.42v69.673c0 6.854-6.724 11.692-13.217 9.524l-24.929-8.34c-4.094-1.375-6.854-5.198-6.854-9.514v-61.344l-105.423-38.42c-3.954-1.44-6.577-5.2-6.577-9.4v-80.13c0-5.52 4.475-10 10.012-10h248.977c5.536.001 10.011 4.481 10.011 10.001z" fill="#fff"/><path d="m394.16 80.918v65.039h-269v-65.039c0-5.499 4.477-9.962 10.016-9.962h248.969c5.538 0 10.015 4.463 10.015 9.962z" fill="#6e80f8"/><path d="m310.16 146.956v22c0 2.761-2.239 5-5 5h-32c-2.762 0-5-2.239-5-5v-22z" fill="#6e80f8"/><path d="m268.16 70.956h42v75h-42z" fill="#fff"/><path d="m394.16 101.956v-21c0-5.523-4.477-10-10-10h-249c-5.523 0-10 4.477-10 10v21z" fill="#fff"/><circle cx="367.322" cy="86.446" fill="#6e80f8" r="39.243"/><path d="m363.16 276.956v-38c0-2.761-2.239-5-5-5h-15c-2.761 0-5 2.239-5 5v38h-12.289c-4.445 0-6.737 5.214-3.684 8.384l24.789 25.737c2 2.077 5.368 2.077 7.367 0l24.789-25.737c3.053-3.17.762-8.384-3.684-8.384z" fill="#fff"/><path d="m410.16 384.956v-38c0-2.761-2.239-5-5-5h-15c-2.761 0-5 2.239-5 5v38h-12.29c-4.445 0-6.737 5.214-3.684 8.384l24.789 25.737c2 2.077 5.367 2.077 7.367 0l24.789-25.737c3.053-3.17.762-8.384-3.684-8.384z" fill="#fff"/><path d="m198.137 285.336-24.787 25.734c-2.007 2.077-5.373 2.077-7.37 0l-24.797-25.734c-3.062-3.171-.76-8.379 3.68-8.379h12.297v-38c0-2.761 2.238-5 5-5h14.931c2.808 0 5.069 2.226 5.069 4.97v38.03h12.297c4.451-.001 6.742 5.208 3.68 8.379z" fill="#fff"/><path d="m110.16 384.956v-38c0-2.761 2.238-5 5-5h15c2.761 0 5 2.239 5 5v38h12.29c4.445 0 6.737 5.214 3.684 8.384l-24.79 25.737c-2 2.077-5.368 2.077-7.368 0l-24.79-25.737c-3.053-3.17-.762-8.384 3.684-8.384z" fill="#fff"/><path d="m193.16 165.286v69.34c0 5.153-4.177 9.33-9.33 9.33h-85.34c-5.153 0-9.33-4.177-9.33-9.33v-69.34c0-5.153 4.177-9.33 9.33-9.33h85.34c5.153 0 9.33 4.178 9.33 9.33z" fill="#6e80f8"/><path d="m130.371 184.956h-16.519c-2.403 0-4.612-1.609-5.084-3.965-.644-3.214 1.796-6.035 4.896-6.035h16.519c2.403 0 4.612 1.609 5.084 3.965.644 3.214-1.796 6.035-4.896 6.035z" fill="#2b2ab5"/><path d="m193.16 183.895v50.732c0 5.153-4.177 9.33-9.33 9.33h-85.34c-5.153 0-9.33-4.177-9.33-9.33v-15.67h17.673c2.661 0 5.222-1.042 7.099-2.909l13.335-13.183c1.888-1.856 4.438-2.909 7.109-2.909h38.379c1.366 0 2.701-.278 3.936-.794 1.175-.496 2.249-1.201 3.163-2.114z" fill="#fff"/><path d="m276.373 132.956h-60.068c-2.403 0-4.612-1.609-5.084-3.965-.644-3.214 1.796-6.035 4.896-6.035h60.068c2.403 0 4.612 1.609 5.084 3.965.644 3.214-1.796 6.035-4.896 6.035z" fill="#2b2ab5"/><path d="m276.373 153.956h-16.519c-2.403 0-4.612-1.609-5.084-3.965-.644-3.214 1.796-6.035 4.896-6.035h16.519c2.403 0 4.612 1.609 5.084 3.965.644 3.214-1.796 6.035-4.896 6.035z" fill="#2b2ab5"/><g fill="#6e80f8"><path d="m401.502 220.056c-3.739 0-7.479-1.424-10.325-4.271-5.694-5.693-5.694-14.957 0-20.65 5.693-5.693 14.957-5.693 20.65 0 5.694 5.693 5.694 14.957 0 20.65-2.847 2.847-6.586 4.271-10.325 4.271zm0-19.197c-1.179 0-2.357.449-3.255 1.346-1.794 1.795-1.794 4.715 0 6.51 1.795 1.793 4.715 1.793 6.51 0 1.794-1.795 1.794-4.715 0-6.51-.898-.896-2.076-1.346-3.255-1.346z"/><path d="m246.245 54.082c-3.739 0-7.479-1.424-10.325-4.271-5.694-5.693-5.694-14.957 0-20.65 5.693-5.693 14.957-5.693 20.65 0 5.694 5.693 5.694 14.957 0 20.65-2.846 2.847-6.586 4.271-10.325 4.271zm0-19.196c-1.179 0-2.357.449-3.255 1.346-1.794 1.795-1.794 4.715 0 6.51 1.795 1.793 4.715 1.793 6.51 0 1.794-1.795 1.794-4.715 0-6.51-.897-.897-2.076-1.346-3.255-1.346z"/><path d="m113.223 287.956h-3.062v-3.063c0-2.404-1.611-4.613-3.968-5.084-3.214-.642-6.032 1.797-6.032 4.897v3.25h-3.063c-2.404 0-4.613 1.611-5.084 3.968-.642 3.214 1.797 6.032 4.897 6.032h3.25v3.063c0 2.404 1.61 4.613 3.968 5.084 3.214.642 6.032-1.797 6.032-4.897v-3.25h3.25c3.099 0 5.539-2.818 4.897-6.032-.472-2.357-2.682-3.968-5.085-3.968z"/><path d="m380.223 437.956h-3.063v-3.063c0-2.404-1.611-4.613-3.968-5.084-3.214-.642-6.032 1.797-6.032 4.897v3.25h-3.063c-2.404 0-4.613 1.611-5.084 3.968-.642 3.214 1.797 6.032 4.897 6.032h3.25v3.063c0 2.404 1.611 4.613 3.968 5.084 3.214.642 6.032-1.797 6.032-4.897v-3.25h3.25c3.099 0 5.539-2.818 4.897-6.032-.471-2.357-2.68-3.968-5.084-3.968z"/><path d="m340.223 472.956h-3.063v-3.063c0-2.404-1.611-4.613-3.968-5.084-3.214-.642-6.032 1.797-6.032 4.897v3.25h-3.063c-2.404 0-4.613 1.611-5.084 3.968-.642 3.214 1.797 6.032 4.897 6.032h3.25v3.063c0 2.404 1.611 4.613 3.968 5.084 3.214.642 6.032-1.797 6.032-4.897v-3.25h3.25c3.099 0 5.539-2.818 4.897-6.032-.471-2.357-2.68-3.968-5.084-3.968z"/></g><path d="m260 447.559c-29.711 0-53.883-24.172-53.883-53.883s24.172-53.883 53.883-53.883 53.883 24.172 53.883 53.883-24.172 53.883-53.883 53.883zm0-97.766c-24.197 0-43.883 19.686-43.883 43.883s19.686 43.883 43.883 43.883 43.883-19.686 43.883-43.883-19.686-43.883-43.883-43.883z" fill="#2b2ab5"/><path d="m266.403 388.956h-1.243v-10h5.144c2.374 0 4.511-1.734 4.715-4.099.231-2.667-1.864-4.901-4.482-4.901h-5.377v-1.931c0-2.409-1.617-4.626-3.981-5.087-3.208-.625-6.019 1.784-6.019 4.843v2.174h-.965c-7.454 0-14.019 5.439-14.853 12.845-.984 8.733 5.935 16.155 14.575 16.155h1.243v9h-5.788c-2.404 0-4.613 1.611-5.084 3.968-.642 3.214 1.797 6.032 4.897 6.032h5.975v1.931c0 2.409 1.617 4.626 3.981 5.087 3.209.625 6.019-1.784 6.019-4.844v-2.174h.964c7.453 0 14.018-5.438 14.852-12.844.985-8.732-5.934-16.155-14.573-16.155zm-12.441 0c-2.619 0-4.722-2.248-4.482-4.915.213-2.36 2.35-4.085 4.719-4.085h.961v9zm12.16 19h-.962v-9h1.198c2.617 0 4.72 2.247 4.481 4.913-.211 2.361-2.348 4.087-4.717 4.087z" fill="#2b2ab5"/><g fill="#2b2ab5"><path d="m260 317.554c-41.974 0-76.122 34.148-76.122 76.122s34.148 76.121 76.122 76.121 76.122-34.147 76.122-76.121-34.148-76.122-76.122-76.122zm0 142.243c-36.46 0-66.122-29.662-66.122-66.121 0-36.46 29.662-66.122 66.122-66.122s66.122 29.662 66.122 66.122c0 36.459-29.662 66.121-66.122 66.121z"/><path d="m384.886 284.487c1.359-7.123-3.793-12.531-9.833-12.531h-6.892v-33c0-5.523-4.477-10-10-10h-15c-5.523 0-10 4.477-10 10v33h-7.946c-1.469 0-2.929.378-4.164 1.173-6.077 3.914-6.461 11.349-2.321 15.734l24.518 25.953c1.885 1.995 4.54 3.139 7.285 3.139h.002c2.745 0 5.401-1.144 7.287-3.139l25.079-26.548c.996-1.053 1.713-2.357 1.985-3.781zm-34.226 23.207-25.016-25.737h12.516c2.761 0 5-2.239 5-5v-38h15v38c0 2.761 2.239 5 5 5h12.516z"/><path d="m423.189 379.956h-8.028v-35.458c0-4.165-3.377-7.542-7.542-7.542h-19.916c-4.165 0-7.542 3.377-7.542 7.542v35.458h-8.027c-1.465 0-2.921.373-4.159 1.156-6.13 3.879-6.521 11.261-2.347 15.611l24.694 25.736c1.898 1.98 4.573 3.115 7.34 3.115 2.764 0 5.441-1.135 7.339-3.114l24.694-25.737c4.174-4.35 3.781-11.73-2.345-15.61-1.24-.783-2.697-1.157-4.161-1.157zm-25.528 35.738-25.014-25.737h12.514c2.761 0 5-2.239 5-5v-38h15v38c0 2.761 2.239 5 5 5h12.514z"/><path d="m202.938 279.035c-1.576-3.692-5.167-6.078-9.148-6.078h-6.63v-24.362c3.605-1.026 6.625-3.591 8.371-7.007 1.039-2.031 1.629-4.357 1.629-6.827v-34.851l35 12.771v57.566c0 6.479 4.128 12.213 10.271 14.266l24.912 8.335c1.589.532 3.213.794 4.821.794 3.431 0 6.79-1.193 9.584-3.502 3.519-2.909 5.412-7.347 5.412-11.912v-65.828l102.132-37.224c5.903-2.152 9.868-7.815 9.868-14.092v-44.359c8.552-8.942 13.412-21.437 12.061-35.024-2.035-20.463-18.268-37.014-38.689-39.432-19.346-2.291-36.617 7.972-44.746 23.687h-52.325c-2.403 0-4.612 1.61-5.084 3.966-.644 3.215 1.799 6.034 4.902 6.034h49.463c-.782 3.341-1.209 6.821-1.209 10.402 0 3.651.441 7.197 1.253 10.598h-193.626v-16c0-2.761 2.238-5 5-5h111.557c2.404 0 4.613-1.611 5.084-3.968.642-3.214-1.798-6.032-4.897-6.032h-111.744c-8.284 0-15 6.716-15 15v70h-22.49c-8.001 0-14.51 6.457-14.51 14.393l-.002 69.193c0 7.947 6.404 14.414 14.274 14.414h53.728v24h-6.737c-3.271 0-6.464 1.426-8.378 4.078-2.918 4.043-2.47 9.418.776 12.888l24.364 26.042c1.874 2.003 4.512 3.151 7.241 3.151 2.728 0 5.368-1.149 7.242-3.151l24.364-26.042c2.733-2.922 3.481-7.196 1.906-10.887zm-14.779-44.392c0 .594-.122 1.161-.342 1.677-.662 1.547-2.209 2.636-4.007 2.636h-85.319c-2.392 0-4.331-1.939-4.331-4.331v-10.669h12.505c3.933 0 7.773-1.592 10.527-4.363l13.173-13.173c.949-.944 2.202-1.464 3.527-1.464h38.877c2.025 0 4.007-.4 5.912-1.198 1.808-.767 3.412-1.845 4.742-3.182l4.737-4.698v38.764h-.001zm179.162-182.44c18.882 0 34.243 15.361 34.243 34.243 0 18.881-15.361 34.242-34.243 34.242s-34.243-15.361-34.243-34.242c0-18.882 15.361-34.243 34.243-34.243zm-268.776 108.753h27.615c2.762 0 5-2.239 5-5v-49h196.735c7.401 14.137 22.221 23.813 39.268 23.813 8.003 0 15.51-2.142 21.997-5.866v36.516c0 2.092-1.321 3.98-3.29 4.697l-105.42 38.423c-1.976.72-3.29 2.597-3.29 4.697v69.204c0 1.319-.433 2.636-1.346 3.588-1.415 1.476-3.412 1.951-5.271 1.334l-24.971-8.355c-2.038-.682-3.412-2.59-3.412-4.74v-61.077c0-2.108-1.318-3.991-3.297-4.713l-41.703-15.217v-24.094s-5.857-14.33-13.759-14.209h-29.351c-2.762-.121-5 2.117-5 4.879s2.238 5 5 5.121h29.35c2.388-.121 4.76 4.209 4.76 4.209v16.634l-11.865 11.724c-.434.435-.96.783-1.544 1.03-.641.268-1.308.403-1.984.403h-38.397c-4.014 0-7.799 1.547-10.663 4.363l-13.351 13.192c-.924.919-2.215 1.445-3.541 1.445h-12.655v-48.664c0-2.393 1.967-4.337 4.385-4.337zm71.116 147.998-25.014-25.997h12.514c2.761 0 5-2.239 5-5v-29h15v29c0 2.761 2.238 5 5 5h12.514z"/><path d="m147.051 379.956h-6.891v-33c0-5.523-4.477-10-10-10h-15c-5.523 0-10 4.477-10 10v33h-7.946c-1.468 0-2.929.378-4.164 1.173-6.077 3.914-6.461 11.349-2.321 15.734l24.517 25.951c1.884 1.996 4.54 3.142 7.285 3.142h.002c2.744 0 5.401-1.145 7.287-3.14l25.081-26.549c.996-1.055 1.714-2.36 1.985-3.786 1.353-7.12-3.794-12.525-9.835-12.525zm-24.391 35.738-25.016-25.737h12.516c2.761 0 5-2.239 5-5v-38h15v38c0 2.761 2.238 5 5 5h12.516z"/></g><path d="m367.321 102.708c-1.327 0-2.6-.527-3.537-1.466l-11.417-11.427c-1.952-1.953-1.95-5.119.003-7.071s5.118-1.952 7.071.003l7.881 7.888 39.917-39.925c1.953-1.953 5.118-1.952 7.071-.001 1.953 1.953 1.953 5.118.001 7.071l-43.454 43.463c-.937.938-2.21 1.465-3.536 1.465z" fill="#fff"/></g></svg>