<svg id="Capa_1" enable-background="new 0 0 512 512" height="512" viewBox="0 0 512 512" width="512" xmlns="http://www.w3.org/2000/svg" xmlns:xlink="http://www.w3.org/1999/xlink"><linearGradient id="SVGID_1_" gradientTransform="matrix(1 0 0 -1 -561.6 -9778.99)" gradientUnits="userSpaceOnUse" x1="1075.311" x2="685.333" y1="-9879.604" y2="-10188.587"><stop offset="0" stop-color="#d2dbfc" stop-opacity="0"/><stop offset="1" stop-color="#b8c1fb"/></linearGradient><g><path d="m364.823 55.215c-69.098-27.035-164.784-16.764-217.662 31.51-37.336 34.085-8.439 43.8 17.016 106.17 18.423 45.14-164.177 38.927-164.177 120.495 0 94.299 132.251 76.424 181.329 87.218 75.036 16.504 140.496 78.242 220.668 70.103 69.795-7.086 96.403-61.855 106.109-124.642 18.082-116.976-26.329-245.094-143.283-290.854z" fill="url(#SVGID_1_)"/><path d="m464.954 187.499h-65.956v-21.15c0-11.515-9.335-20.85-20.85-20.85h-261.15v-11c0-5.523-4.477-10-10-10h-78c-5.523 0-10 4.477-10 10v78c0 5.523 4.477 10 10 10h60v137h-20.523c-6.89 0-12.476 5.586-12.476 12.476v11.549c0 12.133 9.744 21.975 21.779 21.975h332.448c12.032 0 21.773-9.842 21.773-21.975v-11.549c0-6.89-5.586-12.476-12.476-12.476h-20.524v-74h66c5.523 0 10-4.477 10-10v-77.994c0-5.526-4.497-10.006-10.045-10.006z" fill="#2b2ab5" opacity=".11"/><path d="m416.999 148.369v209.126c0 2.763-2.243 5.005-5.008 5.005h-304.992v-214.131c0-11.531 9.344-20.87 20.872-20.87h268.257c11.527 0 20.871 9.339 20.871 20.87z" fill="#fff"/><path d="m296.243 255.937c-1.406 0-2.805-.59-3.793-1.74l-30.176-35.096-30.176 35.096c-1.8 2.095-4.958 2.331-7.051.531-2.094-1.8-2.332-4.957-.531-7.051l33.967-39.505c.949-1.104 2.334-1.74 3.791-1.74s2.842.636 3.791 1.74l33.967 39.505c1.801 2.094 1.563 5.251-.531 7.051-.943.811-2.104 1.209-3.258 1.209z" fill="#2b2ab5"/><g fill="#2b2ab5"><circle cx="340.194" cy="218.383" r="5.59"/><circle cx="357.105" cy="218.383" r="5.59"/><circle cx="374.015" cy="218.383" r="5.59"/><circle cx="340.194" cy="235.548" r="5.59"/><circle cx="357.105" cy="235.548" r="5.59"/><circle cx="374.015" cy="235.548" r="5.59"/></g><path d="m416.999 316.499v41c0 2.761-2.238 5-5 5h-305v-46z" fill="#6e80f8"/><path d="m449.999 354.218v11.383c0 12.09-9.8 21.898-21.904 21.898h-332.192c-12.104 0-21.904-9.808-21.904-21.898v-11.626c0-6.89 5.586-12.476 12.476-12.476h107.073c1.864 0 3.572 1.036 4.434 2.689l6.579 12.623c.861 1.652 2.57 2.689 4.434 2.689h106.008c1.864 0 3.573-1.037 4.435-2.689l6.579-12.622c.861-1.652 2.57-2.689 4.433-2.689h107.07c6.891-.001 12.479 5.694 12.479 12.718z" fill="#fff"/><path d="m411.999 359.499h-43c-2.762 0-5-2.239-5-5v-13h53v13c0 2.762-2.239 5-5 5z" fill="#fff"/><path d="m156.031 359.499h-43.032c-2.761 0-5-2.239-5-5v-13h53v13.033c.001 2.743-2.224 4.967-4.968 4.967z" fill="#fff"/><path d="m106.999 165.623v-17.273c0-11.515 9.335-20.85 20.85-20.85h31.15v38.607c0 15.697-14.136 28.121-30.468 25.424-12.525-2.068-21.532-13.213-21.532-25.908z" fill="#fff"/><path d="m158.999 165.623v-38.124h52v38.607c0 15.697-14.136 28.121-30.468 25.424-12.525-2.067-21.532-13.212-21.532-25.907z" fill="#6e80f8"/><path d="m209.999 165.623v-38.124h52v38.607c-.001 15.697-14.135 28.12-30.467 25.425-12.525-2.067-21.533-13.213-21.533-25.908z" fill="#fff"/><path d="m287.999 191.9c-14.36 0-26-11.549-26-25.794v-38.607h52v38.607c-.001 14.245-11.641 25.794-26 25.794z" fill="#6e80f8"/><path d="m339.999 191.9c-14.36 0-26-11.549-26-25.794v-38.607h52v38.607c-.001 14.245-11.642 25.794-26 25.794z" fill="#fff"/><path d="m390.998 191.9c-14.36 0-26-11.549-26-25.794v-38.607h31.15c11.515 0 20.85 9.335 20.85 20.85v17.757c.001 14.245-11.64 25.794-26 25.794z" fill="#6e80f8"/><path d="m124.999 204.499h-78c-5.523 0-10-4.477-10-10v-78c0-5.523 4.477-10 10-10h78c5.523 0 10 4.477 10 10v78c0 5.523-4.477 10-10 10z" fill="#6e80f8"/><path d="m482.999 267.499h-78c-5.523 0-10-4.477-10-10v-78c0-5.523 4.477-10 10-10h78c5.523 0 10 4.477 10 10v78c0 5.523-4.477 10-10 10z" fill="#fff"/><path d="m312.983 293.499h-100.984c-2.761 0-5-2.239-5-5v-40c0-2.761 2.239-5 5-5h101c2.762 0 5 2.239 5 5v39.991c-.001 2.767-2.246 5.009-5.016 5.009z" fill="#6e80f8"/><path d="m222.999 283.499h6c2.762 0 5-2.239 5-5v-19c0-2.762-2.238-5-5-5h-6c-2.761 0-5 2.239-5 5v19c0 2.762 2.239 5 5 5z" fill="#fff"/><path d="m246.968 283.499h6.031c2.762 0 5-2.239 5-5v-19c0-2.762-2.238-5-5-5h-6c-2.761 0-5 2.239-5 5v18.915c0 2.809 2.225 5.085 4.969 5.085z" fill="#fff"/><path d="m270.999 283.499h6c2.762 0 5-2.239 5-5v-19c0-2.762-2.238-5-5-5h-6c-2.761 0-5 2.239-5 5v19c0 2.762 2.238 5 5 5z" fill="#fff"/><path d="m295.999 283.499h6c2.762 0 5-2.239 5-5v-19c0-2.762-2.238-5-5-5h-6c-2.761 0-5 2.239-5 5v19c0 2.762 2.238 5 5 5z" fill="#fff"/><g fill="#2b2ab5"><path d="m152.262 248.499h-13.566c-2.403 0-4.612-1.609-5.084-3.965-.644-3.214 1.796-6.035 4.896-6.035h13.566c2.403 0 4.612 1.609 5.084 3.965.644 3.214-1.796 6.035-4.896 6.035z"/><path d="m179.892 275.499h-41.196c-2.403 0-4.612-1.609-5.084-3.965-.644-3.214 1.796-6.035 4.896-6.035h41.196c2.403 0 4.612 1.609 5.084 3.965.644 3.214-1.796 6.035-4.896 6.035z"/><path d="m179.892 291.499h-41.196c-2.403 0-4.612-1.609-5.084-3.965-.644-3.214 1.796-6.035 4.896-6.035h41.196c2.403 0 4.612 1.609 5.084 3.965.644 3.214-1.796 6.035-4.896 6.035z"/><path d="m92.547 150.499h-1.548v-10h6.324c2.404 0 4.613-1.611 5.084-3.968.642-3.214-1.797-6.032-4.897-6.032h-6.511v-2.294c0-2.408-1.616-4.623-3.979-5.086-3.21-.628-6.021 1.786-6.021 4.853v2.527h-1.233c-7.709 0-14.498 5.626-15.36 13.288-1.016 9.035 6.126 16.712 15.043 16.712h1.549v10h-6.324c-2.404 0-4.613 1.611-5.084 3.968-.642 3.214 1.797 6.032 4.897 6.032h6.511v2.296c0 2.408 1.616 4.624 3.979 5.086 3.21.629 6.021-1.786 6.021-4.853v-2.528h1.232c7.709 0 14.498-5.626 15.361-13.286 1.017-9.035-6.125-16.715-15.044-16.715zm-12.548.069c-3.107 0-5.413-2.306-5.413-5.141s2.306-5.141 5.14-4.927h2.273v10h-2zm12.243 19.931h-1.243v-10h1.506c2.91 0 5.247 2.497 4.98 5.46-.236 2.623-2.61 4.54-5.243 4.54z"/><path d="m270.944 332.499h-17.155c-2.404 0-4.613 1.61-5.084 3.968-.642 3.214 1.797 6.032 4.897 6.032h17.155c2.404 0 4.613-1.611 5.084-3.968.642-3.214-1.798-6.032-4.897-6.032z"/><path d="m482.932 164.499h-60.933v-16.052-.103c0-14.274-11.571-25.845-25.845-25.845h-.025-256.13v-6c0-8.284-6.716-15-15-15h-78c-8.284 0-15 6.716-15 15v78c0 8.284 6.716 15 15 15h56v78.89c0 2.404 1.611 4.613 3.968 5.084 3.214.642 6.032-1.797 6.032-4.897v-79.077h12.729c7.702 0 14.058-5.863 14.889-13.376 7.949-1.81 14.66-6.695 18.934-13.275 5.496 8.446 14.992 14.043 25.771 14.043 10.778 0 20.275-5.599 25.771-14.045 5.496 8.447 14.992 14.045 25.772 14.045 10.778 0 20.275-5.599 25.771-14.045 5.496 8.447 14.993 14.045 25.772 14.045 10.778 0 20.275-5.599 25.771-14.045 5.496 8.447 14.991 14.045 25.771 14.045s20.275-5.599 25.772-14.045c5.241 8.055 14.119 13.518 24.279 14.007v60.646c0 8.284 6.716 15 15 15h7v39h-304.985l-.022-.002c-2.747-.274-4.995 1.761-4.995 4.522v20.48h-15.523c-9.652 0-17.477 7.825-17.477 17.477v11.626c0 14.855 12.042 26.897 26.897 26.897h332.206c14.855 0 26.897-12.042 26.897-26.897v-11.627c0-9.652-7.824-17.476-17.476-17.476h-15.524v-64h61c8.284 0 15-6.716 15-15v-77.992c.001-8.275-6.758-15.008-15.067-15.008zm-77.936 172c-2.404 0-4.613 1.61-5.084 3.968-.642 3.214 1.797 6.032 4.897 6.032h7.19v8h-43v-8h8.066c2.404 0 4.613-1.611 5.084-3.968.642-3.214-1.797-6.032-4.897-6.032h-45.359c-3.699 0-7.096 2.042-8.832 5.309l-6.742 12.691h-108.091l-6.743-12.692c-1.735-3.266-5.132-5.308-8.831-5.308h-80.655v-15h300v15zm-248.993 18h-43.004v-8h43zm288.996-.49v11.593c0 9.332-7.565 16.897-16.897 16.897h-332.205c-9.332 0-16.898-7.566-16.898-16.898v-11.626c0-4.129 3.347-7.476 7.476-7.476h16.524v8c0 5.523 4.477 10 10 10h43c5.523 0 10-4.477 10-10v-8h27.942l6.561 12.59c1.741 3.337 5.124 5.41 8.831 5.41h106.031c3.707 0 7.09-2.073 8.832-5.412l6.56-12.588h28.244v8c0 5.523 4.477 10 10 10h42.999c5.523 0 10-4.477 10-10v-8h15.523c4.122 0 7.477 3.37 7.477 7.51zm-320-154.51h-78c-2.761 0-5-2.239-5-5v-78c0-2.761 2.239-5 5-5h78c2.761 0 5 2.239 5 5v78c0 2.762-2.239 5-5 5zm15-13.804v-53.196h14v33.606c0 8.944-5.782 16.708-14 19.59zm24-20.045v-33.151h42v33.606c0 12.872-11.874 23.05-25.343 20.36-9.787-1.954-16.657-10.835-16.657-20.815zm72 21.249c-11.58 0-21.001-9.328-21.001-20.794v-33.606h42v33.606c.001 11.466-9.419 20.794-20.999 20.794zm52.001 0c-11.58 0-21.001-9.328-21.001-20.794v-33.606h42v33.606c0 11.466-9.42 20.794-20.999 20.794zm51.998 0c-11.579 0-21-9.328-21-20.794v-33.606h42v33.606c.001 11.466-9.419 20.794-21 20.794zm31.001-20.636v-33.764h25.149c8.754 0 15.851 7.097 15.851 15.851v16.149h-7c-8.284 0-15 6.716-15 15v7.483c-10.601-.772-19-9.757-19-20.719zm112 96.236h-78c-2.761 0-5-2.239-5-5v-78c0-2.761 2.239-5 5-5h78c2.762 0 5 2.239 5 5v78c0 2.762-2.239 5-5 5z"/><path d="m426.562 214.229c-7.175 0-13.012-5.837-13.012-13.012 0-7.174 5.837-13.011 13.012-13.011 7.174 0 13.011 5.837 13.011 13.011-.001 7.176-5.838 13.012-13.011 13.012zm0-16.022c-1.661 0-3.012 1.351-3.012 3.011 0 1.661 1.351 3.012 3.012 3.012 1.66 0 3.011-1.351 3.011-3.012-.001-1.66-1.351-3.011-3.011-3.011z"/><path d="m460.891 248.559c-7.174 0-13.011-5.837-13.011-13.011s5.837-13.011 13.011-13.011 13.011 5.837 13.011 13.011-5.838 13.011-13.011 13.011zm0-16.022c-1.66 0-3.011 1.351-3.011 3.011s1.351 3.011 3.011 3.011 3.011-1.351 3.011-3.011-1.351-3.011-3.011-3.011z"/><path d="m429.532 237.576c-1.279 0-2.56-.488-3.535-1.465-1.953-1.952-1.953-5.118 0-7.07l28.387-28.387c1.951-1.953 5.119-1.953 7.07 0 1.953 1.952 1.953 5.118 0 7.07l-28.387 28.387c-.975.977-2.255 1.465-3.535 1.465z"/></g><path d="m465.769 94.581c-3.74 0-7.479-1.423-10.325-4.271-5.694-5.693-5.694-14.957 0-20.65 5.691-5.693 14.956-5.694 20.651-.001 5.694 5.694 5.694 14.958 0 20.651v.001c-2.847 2.846-6.587 4.27-10.326 4.27zm6.791-8.082h.01zm-6.791-11.114c-1.179 0-2.357.449-3.255 1.346-1.794 1.795-1.794 4.715 0 6.51 1.795 1.793 4.716 1.794 6.511-.001 1.794-1.794 1.794-4.714 0-6.509-.898-.897-2.078-1.346-3.256-1.346z" fill="#6e80f8"/><path d="m418.673 444.661c-3.74 0-7.479-1.423-10.325-4.271-5.694-5.693-5.694-14.957 0-20.65 5.691-5.693 14.956-5.694 20.651-.001 5.694 5.694 5.694 14.958 0 20.651v.001c-2.847 2.846-6.587 4.27-10.326 4.27zm6.668-8.162h.01zm-6.791-11.034c-1.179 0-2.357.449-3.255 1.346-1.794 1.795-1.794 4.715 0 6.51 1.795 1.793 4.716 1.794 6.511-.001 1.794-1.794 1.794-4.714 0-6.509-.898-.897-2.077-1.346-3.256-1.346z" fill="#6e80f8"/><path d="m175.673 447.455c-3.74 0-7.479-1.423-10.325-4.271-5.694-5.693-5.694-14.958 0-20.651 5.691-5.693 14.956-5.694 20.651-.001 5.694 5.694 5.694 14.959 0 20.652v.001c-2.846 2.846-6.587 4.27-10.326 4.27zm6.407-7.956h.01zm-6.791-11.241c-1.179 0-2.357.449-3.255 1.346-1.794 1.795-1.794 4.716 0 6.511 1.795 1.793 4.716 1.794 6.511-.001 1.794-1.795 1.794-4.715 0-6.51-.898-.897-2.077-1.346-3.256-1.346z" fill="#6e80f8"/><path d="m91.062 56.499h-3.063v-3.063c0-2.404-1.611-4.613-3.968-5.084-3.214-.642-6.032 1.798-6.032 4.897v3.25h-3.063c-2.404 0-4.613 1.611-5.084 3.968-.642 3.214 1.797 6.032 4.897 6.032h3.25v3.063c0 2.404 1.611 4.613 3.968 5.084 3.214.642 6.032-1.797 6.032-4.897v-3.25h3.25c3.099 0 5.539-2.818 4.897-6.032-.471-2.357-2.681-3.968-5.084-3.968z" fill="#6e80f8"/><path d="m466.062 400.499h-3.063v-3.063c0-2.404-1.611-4.613-3.968-5.084-3.214-.642-6.032 1.798-6.032 4.897v3.25h-3.063c-2.404 0-4.613 1.61-5.084 3.968-.642 3.214 1.797 6.032 4.897 6.032h3.25v3.063c0 2.404 1.611 4.613 3.968 5.084 3.214.642 6.032-1.797 6.032-4.897v-3.25h3.25c3.099 0 5.539-2.818 4.897-6.032-.471-2.357-2.681-3.968-5.084-3.968z" fill="#6e80f8"/></g></svg>