<svg id="Capa_1" enable-background="new 0 0 512 512" height="512" viewBox="0 0 512 512" width="512" xmlns="http://www.w3.org/2000/svg" xmlns:xlink="http://www.w3.org/1999/xlink"><linearGradient id="SVGID_1_" gradientUnits="userSpaceOnUse" x1="0" x2="512" y1="256" y2="256"><stop offset="0" stop-color="#d2deff" stop-opacity="0"/><stop offset="1" stop-color="#b7c5ff"/></linearGradient><g><g><path d="m4.896 324.259c17.448 172.871 292.417 167.142 420.803 136.265 82.47-19.834 87.596-59.472 86.106-144.001-.96-54.486 3.443-198.725-32.004-244.123-54.448-69.733-103.228-25.998-170.656-3.235-86.488 29.197-120.189-22.932-202.476-21.379-120.641 2.277-110.778 187.251-101.773 276.473z" fill="url(#SVGID_1_)"/></g><g><g><path d="m399.213 117.356h-18.667c-2.761 0-5 2.239-5 5s2.239 5 5 5h6.595l-86.868 86.868v-6.596c0-2.761-2.239-5-5-5s-5 2.239-5 5v18.667c0 2.761 2.239 5 5 5h18.667c2.761 0 5-2.239 5-5s-2.239-5-5-5h-6.595l86.867-86.868v6.595c0 2.761 2.239 5 5 5s5-2.239 5-5v-18.667c.001-2.76-2.238-4.999-4.999-4.999z" fill="#6583fe" opacity=".2"/><path d="m269.167 284.167h-26.333c-2.761 0-5-2.239-5-5v-26.333c0-2.761 2.239-5 5-5h26.333c2.761 0 5 2.239 5 5v26.333c0 2.761-2.239 5-5 5z" fill="#6583fe" opacity=".2"/><g opacity=".2"><path d="m449.151 104.183c2.762 0 5-2.239 5-5v-26.334c0-2.761-2.238-5-5-5h-26.333c-2.761 0-5 2.239-5 5v8.167h-143.651v-8.167c0-2.761-2.239-5-5-5h-26.333c-2.761 0-5 2.239-5 5v8.167h-143.651v-8.167c0-2.761-2.239-5-5-5h-26.334c-2.762 0-5 2.239-5 5v26.333c0 2.761 2.238 5 5 5h8.166v143.651h-8.166c-2.762 0-5 2.239-5 5v26.333c0 2.761 2.238 5 5 5h8.166v143.651h-8.166c-2.762 0-5 2.238-5 5v26.333c0 2.761 2.238 5 5 5h26.333c2.761 0 5-2.239 5-5v-8.167h143.651v8.167c0 2.761 2.239 5 5 5h26.333c2.761 0 5-2.239 5-5v-8.167h143.651v8.167c0 2.761 2.239 5 5 5h26.333c2.762 0 5-2.239 5-5v-26.333c0-2.762-2.238-5-5-5h-8.166v-143.65h8.166c2.762 0 5-2.239 5-5v-26.333c0-2.761-2.238-5-5-5h-8.166v-143.651zm-18.167 143.65h-8.167c-2.761 0-5 2.239-5 5v26.333c0 2.761 2.239 5 5 5h8.167v143.651h-8.167c-2.761 0-5 2.238-5 5v8.167h-143.65v-8.167c0-2.762-2.239-5-5-5h-26.333c-2.761 0-5 2.238-5 5v8.167h-143.651v-8.167c0-2.762-2.239-5-5-5h-8.167v-143.65h8.167c2.761 0 5-2.239 5-5v-26.333c0-2.761-2.239-5-5-5h-8.167v-143.651h8.167c2.761 0 5-2.239 5-5v-8.167h143.651v8.167c0 2.761 2.239 5 5 5h26.333c2.761 0 5-2.239 5-5v-8.167h143.651v8.167c0 2.761 2.239 5 5 5h8.167v143.65z" fill="#6583fe"/></g><path d="m75.925 245.904h180.08v180.08h-180.08z" fill="#fff"/><ellipse cx="151.921" cy="351.714" fill="#6583fe" rx="38.561" ry="38.561" transform="matrix(.247 -.969 .969 .247 -226.405 412.151)"/><path d="m256.005 425.984v-76.964c-13.446-4.679-27.907-7.226-42.95-7.226-55.78 0-103.378 34.98-122.105 84.19z" fill="#6583fe"/><g><path d="m261.005 430.984h-177.307l2.579-6.778c9.677-25.429 26.606-47.167 48.957-62.862 22.871-16.06 49.78-24.549 77.821-24.549 15.281 0 30.285 2.524 44.593 7.504l3.357 1.168zm-162.57-10h152.569v-68.356c-12.232-3.872-24.981-5.833-37.95-5.833-49.352-.001-94.516 29.528-114.619 74.189z" fill="#2626bc"/></g><path d="m211.925 425.984h-136v-52.058c14.126-9.222 30.988-14.574 49.103-14.574 41.609 0 76.631 28.252 86.897 66.632z" fill="#6583fe"/><g><path d="m218.438 430.984h-147.513v-59.765l2.267-1.48c15.42-10.066 33.345-15.387 51.836-15.387 42.931 0 80.651 28.925 91.728 70.34zm-137.513-10h124.223c-11.867-33.655-43.922-56.632-80.12-56.632-15.646 0-30.835 4.256-44.102 12.331v44.301z" fill="#2626bc"/></g><g fill="#fff"><path d="m89.183 84.183h-26.334c-2.761 0-5-2.239-5-5v-26.334c0-2.762 2.239-5 5-5h26.333c2.761 0 5 2.238 5 5v26.333c.001 2.762-2.238 5.001-4.999 5.001z"/><path d="m269.167 84.183h-26.333c-2.761 0-5-2.239-5-5v-26.334c0-2.762 2.239-5 5-5h26.333c2.761 0 5 2.238 5 5v26.333c0 2.762-2.239 5.001-5 5.001z"/><path d="m449.151 84.183h-26.333c-2.761 0-5-2.239-5-5v-26.334c0-2.762 2.239-5 5-5h26.333c2.761 0 5 2.238 5 5v26.333c0 2.762-2.239 5.001-5 5.001z"/></g><g fill="#fff"><path d="m89.183 444.151h-26.334c-2.761 0-5-2.239-5-5v-26.333c0-2.761 2.239-5 5-5h26.333c2.761 0 5 2.239 5 5v26.333c.001 2.761-2.238 5-4.999 5z"/><path d="m269.167 444.151h-26.333c-2.761 0-5-2.239-5-5v-26.333c0-2.761 2.239-5 5-5h26.333c2.761 0 5 2.239 5 5v26.333c0 2.761-2.239 5-5 5z"/><path d="m269.167 264.167h-26.333c-2.761 0-5-2.239-5-5v-26.333c0-2.761 2.239-5 5-5h26.333c2.761 0 5 2.239 5 5v26.333c0 2.761-2.239 5-5 5z"/><path d="m449.151 444.151h-26.333c-2.761 0-5-2.239-5-5v-26.333c0-2.761 2.239-5 5-5h26.333c2.761 0 5 2.239 5 5v26.333c0 2.761-2.239 5-5 5z"/></g><g><path d="m417.817 259.167v-26.333c0-2.761 2.239-5 5-5h26.333c2.761 0 5 2.239 5 5v26.333c0 2.761-2.239 5-5 5h-26.333c-2.761 0-5-2.239-5-5z" fill="#fff"/></g><g><path d="m57.849 259.167v-26.333c0-2.761 2.239-5 5-5h26.333c2.761 0 5 2.239 5 5v26.333c0 2.761-2.239 5-5 5h-26.333c-2.761 0-5-2.239-5-5z" fill="#fff"/></g><g fill="#2626bc"><path d="m449.15 89.183c5.514 0 10-4.486 10-10v-26.333c0-5.514-4.486-10-10-10h-26.333c-5.514 0-10 4.486-10 10v8.166h-133.651v-8.166c0-5.514-4.486-10-10-10h-26.333c-5.514 0-10 4.486-10 10v8.166h-133.65v-8.166c0-5.514-4.486-10-10-10h-26.333c-5.514 0-10 4.486-10 10v26.333c0 5.514 4.486 10 10 10h8.166v133.651h-8.166c-5.514 0-10 4.486-10 10v26.333c0 5.514 4.486 10 10 10h8.166v103.5c0 2.761 2.239 5 5 5s5-2.239 5-5v-103.5h8.167c5.514 0 10-4.486 10-10v-26.333c0-5.514-4.486-10-10-10h-8.167v-133.651h8.167c5.514 0 10-4.486 10-10v-8.166h133.651v8.166c0 5.514 4.486 10 10 10h26.333c5.514 0 10-4.486 10-10v-8.166h133.651v8.166c0 5.514 4.486 10 10 10h8.166v133.651h-8.166c-5.514 0-10 4.486-10 10v26.333c0 5.514 4.486 10 10 10h8.166v133.651h-8.166c-5.514 0-10 4.486-10 10v8.166h-133.652v-8.166c0-5.514-4.486-10-10-10h-8.166v-133.652h8.166c5.514 0 10-4.486 10-10v-26.333c0-5.514-4.486-10-10-10h-26.333c-5.514 0-10 4.486-10 10v8.075h-104.958c-2.761 0-5 2.239-5 5s2.239 5 5 5h104.958v8.258c0 5.514 4.486 10 10 10h8.167v133.651h-8.167c-5.514 0-10 4.486-10 10v8.166h-133.65v-8.166c0-5.514-4.486-10-10-10h-26.333c-5.514 0-10 4.486-10 10v26.333c0 5.514 4.486 10 10 10h26.333c5.514 0 10-4.486 10-10v-8.167h133.651v8.167c0 5.514 4.486 10 10 10h26.333c5.514 0 10-4.486 10-10v-8.167h133.651v8.167c0 5.514 4.486 10 10 10h26.333c5.514 0 10-4.486 10-10v-26.333c0-5.514-4.486-10-10-10h-8.167v-133.651h8.167c5.514 0 10-4.486 10-10v-26.333c0-5.514-4.486-10-10-10h-8.167v-133.65zm-359.967 169.983-26.333.006v-26.339h26.333zm-26.333-179.983v-26.333h26.333l.006 26.333zm179.983 0v-26.333h26.333l.006 26.333zm0 153.65h26.333l.006 26.332-26.339.001zm-179.983 206.317v-26.333h26.333l.006 26.332zm179.983 0v-26.333h26.333l.006 26.332zm206.324 0h-26.339v-26.333h26.333zm-.007-179.984-26.332.006v-26.339h26.333v26.333zm-26.333-206.316h26.333l.006 26.333h-26.339z"/><path d="m295.273 182.628c-2.761 0-5 2.239-5 5v18.667c0 2.761 2.239 5 5 5h18.667c2.761 0 5-2.239 5-5s-2.239-5-5-5h-6.595l86.868-86.868v6.595c0 2.761 2.239 5 5 5s5-2.239 5-5v-18.667c0-2.761-2.239-5-5-5h-18.667c-2.761 0-5 2.239-5 5s2.239 5 5 5h6.595l-86.868 86.868v-6.596c0-2.76-2.238-4.999-5-4.999z"/></g><g><path d="m394.193 385.052h-78.053c-2.762 0-5 2.239-5 5s2.238 5 5 5h78.053c2.762 0 5-2.239 5-5s-2.238-5-5-5z" fill="#6583fe" opacity=".2"/><path d="m369.12 349.453c2.762 0 5-2.239 5-5 0-3.646 2.967-6.613 6.613-6.613s6.613 2.967 6.613 6.613c0 2.761 2.238 5 5 5s5-2.239 5-5c0-4.518-1.818-8.615-4.755-11.613 2.936-2.998 4.755-7.095 4.755-11.613 0-9.161-7.453-16.613-16.613-16.613s-16.613 7.453-16.613 16.613c0 4.518 1.818 8.615 4.755 11.613-2.936 2.998-4.755 7.095-4.755 11.613 0 2.761 2.239 5 5 5zm11.614-34.84c3.646 0 6.613 2.967 6.613 6.613 0 3.647-2.967 6.613-6.613 6.613-3.647 0-6.613-2.967-6.613-6.613-.001-3.646 2.966-6.613 6.613-6.613z" fill="#6583fe" opacity=".2"/><g><g><g><path d="m394.213 353.641h-11.52c-2.762 0-5-2.239-5-5s2.238-5 5-5h11.52c2.762 0 5 2.239 5 5s-2.238 5-5 5z" fill="#2626bc"/></g><g><path d="m362.679 353.641h-46.52c-2.762 0-5-2.239-5-5s2.238-5 5-5h46.52c2.762 0 5 2.239 5 5s-2.238 5-5 5z" fill="#2626bc"/></g><g><path d="m394.213 374.974h-78.053c-2.762 0-5-2.239-5-5s2.238-5 5-5h78.053c2.762 0 5 2.239 5 5 0 2.762-2.238 5-5 5z" fill="#2626bc"/></g></g><path d="m397.366 301.149c0-9.161-7.453-16.613-16.613-16.613s-16.613 7.453-16.613 16.613c0 4.518 1.818 8.615 4.755 11.613-2.936 2.998-4.755 7.095-4.755 11.613 0 2.761 2.238 5 5 5s5-2.239 5-5c0-3.647 2.967-6.613 6.613-6.613 3.647 0 6.613 2.967 6.613 6.613 0 2.761 2.238 5 5 5s5-2.239 5-5c0-4.518-1.818-8.615-4.755-11.613 2.937-2.998 4.755-7.095 4.755-11.613zm-16.613-6.614c3.647 0 6.613 2.967 6.613 6.613s-2.967 6.613-6.613 6.613-6.613-2.967-6.613-6.613 2.966-6.613 6.613-6.613z" fill="#2626bc"/></g></g></g><g fill="#6583fe"><path d="m165.921 186.913c-1.28 0-2.559-.488-3.536-1.464-1.953-1.953-1.953-5.119 0-7.071l10-10c1.953-1.952 5.118-1.952 7.071 0 1.953 1.953 1.953 5.119 0 7.071l-10 10c-.976.975-2.255 1.464-3.535 1.464z"/><path d="m131.694 144.693c-2.761 0-5-2.239-5-5 0-3.309-2.691-6-6-6-2.761 0-5-2.239-5-5s2.239-5 5-5c3.309 0 6-2.692 6-6.001 0-2.761 2.239-5 5-5s5 2.239 5 5c0 3.309 2.691 6.001 6 6.001 2.761 0 5 2.239 5 5s-2.239 5-5 5c-3.309 0-6 2.691-6 6 0 2.762-2.238 5-5 5z"/><path d="m326.925 294.529c-1.28 0-2.559-.488-3.536-1.464-1.953-1.953-1.953-5.119 0-7.071l10-10c1.953-1.952 5.118-1.952 7.071 0 1.953 1.953 1.953 5.119 0 7.071l-10 10c-.976.976-2.255 1.464-3.535 1.464z"/><g><path d="m385.079 45.755c-2.761 0-5-2.239-5-5 0-3.309-2.691-6-6-6-2.761 0-5-2.239-5-5s2.239-5 5-5c3.309 0 6-2.691 6-6 0-2.761 2.239-5 5-5s5 2.239 5 5c0 3.309 2.691 6 6 6 2.761 0 5 2.239 5 5s-2.239 5-5 5c-3.309 0-6 2.691-6 6 0 2.761-2.239 5-5 5z"/><path d="m151.921 498.245c-2.761 0-5-2.239-5-5 0-3.309-2.691-6-6-6-2.761 0-5-2.239-5-5s2.239-5 5-5c3.309 0 6-2.691 6-6 0-2.761 2.239-5 5-5s5 2.239 5 5c0 3.309 2.691 6 6 6 2.761 0 5 2.239 5 5s-2.239 5-5 5c-3.309 0-6 2.691-6 6 0 2.761-2.239 5-5 5z"/></g></g></g></g></svg>