<svg id="Capa_1" enable-background="new 0 0 512.001 512.001" height="512" viewBox="0 0 512.001 512.001" width="512" xmlns="http://www.w3.org/2000/svg" xmlns:xlink="http://www.w3.org/1999/xlink"><linearGradient id="SVGID_1_" gradientTransform="matrix(1 0 0 -1 -561.6 -5522.989)" gradientUnits="userSpaceOnUse" x1="875.688" x2="824.267" y1="-5495.944" y2="-5753.046"><stop offset="0" stop-color="#d2dbfc" stop-opacity="0"/><stop offset="1" stop-color="#b8c1fb"/></linearGradient><g><g><path d="m38.146 134.71c19.974-57.707 57.562-157.818 137.712-129.893 31.204 10.872 41.003 52.164 72.37 57.311 29.626 4.861 54.704-24.255 82.89-29.776 35.014-6.859 72.067 2.317 85.37 36.48 15.916 40.874-30.997 86.737-19.655 124.062 18.708 61.564 87.863-40.471 100.229 58.88 17.304 139.025-136.801 386.519-240.619 182.998-52.643-103.199-107.815-30.825-189.876-82.161-77.922-48.747-53.805-144.567-28.421-217.901z" fill="url(#SVGID_1_)"/><path d="m443.904 385.654c-2.82-27.839-15.736-52.707-35.004-70.882-5.635-5.32-11.817-10.066-18.451-14.149h25.534c5.523 0 10-4.477 10-10v-78c0-5.523-4.477-10-10-10h-77.841c-2.993 0-5.673 1.311-7.513 3.38-24.961-67.177-56.917-112.412-77.358-136.878-8.014-9.592-22.745-9.606-30.76-.015-5.199 6.222-11.144 13.791-17.528 22.72v-30.877c0-5.153-4.177-9.33-9.33-9.33h-85.34c-5.153 0-9.33 4.177-9.33 9.33v69.34c0 5.153 4.177 9.33 9.33 9.33h64.773c-20.14 37.229-40.269 85.999-53.15 146.78-48.194 9.494-85.38 49.632-90.43 99.279-.596 5.864 4.068 10.941 9.962 10.941h67.859c-.082 2.159-.162 4.322-.225 6.502-.327 11.273 8.722 20.498 19.999 20.498h28.507l-6.309 11.97-11.808 22.409c-3.491 6.642 1.316 14.62 8.826 14.62h16.666v14c0 5.523 4.477 10 10 10h16c5.523 0 10-4.477 10-10v-14h74v14c0 5.523 4.477 10 10 10h16c5.523 0 10-4.477 10-10v-14h16.697c7.51 0 12.317-7.978 8.826-14.62l-11.808-22.409-6.309-11.97h28.509c11.274 0 20.327-9.314 19.998-20.584-.063-2.151-.141-4.285-.222-6.416h66.301c6.012 0 10.93-4.918 10.93-10.93v-.039z" fill="#2b2ab5" opacity=".11"/><path d="m208.983 478.623h-16c-5.523 0-10-4.477-10-10v-31h36v31c0 5.523-4.477 10-10 10z" fill="#6e80f8"/><path d="m318.983 478.623h-16c-5.523 0-10-4.477-10-10v-31h36v31c0 5.523-4.477 10-10 10z" fill="#6e80f8"/><path d="m345.775 454.623h-179.549c-7.538 0-12.363-8.008-8.859-14.675l11.852-22.494 10.451-19.831h152.661l10.451 19.831 11.852 22.494c3.504 6.667-1.321 14.675-8.859 14.675z" fill="#fff"/><path d="m451.403 378.623h-102.42v-112.35c30.01 0 57.28 11.7 77.5 30.79 19.2 18.11 32.07 42.89 34.88 70.63.6 5.86-4.07 10.93-9.96 10.93z" fill="#fff"/><path d="m50.599 367.685c5.792-56.964 53.891-101.416 112.384-101.416v112.354h-102.422c-5.893-.001-10.558-5.076-9.962-10.938z" fill="#fff"/><path d="m240.592 51.156c-36.202 43.573-108.481 152.678-113.634 333.881-.32 11.268 8.725 20.586 19.997 20.586h218.09c11.273 0 20.318-9.317 19.997-20.586-5.153-181.203-77.431-290.308-113.634-333.881-8.019-9.652-22.796-9.652-30.816 0z" fill="#fff"/><path d="m291.461 77.53c-9.51 8.21-21.9 13.18-35.46 13.18s-25.95-4.97-35.46-13.18c7.34-10.57 14.17-19.37 20.05-26.45 8.02-9.65 22.8-9.65 30.82 0 5.879 7.08 12.71 15.88 20.05 26.45z" fill="#6e80f8"/><path d="m284.983 404.623h-57v-95c0-2.761 2.239-5 5-5h47c2.762 0 5 2.239 5 5z" fill="#6e80f8"/><path d="m433.983 282.623h-78c-5.523 0-10-4.477-10-10v-78c0-5.523 4.477-10 10-10h78c5.523 0 10 4.477 10 10v78c0 5.523-4.477 10-10 10z" fill="#6e80f8"/><path d="m222.983 42.953v69.34c0 5.153-4.177 9.33-9.33 9.33h-85.34c-5.153 0-9.33-4.177-9.33-9.33v-69.34c0-5.153 4.177-9.33 9.33-9.33h85.34c5.153 0 9.33 4.177 9.33 9.33z" fill="#fff"/><path d="m160.876 62.623h-16.519c-2.403 0-4.612-1.609-5.084-3.965-.644-3.214 1.796-6.035 4.896-6.035h16.519c2.403 0 4.612 1.609 5.084 3.965.644 3.214-1.796 6.035-4.896 6.035z" fill="#2b2ab5"/><path d="m222.983 61.562v50.732c0 5.153-4.177 9.33-9.33 9.33h-85.34c-5.153 0-9.33-4.177-9.33-9.33v-15.67h17.673c2.661 0 5.222-1.042 7.099-2.909l13.335-13.183c1.888-1.856 4.438-2.909 7.109-2.909h38.379c1.366 0 2.701-.278 3.936-.794 1.175-.496 2.249-1.201 3.163-2.114z" fill="#6e80f8"/><g fill="#2b2ab5"><path d="m278.983 383.48v-65.007c0-2.403 1.609-4.612 3.965-5.084 3.214-.644 6.035 1.796 6.035 4.896v65.006c0 2.403-1.609 4.612-3.965 5.085-3.213.645-6.035-1.797-6.035-4.896z"/><circle cx="212.321" cy="344.276" r="5.59"/><circle cx="212.321" cy="327.366" r="5.59"/><circle cx="212.321" cy="310.456" r="5.59"/></g><circle cx="256.001" cy="180.453" fill="#fff" r="45.147"/><path d="m134.067 173.369c-3.739 0-7.479-1.423-10.325-4.27-2.759-2.758-4.278-6.425-4.278-10.326s1.52-7.568 4.278-10.326 6.425-4.277 10.325-4.277 7.567 1.519 10.326 4.278c5.693 5.693 5.693 14.957-.001 20.651-2.846 2.847-6.585 4.27-10.325 4.27zm0-19.199c-1.229 0-2.385.479-3.254 1.348-.87.87-1.35 2.026-1.35 3.255s.479 2.385 1.349 3.254c1.796 1.795 4.716 1.796 6.51 0 1.794-1.794 1.794-4.714 0-6.509-.87-.869-2.025-1.348-3.255-1.348z" fill="#6e80f8"/><path d="m345.844 76.901c-4.031 0-7.814-1.623-10.602-4.561-5.202-5.482-5.29-14.286-.199-19.87 5.64-6.186 15.271-6.352 21.125-.498 5.694 5.694 5.694 14.958 0 20.651h.001c-.001 0-.001 0-.001 0-2.757 2.759-6.425 4.278-10.324 4.278zm0-19.134c-2.03 0-4.057 1.331-4.657 3.989-.087.386-.091.793-.009 1.181.536 2.526 2.483 4.035 4.666 4.035 1.23 0 2.385-.479 3.254-1.348h.413c.552 0 1.013-.421 1.081-.968.577-4.604-2.088-6.889-4.748-6.889z" fill="#6e80f8"/><path d="m429.045 153.623h-3.062v-3.062c0-2.404-1.61-4.614-3.968-5.085-3.214-.643-6.032 1.798-6.032 4.897v3.25h-3.062c-2.403 0-4.612 1.609-5.084 3.965-.644 3.214 1.796 6.035 4.896 6.035h3.25v3.062c0 2.404 1.611 4.613 3.968 5.085 3.214.642 6.032-1.799 6.032-4.897v-3.25h3.25c3.1 0 5.54-2.821 4.896-6.035-.472-2.356-2.681-3.965-5.084-3.965z" fill="#6e80f8"/><path d="m114.045 184.623h-3.062v-3.062c0-2.404-1.61-4.613-3.968-5.085-3.214-.642-6.032 1.799-6.032 4.897v3.25h-3.062c-2.403 0-4.612 1.609-5.084 3.965-.644 3.214 1.796 6.035 4.896 6.035h3.25v3.062c0 2.404 1.611 4.614 3.968 5.085 3.214.642 6.032-1.799 6.032-4.897v-3.25h3.25c3.1 0 5.541-2.821 4.896-6.035-.472-2.356-2.681-3.965-5.084-3.965z" fill="#6e80f8"/><path d="m135.045 425.623h-3.062v-3.062c0-2.404-1.61-4.613-3.968-5.085-3.214-.642-6.032 1.798-6.032 4.897v3.25h-3.062c-2.403 0-4.612 1.609-5.084 3.965-.644 3.214 1.796 6.035 4.896 6.035h3.25v3.062c0 2.404 1.611 4.613 3.968 5.085 3.214.642 6.032-1.798 6.032-4.897v-3.25h3.25c3.1 0 5.54-2.821 4.896-6.035-.472-2.356-2.681-3.965-5.084-3.965z" fill="#6e80f8"/><g fill="#2b2ab5"><path d="m432.911 354.623h-28.666c-2.403 0-4.612-1.609-5.084-3.965-.644-3.214 1.796-6.035 4.896-6.035h28.666c2.403 0 4.612 1.609 5.084 3.965.645 3.214-1.795 6.035-4.896 6.035z"/><path d="m107.944 354.623h-28.666c-2.403 0-4.612-1.609-5.084-3.965-.644-3.214 1.796-6.035 4.896-6.035h28.666c2.403 0 4.612 1.609 5.084 3.965.644 3.214-1.796 6.035-4.896 6.035z"/><path d="m377.651 229.378c-7.174 0-13.011-5.836-13.011-13.011s5.837-13.011 13.011-13.011 13.011 5.836 13.011 13.011c-.001 7.175-5.837 13.011-13.011 13.011zm0-16.021c-1.66 0-3.011 1.351-3.011 3.011s1.351 3.011 3.011 3.011 3.011-1.351 3.011-3.011-1.35-3.011-3.011-3.011z"/><path d="m411.98 263.708c-7.174 0-13.011-5.836-13.011-13.011s5.837-13.011 13.011-13.011 13.011 5.836 13.011 13.011-5.837 13.011-13.011 13.011zm0-16.021c-1.66 0-3.011 1.351-3.011 3.011s1.351 3.011 3.011 3.011 3.011-1.351 3.011-3.011-1.35-3.011-3.011-3.011z"/><path d="m380.622 252.726c-1.279 0-2.56-.488-3.535-1.464-1.953-1.953-1.953-5.119 0-7.071l28.386-28.386c1.951-1.952 5.119-1.952 7.07 0 1.953 1.953 1.953 5.119 0 7.071l-28.386 28.386c-.975.975-2.255 1.464-3.535 1.464z"/><path d="m248.181 284.623h-5.395c-6.519 0-11.803-5.284-11.803-11.803v-16.394c0-6.519 5.284-11.803 11.803-11.803h5.395c6.518 0 11.802 5.284 11.802 11.802v16.396c0 6.518-5.284 11.802-11.802 11.802zm-7.198-28.197v16.395c0 .995.807 1.802 1.802 1.802h5.396c.991 0 1.802-.811 1.802-1.802v-16.395c0-.992-.811-1.803-1.803-1.803h-5.394c-.995 0-1.803.807-1.803 1.803z"/><path d="m270.983 281.267v-26.643h-2.027c-.565 0-1.107-.239-1.495-.65-4.044-4.287-1.076-9.35 3.077-9.35h8.51c1.068 0 1.934.866 1.934 1.934v33.128c0 4.152-5.063 7.123-9.35 3.076-.41-.389-.649-.931-.649-1.495z"/><path d="m256.001 130.306c-27.65 0-50.146 22.496-50.146 50.147s22.496 50.146 50.146 50.146 50.146-22.496 50.146-50.146c0-27.651-22.496-50.147-50.146-50.147zm0 90.294c-22.137 0-40.146-18.01-40.146-40.146 0-22.137 18.01-40.147 40.146-40.147s40.146 18.01 40.146 40.147c0 22.136-18.009 40.146-40.146 40.146z"/><path d="m228.081 185.453c-2.762 0-5-2.239-5-5 0-9.594 3.736-18.615 10.52-25.399 1.953-1.953 5.118-1.953 7.071 0s1.953 5.118.001 7.071c-4.896 4.896-7.592 11.405-7.592 18.329 0 2.76-2.238 4.999-5 4.999z"/></g></g><path d="m466.786 366.725c-3.191-31.386-18.495-59.55-42.604-79.22h9.606c8.271 0 15-6.729 15-15v-77.944c0-8.271-6.729-15-15-15h-77.944c-1.747 0-3.417.315-4.977.867-24.287-63.474-54.412-107.024-75.612-132.539-4.775-5.748-11.793-9.044-19.254-9.044s-14.479 3.297-19.254 9.044c-2.844 3.423-5.687 6.982-8.511 10.649v-15.74c0-7.902-6.429-14.331-14.331-14.331h-84.907c-7.902 0-14.331 6.429-14.331 14.331l-.002 69.049c0 7.902 6.429 14.33 14.33 14.33h56.459c-16.716 32.181-30.377 67.022-40.643 103.689-3.112 11.115-5.898 22.419-8.388 33.88-23.676 5.352-44.825 17.691-61.261 35.818-17.034 18.787-27.389 42.01-29.946 67.159-.425 4.173.951 8.359 3.774 11.484 2.847 3.152 6.915 4.959 11.161 4.959h61.868c-.017.552-.043 1.102-.059 1.655-.193 6.815 2.317 13.261 7.069 18.15 4.749 4.886 11.116 7.577 17.927 7.577h20.397l-14.302 27.144c-2.472 4.69-2.312 10.201.428 14.741s7.541 7.25 12.844 7.25h11.74v8.848c0 8.271 6.729 15 15 15h15.5c8.271 0 15-6.729 15-15v-8.848h64.875v8.848c0 8.271 6.729 15 15 15h15.5c8.271 0 15-6.729 15-15v-8.848h11.74c5.303 0 10.104-2.71 12.844-7.25s2.899-10.051.428-14.741l-14.302-27.144h20.397c6.811 0 13.178-2.691 17.927-7.577 4.752-4.89 7.263-11.335 7.069-18.15-.016-.552-.038-1.103-.055-1.655h61.863c4.246 0 8.314-1.808 11.161-4.959 2.825-3.124 4.2-7.31 3.776-11.482zm-222.348-312.446c2.87-3.454 7.084-5.435 11.563-5.435s8.692 1.981 11.562 5.435c5.22 6.282 10.996 13.69 17.095 22.245-8.323 5.95-18.341 9.187-28.657 9.187-9.999 0-19.567-2.963-27.765-8.568v-1.843c5.304-7.393 10.754-14.465 16.202-21.021zm-26.204 57.569c0 .597-.121 1.166-.341 1.684-.659 1.552-2.199 2.643-3.988 2.643h-84.907c-2.388 0-4.331-1.943-4.331-4.331v-10.646h12.598c3.962 0 7.831-1.605 10.605-4.395l13.271-13.271c.956-.951 2.218-1.475 3.553-1.475h38.221c2.018 0 3.991-.402 5.885-1.202 1.799-.769 3.395-1.85 4.72-3.192l4.715-4.714v38.899zm-89.236-73.38h84.907c2.388 0 4.331 1.943 4.331 4.331v16.006l-11.81 11.809c-.432.438-.955.79-1.538 1.039-.637.269-1.301.405-1.974.405h-38.221c-3.996 0-7.763 1.558-10.614 4.395l-13.29 13.289c-.921.926-2.206 1.457-3.525 1.457h-12.598v-48.401c.001-2.387 1.944-4.33 4.332-4.33zm-68.847 334.7c-1.443 0-2.772-.591-3.741-1.663-.944-1.045-1.387-2.383-1.245-3.769 2.339-23.01 11.815-44.261 27.405-61.455 14.002-15.443 31.737-26.294 51.591-31.674-6.302 31.774-10.242 64.745-11.764 98.56h-62.246zm153.412 95.365c0 2.757-2.243 5-5 5h-15.5c-2.757 0-5-2.243-5-5v-8.848h25.5zm110.375 0c0 2.757-2.243 5-5 5h-15.5c-2.757 0-5-2.243-5-5v-8.848h25.5zm51.863-72.53c-2.85 2.932-6.67 4.547-10.756 4.547h-142.662c-2.762 0-5 2.239-5 5s2.238 5 5 5h110.961l16.758 31.805c1.188 2.254.296 4.187-.143 4.914s-1.733 2.417-4.281 2.417h-179.355c-2.548 0-3.843-1.69-4.281-2.417s-1.33-2.66-.143-4.914l16.758-31.805h15.627c2.762 0 5-2.239 5-5s-2.238-5-5-5h-47.328c-4.086 0-7.906-1.615-10.756-4.547-2.854-2.936-4.36-6.805-4.244-10.896 1.518-53.35 9.082-104.673 22.484-152.543 10.574-37.768 24.814-73.541 42.323-106.386h17.142c5.433 0 10.169-3.039 12.598-7.507 1.105-2.031 1.733-4.356 1.733-6.826v-23.032c8.506 4.525 17.964 6.898 27.765 6.898 12.363 0 24.369-3.867 34.36-10.975 17.138 25.297 36.165 59.248 52.4 102.509-1.217 2.167-1.918 4.66-1.918 7.316v29.056c0 2.761 2.238 5 5 5s5-2.239 5-5v-29.056c0-2.757 2.243-5 5-5h77.944c2.757 0 5 2.243 5 5v77.944c0 2.757-2.243 5-5 5h-77.944c-2.757 0-5-2.243-5-5v-20.788c0-2.761-2.238-5-5-5s-5 2.239-5 5v20.788c0 8.271 6.729 15 15 15h14.272c5.636 31.39 8.981 64.208 9.93 97.602.117 4.091-1.39 7.961-4.244 10.896zm79.79-24.498c-.969 1.072-2.298 1.663-3.741 1.663h-62.242c-1.317-29.247-4.448-57.99-9.334-85.663h26.838c28.238 17.881 46.356 47.099 49.725 80.232.141 1.385-.301 2.722-1.246 3.768z" fill="#2720b9"/></g></svg>