<?xml version="1.0" encoding="utf-8"?>
<!-- Generator: Adobe Illustrator 16.0.3, SVG Export Plug-In . SVG Version: 6.00 Build 0)  -->
<!DOCTYPE svg PUBLIC "-//W3C//DTD SVG 1.1//EN" "http://www.w3.org/Graphics/SVG/1.1/DTD/svg11.dtd">
<svg version="1.1" xmlns="http://www.w3.org/2000/svg" xmlns:xlink="http://www.w3.org/1999/xlink" x="0px" y="0px" width="750px"
	 height="500px" viewBox="0 0 750 500" enable-background="new 0 0 750 500" xml:space="preserve">
<g id="BACKGROUND">
</g>
<g id="OBJECTS">
	<path fill="#BDCAE0" d="M671.688,370.72c-26.013,39.457-70.61,62.65-117.87,62.65H161.567c-78.843,0-123.054-92.183-71.922-144.09
		c51.131-51.907,5.968-96.24,84.836-137.865c76.407-40.326,102.493,45.632,172.882-10.612
		c70.388-56.244,172.866-50.938,195.381,6.367c22.515,57.305,17.209,77.472,64.963,90.205
		c47.755,12.732,94.447,84.894,65.795,130.526C672.905,368.853,672.301,369.792,671.688,370.72z"/>
	<g>
		<g>
			<path fill="#CDDCF4" d="M654.251,386.715c-41.322,3.505-69.178,80.962-172.478,34.405c0,0,11.343-33.813,62.155-54.89
				C594.74,345.153,654.251,386.715,654.251,386.715z"/>
			<path fill="#B0BDD1" d="M495.879,415.32c10.784-5.607,21.971-10.441,33.395-14.646c2.843-1.093,5.725-2.075,8.616-3.031
				c2.878-0.998,5.794-1.881,8.705-2.782c2.901-0.935,5.854-1.694,8.797-2.492c1.473-0.391,2.939-0.808,4.419-1.179l4.448-1.067
				l4.46-1.022l4.491-0.885l4.492-0.882c1.498-0.286,3.01-0.51,4.519-0.739c3.021-0.445,6.03-0.952,9.073-1.243
				c3.039-0.315,6.06-0.754,9.118-0.867c12.169-0.884,24.474-0.684,36.473,1.347c-12.154-0.294-24.205,0.425-36.157,1.898
				l-2.242,0.255l-2.232,0.343l-4.468,0.652c-2.983,0.382-5.938,0.98-8.899,1.516c-1.477,0.29-2.967,0.497-4.441,0.804l-4.422,0.918
				l-4.42,0.92l-4.394,1.053l-4.404,1.007c-1.465,0.351-2.919,0.747-4.379,1.118l-4.377,1.132c-1.461,0.37-2.9,0.822-4.358,1.205
				c-2.908,0.798-5.822,1.578-8.704,2.475c-2.887,0.878-5.792,1.701-8.668,2.624C518.783,407.344,507.35,411.3,495.879,415.32z"/>
		</g>
		<g>
			<path fill="#DBE9FF" d="M659.309,254.9c-50.42,36.041-27.096,156.822-195.354,175.84c0,0-11.232-52.104,37.97-117.963
				S659.309,254.9,659.309,254.9z"/>
			<path fill="#CDDCF4" d="M475.148,416.188c7.339-15.899,16.396-31.02,26.587-45.333c10.16-14.343,21.553-27.839,33.961-40.339
				c12.424-12.477,25.885-23.981,40.452-33.914c14.522-9.929,30.189-18.472,46.898-23.795c-15.509,8.133-29.88,17.799-43.53,28.4
				c-13.599,10.66-26.458,22.223-38.641,34.468c-12.191,12.241-23.68,25.181-34.614,38.618
				C495.361,387.768,485.116,401.79,475.148,416.188z"/>
		</g>
		<g>
			<path fill="#CDDCF4" d="M115.408,375.95c40.974,6.406,63.305,85.632,169.627,46.465c0,0-8.934-34.528-58.135-59.13
				C177.698,338.683,115.408,375.95,115.408,375.95z"/>
			<path fill="#B0BDD1" d="M271.373,415.637c-11.159-4.817-22.285-9.569-33.539-13.967c-2.804-1.123-5.644-2.148-8.461-3.228
				c-2.812-1.098-5.664-2.081-8.508-3.081c-1.428-0.484-2.832-1.038-4.263-1.51l-4.286-1.437c-1.43-0.474-2.853-0.972-4.29-1.425
				l-4.322-1.314l-4.309-1.359l-4.345-1.229l-4.346-1.228c-1.449-0.409-2.921-0.721-4.374-1.114
				c-2.917-0.742-5.821-1.547-8.771-2.139l-4.41-0.965l-2.203-0.499l-2.218-0.412c-11.819-2.312-23.79-3.878-35.934-4.44
				c12.112-1.18,24.401-0.514,36.477,1.225c3.042,0.329,6.025,0.979,9.034,1.508c3.015,0.505,5.981,1.223,8.963,1.879
				c1.489,0.335,2.981,0.664,4.456,1.056l4.418,1.196l4.418,1.198l4.376,1.334l4.363,1.379c1.449,0.474,2.883,0.992,4.325,1.486
				c2.879,1.003,5.771,1.97,8.6,3.105c2.84,1.104,5.687,2.189,8.488,3.388c2.816,1.158,5.622,2.341,8.381,3.631
				C250.192,403.675,261.011,409.284,271.373,415.637z"/>
		</g>
		<g>
			<path fill="#DBE9FF" d="M142.646,249.354c45.402,37.554,15.197,150.533,173.49,179.833c0,0,14.14-48.659-28.111-114.41
				S142.646,249.354,142.646,249.354z"/>
			<path fill="#CDDCF4" d="M306.494,414.638c-8.556-14.29-17.364-28.249-26.818-41.737c-9.491-13.454-19.523-26.48-30.259-38.898
				c-10.729-12.422-22.134-24.248-34.292-35.285c-12.212-10.982-25.16-21.137-39.289-29.954c15.524,6.1,29.844,15.226,42.974,25.598
				c13.175,10.378,25.185,22.189,36.137,34.86c10.936,12.69,20.833,26.267,29.487,40.569
				C293.12,384.064,300.666,399.035,306.494,414.638z"/>
		</g>
	</g>
	<g>
		<g>
			<path fill="#F6A397" d="M409.65,354.531c-5.684,6.75-10.835,17.939-14.032,19.716s-8.588,2.394-13.683,18.791
				c-5.094,16.396,20.625,14.152,20.625,14.152s10.997-6.316,15.438-21.575l11.013-9.77L409.65,354.531z"/>
			<path fill="#D65863" d="M389.755,405.393c0,0,8.324-2.711,15.385-10.168c7.087-7.486,8.001-20.805,8.001-20.805l3.395,6.343
				l6.79-7.257l3.272-0.316l2.413,2.656l-11.013,9.77c-4.44,15.259-15.438,21.575-15.438,21.575s-7.09,0.614-13.087-1.172
				C389.628,405.632,389.755,405.393,389.755,405.393z"/>
			<path fill="#5470D3" d="M448.208,295.803c-7.878,5.759-12.578,9.938-16.495,17.771s-28.465,35.979-30.031,38.489
				c-1.567,2.51,13.795,29.146,26.092,35.675c0,0,18.563-21.414,29.271-29.509c10.706-8.096,7.051-36.821,2.089-46.483
				S448.208,295.803,448.208,295.803z"/>
			<path fill="#314EC6" d="M447.921,347.633v-15.989c0,0,2.084-0.834,3.71,4.563c0.649,2.159,0.6,4.429,0.31,6.383l11.952-8.988
				c0.494,10.063-1.121,20.298-6.849,24.629c-10.707,8.095-29.271,29.509-29.271,29.509c-3.173-1.685-6.548-4.711-9.784-8.313
				C425.548,371.899,439.889,357.371,447.921,347.633z"/>
			<path fill="#F6A397" d="M371.553,400.874c-2.044,0.638-3.554,1.615-3.554,4.19s0.444,6.66,1.421,8.259s6.021,2.557,6.021,2.557
				s-0.337-10.638-1.403-12.592S371.553,400.874,371.553,400.874z"/>
			<path fill="#D65863" d="M369.419,413.323c-0.274-0.449-0.503-1.106-0.695-1.86c1.095,1.076,1.462,1.084,2.803,1.226l3.83,1.194
				c0.059,1.197,0.084,1.997,0.084,1.997S370.396,414.922,369.419,413.323z"/>
			<path fill="#F6A397" d="M376.436,396.982c-2.487,0.267-4.974,2.132-4.974,4.707s-0.888,9.77,0,10.924
				c0.888,1.154,5.24,4.44,6.75,4.707s4.073-0.178,3.724-0.978C381.586,415.544,376.436,396.982,376.436,396.982z"/>
			<path fill="#D65863" d="M371.084,410.68c1.886,2.128,6.707,1.938,6.707,1.938s2.119,2.263,2.381,2.989
				c0.157,0.439,1.025,1.018,1.144,1.465c-0.797,0.304-2.157,0.416-3.104,0.249c-1.48-0.262-5.684-3.42-6.685-4.632l-0.442-2.004
				C371.085,410.684,371.085,410.682,371.084,410.68z"/>
			<path fill="#F6A397" d="M385.753,392.734c-7.63,0.43-9.051,1.14-9.317,4.248s-0.089,12.167,0.888,14.477
				c0.978,2.309,1.51,4.352,2.754,5.595c1.243,1.243,3.103,1.248,3.103,1.248s4.18-6.133,4.357-11.283
				C387.714,401.867,385.753,392.734,385.753,392.734z"/>
			<path fill="#D65863" d="M381.364,413.199c0.387-2.109,1.245-4.358,1.354-11.417c0.041-2.652,2.5,11.197,1.402,14.998
				c-0.547,0.943-0.94,1.521-0.94,1.521s-1.859-0.005-3.103-1.248c-1.244-1.243-1.776-3.286-2.754-5.595
				c-0.063-0.15-0.123-0.332-0.18-0.535C377.642,412.219,379.223,413.069,381.364,413.199z"/>
			<path fill="#F6A397" d="M402.457,408.351c-0.48,4.244-6.039,5.772-6.661,7.903c-0.622,2.132-0.178,4.086-1.243,4.618
				c-1.065,0.533-5.506-1.953-5.329-4.795c0,0-1.154,2.397-3.729,2.842c-2.575,0.443-3.197-1.438-2.753-4.271
				c0.443-2.834,0.354-4.344,0.267-7.718c-0.089-3.375-0.889-6.483,0.621-10.214c1.51-3.729,3.553-7.016,7.638-6.394
				c4.085,0.621,6.572,5.772,8.792,7.549C402.279,399.647,402.989,403.644,402.457,408.351z"/>
			<path fill="#D65863" d="M389.224,416.077c0.25-5.397,0.531-9.814,0.531-10.685c0-0.871-0.281-6.6,1.755-6.947
				c0.309-0.053,4.787,2.785,4.874,4.7s0,5.354-1.393,6.333S389.224,416.077,389.224,416.077z"/>
		</g>
		<g>
			<path fill="#5470D3" d="M574.296,307.307c-8.095-10.271-10.881-11.316-19.237-16.19c-8.356-4.875-40.042-17.235-46.57-18.803
				c-6.528-1.566-32.859,10.707-41.499,14.624s-19.634,7.771-21.507,11.59c-6.271,12.778,6.148,30.89,6.214,68.842
				c0.034,19.878,4.563,64.577,4.563,64.577s99.495,0.187,100.888-1.903c1.394-2.089,4.875-73.468,6.616-88.092
				C565.504,327.327,574.296,307.307,574.296,307.307z"/>
			<g>
				<path fill="#314EC6" d="M445.848,318.536c-0.746-2.403-1.189-4.85-1.562-7.306c-0.341-2.462-0.608-4.934-0.571-7.449
					c0.748,2.402,1.19,4.849,1.561,7.306C445.614,313.549,445.883,316.021,445.848,318.536z"/>
			</g>
			<path fill="#314EC6" d="M483.054,303.585c-3.845-1.436-12.951,1.062-14.616,1.641s0.979-6.536,1.958-7.418
				c0.979-0.881,2.547-2.934,5.55-2.005c3.003,0.928,5.527,4.366,5.963,5.498C482.343,302.432,483.054,303.585,483.054,303.585z"/>
			<path fill="#314EC6" d="M515.084,309.526c-1.371-0.065-9.369-3.743-11.283-4.657c-1.915-0.914-10.591-1.341-16.416,0.287
				c0,0,11.215-7.577,17.743-7.512s9.009,2.415,9.531,4.505C515.182,304.238,515.084,309.526,515.084,309.526z"/>
			<path fill="#314EC6" d="M472.313,415.941c1.068-1.044,66.046,1.045,67.352-5.745c1.306-6.789,2.204-19.138,2.204-19.138
				c-7.822,4.179-19.179,2.438-19.179,2.438c7.573-2.473,18.541-14.898,19.063-18.555c1.608-11.263-4.408-42.314-4.408-42.314
				l4.408-8.869l5.158-2.873c0,0,9.78,4.871,18.144,13.831c-0.564,2.479-1.017,4.924-1.291,7.234
				c-1.642,13.788-4.83,78.013-6.356,87.066c-20.126,0.742-56.608,2.078-81.021,2.916c-11.828,0.028-20.127,0.013-20.127,0.013
				s-0.152-5.879-0.508-14.311C462.562,417.237,471.65,416.59,472.313,415.941z"/>
			<path fill="#5470D3" d="M485.508,305.479c7.011-0.845,18.28-6.92,22.72-4.831s5.483,7.442,6.397,8.356s4.831-3.656,4.831-14.885
				c0-11.229,0.345-22.728-7.923-24.29c-8.268-1.563-29.682,6.532-33.99,9.797c-4.309,3.264-6.137,6.57-7.312,9.748
				c-1.176,3.178-4.309,15.974-2.873,16.104c1.437,0.131,5.484-8.226,8.487-8.487C478.849,296.73,483.609,305.708,485.508,305.479z"
				/>
			<path fill="#314EC6" d="M481.52,295.425c-1.788-4.243-3.746-7.965-3.681-10.902c0.064-2.938,0.718-4.962,3.982-5.876
				c3.264-0.914,4.635,0.849,4.831,5.288C486.848,288.374,481.52,295.425,481.52,295.425z"/>
			<path fill="#314EC6" d="M507.115,287.514c6.825-6.19,7.598-13.111,6.957-14.547c-0.642-1.437-3.461-2.481-3.461-2.481
				s-1.109,4.505-0.457,5.615C510.808,277.21,507.115,287.514,507.115,287.514z"/>
			<g>
				<path fill="#314EC6" d="M496.251,302.479c1.663-0.747,3.398-1.329,5.168-1.81c1.778-0.433,3.604-0.777,5.502-0.654
					c0.937,0.07,1.942,0.274,2.778,0.937c0.739,0.697,1.301,1.327,1.929,2.043c1.243,1.412,2.1,3.126,2.888,4.737
					c0.175,0.372,0.449,0.809,0.57,0.848c0.015,0.006,0.008,0.028,0.149-0.06c0.117-0.083,0.255-0.226,0.38-0.382
					c0.509-0.651,0.926-1.464,1.333-2.256c0.821-1.563,1.263-3.295,1.612-5.06c0.341-1.766,0.536-3.567,0.663-5.374
					c0.155-1.807,0.207-3.623,0.231-5.444c0.359,3.626,0.365,7.298-0.138,10.945c-0.243,1.818-0.699,3.655-1.521,5.351
					c-0.405,0.831-0.816,1.651-1.417,2.446c-0.159,0.197-0.33,0.396-0.582,0.578c-0.121,0.091-0.287,0.177-0.485,0.225
					c-0.206,0.049-0.455,0.016-0.641-0.072c-0.374-0.188-0.532-0.438-0.684-0.651c-0.145-0.219-0.258-0.433-0.365-0.643
					c-0.79-1.654-1.573-3.234-2.723-4.584c-0.55-0.668-1.194-1.405-1.761-1.974c-0.592-0.493-1.438-0.738-2.295-0.846
					c-1.737-0.206-3.554,0.035-5.319,0.367C499.744,301.461,497.992,301.945,496.251,302.479z"/>
			</g>
			<g>
				<path fill="#314EC6" d="M480.175,300.138c-0.757-0.67-1.509-1.339-2.33-1.895c-0.405-0.278-0.82-0.545-1.248-0.728
					c-0.216-0.083-0.424-0.146-0.619-0.172c-0.086,0.009-0.178,0.001-0.246,0.022c-0.063,0.042-0.102,0.025-0.225,0.117
					c-1.684,1.038-2.994,2.465-4.107,4.098c-0.565,0.787-1.061,1.688-1.728,2.506c-0.334,0.405-0.688,0.798-1.139,1.146
					c-0.235,0.163-0.474,0.353-0.895,0.402c-0.202,0.034-0.483-0.053-0.654-0.205c-0.171-0.155-0.257-0.333-0.306-0.484
					c-0.184-0.618-0.125-1.133-0.076-1.656c0.064-0.516,0.155-1.02,0.271-1.516c0.25-0.988,0.526-1.96,0.881-2.909
					c-0.135,1.003-0.315,1.993-0.397,2.99c-0.056,0.495-0.094,0.99-0.102,1.478c-0.002,0.474,0.008,0.994,0.151,1.333
					c0.03,0.086,0.079,0.131,0.096,0.143c0.024-0.002,0,0.008,0.049-0.007c0.085-0.008,0.282-0.121,0.44-0.259
					c0.334-0.283,0.647-0.653,0.934-1.04c0.589-0.759,1.062-1.634,1.652-2.492c0.594-0.839,1.244-1.651,1.999-2.375
					c0.754-0.722,1.627-1.341,2.528-1.818c0.083-0.058,0.293-0.134,0.464-0.182c0.173-0.034,0.341-0.015,0.503-0.006
					c0.304,0.062,0.566,0.17,0.81,0.299c0.474,0.269,0.879,0.593,1.266,0.934C478.895,298.568,479.583,299.314,480.175,300.138z"/>
			</g>
			<path fill="#F6A397" d="M480.561,269.919c0.016,2.759,0.126,5.51,0.412,8.255c0.704,6.732,0.014,15.612,0.547,17.251
				c0.594,1.828,4.119,8.356,4.119,8.356s6.268-2.873,8.879-6.006c2.611-3.134,6.006-3.293,10.576-7.914s7.677-11.961,6.659-18.07
				c-0.131-0.783-0.933-8.604-1.11-16.699c-0.177-8.095-8.683-14.246-16.778-14.246c-8.095,0-12.941,12.012-13.194,20.108
				C480.565,264.275,480.547,267.396,480.561,269.919z"/>
			<path fill="#D65863" d="M510.643,255.092c0.178,8.096,0.979,15.916,1.11,16.699c0.314,1.889,0.233,3.896-0.162,5.902
				c-1.791,0.33-24.847,0.887-30.82-1.895c-0.136-1.956-0.198-3.916-0.21-5.88c-0.014-2.523,0.005-5.644,0.109-8.965
				c0.107-3.432,1.043-7.565,2.698-11.191l18.966-6.722C506.989,245.524,510.529,249.904,510.643,255.092z"/>
		</g>
		<g>
			<path fill="#504984" d="M466.358,221.383c-12.25,0-16.833,9.41-16.833,16.462c0,6.329,2.028,16.461,16.833,16.461
				c7.403,0,12.415-7.37,12.415-16.461C478.773,228.753,473.762,221.383,466.358,221.383z"/>
			<path fill="#372D5B" d="M465.817,225.415c-9.25,0-12.711,7.105-12.711,12.431c0,4.779,1.531,12.43,12.711,12.43
				c5.59,0,9.375-5.565,9.375-12.43S471.407,225.415,465.817,225.415z"/>
			<path fill="#F6A397" d="M450.903,226.939c0.724,4.292,2.849,5.933,3.798,11.719c0.949,5.787-1.582,14.195,2.192,21.518
				s9.878,16.952,13.403,17.358c3.526,0.407,31.767-4.362,41.296-23.312c2.734-5.439,8.58-26.768,3.578-39.791
				c-5.003-13.023-13.14-24.958-31.945-25.319S447.068,204.192,450.903,226.939z"/>
			<path fill="#D65863" d="M466.632,250.401c1.005,0.023,2.107-0.36,2.604-1.019c0.434-0.577,0.614-1.337,0.486-2.047
				c-1.47,1.211-3.272,1.42-5.082,1.104C464.416,249.79,465.457,250.374,466.632,250.401z"/>
			<path fill="#BA6454" d="M499.899,226.939c-0.716-4.464-3.699-7.041-3.699-7.041s-7.188-2.983-12.748-3.526
				c-5.561-0.542-11.257-2.17-11.257-2.17s1.764,4.464,4.747,6.368c0,0-13.291-0.672-17.495-4.605c0,0,0.814,3.242,1.628,5.418
				c0,0-6.51-0.671-8.544-3.248c0,0-1.628,5.674-1.628,8.804c0,0-7.82-10.703-5.831-19.201c1.989-8.499,4.701-11.754,4.701-11.754
				s-5.605,0.543-8.68,0c0,0,7.233-6.329,12.658-10.487c5.425-4.159,21.698-4.34,21.698-4.34s-1.266-4.34,0.181-11.211
				c0,0,6.962,10.216,14.331,13.335c7.368,3.119,6.376,2.854,14.188,4.826c7.813,1.972,15.24,6.973,18.359,11.177
				s6.51,8.544,8.544,9.222c0,0-4.883-0.678-7.323-2.713c0,0,4.07,9.246-1.311,21.146c-5.38,11.9-18.859,8.379-21.474,5.752
				C498.333,230.064,499.899,226.939,499.899,226.939z"/>
			<path fill="#874438" d="M500.946,232.691c-2.613-2.627-1.047-5.752-1.047-5.752c-0.434-2.701-1.694-4.705-2.624-5.872
				c1.956-11.86,1.158-24.168-2.315-35.675c2.03,0.825,3.235,1.195,6.175,1.95c3.607,5.427,6.306,11.533,8.163,17.718
				c2.366,7.876,3.512,16.385,1.305,24.307c-0.566,2.031-1.391,4.012-2.435,5.867C504.823,234.955,502.001,233.751,500.946,232.691z
				"/>
			<path fill="#504984" d="M504.628,222.52c0,0,0.93-29.745-14.666-39.238c0,0,12.069-1.356,18.986,10.714
				c6.916,12.07,6.448,22.422,6.274,28.224C515.048,228.021,504.628,222.52,504.628,222.52z"/>
			<path fill="#504984" d="M509.383,221.383c12.25,0,16.834,9.41,16.834,16.462c0,6.329-2.029,16.461-16.834,16.461
				c-7.403,0-12.414-7.37-12.414-16.461C496.969,228.753,501.979,221.383,509.383,221.383z"/>
			<path fill="#372D5B" d="M502.778,237.845c0-8.071,5.328-14.614,11.9-14.614c6.571,0,11.538,6.543,11.538,14.614
				s-4.967,14.614-11.538,14.614C508.106,252.459,502.778,245.917,502.778,237.845z"/>
			<ellipse fill="#504984" cx="516.25" cy="237.845" rx="8.098" ry="9.945"/>
			<g>
				<path fill="#D65863" d="M478.333,254.307c-3.31,1.822-14.123,2.431-14.858,2.329s0.774,8.108,3.423,8.412
					c2.648,0.305,7.944-0.404,10.151-2.531C479.255,260.391,478.333,254.307,478.333,254.307z"/>
				<path fill="#FFFFFF" d="M477.642,256.7c-0.204-0.728-0.363-1.313-0.518-1.881c-3.642,1.243-10.811,1.769-13.021,1.822
					c0.18,1.098,0.496,2.208,0.943,3.3c0.07-0.045-0.018,0.105,0.053,0.061C469.872,260.753,474.727,259.206,477.642,256.7z"/>
			</g>
			<ellipse fill="#3F1751" cx="478.524" cy="234.681" rx="1.65" ry="2.712"/>
			<ellipse fill="#3F1751" cx="459.413" cy="235.946" rx="1.418" ry="2.712"/>
			<path fill="#3F1751" d="M486.111,224.107c-1.126-0.621-2.341-1.049-3.586-1.407c-1.251-0.336-2.549-0.534-3.866-0.58
				c-1.309-0.065-2.694-0.102-3.962,0.388c-1.271,0.438-2.424,1.237-3.273,2.29l0.097,0.162c1.361-0.147,2.486-0.48,3.676-0.638
				c1.161-0.175,2.288-0.599,3.501-0.697c2.401-0.204,4.918-0.014,7.339,0.655L486.111,224.107z"/>
			<path fill="#3F1751" d="M453.222,227.612c0.589-0.228,1.208-0.371,1.824-0.443c0.614-0.083,1.229-0.112,1.837-0.12
				c0.613-0.008,1.223,0.211,1.82,0.064c0.302-0.068,0.609-0.126,0.924-0.257c0.316-0.108,0.64-0.248,0.986-0.491l0.02-0.187
				c-0.59-0.576-1.258-0.822-1.937-0.945c-0.685-0.128-1.362,0.146-2.021,0.326c-0.662,0.173-1.31,0.404-1.919,0.715
				c-0.599,0.333-1.185,0.679-1.65,1.189L453.222,227.612z"/>
		</g>
		<g>
			<path fill="#504984" d="M472.313,422.377c0.008,0.42-0.58,1.027-2.016,1.027c-1.437,0-40.063,0-45.287,0
				c-5.223,0-6.441-2.065-4.874-4.677c1.566-2.612,8.183-8.357,24.547-12.361c16.365-4.004,24.97,5.358,27.63,9.575
				C474.264,419.034,472.313,422.377,472.313,422.377z"/>
			<path fill="#372D5B" d="M419.75,419.512c0.901,2.995,35.456,1.434,35.456,1.434s-3.504-4.733-7.377-4.868
				c-3.874-0.136-5.758,1.211-10.952,2.104c-5.195,0.894-1.344-2.114-1.344-2.114s-3.67-0.813-5.164-1.971
				c0,0,8.56-2.529,12.15-3.117c3.59-0.587,12.73-0.195,13.905,0c0.831,0.139,5.049-2.311,10.146-1.081
				c2.846,2.079,4.728,4.435,5.742,6.043c1.951,3.093,0,6.436,0,6.436c0.008,0.42-0.58,1.027-2.016,1.027
				c-1.437,0-40.063,0-45.287,0C420.324,423.404,418.869,421.739,419.75,419.512z"/>
			<path fill="#F6A397" d="M567.551,394.063c0,0-32.205,4.98-49.661,8.104c-16.536,2.959-30.814,4.244-34.862,3.461
				c-4.048-0.784-17.889-5.876-22.328-7.704s-13.318-2.872-17.888-1.437c-4.57,1.437-8.313,3.003-10.142,3.003
				s-1.479,2.96,0.958,3.569s4.613,0.522,4.613,0.522s-8.27,4.526-9.749,4.962c-1.479,0.435,0.273,3.134,2.275,2.959
				c0,0-1.753,1.045-1.144,2.089c0.609,1.045,4.961,1.045,4.961,1.045s-5.31,2.611-0.87,3.656c4.439,1.044,9.749-3.917,11.926-4.353
				c2.176-0.436,7.225-0.174,9.662,1.654s12.883,10.271,27.158,5.223c0,0,96.896,3.926,106.559,3.926s15.498-8.539,12.399-24.991
				c-3.098-16.452-9.104-28.726-9.104-28.726l-33.426,2.35L567.551,394.063z"/>
			<g>
				<path fill="#D65863" d="M445.87,400.966c0.853-0.201,1.533-0.318,1.959-0.345C447.829,400.621,447.002,400.764,445.87,400.966z"
					/>
				<path fill="#D65863" d="M438.241,403.581c0,0-2.176,0.087-4.613-0.522c-0.686-0.171-1.199-0.531-1.553-0.956
					c2.711,1.198,6.048,0.434,7.875-0.001c1.153-0.275,3.984-0.792,5.92-1.136C443.932,401.421,441.091,402.312,438.241,403.581z"/>
			</g>
			<g>
				<path fill="#D65863" d="M438.668,407.498c0.209-0.095,0.386-0.169,0.5-0.204C439.168,407.294,438.979,407.37,438.668,407.498z"
					/>
				<path fill="#D65863" d="M428.509,410.481c0.031,0.028,0.987,0.871,2.999-0.005c1.676-0.729,5.743-2.398,7.16-2.979
					c-1.783,0.81-6.615,3.537-7.9,4.004C429.878,411.58,429.039,411.089,428.509,410.481z"/>
			</g>
			<path fill="#D65863" d="M433.51,413.679c1.479-0.436,4.57-2.308,6.463-3.202c1.894-0.895,4.31-0.998,4.31-0.998
				s-0.719,0.065-2.612,0.998c-1.893,0.934-7.085,4.159-7.085,4.159s-2.792-0.001-4.216-0.539
				C430.384,414.097,432.036,414.111,433.51,413.679z"/>
			<path fill="#D65863" d="M461.061,415.811c2.741,1.698,10.837,3.918,15.668,3.004s5.876-4.962,5.876-4.962l1.349,4.353
				c0,0,67.201,1.915,80.867,1.301c13.51-0.607,34.581-0.915,37.333-9.029c-0.755,9.419-5.857,14.266-13.134,14.266
				c-9.662,0-106.559-3.926-106.559-3.926c-14.275,5.049-24.721-3.395-27.158-5.223c-2.026-1.521-5.853-1.955-8.338-1.809h0.001
				C450.673,412.486,458.318,414.113,461.061,415.811z"/>
			<path fill="#D65863" d="M567.551,394.063c0,0,12.59-1.711,15.114-1.972l-1.915-7.834l-15.93,3.221L567.551,394.063z"/>
			<path fill="#5470D3" d="M601.198,372.133c0.474,1.227,0.173,2.605-0.768,3.523c-5.852,5.714-13.533,13.496-21.434,14.693
				c-8.618,1.306-22.98,1.828-23.765,0c-0.783-1.828-3.655-25.069-8.879-36.821c-5.223-11.751-8.617-17.757-9.923-24.547
				s10.445-22.72,15.668-24.025c5.224-1.306,17.235-2.089,22.197,2.351s8.618,21.414,14.363,34.21
				C593.295,351.842,599.121,366.758,601.198,372.133z"/>
			<g>
				<path fill="#314EC6" d="M568.875,304.729c-1.6-0.185-3.198-0.317-4.8-0.353c-1.599-0.064-3.197-0.06-4.788,0.034
					c-1.59,0.097-3.173,0.256-4.731,0.536c-0.783,0.125-1.552,0.307-2.322,0.479c-0.717,0.261-1.456,0.451-2.116,0.863
					c-0.702,0.315-1.313,0.812-1.957,1.241c-0.586,0.517-1.213,0.987-1.749,1.567c-1.148,1.079-2.114,2.345-3.095,3.595
					c-0.956,1.272-1.824,2.615-2.649,3.986c-0.85,1.358-1.604,2.773-2.339,4.206c1.079-3.038,2.572-5.927,4.359-8.637
					c0.91-1.345,1.897-2.648,3.052-3.817c0.542-0.616,1.207-1.119,1.819-1.67c0.685-0.47,1.327-1.001,2.095-1.356
					c0.719-0.435,1.549-0.654,2.346-0.927c0.8-0.168,1.595-0.359,2.404-0.463c1.613-0.231,3.237-0.384,4.86-0.369
					C562.505,303.639,565.744,303.953,568.875,304.729z"/>
			</g>
			<path fill="#314EC6" d="M594.678,376.944c-0.043-4.172-8.854-42.425-16.637-63.745l0,0c3.309,7.285,6.4,18.924,10.618,28.317
				c4.636,10.325,10.462,25.241,12.539,30.616c0.474,1.227,0.173,2.605-0.768,3.523c-2.241,2.188-4.753,4.679-7.44,6.988
				C593.192,382.448,594.718,380.84,594.678,376.944z"/>
		</g>
	</g>
	<g>
		<g>
			<g>
				<path fill="#BA5E5B" d="M174.624,333.851c-0.159,1.287,0.11,2.584,0.735,3.721c2.278,4.145,3.434,8.906,3.284,13.635
					c-0.098,3.115-0.738,6.304,0.11,9.303c1.463,5.175,6.925,8.375,8.683,13.458c1.558,4.506,0.109,10.172,3.348,13.671
					c0.803,0.867,2.049,1.531,3.146,1.092c0.551-0.221,0.963-0.681,1.355-1.126c3.713-4.217,7.688-9.342,6.542-14.842
					c-1.076-5.168-6.401-8.66-7.41-13.841c-0.825-4.233,1.339-9.116-1.086-12.683c-0.669-0.984-1.627-1.736-2.358-2.676
					c-2.885-3.703-1.816-9.606-5.14-12.922c-1.083-1.081-2.439-1.693-3.917-2.01C178.433,327.886,175.062,330.313,174.624,333.851
					L174.624,333.851z"/>
			</g>
			<g>
				<path fill="#FFA6A4" d="M195.74,399.508c0.223-2.756,0.318-5.514,0.42-8.278c-0.125-2.756-0.272-5.513-0.508-8.268
					c-0.236-2.754-0.546-5.509-1.033-8.247c-0.495-2.721-1.149-5.501-2.294-8.059c-2-5.056-3.616-10.343-5.249-15.581l-2.369-7.898
					c-0.974-2.58-1.923-5.165-2.841-7.769c0.402,2.739,1.029,5.43,1.579,8.138l2.374,7.915c1.643,5.266,3.244,10.52,5.293,15.701
					c1.108,2.478,1.72,5.099,2.212,7.782c0.477,2.681,0.783,5.401,1.017,8.13c0.229,2.729,0.39,5.468,0.495,8.21L195.74,399.508z"/>
				<path fill="#FFA6A4" d="M181.188,343.64c0.455,0.688,1.04,1.204,1.669,1.66c0.323,0.216,0.702,0.357,1.054,0.535
					c0.357,0.171,0.669,0.401,0.959,0.663l0.125,0.113l0.112-0.171c0.263-0.402,0.583-0.775,0.834-1.183
					c0.242-0.412,0.498-0.817,0.714-1.242c0.42-0.856,0.733-1.766,0.892-2.751l-0.079-0.039c-0.689,0.723-1.224,1.521-1.652,2.374
					c-0.208,0.429-0.376,0.877-0.558,1.319c-0.172,0.447-0.276,0.928-0.438,1.38l0.237-0.058c-0.335-0.199-0.648-0.429-0.917-0.72
					c-0.273-0.283-0.519-0.603-0.821-0.847c-0.621-0.466-1.285-0.872-2.081-1.104L181.188,343.64z"/>
				<path fill="#FFA6A4" d="M181.857,353.063c0.474,0.391,0.962,0.813,1.474,1.165c0.511,0.361,1.029,0.71,1.591,0.99
					c0.567,0.272,1.169,0.487,1.714,0.797c0.548,0.303,1.048,0.685,1.537,1.082l0.173,0.14l0.174-0.228
					c0.755-0.99,1.402-2.042,2.012-3.114c0.574-1.093,1.085-2.222,1.453-3.432l-0.076-0.043c-0.847,0.939-1.549,1.96-2.189,3.016
					c-0.604,1.075-1.171,2.172-1.63,3.33l0.346-0.088c-0.572-0.267-1.135-0.547-1.651-0.903c-0.519-0.351-0.982-0.792-1.483-1.175
					c-0.506-0.374-1.058-0.676-1.621-0.957c-0.571-0.273-1.136-0.539-1.804-0.665L181.857,353.063z"/>
				<path fill="#FFA6A4" d="M185.206,365.5c0.519,0.523,1.098,0.909,1.695,1.257c0.589,0.363,1.236,0.604,1.926,0.767
					c0.688,0.167,1.31,0.47,1.864,0.894c0.553,0.42,1.095,0.883,1.648,1.246l0.418,0.273l0.311-0.466
					c0.458-0.687,0.874-1.396,1.197-2.156c0.325-0.76,0.612-1.54,0.772-2.39l-0.096-0.053c-0.632,0.591-1.137,1.251-1.605,1.932
					c-0.469,0.681-0.846,1.411-1.18,2.166l0.729-0.191c-0.632-0.349-1.304-0.549-1.969-0.782c-0.665-0.229-1.271-0.558-1.818-1.013
					c-0.543-0.462-1.139-0.826-1.793-1.065c-0.648-0.252-1.319-0.456-2.053-0.517L185.206,365.5z"/>
			</g>
		</g>
		<g>
			<g>
				<path fill="#E67471" d="M200.125,400.047c2.154-0.354,10.23-2.938,9.667-5.047c-2.421-9.052-4.842-19.321,3.542-23.749
					c4.035-2.13,9.099-3.213,11.396-7.155c2.366-4.06,0.625-9.221-1.5-13.413c-2.123-4.192-4.68-8.68-3.77-13.29
					c0.953-4.828,5.519-8.391,6.249-13.258c0.997-6.645-5.456-11.999-11.654-14.593c-2.108-0.883-4.426-1.637-6.647-1.101
					c-1.587,0.383-2.963,1.4-4.052,2.617c-4.354,4.869-4.176,12.215-3.183,18.67c0.994,6.456,2.515,13.273,0.083,19.336
					c-1.727,4.306-5.424,8.355-4.434,12.888c0.396,1.815,1.529,3.399,1.96,5.207c1.164,4.872-2.884,9.262-4.739,13.915
					c-2.394,6.004-0.75,13.341,3.787,17.896C197.693,399.838,198.917,400.245,200.125,400.047L200.125,400.047z"/>
			</g>
			<g>
				<path fill="#FFA6A4" d="M199.362,400.147c0.499-3.584,0.998-7.154,1.636-10.698c0.152-0.887,0.338-1.769,0.48-2.654
					c0.135-0.888,0.214-1.782,0.361-2.667c0.268-1.774,0.566-3.542,0.905-5.3c0.684-3.512,1.501-7.008,2.702-10.332
					c0.602-1.655,1.316-3.275,2.259-4.672c0.468-0.695,1.021-1.313,1.633-1.729c0.808-0.53,1.577-1.213,2.179-2.026
					c1.243-1.646,1.617-3.737,1.572-5.621c-0.042-1.91-0.403-3.733-0.807-5.514c-0.83-3.556-1.875-6.989-2.456-10.486
					c-0.59-3.479-0.705-7.043,0.214-10.38c0.283-0.814,0.505-1.644,0.773-2.473c0.273-0.826,0.629-1.628,1.03-2.414
					c0.805-1.571,1.854-3.035,3.017-4.426c-1.425,1.118-2.747,2.409-3.849,3.903c-0.554,0.743-1.072,1.525-1.513,2.355
					c-0.456,0.822-0.842,1.696-1.042,2.619c-1.005,3.652-0.862,7.477-0.25,11.086c0.605,3.628,1.668,7.114,2.476,10.583
					c0.395,1.731,0.73,3.472,0.765,5.173c0.036,1.695-0.292,3.351-1.25,4.617c-0.474,0.635-1.068,1.174-1.767,1.634
					c-0.883,0.603-1.537,1.372-2.077,2.165c-1.077,1.599-1.817,3.313-2.45,5.041c-1.25,3.466-2.076,7.02-2.772,10.585
					c-0.344,1.783-0.646,3.573-0.916,5.366c-0.124,0.898-0.292,1.79-0.399,2.69c-0.092,0.902-0.132,1.811-0.189,2.715
					C199.43,392.91,199.295,396.528,199.362,400.147z"/>
				<path fill="#FFA6A4" d="M213.669,329.493c-0.62,0.216-1.14,0.578-1.622,0.963c-0.478,0.393-0.934,0.808-1.269,1.334
					c-0.34,0.522-0.644,1.074-1.079,1.502c-0.419,0.444-0.925,0.806-1.411,1.195l0.639,0.04c-0.215-0.464-0.481-0.898-0.725-1.344
					c-0.251-0.44-0.503-0.88-0.801-1.288c-0.28-0.419-0.6-0.814-0.903-1.217c-0.307-0.403-0.652-0.775-0.93-1.203l-0.108,0.019
					c-0.024,0.564,0.147,1.088,0.319,1.582c0.189,0.491,0.4,0.968,0.655,1.418c0.238,0.46,0.54,0.878,0.845,1.292
					c0.314,0.409,0.615,0.823,0.976,1.202l0.4,0.42l0.239-0.38c0.327-0.519,0.642-1.058,1.05-1.509
					c0.391-0.468,0.922-0.805,1.424-1.163c0.505-0.356,0.903-0.81,1.294-1.272c0.388-0.469,0.749-0.951,1.074-1.506L213.669,329.493
					z"/>
				<path fill="#FFA6A4" d="M205.838,343.198c0.256,0.616,0.591,1.179,0.965,1.706c0.381,0.521,0.778,1.028,1.234,1.481
					c0.466,0.443,1,0.822,1.5,1.23c0.49,0.418,0.922,0.888,1.314,1.401l0.125,0.163l0.176-0.141c0.652-0.519,1.17-0.992,1.684-1.545
					c0.487-0.556,1.005-1.084,1.458-1.662c0.457-0.575,0.883-1.172,1.288-1.785c0.409-0.611,0.776-1.251,1.202-1.848l-0.062-0.091
					c-0.715,0.339-1.271,0.861-1.824,1.36c-0.544,0.513-1.048,1.057-1.516,1.628c-0.472,0.567-0.873,1.189-1.311,1.779
					c-0.428,0.577-0.789,1.295-1.195,1.801l0.301,0.023c-0.496-0.407-0.943-0.865-1.327-1.379c-0.375-0.524-0.711-1.082-1.105-1.583
					c-0.404-0.493-0.864-0.935-1.321-1.378c-0.466-0.437-0.96-0.847-1.5-1.23L205.838,343.198z"/>
				<path fill="#FFA6A4" d="M220.241,353.779c-0.68,0.798-1.385,1.534-2.106,2.236c-0.723,0.704-1.5,1.319-2.255,1.997
					c-0.771,0.654-1.644,1.24-2.633,1.529c-0.981,0.31-2.022,0.349-3.025,0.337l0.449,0.316c-0.177-0.846-0.44-1.643-0.717-2.449
					c-0.272-0.805-0.621-1.587-1.041-2.333c-0.416-0.749-0.91-1.464-1.492-2.108c-0.592-0.629-1.278-1.22-2.097-1.513l-0.055,0.095
					c0.62,0.562,1.098,1.209,1.513,1.901c0.422,0.686,0.78,1.411,1.131,2.141l1.008,2.225c0.332,0.746,0.623,1.522,0.913,2.276
					l0.141,0.364l0.309-0.048c1.069-0.168,2.083-0.529,3.074-0.878c0.979-0.382,1.986-0.718,2.949-1.211
					c0.974-0.477,1.793-1.215,2.48-2.037c0.687-0.824,1.246-1.761,1.552-2.792L220.241,353.779z"/>
				<path fill="#FFA6A4" d="M200.764,361.876c-0.33,0.793-0.443,1.657-0.421,2.514c0.036,0.854,0.171,1.716,0.47,2.521
					c0.315,0.8,0.776,1.535,1.293,2.201l1.507,2.003l0.107,0.143l0.174-0.123c0.815-0.58,1.743-1.02,2.627-1.48
					c0.883-0.475,1.798-0.879,2.714-1.27c0.915-0.395,1.828-0.794,2.768-1.146c0.932-0.383,1.891-0.688,2.864-1.054l-0.017-0.108
					c-2.077-0.045-4.175,0.396-6.085,1.237c-0.958,0.418-1.859,0.954-2.731,1.521c-0.869,0.58-1.644,1.278-2.403,1.998l0.281,0.02
					c-0.558-0.589-1.067-1.238-1.392-1.986c-0.361-0.729-0.54-1.523-0.788-2.267c-0.481-1.5-0.788-3.044-0.863-4.697
					L200.764,361.876z"/>
			</g>
		</g>
		<g>
			<g>
				<g>
					<path fill="#504984" d="M185.48,423.404h23.056c2.14,0,3.959-1.85,4.281-4.354l3.65-28.362c0.399-3.103-1.63-5.897-4.281-5.897
						h-30.356c-2.651,0-4.681,2.795-4.281,5.897l3.65,28.362C181.521,421.555,183.34,423.404,185.48,423.404z"/>
				</g>
			</g>
			<path fill="#372D5B" d="M181.831,384.791h15.519c-2.652,0-4.681,2.795-4.282,5.897l3.65,28.362
				c0.322,2.504,2.142,4.354,4.281,4.354H185.48c-2.14,0-3.959-1.85-4.281-4.354l-3.65-28.362
				C177.15,387.586,179.179,384.791,181.831,384.791z"/>
		</g>
	</g>
	<g>
		<g>
			<path fill="#282142" d="M392.012,415.615h-96.431c-0.971,0-1.758,0.787-1.758,1.759v4.272c0,0.971,0.787,1.758,1.758,1.758
				h96.431V415.615z"/>
			<path fill="#504984" d="M416.828,420.988v1.736c0,0.376-0.305,0.68-0.68,0.68h-24.291c-0.756,0-1.368-0.612-1.368-1.368v-5.061
				c0-0.816,0.711-1.452,1.522-1.36l24.213,4.698C416.568,420.353,416.828,420.643,416.828,420.988z"/>
		</g>
		<g>
			<g>
				<path fill="#504984" d="M223.491,251.719h180.226c3.646,0,6.9,2.287,8.136,5.718l39.415,109.459
					c1.648,5.646-2.481,9.875-9.119,10.59c-1.018,0.109-5.858-2.066-13.461-5.643H267.565c-3.646,0-6.901-2.287-8.136-5.718
					l-35.606-98.878c-6.02-3.143-9.452-4.938-9.452-4.938S212.143,251.719,223.491,251.719z"/>
				<path fill="#372D5B" d="M398.074,257.361H217.849c-2.56,0-4.344,2.539-3.477,4.947l39.415,109.459
					c1.235,3.431,4.49,5.718,8.136,5.718h180.226c2.561,0,4.345-2.539,3.478-4.948l-39.415-109.458
					C404.976,259.648,401.721,257.361,398.074,257.361z"/>
				<polygon fill="#282142" points="357.387,377.485 349.387,347.813 319.065,377.485 				"/>
				<path fill="#504984" d="M313.507,295.803c0.792,4.894,3.959,6.865,7.751,6.865s6.645-3.132,5.981-6.865
					c-0.664-3.732-3.959-6.866-7.751-6.866S312.9,292.059,313.507,295.803z"/>
				<g>
					<polygon fill="#282142" points="398.207,359.271 395.89,352.835 398.803,352.835 401.12,359.271 					"/>
					<polygon fill="#282142" points="392.072,359.271 389.755,352.835 392.668,352.835 394.985,359.271 					"/>
					<polygon fill="#282142" points="385.938,359.271 383.62,352.835 386.533,352.835 388.852,359.271 					"/>
					<polygon fill="#282142" points="379.804,359.271 377.486,352.835 380.399,352.835 382.717,359.271 					"/>
				</g>
				<g>
					<polygon fill="#282142" points="292.668,359.271 290.351,352.835 293.264,352.835 295.581,359.271 					"/>
					<polygon fill="#282142" points="286.534,359.271 284.216,352.835 287.129,352.835 289.447,359.271 					"/>
					<polygon fill="#282142" points="280.399,359.271 278.082,352.835 280.995,352.835 283.313,359.271 					"/>
					<polygon fill="#282142" points="274.265,359.271 271.947,352.835 274.86,352.835 277.178,359.271 					"/>
				</g>
			</g>
			<g>
				<path fill="#372D5B" d="M296.529,412.826c1.778-5.113,23.345-74.705,23.345-74.705h27.684l1.829,9.692
					c0,0-18.562,59.899-20.34,65.013c-0.135,0.39-0.265,0.781-0.386,1.173h0.002c-1.627,5,2.665,4.979,7.499,4.979
					s48.823,0,48.823,0v4.427h-48.823h-32.518C293.86,423.404,294.75,417.939,296.529,412.826z"/>
				<path fill="#504984" d="M347.558,338.121c0,0-21.567,69.592-23.345,74.705c-1.779,5.113-2.668,10.578,7.115,10.578H298.81
					c-9.783,0-8.894-5.465-7.115-10.578s23.345-74.705,23.345-74.705H347.558z"/>
				<path fill="#7F74D1" d="M340.778,338.121c-2.145-0.099-4.29-0.147-6.435-0.218c-2.145-0.073-4.29-0.09-6.435-0.137
					c-2.145-0.034-4.29-0.097-6.435-0.098l-6.435-0.04l-0.358-0.002l-0.111,0.349c-0.897,2.803-1.781,5.609-2.624,8.429
					l-2.566,8.446c-1.65,5.65-3.304,11.299-4.813,16.992c1.982-5.547,3.819-11.139,5.659-16.729l2.671-8.414
					c0.903-2.801,1.764-5.614,2.612-8.432l-0.47,0.346l6.435-0.04c2.145,0,4.29-0.063,6.435-0.097
					c2.145-0.048,4.29-0.063,6.435-0.138C336.489,338.27,338.633,338.22,340.778,338.121z"/>
			</g>
		</g>
	</g>
	<g>
		<path fill="#8E5058" d="M152.177,440.489h477.344c4.718,0,8.542-3.825,8.542-8.543l0,0c0-4.718-3.824-8.542-8.542-8.542H152.177
			c-4.718,0-8.542,3.824-8.542,8.542l0,0C143.635,436.664,147.459,440.489,152.177,440.489z"/>
		<path fill="#64364A" d="M152.177,440.489h477.344c4.718,0,8.542-3.825,8.542-8.543l0,0H143.635l0,0
			C143.635,436.664,147.459,440.489,152.177,440.489z"/>
	</g>
	<circle id="XMLID_2_" fill="#1673FD" cx="181.188" cy="153.028" r="71.85"/>
	<g>
		<defs>
			<path id="SVGID_1_" d="M253.038,153.028c0,39.682-32.168,71.85-71.85,71.85c-39.682,0-71.851-32.168-71.851-71.85
				c0-39.682,32.168-85.803,71.851-85.803C220.87,67.225,253.038,113.346,253.038,153.028z"/>
		</defs>
		<clipPath id="SVGID_2_">
			<use xlink:href="#SVGID_1_"  overflow="visible"/>
		</clipPath>
		<g clip-path="url(#SVGID_2_)">
			<g>
				<g>
					<path fill="#FFC5C7" d="M282.218,210.367c1.365,6.856-4.982,12.95-6.969,14.093c-1.987,1.142-15.324,6.474-23.336,6.665
						c-8.011,0.19-18.584-16.757-14.256-18.662s33.806-3.999,37.043-3.999C277.936,208.464,282.218,210.367,282.218,210.367z"/>
					<path fill="#FFFFFF" d="M261.208,206.75c-3.496,20.565-11.801,36.561-14.393,36.847s-27.487-8.283-34.351-11.425
						s2.107-51.409,6.379-50.56c4.271,0.85,13.636,10.123,21.369,14.57C247.946,200.628,261.208,206.75,261.208,206.75z"/>
					<path fill="#DCEDFF" d="M220.202,215.299c2.4,4.116,22.184,14.548,33.08,18.351c-2.693,6.073-5.23,9.81-6.466,9.946
						c-2.219,0.245-20.788-6.002-30.388-9.776C217.232,226.179,220.202,215.299,220.202,215.299z"/>
					<path fill="#FFC5C7" d="M282.247,209.416c0.196,8.159-7.153,9.331-15.951,7.236c-8.798-2.095-23.162-21.898-29.556-30.849
						c-6.395-8.95-18.325-24.898-20.792-26.326c-2.466-1.428-8.125-2.186-12.966-10.233c-4.841-8.047,1.527-24.9,3.814-26.899
						s21.892,4.677,24.169,8.051c2.278,3.374-1.613,21.512-0.922,23.797c0.69,2.285,17.375,20.946,24.659,25.516
						C261.987,184.28,282.105,203.513,282.247,209.416z"/>
					<path fill="#FE8A8B" d="M216.837,135.809c-2.306-1.142-2.863-6.332-1.413-5.417s3.988,0.895,7.42,0.847
						c3.433-0.048,4.84-0.344,4.84-0.344s0.352,2.248,0.334,4.09C228.019,134.986,219.143,136.952,216.837,135.809z"/>
					<path fill="#FE8A8B" d="M201.571,136.989c1.398-2.599,2.477-4.57,2.477-4.57l13.486,12.981
						c3.688-3.198,8.199-6.116,8.199-6.116l1.187,2.116c-2.182,3.692-4.083,11.5-4.126,13.403c0,0-2.071,2.285-3.227,2.476
						c0,0,14.428,22.851,23.703,34.086c9.22,11.169,15.535,20.829,19.882,23.934c-8.77-5.057-20.732-21.545-26.413-29.496
						c-6.394-8.95-18.325-24.898-20.792-26.326c-2.467-1.428-8.125-2.186-12.966-10.233
						C201.062,146.052,200.918,141.476,201.571,136.989z"/>
					<path fill="#0C0835" d="M229.642,138.292c-0.164,1.332-13.565,12.949-14.968,14.282c-0.105,0.1-1.152,0.253-1.44,0
						c-3.564-3.132-19.127-31.393-19.405-32.413c-0.26-0.951,10.072-10.672,13.227-13.273c0.43-0.354,2.2-0.14,2.491,0.291
						C212.729,111.894,229.853,136.572,229.642,138.292z"/>
					<path fill="#252384" d="M228.201,138.292c-0.164,1.332-13.565,12.949-14.968,14.282c-1.403,1.333-20.545-31.31-20.845-32.413
						c-0.26-0.951,11.243-10.515,14.397-13.115c0.429-0.354,1.029-0.298,1.319,0.132
						C211.289,111.894,228.412,136.572,228.201,138.292z"/>
					<path fill="#57AFF7" d="M225.945,136.383c-0.153,1.246-12.69,12.114-14.002,13.361c-1.312,1.247-19.22-29.291-19.501-30.322
						c-0.243-0.89,10.518-9.836,13.469-12.27c0.402-0.332,0.962-0.279,1.234,0.124C210.124,111.686,226.143,134.773,225.945,136.383
						z"/>
					<path fill="#FFC5C7" d="M217.907,120.454c-2.075-1.251-4.623-5.488-4.853-6.917c-0.229-1.428-0.088-2.713,1.028-2.999
						s4.551,4.189,6.263,5.522c1.712,1.333,3.796,4.094,2.947,5.951c-0.849,1.856-4.653,1.143-5.061,0.856
						C217.824,122.583,217.907,120.454,217.907,120.454z"/>
					<path fill="#FE8A8B" d="M213.44,110.914c-0.658,1.624,3.629,8.14,7.388,10.016l-1.397,1.598c0,0-0.634-0.141-1.449-0.333
						c-0.111-0.723-0.075-1.74-0.075-1.74c-2.075-1.251-4.623-5.488-4.853-6.917C212.881,112.455,212.925,111.459,213.44,110.914z"
						/>
					<path fill="#FFC5C7" d="M222.732,127.038c-3.571-1.908-6.371-1.694-8.313-2.479c-1.942-0.786-2.295-3.785-0.974-4.285
						s9.369,0.786,11.443,1.714s3.066,5.205,3.066,5.205L222.732,127.038z"/>
					<path fill="#FE8A8B" d="M221.169,124.813c2.02,0.381,2.714,0,2.714,0c-0.058,0.789,0.687,1.182,1.526,2.304l-2.676-0.079
						c-3.571-1.908-6.371-1.694-8.313-2.479c-0.886-0.358-1.423-1.178-1.64-2.01C213.644,124.193,219.159,124.433,221.169,124.813z"
						/>
					<path fill="#FFC5C7" d="M230.965,130.396c-1.905,2.636-11.248,1.494-13.132,1.208c-1.883-0.286-3.065-1.475-2.874-2.674
						c0.388-2.419,12.734-1.991,13.754-1.61S230.965,130.396,230.965,130.396z"/>
					<path fill="#FE8A8B" d="M215.028,129.512c1.276,1.269,4.345,1.992,7.694,2.262c2.899,0.234,4.567,0.122,4.952,0.088
						c-3.521,0.561-8.518-0.058-9.841-0.258C216.261,131.366,215.23,130.491,215.028,129.512z"/>
				</g>
				<g>
					<path fill="#FFFFFF" d="M187.241,167.333c19.831,10.092,23.085,9.701,31.604,14.279c8.518,4.579,5.983,52.75,5.442,60.176
						c-0.541,7.427-2.593,36.942-1.461,44.94s5.54,37.704,7.492,42.274c1.952,4.569,5.675,12.282-0.084,16.852
						c-5.76,4.57-17.946,7.712-44.405,5.999c-26.459-1.714-54.98-17.995-56.242-20.28c-1.262-2.285,12.648-44.273,13.23-52.271
						s2.161-13.996,3.002-17.709c0.841-3.714-7.575-21.137-8.92-32.277c-1.345-11.14-13.448-41.87-11.152-47.499
						c2.295-5.629,23.375-11.901,37.729-19.059C177.83,155.599,187.241,167.333,187.241,167.333z"/>
					<path fill="#DCEDFF" d="M206.903,179.823c-3.265,10.73-9.912,20.405-18.758,27.301c-10.74-2.635-21.66-7.367-30.455-14.07
						c9.828,7.238,20.547,13.328,32.023,17.485C199.406,202.601,205.158,192.229,206.903,179.823z"/>
					<path fill="#FFC5C7" d="M202.854,174.715c-3.809-1.625-8.703-3.867-15.613-7.383c0,0-9.411-11.734-23.765-4.576
						c-4.981,2.483-10.771,4.86-16.305,7.141c8.551,14.548,22.406,25.928,38.398,31.34
						C194.003,194.596,200.067,185.08,202.854,174.715z"/>
					<path fill="#DCEDFF" d="M129.587,331.572c-1.262-2.285,12.648-44.273,13.23-52.271c0.582-7.997,2.161-13.996,3.002-17.709
						c0.841-3.714-7.575-21.137-8.92-32.277c-0.233-1.936-0.797-4.471-1.548-7.355l8.942-6.66
						c5.244,14.626,8.515,40.333,13.485,46.618c4.969,6.284,17.351,8.854,17.351,8.854s-12.229,2.856-17.561,1.714
						c0,0-5.693,22.565-5.758,33.705c-0.064,11.14,0.97,27.992,1.102,30.277c0.049,0.853-0.139,3.827-0.395,7.218
						C139.703,338.613,130.3,332.862,129.587,331.572z"/>
					<path fill="#FFC5C7" d="M165.728,142.464c-0.205,11.919-0.991,20.107-3.633,22.393c0,0,4.542,19.779,22.677,18.09
						c6.135-0.571,5.55-10.854,2.469-15.614l1.826-14.62L165.728,142.464z"/>
					<path fill="#FE8A8B" d="M163.476,162.757L163.476,162.757c1.552-3.656,2.088-10.78,2.252-20.293l23.339,10.249l-1.171,9.375
						l0,0C183.759,163.944,163.476,162.757,163.476,162.757z"/>
				</g>
				<g>
					<path fill="#FFC5C7" d="M101.457,238.864c-4.02,5.522-9.397,19.232-7.379,25.517c2.019,6.284,22.832,34.276,32.353,44.749
						c9.521,10.474,11.681,12.188,13.336,15.615s9.766,17.566,11.896,19.708c2.129,2.143,5.964,2.429,5.964,2.429
						s2.867,3.142,8.358,2.57c0,0,4.783,3.285,8.577,4.142c0,0,1.252,2.426,2.521,2.641c1.27,0.216,2.885-2.354,0.545-7.496
						s-6.182-7.283-6.8-10.568c-0.618-3.285-3.59-9.986-3.59-9.986s6.675,6.844,10.786,7.272c4.11,0.429,4.663-1.999,2.407-3.999
						c-2.256-1.999-5.18-4.998-7.898-8.854c-2.719-3.856-6.102-6.427-11.334-7.141s-8.904-1.285-10.259-2.285
						s-8.197-10.711-12.872-21.185c-4.676-10.474-8.863-23.857-20.746-35.609l5.235-9.14L101.457,238.864z"/>
					<path fill="#FE8A8B" d="M174.385,352.939c-1.014-2.896-2.875-5.367-4.924-7.565l-0.812-0.799
						c-0.24-0.249-0.664-0.563-0.756-0.71c-0.41-0.521-0.764-1.21-1.158-1.83c-0.754-1.283-1.487-2.593-2.321-3.854
						c0.397,1.482,0.931,2.898,1.528,4.295c0.294,0.711,0.614,1.37,1.062,2.073c0.347,0.46,0.571,0.556,0.837,0.854l0.765,0.789
						c1.028,1.054,2.003,2.162,2.985,3.267C172.566,350.574,173.478,351.733,174.385,352.939z"/>
					<path fill="#FE8A8B" d="M165.761,348.464c-0.787-1.538-1.72-2.871-2.554-4.272c-0.872-1.383-1.646-2.77-2.439-4.296
						c-0.086,1.798,0.576,3.49,1.452,4.943C163.133,346.283,164.297,347.554,165.761,348.464z"/>
					<path fill="#FE8A8B" d="M161.582,349.073c-2.591-0.748-3.956-2.191-3.956-2.191s-3.835-0.286-5.964-2.429
						c-0.87-0.875-2.742-3.762-4.761-7.095c0.043,0.053,2.437,2.653,4.157,4.799c2.423,3.022,5.901,2.022,5.901,2.022l-0.466-2.785
						C156.492,341.395,158.805,347.716,161.582,349.073z"/>
					<path fill="#FE8A8B" d="M93.989,257.398c0.113,2.605,0.144,4.678,4.01,11.517c4.351,7.696,30.499,40.132,36.203,46.13
						c5.704,5.997,5.535,6.38,8.911,15.856c-1.523-2.679-2.796-5.016-3.347-6.156c-1.655-3.428-3.815-5.142-13.336-15.615
						c-9.521-10.473-30.334-38.465-32.353-44.749C93.491,262.555,93.542,260.095,93.989,257.398z"/>
					<path fill="#FE8A8B" d="M114.484,249.902l-2.124,3.541c0,0,2.875,0.777,4.959,2.939l4.145-7.034L114.484,249.902z"/>
					<path fill="#FFFFFF" d="M139.543,230.54c5.461-10.736,7.647-28.17,2.718-37.346c-4.929-9.176-14.232-12.479-16.514-11.378
						c-2.283,1.101-8.463,15.416-14.266,22.022c-5.803,6.607-21.65,25.142-22.13,26.702s11.454,14.151,33.9,23.398
						C125.923,255.04,139.543,230.54,139.543,230.54z"/>
					<path fill="#DCEDFF" d="M122.894,238.864l-3.581,7.343c0,0,17.64-17.684,24.963-30.88c-0.888,5.505-2.539,10.9-4.733,15.213
						c0,0-13.62,24.5-16.292,23.398c-3.841-1.582-7.349-3.265-10.565-4.971L122.894,238.864z"/>
				</g>
				<g>
					<path fill="#372D5B" d="M190.416,143.533c-1.213-4.915-1.187-9.939-1.48-14.964c-0.219-3.757-0.41-7.196-3.82-9.443
						c-2.492-1.643-5.617-1.965-8.549-1.593c-7.88,1-9.575,8.679-8.972,15.949c0.462,5.565,2.636,10.909,4.794,16.028
						c-2.898-0.128-6.855-1.647-8.585-4.059c0.778,3.174,2.25,6.09,4.551,8.335c-8.398-0.145-16.193-5.64-20.642-13.021
						c-4.448-7.38-5.858-16.39-5.384-25.077c0.562-10.308,3.776-20.64,10.152-28.577c12.824-15.963,37.53-17.824,52.575-4.106
						c5.172,4.716,8.924,11.037,10.8,17.894c2.467,9.012,2.416,18.681,0.494,27.798c-0.795,3.774-1.16,7.042-1.535,10.821
						c-0.116,1.172-1.537,14.779-0.715,14.729c-5.305,0.322-11.399-0.749-14.993-4.804c1.61,2.785,3.002,5.468,4.612,8.253
						C197.02,156.582,192.097,150.34,190.416,143.533z"/>
					<path fill="#FFC5C7" d="M162.887,124.99c-2.37-1.4-5.219-2.161-7.417,0.068c-3.238,3.285,1.362,18.566,8.345,14.853
						c0,0,10.111,14.139,17.532,18.138c7.421,3.999,12.708,2,15.487-0.857s12.256-14.573,13.961-26.993
						c0.608-4.427-0.043-13.139,0.092-14.996c0.416-5.712,2.58-10.402-1.926-14.886c-4.552-4.528-10.857-7.269-17.275-7.496
						c-8.083-0.285-16.164,3.348-21.516,9.411C164.256,108.934,163.23,116.499,162.887,124.99z"/>
					<path fill="#FE8A8B" d="M156.618,129.235c0.604-2.8,2.992-3.351,4.768-1.4c1.821,2,2.127,8.333,1.659,9.266
						c-0.468,0.933-3.597,0.866-4.189-1.067c-0.593-1.933,1.229-3.145,2.987-2.572c0,0,0.491-2.822-0.946-4.639
						c-1.437-1.817-2.935-1.122-3.302-0.655C157.228,128.635,156.618,129.235,156.618,129.235z"/>
					<g>
						<path fill="#3F1751" d="M175.946,116.85c0.676-0.629,1.394-1.214,2.146-1.769c0.757-0.546,1.564-1.037,2.422-1.437
							c0.851-0.4,1.742-0.832,2.685-0.904c0.934-0.083,1.873-0.007,2.727,0.36l-0.012,0.128c-0.457,0.183-0.892,0.3-1.32,0.424
							l-1.259,0.349c-0.818,0.241-1.667,0.314-2.498,0.59c-0.825,0.274-1.639,0.626-2.44,1.029c-0.809,0.394-1.589,0.862-2.378,1.33
							L175.946,116.85z"/>
						<path fill="#3F1751" d="M207.536,113.644c-0.766-0.405-1.575-0.7-2.417-0.877c-0.837-0.188-1.694-0.283-2.554-0.304
							c-0.865-0.019-1.724,0.159-2.578,0.152c-0.861,0.002-1.726,0.029-2.671-0.066l-0.027-0.123c0.809-0.587,1.73-0.904,2.66-1.084
							c0.937-0.189,1.875-0.035,2.779,0.101c0.91,0.133,1.795,0.367,2.626,0.713c0.824,0.356,1.608,0.798,2.261,1.383
							L207.536,113.644z"/>
						<path fill="#3F1751" d="M184.427,121.871c-0.032-1.208-0.64-2.13-1.358-2.06s-1.276,1.107-1.244,2.315
							c0.032,1.208,0.64,2.13,1.359,2.06C183.901,124.116,184.458,123.08,184.427,121.871z"/>
						<path fill="#3F1751" d="M203.505,120.346c-0.032-1.208-0.534-2.141-1.122-2.083c-0.587,0.058-1.038,1.084-1.007,2.292
							c0.032,1.208,0.534,2.141,1.122,2.083C203.085,122.58,203.537,121.554,203.505,120.346z"/>
						<path fill="#FE8A8B" d="M190.401,133.614c1.654,1.15,4.092,1.125,5.892-0.06c-0.205,0.931-0.621,1.838-1.526,2.168
							c-0.905,0.331-1.906,0.234-2.738-0.148C191.196,135.192,190.927,134.355,190.401,133.614z"/>
						<g>
							<path fill="#C31F2A" d="M183.781,140.702c3.984,0.064,13.563-0.671,16.686-1.115c-1.231,4.037-4.461,8.023-8.97,8.025
								C187.436,147.615,184.754,144.278,183.781,140.702z"/>
							<path fill="#FB8384" d="M187.437,146.294c1.584-0.488,3.196-0.237,3.845-0.037c0,0,2.107-1.475,5.169-0.506
								c-1.394,1.125-3.051,1.86-4.954,1.861C189.93,147.613,188.574,147.109,187.437,146.294z"/>
							<path fill="#FFFFFF" d="M197.764,142.963c-4.033,1.257-8.436,0.895-12.234-0.474c-0.025-0.596-0.071-1.197-0.117-1.797
								c3.938-0.084,10.313-0.561,13.725-0.941C198.844,140.867,198.401,141.958,197.764,142.963z"/>
						</g>
					</g>
					<path fill="#372D5B" d="M166.872,111.844c6.498-0.277,12.945-1.708,18.95-4.207c1.143-2.643,1.182-4.989,1.353-7.863
						c1.633,2.996,2.604,6.349,2.771,9.756c3.784-0.246,7.586-0.449,11.371-0.694c1.06-2.999,1.188-6.086,1.021-9.263
						c1.279,2.983,1.921,6.74,2.357,9.956c2.285-0.813,5.179,0.373,7.565,0.8c2.957-6.588,2.764-18.523-3.492-23.52
						c-6.093-4.867-16.676-6.19-24.121-5.113c-15.839,2.293-28.288,15.444-27.305,31.829c0.561,9.347,5.25,18.186,11.974,24.704
						C165.318,130.255,164.524,120.451,166.872,111.844z"/>
				</g>
			</g>
		</g>
	</g>
	<circle fill="#1673FD" cx="324.336" cy="157.803" r="41.782"/>
	<path fill="#DBE9FF" d="M303.723,174.159h41.226c1.892,0,3.426-1.534,3.426-3.426v-25.86c0-1.893-1.534-3.426-3.426-3.426h-41.226
		c-1.893,0-3.426,1.534-3.426,3.426v25.86C300.297,172.625,301.831,174.159,303.723,174.159z"/>
	<path fill="#CDDCF4" d="M303.723,174.159h41.226c1.892,0,3.426-1.534,3.426-3.426l-24.04-15.117l-24.039,15.117
		C300.297,172.625,301.831,174.159,303.723,174.159z"/>
	<path fill="#E67471" d="M303.723,141.446h41.226c1.892,0,3.426,1.534,3.426,3.426l-24.04,15.117l-24.039-15.117
		C300.297,142.98,301.831,141.446,303.723,141.446z"/>
	<circle fill="#1673FD" cx="620.561" cy="217.928" r="41.783"/>
	<path fill="#DBE9FF" d="M632.279,209.757h-4.2c-0.38-1.657-1.034-3.206-1.911-4.604l2.973-2.973c0.406-0.405,0.406-1.063,0-1.468
		l-3.304-3.304c-0.405-0.405-1.063-0.405-1.468,0l-2.974,2.973c-1.398-0.877-2.946-1.531-4.604-1.911v-4.2
		c0-0.574-0.465-1.039-1.039-1.039h-4.672c-0.573,0-1.038,0.465-1.038,1.039v4.2c-1.657,0.38-3.206,1.034-4.604,1.911l-2.973-2.973
		c-0.405-0.405-1.063-0.405-1.469,0l-3.304,3.304c-0.405,0.405-0.405,1.063,0,1.468l2.973,2.973
		c-0.877,1.398-1.53,2.947-1.911,4.604h-4.2c-0.573,0-1.038,0.465-1.038,1.039v4.672c0,0.573,0.465,1.038,1.038,1.038h4.2
		c0.381,1.657,1.034,3.206,1.911,4.604l-2.973,2.973c-0.405,0.406-0.405,1.063,0,1.469l3.304,3.304c0.405,0.405,1.063,0.405,1.469,0
		l2.973-2.973c1.398,0.877,2.947,1.531,4.604,1.911v4.201c0,0.573,0.465,1.038,1.038,1.038h4.672c0.574,0,1.039-0.465,1.039-1.038
		v-4.201c1.657-0.38,3.205-1.034,4.604-1.911l2.974,2.973c0.405,0.405,1.063,0.405,1.468,0l3.304-3.304
		c0.406-0.406,0.406-1.063,0-1.469l-2.973-2.973c0.877-1.398,1.531-2.947,1.911-4.604h4.2c0.574,0,1.039-0.465,1.039-1.038v-4.672
		C633.318,210.222,632.854,209.757,632.279,209.757z M613.417,219.579c-3.561,0-6.446-2.886-6.446-6.447s2.886-6.447,6.446-6.447
		s6.447,2.886,6.447,6.447S616.978,219.579,613.417,219.579z"/>
	<path fill="#E67471" d="M613.417,204.158c-4.956,0-8.974,4.018-8.974,8.974c0,4.957,4.018,8.974,8.974,8.974
		s8.975-4.018,8.975-8.974C622.392,208.176,618.373,204.158,613.417,204.158z M613.417,218.612c-3.026,0-5.479-2.454-5.479-5.48
		s2.453-5.479,5.479-5.479s5.48,2.453,5.48,5.479S616.443,218.612,613.417,218.612z"/>
	<path fill="#DBE9FF" d="M650.223,228.16h-2.146c-0.193-0.847-0.528-1.638-0.976-2.352l1.519-1.519c0.207-0.208,0.207-0.543,0-0.75
		l-1.688-1.688c-0.207-0.207-0.543-0.207-0.75,0l-1.52,1.519c-0.714-0.448-1.505-0.782-2.352-0.976v-2.146
		c0-0.293-0.238-0.53-0.53-0.53h-2.388c-0.293,0-0.53,0.237-0.53,0.53v2.146c-0.847,0.194-1.638,0.528-2.352,0.976l-1.519-1.519
		c-0.208-0.207-0.544-0.207-0.751,0l-1.688,1.688c-0.207,0.208-0.207,0.543,0,0.75l1.519,1.519
		c-0.447,0.714-0.782,1.505-0.977,2.352h-2.146c-0.293,0-0.53,0.238-0.53,0.531v2.387c0,0.293,0.237,0.53,0.53,0.53h2.146
		c0.194,0.847,0.529,1.638,0.977,2.352l-1.519,1.519c-0.207,0.207-0.207,0.543,0,0.75l1.688,1.688c0.207,0.207,0.543,0.207,0.751,0
		l1.519-1.519c0.714,0.448,1.505,0.782,2.352,0.977v2.146c0,0.293,0.237,0.531,0.53,0.531h2.388c0.292,0,0.53-0.238,0.53-0.531
		v-2.146c0.847-0.194,1.638-0.528,2.352-0.977l1.52,1.519c0.207,0.207,0.543,0.207,0.75,0l1.688-1.688
		c0.207-0.207,0.207-0.543,0-0.75l-1.519-1.519c0.447-0.714,0.782-1.505,0.976-2.352h2.146c0.293,0,0.53-0.237,0.53-0.53v-2.387
		C650.753,228.398,650.516,228.16,650.223,228.16z M640.586,233.178c-1.818,0-3.293-1.475-3.293-3.293s1.475-3.293,3.293-3.293
		c1.819,0,3.294,1.475,3.294,3.293S642.405,233.178,640.586,233.178z"/>
	<path fill="#E67471" d="M640.586,225.3c-2.531,0-4.584,2.052-4.584,4.584c0,2.532,2.053,4.584,4.584,4.584
		c2.532,0,4.585-2.053,4.585-4.584C645.171,227.352,643.118,225.3,640.586,225.3z M640.586,232.684
		c-1.546,0-2.799-1.253-2.799-2.799c0-1.546,1.253-2.799,2.799-2.799c1.547,0,2.8,1.253,2.8,2.799
		C643.386,231.43,642.133,232.684,640.586,232.684z"/>
	<circle fill="#1673FD" cx="432.064" cy="99.581" r="41.783"/>
	<path fill="#FFFFFF" d="M411.328,121.053H452.8c1.824,0,3.304-1.479,3.304-3.304V83.246c0-1.825-1.479-3.304-3.304-3.304h-41.472
		c-1.824,0-3.304,1.479-3.304,3.304v34.504C408.024,119.574,409.504,121.053,411.328,121.053z"/>
	<path fill="#E67471" d="M408.024,88.546h48.079v-5.3c0-1.825-1.479-3.304-3.304-3.304h-41.472c-1.824,0-3.304,1.479-3.304,3.304
		V88.546z"/>
	<g>
		<g>
			<g>
				<g>
					<path fill="#FFFFFF" d="M444.619,81.777L444.619,81.777c0.538,0,0.975-0.437,0.975-0.976v-1.719
						c0-0.539-0.437-0.975-0.975-0.975l0,0c-0.539,0-0.976,0.437-0.976,0.975v1.719C443.644,81.34,444.08,81.777,444.619,81.777z"/>
					<path fill="#FFFFFF" d="M447.406,81.777L447.406,81.777c0.538,0,0.975-0.437,0.975-0.976v-1.719
						c0-0.539-0.437-0.975-0.975-0.975l0,0c-0.539,0-0.976,0.437-0.976,0.975v1.719C446.431,81.34,446.867,81.777,447.406,81.777z"
						/>
				</g>
			</g>
			<g>
				<g>
					<path fill="#FFFFFF" d="M416.722,81.777L416.722,81.777c0.539,0,0.976-0.437,0.976-0.976v-1.719
						c0-0.539-0.437-0.975-0.976-0.975l0,0c-0.538,0-0.975,0.437-0.975,0.975v1.719C415.747,81.34,416.184,81.777,416.722,81.777z"
						/>
					<path fill="#FFFFFF" d="M419.51,81.777L419.51,81.777c0.538,0,0.975-0.437,0.975-0.976v-1.719c0-0.539-0.437-0.975-0.975-0.975
						l0,0c-0.539,0-0.976,0.437-0.976,0.975v1.719C418.534,81.34,418.971,81.777,419.51,81.777z"/>
				</g>
			</g>
		</g>
	</g>
	<g>
		<g>
			<g>
				<path fill="#DBE9FF" d="M435.098,97.827h2.58c0.438,0,0.793-0.355,0.793-0.793v-2.58c0-0.438-0.355-0.792-0.793-0.792h-2.58
					c-0.438,0-0.793,0.354-0.793,0.792v2.58C434.305,97.472,434.66,97.827,435.098,97.827z"/>
			</g>
			<g>
				<path fill="#DBE9FF" d="M425.188,97.827h2.579c0.438,0,0.793-0.355,0.793-0.793v-2.58c0-0.438-0.354-0.792-0.793-0.792h-2.579
					c-0.438,0-0.793,0.354-0.793,0.792v2.58C424.395,97.472,424.749,97.827,425.188,97.827z"/>
			</g>
			<g>
				<path fill="#DBE9FF" d="M415.276,97.827h2.58c0.438,0,0.793-0.355,0.793-0.793v-2.58c0-0.438-0.355-0.792-0.793-0.792h-2.58
					c-0.438,0-0.792,0.354-0.792,0.792v2.58C414.484,97.472,414.839,97.827,415.276,97.827z"/>
			</g>
			<g>
				<path fill="#DBE9FF" d="M445.009,106.361h2.579c0.438,0,0.793-0.355,0.793-0.793v-2.58c0-0.438-0.354-0.792-0.793-0.792h-2.579
					c-0.438,0-0.793,0.354-0.793,0.792v2.58C444.216,106.006,444.57,106.361,445.009,106.361z"/>
			</g>
			<g>
				<path fill="#DBE9FF" d="M435.098,106.361h2.58c0.438,0,0.793-0.355,0.793-0.793v-2.58c0-0.438-0.355-0.792-0.793-0.792h-2.58
					c-0.438,0-0.793,0.354-0.793,0.792v2.58C434.305,106.006,434.66,106.361,435.098,106.361z"/>
			</g>
			<g>
				<path fill="#DBE9FF" d="M425.188,106.361h2.579c0.438,0,0.793-0.355,0.793-0.793v-2.58c0-0.438-0.354-0.792-0.793-0.792h-2.579
					c-0.438,0-0.793,0.354-0.793,0.792v2.58C424.395,106.006,424.749,106.361,425.188,106.361z"/>
			</g>
			<g>
				<path fill="#DBE9FF" d="M415.276,106.361h2.58c0.438,0,0.793-0.355,0.793-0.793v-2.58c0-0.438-0.355-0.792-0.793-0.792h-2.58
					c-0.438,0-0.792,0.354-0.792,0.792v2.58C414.484,106.006,414.839,106.361,415.276,106.361z"/>
			</g>
			<g>
				<path fill="#DBE9FF" d="M445.009,114.895h2.579c0.438,0,0.793-0.355,0.793-0.793v-2.58c0-0.438-0.354-0.793-0.793-0.793h-2.579
					c-0.438,0-0.793,0.355-0.793,0.793v2.58C444.216,114.54,444.57,114.895,445.009,114.895z"/>
			</g>
			<g>
				<path fill="#DBE9FF" d="M435.098,114.895h2.58c0.438,0,0.793-0.355,0.793-0.793v-2.58c0-0.438-0.355-0.793-0.793-0.793h-2.58
					c-0.438,0-0.793,0.355-0.793,0.793v2.58C434.305,114.54,434.66,114.895,435.098,114.895z"/>
			</g>
			<g>
				<path fill="#DBE9FF" d="M425.188,114.895h2.579c0.438,0,0.793-0.355,0.793-0.793v-2.58c0-0.438-0.354-0.793-0.793-0.793h-2.579
					c-0.438,0-0.793,0.355-0.793,0.793v2.58C424.395,114.54,424.749,114.895,425.188,114.895z"/>
			</g>
		</g>
	</g>
	<circle fill="#1673FD" cx="551.675" cy="121.053" r="41.782"/>
	<circle fill="#FFFFFF" cx="551.675" cy="121.053" r="28.618"/>
	<path fill="#E67471" d="M551.675,92.435c-15.806,0-28.618,12.813-28.618,28.618c0,15.806,12.813,28.618,28.618,28.618
		s28.618-12.813,28.618-28.618C580.293,105.248,567.48,92.435,551.675,92.435z M554.074,145.436v-3.908
		c0-0.727-0.589-1.316-1.315-1.316h-2.168c-0.727,0-1.315,0.589-1.315,1.316v3.908c-11.615-1.129-20.854-10.368-21.983-21.982h3.908
		c0.727,0,1.316-0.589,1.316-1.316v-2.167c0-0.727-0.59-1.316-1.316-1.316h-3.908c1.13-11.615,10.368-20.854,21.983-21.983v3.908
		c0,0.727,0.589,1.316,1.315,1.316h2.168c0.727,0,1.315-0.589,1.315-1.316v-3.908c11.615,1.129,20.854,10.368,21.983,21.983h-3.908
		c-0.727,0-1.316,0.589-1.316,1.316v2.167c0,0.727,0.59,1.316,1.316,1.316h3.908C574.928,135.068,565.689,144.307,554.074,145.436z"
		/>
	<g>
		<text transform="matrix(1 0 0 1 535.1211 127.8745)" fill="#D1C8D9" font-family="'BebasKai'" font-size="20.4596">24/7</text>
	</g>
</g>
</svg>
