<svg id="Capa_1" enable-background="new 0 0 512 512" height="512" viewBox="0 0 512 512" width="512" xmlns="http://www.w3.org/2000/svg" xmlns:xlink="http://www.w3.org/1999/xlink"><linearGradient id="SVGID_1_" gradientTransform="matrix(.987 .163 .163 -.987 -562.98 -6354.588)" gradientUnits="userSpaceOnUse" x1="2094.006" x2="1769.034" y1="-6457.338" y2="-6325.703"><stop offset="0" stop-color="#d2dbfc" stop-opacity="0"/><stop offset="1" stop-color="#b8c1fb"/></linearGradient><g><g><path d="m335.564.425c-95.818 8.652-105.091 192.429-146.416 286.587-20.478 46.658-68.772 94.794-60.258 149.782 9.605 62.035 72.897 80.075 121.683 74.14 120.723-14.685 172.899-141.053 180.797-260.801 4.87-73.829 20.302-260.192-95.806-249.708z" fill="url(#SVGID_1_)"/><path d="m425.185 258.836h1.447c5.029 0 9.552-3.346 10.743-8.232 1.774-7.274-3.686-13.768-10.662-13.768h-1.528l27.242-26.882c6.364-6.28 1.917-17.118-7.024-17.118h-59.677c-2.607 0-5.109 1.027-6.966 2.858l-41.692 41.142h-26.03v-161c0-11.598-9.402-21-21-21h-206c-11.598 0-21 9.402-21 21v402c0 11.598 9.402 21 21 21h206c11.598 0 21-9.402 21-21v-219h26.03l41.692 41.142c1.855 1.832 4.359 2.858 6.966 2.858h59.677c8.941 0 13.388-10.838 7.024-17.118z" fill="#2b2ab5" opacity=".11"/><path d="m332.038 54.836v402c0 11.598-9.402 21-21 21h-206c-11.598 0-21-9.402-21-21v-402c0-11.598 9.402-21 21-21h206c11.599 0 21 9.402 21 21z" fill="#fff"/><path d="m332.038 87.836v-33c0-11.598-9.402-21-21-21h-206c-11.598 0-21 9.402-21 21v33z" fill="#6e80f8"/><g fill="#fff"><circle cx="119.342" cy="61.983" r="5.59"/><circle cx="139.253" cy="61.983" r="5.59"/><circle cx="159.162" cy="61.983" r="5.59"/></g><path d="m140.345 355.836h-10.332c-2.403 0-4.612-1.609-5.084-3.965-.644-3.214 1.796-6.035 4.896-6.035h10.332c2.403 0 4.612 1.609 5.084 3.965.645 3.214-1.795 6.035-4.896 6.035z" fill="#2b2ab5"/><path d="m270.038 419.836h-154c-2.761 0-5-2.238-5-5v-45c0-2.761 2.239-5 5-5h154c2.761 0 5 2.239 5 5v45c0 2.762-2.238 5-5 5z" fill="#6e80f8"/><path d="m444.185 218.836h-88.163l44.731-44.14c1.857-1.833 4.361-2.86 6.97-2.86h59.721c8.941 0 13.388 10.838 7.024 17.118z" fill="#6e80f8"/><path d="m389.586 219.574c-1.291 0-2.581-.497-3.559-1.488-1.94-1.965-1.919-5.131.047-7.071l23.497-23.187c1.965-1.938 5.132-1.919 7.07.047 1.94 1.965 1.919 5.131-.047 7.071l-23.497 23.187c-.973.961-2.244 1.441-3.511 1.441z" fill="#2b2ab5"/><path d="m416.784 219.574c-1.291 0-2.581-.497-3.559-1.488-1.94-1.965-1.919-5.131.047-7.071l23.497-23.187c1.964-1.938 5.132-1.919 7.07.047 1.94 1.965 1.919 5.131-.047 7.071l-23.497 23.187c-.972.961-2.242 1.441-3.511 1.441z" fill="#2b2ab5"/><path d="m467.635 280.836h-59.911c-2.61 0-5.121-1.022-6.977-2.858l-31.092-30.675-13.646-13.467h88.175l13.645 13.467 16.781 16.553c6.313 6.233 1.897 16.98-6.975 16.98z" fill="#6e80f8"/><path d="m413.082 266.302c-1.269 0-2.538-.479-3.512-1.441l-23.497-23.187c-1.966-1.939-1.987-5.105-.047-7.071 1.939-1.967 5.107-1.987 7.07-.047l23.497 23.187c1.966 1.939 1.987 5.105.047 7.071-.977.992-2.268 1.488-3.558 1.488z" fill="#2b2ab5"/><path d="m440.281 266.302c-1.269 0-2.538-.479-3.512-1.441l-23.497-23.187c-1.966-1.939-1.987-5.105-.047-7.071 1.939-1.967 5.106-1.987 7.07-.047l23.497 23.187c1.966 1.939 1.987 5.105.047 7.071-.977.992-2.267 1.488-3.558 1.488z" fill="#2b2ab5"/><ellipse cx="210.707" cy="226.345" fill="#6e80f8" rx="97.091" ry="101.101"/><ellipse cx="210.707" cy="226.345" fill="#fff" rx="58.835" ry="65.101"/><path d="m210.707 255.446c-9.714 0-20.579-12.445-20.579-29.101s10.865-29.101 20.579-29.101 20.578 12.445 20.578 29.101-10.864 29.101-20.578 29.101z" fill="#6e80f8"/><path d="m448.167 237.836h-237.129v-22h236.808c5.052 0 9.611 3.372 10.758 8.292 1.691 7.25-3.635 13.708-10.437 13.708z" fill="#fff"/><g fill="#2b2ab5"><path d="m230.345 389.836h-100.331c-2.403 0-4.612-1.609-5.084-3.965-.644-3.214 1.796-6.035 4.896-6.035h100.332c2.403 0 4.612 1.609 5.084 3.965.644 3.214-1.796 6.035-4.897 6.035z"/><path d="m230.345 407.836h-100.331c-2.403 0-4.612-1.609-5.084-3.965-.644-3.214 1.796-6.035 4.896-6.035h100.332c2.403 0 4.612 1.609 5.084 3.965.644 3.214-1.796 6.035-4.897 6.035z"/><path d="m208.508 449.337c-1.328 0-2.601-.528-3.539-1.468l-5.83-5.84c-1.951-1.954-1.948-5.12.006-7.071 1.954-1.95 5.121-1.948 7.071.006l2.291 2.295 2.292-2.295c1.951-1.954 5.117-1.957 7.071-.006s1.957 5.117.006 7.071l-5.83 5.84c-.937.94-2.209 1.468-3.538 1.468z"/><path d="m268.563 387.836h-5.125c-6.296 0-11.4-5.104-11.4-11.4v-15.2c0-6.296 5.104-11.4 11.4-11.4h5.2c6.296 0 11.4 5.104 11.4 11.4v15.284c.001 6.24-5.146 11.316-11.475 11.316zm-6.525-26.6v15.2c0 .773.627 1.4 1.4 1.4h5.2c.773 0 1.4-.627 1.4-1.4v-15.2c0-.773-.627-1.4-1.4-1.4h-5.2c-.773 0-1.4.627-1.4 1.4z"/><path d="m291.038 384.78v-24.943h-1.803c-.503 0-.98-.216-1.328-.578-4.146-4.302-1.167-9.422 3.009-9.422h8.361c.973 0 1.761.789 1.761 1.761v31.522c0 4.171-5.109 7.15-9.408 3.021-.371-.357-.592-.847-.592-1.361z"/><path d="m206.038 173.224v-54.842c0-2.403 1.609-4.612 3.965-5.085 3.214-.645 6.035 1.797 6.035 4.896v55.22c0 3.099-2.821 5.541-6.035 4.896-2.356-.473-3.965-2.682-3.965-5.085z"/><path d="m206.038 334.307v-54.842c0-2.403 1.609-4.612 3.965-5.085 3.214-.645 6.035 1.797 6.035 4.896v55.22c0 3.099-2.821 5.541-6.035 4.896-2.356-.473-3.965-2.682-3.965-5.085z"/><path d="m274.038 188.764v-3.124c0-2.404 1.61-4.613 3.968-5.085 3.214-.642 6.032 1.799 6.032 4.897v3.5c0 3.098-2.818 5.539-6.032 4.897-2.357-.472-3.968-2.681-3.968-5.085z"/><path d="m252.038 161.679v-3.124c0-2.404 1.61-4.613 3.968-5.085 3.214-.642 6.032 1.799 6.032 4.897v3.5c0 3.098-2.818 5.539-6.032 4.897-2.357-.472-3.968-2.681-3.968-5.085z"/><path d="m274.038 266.681v-3.124c0-2.404 1.61-4.613 3.968-5.085 3.214-.642 6.032 1.799 6.032 4.897v3.5c0 3.098-2.818 5.539-6.032 4.897-2.357-.472-3.968-2.681-3.968-5.085z"/><path d="m252.038 293.765v-3.124c0-2.404 1.61-4.613 3.968-5.085 3.214-.642 6.032 1.798 6.032 4.897v3.5c0 3.098-2.818 5.539-6.032 4.897-2.357-.472-3.968-2.681-3.968-5.085z"/><path d="m137.038 188.763v-3.122c0-2.403 1.609-4.612 3.965-5.085 3.214-.645 6.035 1.797 6.035 4.896v3.5c0 3.099-2.821 5.541-6.035 4.896-2.356-.473-3.965-2.682-3.965-5.085z"/><path d="m159.038 161.678v-3.122c0-2.403 1.609-4.612 3.965-5.085 3.214-.645 6.035 1.797 6.035 4.896v3.5c0 3.099-2.821 5.541-6.035 4.896-2.356-.473-3.965-2.682-3.965-5.085z"/><path d="m137.038 266.68v-3.122c0-2.403 1.609-4.612 3.965-5.085 3.214-.645 6.035 1.797 6.035 4.896v3.5c0 3.099-2.821 5.541-6.035 4.896-2.356-.473-3.965-2.682-3.965-5.085z"/><path d="m159.038 293.764v-3.122c0-2.403 1.609-4.612 3.965-5.085 3.214-.645 6.035 1.797 6.035 4.896v3.5c0 3.099-2.821 5.541-6.035 4.896-2.356-.473-3.965-2.682-3.965-5.085z"/></g><path d="m444.1 367.836h-3.062v-3.062c0-2.404-1.61-4.613-3.968-5.085-3.214-.642-6.032 1.798-6.032 4.897v3.25h-3.062c-2.403 0-4.612 1.609-5.084 3.965-.644 3.214 1.796 6.035 4.896 6.035h3.25v3.062c0 2.404 1.61 4.613 3.968 5.085 3.214.643 6.032-1.798 6.032-4.897v-3.25h3.25c3.1 0 5.54-2.821 4.896-6.035-.472-2.356-2.681-3.965-5.084-3.965z" fill="#6e80f8"/><path d="m368.1 34.836h-3.062v-3.062c0-2.404-1.61-4.614-3.968-5.085-3.214-.642-6.032 1.798-6.032 4.897v3.25h-3.062c-2.403 0-4.612 1.609-5.084 3.965-.644 3.214 1.796 6.035 4.896 6.035h3.25v3.062c0 2.404 1.61 4.613 3.968 5.085 3.214.642 6.032-1.799 6.032-4.897v-3.25h3.25c3.1 0 5.54-2.821 4.896-6.035-.472-2.356-2.681-3.965-5.084-3.965z" fill="#6e80f8"/><path d="m50.099 417.836h-3.061v-3.061c0-2.403-1.609-4.612-3.965-5.085-3.214-.645-6.035 1.797-6.035 4.896v3.25h-3.061c-2.403 0-4.612 1.609-5.085 3.965-.645 3.214 1.797 6.035 4.896 6.035h3.25v3.061c0 2.403 1.609 4.612 3.965 5.085 3.214.645 6.035-1.797 6.035-4.896v-3.25h3.25c3.099 0 5.541-2.821 4.896-6.035-.472-2.356-2.681-3.965-5.085-3.965z" fill="#6e80f8"/><path d="m390.879 353.467c-1.458 0-2.923-.221-4.354-.666-3.724-1.158-6.774-3.697-8.59-7.15-1.814-3.453-2.176-7.406-1.018-11.13 2.392-7.688 10.586-11.998 18.281-9.607 3.724 1.158 6.774 3.697 8.589 7.15 1.814 3.453 2.176 7.406 1.018 11.13s-3.697 6.775-7.15 8.59c-2.125 1.116-4.44 1.683-6.776 1.683zm-.013-19.213c-1.963 0-3.785 1.266-4.398 3.237-.365 1.173-.251 2.419.32 3.507.572 1.088 1.534 1.889 2.708 2.254 1.173.364 2.419.252 3.508-.321 1.089-.572 1.889-1.533 2.254-2.707s.251-2.42-.32-3.508c-.572-1.088-1.534-1.888-2.707-2.253-.456-.142-.915-.209-1.365-.209z" fill="#6e80f8"/><path d="m49.852 396.597c-1.433 0-2.889-.213-4.327-.66-3.725-1.158-6.775-3.697-8.59-7.15-1.814-3.453-2.176-7.406-1.018-11.13s3.697-6.775 7.15-8.589c3.454-1.814 7.406-2.177 11.13-1.018 3.725 1.158 6.776 3.697 8.59 7.15 1.815 3.453 2.176 7.405 1.018 11.13-1.943 6.25-7.727 10.267-13.953 10.267zm.012-19.207c-1.963 0-3.785 1.266-4.398 3.236-.365 1.174-.251 2.42.321 3.508s1.534 1.889 2.708 2.254c2.42.75 5.007-.605 5.762-3.029.365-1.174.251-2.419-.321-3.508-.572-1.088-1.534-1.889-2.708-2.254-.453-.14-.912-.207-1.364-.207zm9.167 7.446h.01z" fill="#6e80f8"/></g><path d="m456.934 239.301c4.111-2.845 6.814-7.589 6.814-12.956s-2.702-10.111-6.813-12.956l21.773-21.486c4.417-4.358 5.697-10.631 3.342-16.372s-7.673-9.306-13.877-9.306h-60.376c-3.969 0-7.71 1.535-10.536 4.323l-40.579 40.043h-19.197v-155.804c0-14.336-11.663-26-26-26h-205.636c-14.336 0-26 11.664-26 26v321.497c0 2.761 2.239 5 5 5s5-2.239 5-5v-283.284h237.637v117.591h-111.62v-13.348c0-2.761-2.239-5-5-5s-5 2.239-5 5v58.202c0 2.761 2.239 5 5 5s5-2.239 5-5v-34.854h232.129c3.172 0 5.753 2.581 5.753 5.753s-2.581 5.753-5.753 5.753h-209.422c-2.761 0-5 2.239-5 5s2.239 5 5 5h88.913v215.115c0 8.822-7.178 16-16 16h-205.637c-8.822 0-16-7.178-16-16v-52.83c0-2.761-2.239-5-5-5s-5 2.239-5 5v52.83c0 14.336 11.664 26 26 26h205.637c14.337 0 26-11.664 26-26v-215.114h19.196l40.579 40.043c2.826 2.788 6.568 4.323 10.536 4.323h60.376c6.204 0 11.521-3.565 13.877-9.306s1.075-12.013-3.342-16.372zm-367.085-156.301v-28.213c0-8.822 7.178-16 16-16h205.637c8.822 0 16 7.178 16 16v28.213zm314.435 94.667c.941-.93 2.189-1.441 3.513-1.441h60.376c3.111 0 4.327 2.374 4.625 3.102.299.728 1.102 3.272-1.113 5.458l-26.152 25.807h-74.614zm68.514 95.696c-.298.728-1.514 3.102-4.625 3.102h-60.376c-1.323 0-2.57-.512-3.513-1.441l-33.366-32.925h74.613l26.153 25.807c2.215 2.185 1.413 4.728 1.114 5.457z" fill="#2720b9"/></g></svg>