<?xml version="1.0" encoding="utf-8"?>
<!-- Generator: Adobe Illustrator 16.0.3, SVG Export Plug-In . SVG Version: 6.00 Build 0)  -->
<!DOCTYPE svg PUBLIC "-//W3C//DTD SVG 1.1 Tiny//EN" "http://www.w3.org/Graphics/SVG/1.1/DTD/svg11-tiny.dtd">
<svg version="1.1" baseProfile="tiny" xmlns="http://www.w3.org/2000/svg" xmlns:xlink="http://www.w3.org/1999/xlink" x="0px"
	 y="0px" width="475.805px" height="94.805px" viewBox="0 0 475.805 94.805" xml:space="preserve">
<g id="BACKGROUND">
</g>
<g id="OBJECTS">
	<g>
		<path fill="#414344" d="M114.206,69.306V50.869l-16.047-25.37h10.369l10.31,17.332l10.1-17.332h10.19l-16.106,25.431v18.377
			H114.206z"/>
		<path fill="#414344" d="M141.728,47.671c0-4.462,0.667-8.207,2.002-11.235c0.996-2.231,2.355-4.233,4.079-6.007
			c1.723-1.772,3.61-3.087,5.663-3.944c2.729-1.155,5.876-1.733,9.443-1.733c6.455,0,11.619,2.003,15.494,6.007
			s5.812,9.572,5.812,16.704c0,7.072-1.922,12.605-5.767,16.6s-8.985,5.991-15.419,5.991c-6.514,0-11.694-1.987-15.539-5.961
			C143.65,60.118,141.728,54.644,141.728,47.671z M150.842,47.373c0,4.961,1.146,8.722,3.437,11.281s5.2,3.84,8.726,3.84
			c3.526,0,6.42-1.271,8.681-3.811c2.261-2.54,3.392-6.35,3.392-11.43c0-5.021-1.101-8.766-3.302-11.236
			c-2.201-2.47-5.125-3.705-8.771-3.705c-3.646,0-6.584,1.251-8.815,3.75C151.958,38.563,150.842,42.333,150.842,47.373z"/>
		<path fill="#414344" d="M191.063,25.499h8.845v23.727c0,3.766,0.109,6.206,0.329,7.321c0.378,1.793,1.28,3.232,2.705,4.318
			c1.424,1.086,3.372,1.629,5.842,1.629c2.51,0,4.402-0.513,5.678-1.539c1.274-1.026,2.042-2.286,2.301-3.78s0.389-3.975,0.389-7.44
			V25.499h8.845v23.01c0,5.26-0.239,8.975-0.717,11.146c-0.478,2.171-1.36,4.004-2.645,5.498c-1.285,1.494-3.003,2.685-5.155,3.571
			c-2.151,0.886-4.96,1.329-8.427,1.329c-4.184,0-7.356-0.483-9.518-1.449s-3.87-2.221-5.125-3.765
			c-1.255-1.544-2.082-3.163-2.48-4.856c-0.578-2.51-0.867-6.215-0.867-11.116V25.499z"/>
		<path fill="#414344" d="M235.349,69.306V25.499h18.616c4.682,0,8.084,0.395,10.205,1.181c2.122,0.787,3.82,2.187,5.095,4.198
			c1.275,2.013,1.913,4.313,1.913,6.903c0,3.287-0.967,6.002-2.899,8.143c-1.932,2.142-4.821,3.492-8.665,4.049
			c1.912,1.116,3.491,2.342,4.736,3.676c1.244,1.335,2.923,3.705,5.035,7.112l5.349,8.546h-10.578l-6.396-9.532
			c-2.271-3.406-3.824-5.553-4.661-6.439s-1.724-1.494-2.66-1.823c-0.937-0.328-2.42-0.493-4.452-0.493h-1.793v18.288H235.349z
			 M244.194,44.026h6.544c4.244,0,6.893-0.179,7.949-0.538c1.056-0.358,1.883-0.976,2.48-1.853c0.598-0.876,0.896-1.972,0.896-3.287
			c0-1.474-0.394-2.664-1.181-3.57s-1.897-1.479-3.332-1.719c-0.717-0.1-2.868-0.149-6.454-0.149h-6.903V44.026z"/>
		<path fill="#414344" d="M296.756,69.306V25.858h8.846v36.067h21.993v7.381H296.756z"/>
		<path fill="#414344" d="M332.107,47.671c0-4.462,0.668-8.207,2.003-11.235c0.995-2.231,2.355-4.233,4.078-6.007
			c1.724-1.772,3.611-3.087,5.663-3.944c2.729-1.155,5.877-1.733,9.442-1.733c6.455,0,11.619,2.003,15.494,6.007
			s5.813,9.572,5.813,16.704c0,7.072-1.923,12.605-5.768,16.6s-8.984,5.991-15.419,5.991c-6.515,0-11.694-1.987-15.539-5.961
			C334.03,60.118,332.107,54.644,332.107,47.671z M341.221,47.373c0,4.961,1.146,8.722,3.437,11.281s5.199,3.84,8.726,3.84
			s6.42-1.271,8.681-3.811s3.392-6.35,3.392-11.43c0-5.021-1.101-8.766-3.302-11.236c-2.201-2.47-5.125-3.705-8.771-3.705
			s-6.584,1.251-8.815,3.75C342.336,38.563,341.221,42.333,341.221,47.373z"/>
		<path fill="#414344" d="M401.882,53.2v-7.381h19.065V63.27c-1.854,1.793-4.538,3.372-8.054,4.736
			c-3.517,1.364-7.077,2.047-10.683,2.047c-4.583,0-8.576-0.961-11.983-2.884c-3.406-1.922-5.966-4.671-7.68-8.247
			c-1.713-3.575-2.569-7.466-2.569-11.669c0-4.562,0.956-8.616,2.868-12.162c1.913-3.546,4.711-6.265,8.397-8.158
			c2.809-1.454,6.305-2.182,10.488-2.182c5.438,0,9.687,1.142,12.745,3.422c3.058,2.281,5.024,5.434,5.901,9.458l-8.785,1.644
			c-0.618-2.151-1.778-3.85-3.481-5.095s-3.83-1.868-6.38-1.868c-3.865,0-6.938,1.226-9.219,3.676s-3.421,6.086-3.421,10.907
			c0,5.199,1.154,9.099,3.466,11.698c2.311,2.601,5.339,3.9,9.084,3.9c1.854,0,3.71-0.363,5.573-1.091
			c1.862-0.728,3.461-1.608,4.796-2.645V53.2H401.882z"/>
		<path fill="#414344" d="M427.312,47.671c0-4.462,0.668-8.207,2.003-11.235c0.995-2.231,2.355-4.233,4.078-6.007
			c1.724-1.772,3.611-3.087,5.663-3.944c2.729-1.155,5.877-1.733,9.442-1.733c6.455,0,11.619,2.003,15.494,6.007
			s5.813,9.572,5.813,16.704c0,7.072-1.923,12.605-5.768,16.6s-8.984,5.991-15.419,5.991c-6.515,0-11.694-1.987-15.539-5.961
			C429.235,60.118,427.312,54.644,427.312,47.671z M436.426,47.373c0,4.961,1.146,8.722,3.437,11.281s5.199,3.84,8.726,3.84
			s6.42-1.271,8.681-3.811s3.392-6.35,3.392-11.43c0-5.021-1.101-8.766-3.302-11.236c-2.201-2.47-5.125-3.705-8.771-3.705
			s-6.584,1.251-8.815,3.75C437.542,38.563,436.426,42.333,436.426,47.373z"/>
	</g>
	<path id="XMLID_69_" fill="#1C77FD" d="M47.476,78.12C30.341,78.12,16.4,64.179,16.4,47.043c0-17.135,13.941-31.077,31.076-31.077
		c17.136,0,31.077,13.941,31.077,31.077C78.553,64.179,64.612,78.12,47.476,78.12z"/>
	<g id="XMLID_59_">
		<g id="XMLID_65_">
			<path id="XMLID_66_" fill="#FFFFFF" d="M42.88,38.95l-13.027,8.093l13.027,8.094v10.701l-18.964-12.69V40.938L42.88,28.25V38.95z
				"/>
		</g>
		<g id="XMLID_61_">
			<path id="XMLID_63_" fill="#FFFFFF" d="M52.073,28.25l18.965,12.689v12.209l-18.965,12.69V55.137L65.1,47.043L52.073,38.95V28.25
				z"/>
		</g>
	</g>
	<g id="XMLID_47_">
		<path id="XMLID_295_" fill="#1C77FD" d="M47.477,90.551c-23.99,0-43.508-19.518-43.508-43.508
			c0-23.99,19.518-43.507,43.508-43.507c23.989,0,43.507,19.518,43.507,43.507C90.984,71.033,71.466,90.551,47.477,90.551z
			 M47.477,10.639c-20.074,0-36.404,16.331-36.404,36.404c0,20.074,16.33,36.404,36.404,36.404
			c20.073,0,36.403-16.331,36.403-36.404C83.88,26.97,67.55,10.639,47.477,10.639z"/>
	</g>
</g>
</svg>
