<?xml version="1.0" encoding="utf-8"?>
<!-- Generator: Adobe Illustrator 16.0.3, SVG Export Plug-In . SVG Version: 6.00 Build 0)  -->
<!DOCTYPE svg PUBLIC "-//W3C//DTD SVG 1.1//EN" "http://www.w3.org/Graphics/SVG/1.1/DTD/svg11.dtd">
<svg version="1.1" id="Layer_1" xmlns="http://www.w3.org/2000/svg" xmlns:xlink="http://www.w3.org/1999/xlink" x="0px" y="0px"
	 width="612px" height="169.734px" viewBox="0 311.133 612 169.734" enable-background="new 0 311.133 612 169.734"
	 xml:space="preserve">
<g>
	<path fill="#5F01D1" d="M0,352.491h36.457l21.157,54.147l21.396-54.147h35.501L61.08,480.867H25.46l14.702-33.946L0,352.491z
		 M151.447,350.339c-27.373,0-44.586,24.504-44.586,48.889c0,27.492,19.006,49.247,44.107,49.247
		c18.886,0,25.938-11.475,25.938-11.475v8.965h31.795v-93.594h-31.795v8.487C176.786,360.977,168.898,350.339,151.447,350.339z
		 M158.259,380.461c12.671,0,19.125,10.041,19.125,19.006c0,9.682-6.933,19.244-19.125,19.244c-10.04,0-19.125-8.128-19.125-18.886
		C139.015,389.067,146.306,380.461,158.259,380.461z M219.459,445.965V311.133h33.229v50.203c0,0,7.89-10.997,24.385-10.997
		c20.201,0,32.153,15.181,32.153,36.577v59.168h-33.109v-51.04c0-7.291-3.347-14.344-11.236-14.344
		c-8.009,0-12.192,7.053-12.192,14.344v51.04h-33.229V445.965z M365.766,350.339c-31.317,0-49.965,23.787-49.965,49.367
		c0,29.046,22.592,48.888,50.203,48.888c26.656,0,49.965-19.005,49.965-48.41C415.969,367.91,391.465,350.339,365.766,350.339z
		 M366.124,380.581c11.116,0,18.646,9.203,18.646,19.005c0,8.367-7.052,18.647-18.646,18.647c-10.639,0-18.527-8.487-18.527-18.887
		C347.597,389.665,354.051,380.581,366.124,380.581z M471.192,350.339c-31.316,0-49.964,23.787-49.964,49.367
		c0,29.046,22.592,48.888,50.203,48.888c26.655,0,49.964-19.005,49.964-48.41C521.395,367.91,497.011,350.339,471.192,350.339z
		 M471.551,380.581c11.116,0,18.646,9.203,18.646,19.005c0,8.367-7.053,18.647-18.646,18.647c-10.639,0-18.527-8.487-18.527-18.887
		C453.024,389.665,459.598,380.581,471.551,380.581z M547.692,403.889c12.192,0,22.113,9.921,22.113,22.113
		s-9.921,22.113-22.113,22.113c-12.191,0-22.113-9.921-22.113-22.113S535.5,403.889,547.692,403.889z M576.977,395.881h-39.684
		l35.142-84.748H612L576.977,395.881z"/>
</g>
</svg>
