<?xml version="1.0" encoding="utf-8"?>
<!-- Generator: Adobe Illustrator 16.0.3, SVG Export Plug-In . SVG Version: 6.00 Build 0)  -->
<!DOCTYPE svg PUBLIC "-//W3C//DTD SVG 1.1//EN" "http://www.w3.org/Graphics/SVG/1.1/DTD/svg11.dtd">
<svg version="1.1" xmlns="http://www.w3.org/2000/svg" xmlns:xlink="http://www.w3.org/1999/xlink" x="0px" y="0px" width="1686px"
	 height="1650px" viewBox="0 0 1686 1650" enable-background="new 0 0 1686 1650" xml:space="preserve">
<g id="Background">
</g>
<g id="Illustration">
	<g>
		<path fill="#BDD0FB" d="M961.152,946.816c-0.422,0.132-0.892,0.12-1.331-0.067l-4.415-1.901c-0.972-0.421-1.419-1.55-0.999-2.521
			c0.421-0.974,1.548-1.419,2.522-0.999l4.404,1.896c0.973,0.418,1.423,1.545,1.006,2.519
			C962.11,946.277,961.666,946.654,961.152,946.816z M944.441,939.511c-0.432,0.136-0.912,0.119-1.357-0.079
			c-1.756-0.785-3.512-1.573-5.267-2.367c-0.965-0.438-1.394-1.573-0.957-2.538c0.437-0.965,1.572-1.395,2.538-0.958
			c1.75,0.792,3.499,1.579,5.25,2.361c0.967,0.432,1.4,1.566,0.968,2.533C945.385,938.985,944.947,939.352,944.441,939.511z
			 M926.98,931.53c-0.441,0.139-0.934,0.119-1.387-0.092c-1.742-0.814-3.484-1.634-5.222-2.459
			c-0.957-0.455-1.365-1.598-0.911-2.556c0.454-0.956,1.598-1.364,2.556-0.91c1.732,0.822,3.466,1.639,5.202,2.449
			c0.96,0.449,1.374,1.591,0.926,2.55C927.906,931.02,927.475,931.375,926.98,931.53z M909.674,923.238
			c-0.454,0.143-0.96,0.118-1.42-0.108c-1.726-0.847-3.451-1.699-5.172-2.558c-0.947-0.473-1.333-1.625-0.86-2.572
			c0.475-0.948,1.626-1.332,2.572-0.86c1.714,0.854,3.431,1.704,5.149,2.548c0.951,0.466,1.344,1.615,0.877,2.565
			C910.58,922.744,910.157,923.086,909.674,923.238z M892.54,914.606c-0.466,0.146-0.988,0.117-1.457-0.125
			c-1.708-0.884-3.412-1.772-5.113-2.666c-0.938-0.493-1.298-1.652-0.806-2.59c0.492-0.938,1.651-1.298,2.59-0.807
			c1.694,0.891,3.392,1.774,5.092,2.654c0.94,0.488,1.309,1.645,0.822,2.586C893.422,914.131,893.009,914.459,892.54,914.606z
			 M875.603,905.611c-0.48,0.15-1.018,0.113-1.494-0.146c-1.688-0.921-3.37-1.848-5.049-2.779c-0.926-0.515-1.259-1.682-0.746-2.608
			c0.515-0.925,1.682-1.259,2.608-0.745c1.67,0.928,3.345,1.85,5.024,2.767c0.93,0.507,1.272,1.672,0.764,2.602
			C876.463,905.153,876.06,905.468,875.603,905.611z M858.889,896.222c-0.496,0.156-1.052,0.111-1.537-0.169
			c-1.664-0.962-3.322-1.93-4.976-2.903c-0.913-0.537-1.218-1.713-0.68-2.625c0.539-0.914,1.714-1.217,2.625-0.681
			c1.646,0.968,3.296,1.931,4.951,2.89c0.917,0.53,1.23,1.703,0.7,2.62C859.723,895.785,859.331,896.083,858.889,896.222z
			 M842.426,886.41c-0.512,0.16-1.088,0.107-1.581-0.196c-1.637-1.007-3.269-2.019-4.894-3.036
			c-0.897-0.563-1.169-1.746-0.606-2.644c0.56-0.898,1.745-1.169,2.643-0.606c1.615,1.012,3.237,2.018,4.867,3.019
			c0.902,0.556,1.184,1.736,0.63,2.639C843.232,885.994,842.851,886.276,842.426,886.41z M826.25,876.139
			c-0.529,0.167-1.126,0.104-1.627-0.225c-1.607-1.054-3.208-2.115-4.8-3.183c-0.879-0.59-1.115-1.781-0.525-2.66
			c0.588-0.88,1.778-1.117,2.661-0.526c1.582,1.061,3.171,2.115,4.768,3.161c0.886,0.581,1.133,1.77,0.552,2.655
			C827.024,875.746,826.657,876.011,826.25,876.139z M810.406,865.375c-0.55,0.173-1.172,0.097-1.68-0.261
			c-1.572-1.106-3.137-2.22-4.692-3.34c-0.86-0.619-1.054-1.817-0.436-2.677c0.617-0.859,1.819-1.054,2.677-0.436
			c1.544,1.111,3.097,2.217,4.658,3.315c0.866,0.608,1.074,1.805,0.465,2.672C811.146,865.008,810.794,865.253,810.406,865.375z
			 M794.943,854.076c-0.574,0.181-1.222,0.09-1.737-0.3c-1.536-1.167-3.064-2.341-4.581-3.521c-0.836-0.649-0.987-1.855-0.337-2.69
			c0.648-0.837,1.854-0.989,2.691-0.337c1.506,1.17,3.021,2.334,4.546,3.491c0.844,0.641,1.008,1.844,0.368,2.688
			C795.645,853.736,795.309,853.962,794.943,854.076z M779.898,842.182c-0.598,0.188-1.276,0.08-1.797-0.349
			c-1.489-1.228-2.968-2.462-4.436-3.703c-0.808-0.684-0.91-1.894-0.226-2.703c0.683-0.812,1.894-0.909,2.703-0.226
			c1.455,1.23,2.921,2.454,4.398,3.671c0.816,0.674,0.934,1.883,0.26,2.7C780.557,841.87,780.241,842.074,779.898,842.182z
			 M765.368,829.667c-0.626,0.196-1.337,0.067-1.861-0.404c-1.436-1.293-2.858-2.594-4.268-3.902
			c-0.776-0.72-0.822-1.933-0.102-2.71c0.717-0.778,1.934-0.822,2.71-0.101c1.396,1.294,2.804,2.582,4.227,3.864
			c0.787,0.709,0.851,1.922,0.141,2.708C765.978,829.386,765.683,829.567,765.368,829.667z M751.439,816.486
			c-0.658,0.208-1.406,0.051-1.929-0.469c-1.37-1.364-2.726-2.734-4.068-4.112c-0.739-0.759-0.724-1.973,0.035-2.712
			c0.758-0.743,1.973-0.724,2.712,0.036c1.328,1.363,2.67,2.72,4.025,4.068c0.751,0.747,0.754,1.961,0.008,2.713
			C751.995,816.238,751.725,816.396,751.439,816.486z M738.212,802.6c-0.694,0.218-1.483,0.03-2.001-0.545
			c-1.29-1.432-2.57-2.875-3.839-4.33c-0.696-0.798-0.612-2.009,0.187-2.707c0.798-0.694,2.008-0.613,2.706,0.187
			c1.254,1.438,2.52,2.866,3.796,4.283c0.709,0.786,0.646,2-0.141,2.709C738.708,802.386,738.467,802.52,738.212,802.6z
			 M725.787,787.991c-0.733,0.23-1.564,0.003-2.074-0.633c-1.206-1.509-2.396-3.028-3.572-4.56
			c-0.646-0.841-0.487-2.044,0.354-2.689c0.843-0.646,2.045-0.487,2.689,0.354c1.16,1.511,2.336,3.011,3.526,4.5
			c0.661,0.828,0.527,2.034-0.301,2.696C726.219,787.811,726.007,787.922,725.787,787.991z M714.324,772.618
			c-0.78,0.246-1.662-0.031-2.152-0.74c-0.824-1.19-1.639-2.388-2.441-3.591c-1.117,0.464-2.238,0.915-3.364,1.353
			c-0.976,0.369-2.098-0.107-2.482-1.095c-0.383-0.987,0.107-2.099,1.095-2.482c1.763-0.684,3.514-1.404,5.253-2.156
			c0.972-0.438,2.101,0.027,2.521,0.999c0.166,0.384,0.197,0.792,0.114,1.172c0.809,1.213,1.628,2.419,2.458,3.62
			c0.603,0.871,0.385,2.065-0.486,2.668C714.678,772.478,714.503,772.562,714.324,772.618z M693.532,773.962
			c-0.017,0.005-0.034,0.01-0.051,0.015c-1.871,0.532-3.751,1.027-5.641,1.482c-1.029,0.248-2.066-0.386-2.313-1.416
			c-0.249-1.03,0.383-2.063,1.415-2.313c1.839-0.443,3.669-0.924,5.489-1.442c1.019-0.29,2.08,0.3,2.37,1.319
			C695.085,772.609,694.519,773.652,693.532,773.962z M674.781,777.907c-0.103,0.033-0.209,0.057-0.319,0.072
			c-1.935,0.262-3.887,0.483-5.802,0.657c-1.055,0.096-1.987-0.682-2.083-1.737c-0.096-1.054,0.676-1.985,1.737-2.083
			c1.883-0.171,3.761-0.384,5.631-0.639c1.05-0.142,2.017,0.593,2.159,1.643C676.231,776.76,675.656,777.632,674.781,777.907z
			 M723.644,761.646c-0.861,0.271-1.821-0.098-2.264-0.922c-0.501-0.934-0.151-2.096,0.781-2.598
			c1.668-0.896,3.322-1.823,4.962-2.777c0.922-0.536,2.09-0.224,2.623,0.691c0.533,0.915,0.224,2.089-0.691,2.623
			c-1.677,0.978-3.371,1.925-5.078,2.843C723.869,761.563,723.757,761.61,723.644,761.646z M655.653,779.051
			c-0.192,0.061-0.398,0.091-0.61,0.087l-1.319-0.028c-1.512-0.042-3.019-0.112-4.52-0.209c-1.057-0.069-1.858-0.981-1.79-2.038
			c0.07-1.059,0.986-1.857,2.039-1.79c1.453,0.095,2.912,0.162,4.375,0.203l1.284,0.029c1.06,0.018,1.902,0.892,1.883,1.951
			C656.98,778.101,656.419,778.811,655.653,779.051z M739.988,751.632c-0.781,0.246-1.662-0.031-2.152-0.74
			c-0.603-0.872-0.385-2.066,0.486-2.668c1.559-1.078,3.101-2.182,4.629-3.312c0.846-0.629,2.051-0.45,2.682,0.401
			c0.63,0.852,0.45,2.053-0.401,2.683c-1.56,1.154-3.136,2.282-4.729,3.383C740.341,751.491,740.167,751.575,739.988,751.632z
			 M704.037,756.438c-0.838,0.263-1.774-0.077-2.234-0.869c-0.971-1.676-1.918-3.363-2.843-5.061
			c-0.506-0.93-0.162-2.095,0.768-2.602c0.929-0.512,2.095-0.161,2.602,0.769c0.907,1.668,1.84,3.324,2.794,4.972
			c0.53,0.916,0.217,2.09-0.7,2.621C704.3,756.339,704.169,756.396,704.037,756.438z M755.159,739.912
			c-0.71,0.224-1.517,0.02-2.033-0.581c-0.689-0.803-0.597-2.014,0.207-2.705c1.44-1.236,2.863-2.495,4.265-3.774
			c0.781-0.713,1.996-0.658,2.709,0.124c0.714,0.783,0.659,1.996-0.124,2.709c-1.432,1.307-2.883,2.59-4.353,3.853
			C755.627,739.712,755.399,739.837,755.159,739.912z M636.592,777.201c-0.285,0.09-0.595,0.114-0.911,0.058
			c-1.904-0.339-3.827-0.729-5.715-1.157c-1.033-0.234-1.681-1.261-1.446-2.294c0.233-1.033,1.263-1.68,2.294-1.446
			c1.831,0.415,3.695,0.792,5.541,1.122c1.043,0.185,1.738,1.182,1.551,2.225C637.777,776.436,637.253,776.994,636.592,777.201z
			 M769.067,726.713c-0.645,0.203-1.378,0.059-1.902-0.442c-0.766-0.731-0.793-1.946-0.062-2.712
			c1.313-1.374,2.604-2.767,3.874-4.178c0.708-0.789,1.92-0.852,2.708-0.142c0.788,0.708,0.851,1.92,0.143,2.708
			c-1.295,1.439-2.613,2.86-3.952,4.262C769.646,726.451,769.366,726.619,769.067,726.713z M618.063,772.402
			c-0.376,0.119-0.791,0.123-1.192-0.014c-1.827-0.623-3.671-1.299-5.481-2.008c-0.986-0.386-1.474-1.498-1.087-2.484
			c0.386-0.987,1.5-1.473,2.485-1.087c1.76,0.688,3.534,1.338,5.321,1.948c1.003,0.342,1.538,1.432,1.196,2.434
			C619.099,771.793,618.625,772.226,618.063,772.402z M695.185,739.432c-0.906,0.285-1.906-0.141-2.314-1.026
			c-0.813-1.759-1.598-3.53-2.357-5.312c-0.416-0.975,0.038-2.101,1.013-2.516c0.994-0.424,2.102,0.04,2.516,1.013
			c0.744,1.747,1.514,3.482,2.31,5.207c0.444,0.962,0.024,2.101-0.937,2.545C695.339,739.378,695.262,739.408,695.185,739.432z
			 M781.618,712.219c-0.583,0.184-1.243,0.086-1.761-0.32c-0.833-0.654-0.979-1.859-0.325-2.693
			c1.174-1.497,2.324-3.009,3.452-4.536c0.629-0.852,1.832-1.033,2.683-0.404c0.852,0.629,1.032,1.83,0.404,2.682
			c-1.15,1.557-2.324,3.099-3.521,4.625C782.302,711.89,781.975,712.107,781.618,712.219z M600.427,764.92
			c-0.463,0.146-0.98,0.117-1.447-0.121c-1.732-0.883-3.446-1.802-5.144-2.757c-0.923-0.52-1.25-1.688-0.731-2.612
			c0.518-0.922,1.687-1.25,2.61-0.732c1.652,0.929,3.322,1.824,5.007,2.684c0.943,0.48,1.318,1.636,0.837,2.58
			C601.316,764.439,600.9,764.771,600.427,764.92z M792.7,696.571c-0.521,0.164-1.108,0.105-1.604-0.21
			c-0.894-0.568-1.159-1.753-0.591-2.647c1.016-1.6,2.007-3.219,2.971-4.854c0.538-0.912,1.712-1.216,2.626-0.678
			c0.913,0.539,1.216,1.715,0.678,2.627c-0.986,1.672-2,3.326-3.038,4.962C793.491,696.167,793.116,696.439,792.7,696.571z
			 M583.97,755.084c-0.544,0.171-1.159,0.099-1.665-0.25c-1.599-1.103-3.179-2.237-4.738-3.403
			c-0.849-0.634-1.022-1.836-0.388-2.685c0.635-0.852,1.837-1.023,2.685-0.388c1.521,1.136,3.061,2.242,4.619,3.318
			c0.873,0.602,1.091,1.796,0.49,2.667C584.72,754.71,584.364,754.961,583.97,755.084z M688.056,721.639
			c-0.991,0.312-2.054-0.224-2.39-1.212c-0.424-1.246-0.833-2.497-1.229-3.754c-0.188-0.593-0.371-1.188-0.552-1.787
			c-0.305-1.007,0.259-2.07,1.259-2.385c0.007-0.002,0.013-0.004,0.021-0.006c1.014-0.307,2.084,0.266,2.392,1.28
			c0.176,0.582,0.355,1.163,0.539,1.745c0.387,1.231,0.788,2.455,1.201,3.673c0.342,1.002-0.195,2.091-1.198,2.432
			C688.085,721.629,688.07,721.634,688.056,721.639z M802.017,679.817c-0.447,0.141-0.944,0.12-1.4-0.098
			c-0.957-0.456-1.363-1.601-0.907-2.557c0.814-1.709,1.592-3.434,2.33-5.172c0.414-0.974,1.539-1.43,2.516-1.016
			c0.975,0.415,1.429,1.541,1.015,2.516c-0.76,1.788-1.561,3.562-2.397,5.321C802.934,679.313,802.507,679.663,802.017,679.817z
			 M568.893,743.233c-0.623,0.196-1.329,0.069-1.851-0.396c-1.451-1.29-2.88-2.608-4.286-3.952
			c-0.766-0.732-0.794-1.945-0.062-2.712c0.735-0.763,1.948-0.792,2.712-0.062c1.373,1.313,2.768,2.599,4.185,3.858
			c0.792,0.704,0.863,1.917,0.159,2.708C569.51,742.947,569.213,743.133,568.893,743.233z M682.952,703.161
			c-0.059,0.019-0.12,0.035-0.182,0.047c-1.036,0.219-2.054-0.443-2.272-1.48c-0.401-1.901-0.765-3.81-1.092-5.729
			c-0.179-1.044,0.516-2.03,1.569-2.212c1.043-0.178,2.034,0.524,2.212,1.568c0.318,1.868,0.673,3.729,1.063,5.581
			C684.457,701.91,683.883,702.868,682.952,703.161z M808.939,661.951c-0.352,0.111-0.739,0.122-1.12,0.009
			c-1.016-0.301-1.594-1.369-1.293-2.384c0.541-1.821,1.032-3.658,1.461-5.457c0.244-1.03,1.28-1.668,2.31-1.421
			c1.03,0.245,1.667,1.279,1.421,2.31c-0.444,1.868-0.954,3.771-1.515,5.66C810.016,661.302,809.527,661.766,808.939,661.951z
			 M555.335,729.668c-0.697,0.219-1.49,0.027-2.009-0.555c-1.291-1.45-2.556-2.922-3.798-4.416
			c-0.677-0.815-0.566-2.024,0.249-2.701c0.817-0.678,2.025-0.565,2.701,0.249c1.213,1.46,2.451,2.9,3.713,4.317
			c0.705,0.791,0.634,2.003-0.157,2.708C555.825,729.456,555.586,729.589,555.335,729.668z M812.619,643.162
			c-0.235,0.074-0.488,0.104-0.75,0.08c-1.054-0.096-1.832-1.03-1.735-2.085c0.171-1.874,0.281-3.762,0.327-5.612
			c0.026-1.06,0.903-1.9,1.964-1.87c1.06,0.026,1.896,0.905,1.87,1.964c-0.047,1.935-0.163,3.91-0.341,5.868
			C813.881,642.3,813.334,642.937,812.619,643.162z M680.223,684.188c-0.137,0.043-0.28,0.071-0.43,0.083
			c-1.056,0.082-1.978-0.708-2.06-1.764c-0.15-1.938-0.263-3.878-0.335-5.82c-0.041-1.059,0.78-1.953,1.843-1.988
			c1.059-0.041,1.949,0.785,1.99,1.843c0.071,1.891,0.18,3.781,0.326,5.669C681.628,683.118,681.055,683.927,680.223,684.188z
			 M543.41,714.648c-0.774,0.244-1.648-0.025-2.142-0.723c-1.12-1.585-2.213-3.188-3.279-4.809
			c-0.582-0.885-0.337-2.074,0.547-2.657c0.888-0.58,2.073-0.337,2.657,0.548c1.043,1.586,2.112,3.154,3.207,4.704
			c0.612,0.865,0.406,2.062-0.459,2.673C543.774,714.502,543.595,714.59,543.41,714.648z M812.115,624.041
			c-0.089,0.028-0.181,0.05-0.277,0.065c-1.045,0.167-2.028-0.547-2.195-1.593c-0.292-1.832-0.663-3.677-1.104-5.485
			c-0.251-1.028,0.377-2.062,1.409-2.318c1.029-0.251,2.067,0.38,2.318,1.409c0.465,1.908,0.858,3.857,1.166,5.792
			C813.583,622.862,813.006,623.761,812.115,624.041z M680.019,665.026c-0.216,0.068-0.447,0.098-0.687,0.084
			c-1.057-0.062-1.865-0.969-1.804-2.026c0.113-1.942,0.265-3.882,0.458-5.814c0.104-1.055,1.044-1.822,2.1-1.718
			c1.054,0.105,1.823,1.045,1.717,2.1c-0.188,1.88-0.336,3.766-0.445,5.655C681.311,664.125,680.757,664.793,680.019,665.026z
			 M533.229,698.398c-0.854,0.268-1.805-0.091-2.253-0.903c-0.938-1.7-1.846-3.413-2.725-5.141c-0.48-0.944-0.104-2.099,0.84-2.579
			c0.948-0.475,2.099-0.103,2.579,0.84c0.859,1.689,1.748,3.365,2.664,5.027c0.512,0.928,0.175,2.094-0.752,2.605
			C533.468,698.311,533.349,698.361,533.229,698.398z M682.485,646.024c-0.301,0.095-0.63,0.117-0.961,0.048
			c-1.038-0.214-1.706-1.228-1.491-2.265c0.395-1.916,0.835-3.832,1.309-5.692c0.263-1.026,1.306-1.644,2.333-1.386
			c1.026,0.263,1.647,1.306,1.386,2.333c-0.46,1.804-0.888,3.661-1.271,5.519C683.645,645.288,683.127,645.823,682.485,646.024z
			 M806.6,605.729c-0.912,0.287-1.915-0.146-2.319-1.038c-0.771-1.701-1.617-3.383-2.516-5.002c-0.515-0.926-0.18-2.093,0.746-2.607
			c0.918-0.517,2.094-0.18,2.607,0.746c0.95,1.708,1.844,3.485,2.656,5.279c0.437,0.965,0.009,2.102-0.955,2.539
			C806.746,605.678,806.674,605.706,806.6,605.729z M524.927,681.121c-0.939,0.295-1.963-0.172-2.346-1.098
			c-0.741-1.794-1.45-3.598-2.127-5.415c-0.37-0.992,0.134-2.097,1.126-2.467c0.97-0.371,2.096,0.134,2.467,1.126
			c0.662,1.774,1.354,3.538,2.079,5.291c0.405,0.979-0.061,2.1-1.04,2.504C525.033,681.085,524.98,681.104,524.927,681.121z
			 M687.813,627.624c-0.397,0.125-0.836,0.123-1.254-0.037c-0.991-0.375-1.49-1.483-1.114-2.473
			c0.687-1.813,1.434-3.635,2.217-5.417c0.425-0.971,1.557-1.411,2.528-0.984c0.969,0.428,1.41,1.56,0.983,2.528
			c-0.758,1.721-1.478,3.48-2.142,5.231C688.814,627.045,688.354,627.454,687.813,627.624z M796.381,589.572
			c-0.71,0.224-1.517,0.02-2.032-0.581c-1.218-1.42-2.505-2.785-3.823-4.055c-0.763-0.735-0.785-1.949-0.05-2.711
			c0.735-0.764,1.948-0.785,2.711-0.05c1.405,1.354,2.776,2.808,4.073,4.319c0.69,0.804,0.598,2.015-0.207,2.705
			C796.851,589.372,796.622,589.497,796.381,589.572z M696.147,610.38c-0.505,0.159-1.072,0.109-1.562-0.184
			c-0.908-0.544-1.204-1.721-0.66-2.63c1.001-1.671,2.061-3.333,3.151-4.943c0.592-0.876,1.785-1.105,2.664-0.511
			c0.876,0.595,1.106,1.787,0.511,2.664c-1.05,1.549-2.071,3.151-3.035,4.761C696.964,609.955,696.579,610.244,696.147,610.38z
			 M518.657,663.012c-0.019,0.006-0.038,0.012-0.057,0.017c-1.019,0.287-2.079-0.307-2.366-1.327
			c-0.526-1.869-1.019-3.747-1.476-5.632c-0.25-1.03,0.387-2.086,1.41-2.316c1.03-0.25,2.067,0.381,2.316,1.411
			c0.447,1.839,0.928,3.673,1.441,5.498C520.208,661.663,519.642,662.702,518.657,663.012z M781.751,577.312
			c-0.494,0.155-1.048,0.111-1.532-0.167c-1.604-0.922-3.267-1.754-4.941-2.475c-0.973-0.419-1.422-1.547-1.003-2.521
			c0.42-0.972,1.547-1.421,2.52-1.003c1.809,0.779,3.604,1.678,5.335,2.673c0.919,0.528,1.236,1.701,0.708,2.619
			C782.588,576.873,782.194,577.172,781.751,577.312z M707.563,595.003c-0.635,0.2-1.356,0.063-1.88-0.422
			c-0.777-0.72-0.824-1.933-0.104-2.71c1.327-1.434,2.719-2.839,4.138-4.179c0.769-0.726,1.984-0.693,2.711,0.077
			c0.728,0.771,0.693,1.984-0.077,2.711c-1.358,1.282-2.689,2.627-3.958,3.997C708.157,594.73,707.87,594.906,707.563,595.003z
			 M763.706,571.209c-0.257,0.081-0.535,0.109-0.82,0.072c-1.814-0.234-3.67-0.364-5.515-0.387
			c-1.059-0.014-1.907-0.883-1.894-1.942c0.013-1.057,0.882-1.909,1.942-1.894c1.992,0.025,3.997,0.165,5.957,0.418
			c1.051,0.136,1.793,1.097,1.657,2.147C764.935,570.391,764.396,570.992,763.706,571.209z M722.063,582.515
			c-0.788,0.248-1.676-0.036-2.163-0.756c-0.594-0.876-0.364-2.069,0.513-2.663c1.634-1.105,3.315-2.157,5-3.123
			c0.914-0.532,2.089-0.21,2.618,0.709c0.527,0.917,0.21,2.09-0.709,2.617c-1.602,0.919-3.202,1.919-4.758,2.972
			C722.405,582.379,722.236,582.46,722.063,582.515z M744.668,572.323c-0.043,0.014-0.088,0.026-0.133,0.037
			c-1.765,0.419-3.569,0.944-5.354,1.544c-0.977,0.336-2.091-0.198-2.432-1.202c-0.339-1.003,0.199-2.092,1.203-2.432
			c1.896-0.638,3.815-1.194,5.695-1.644c1.03-0.245,2.064,0.392,2.31,1.423C746.191,571.035,745.62,572.023,744.668,572.323z
			 M514.517,644.297c-0.085,0.027-0.171,0.048-0.261,0.063c-1.044,0.176-2.034-0.529-2.208-1.574
			c-0.321-1.91-0.611-3.824-0.874-5.741c-0.143-1.049,0.586-2.016,1.639-2.16c1.051-0.144,2.018,0.59,2.162,1.64
			c0.257,1.878,0.542,3.753,0.856,5.627C515.991,643.106,515.415,644.015,514.517,644.297z M512.286,625.265
			c-0.142,0.044-0.292,0.074-0.446,0.084c-1.057,0.072-1.972-0.726-2.044-1.783c-0.132-1.932-0.237-3.864-0.314-5.797
			c-0.041-1.058,0.785-1.946,1.84-1.993c1.059-0.042,1.951,0.782,1.993,1.84c0.076,1.898,0.177,3.794,0.307,5.689
			C513.685,624.206,513.112,625.005,512.286,625.265z M511.874,606.103c-0.196,0.062-0.405,0.092-0.622,0.087
			c-1.059-0.025-1.896-0.905-1.871-1.963c0.047-1.934,0.119-3.869,0.217-5.802c0.053-1.057,0.955-1.868,2.013-1.818
			c1.058,0.054,1.872,0.955,1.818,2.013c-0.097,1.899-0.168,3.799-0.214,5.699C513.195,605.161,512.635,605.863,511.874,606.103z
			 M513.172,586.97c-0.247,0.078-0.513,0.105-0.787,0.076c-1.053-0.117-1.812-1.064-1.695-2.118c0.213-1.921,0.45-3.841,0.71-5.759
			c0.141-1.05,1.108-1.788,2.157-1.643c1.05,0.142,1.786,1.108,1.643,2.157c-0.255,1.887-0.488,3.776-0.697,5.667
			C514.416,586.13,513.875,586.75,513.172,586.97z M516.048,568.009c-0.293,0.092-0.613,0.115-0.936,0.053
			c-1.041-0.2-1.721-1.205-1.522-2.245c0.365-1.897,0.753-3.792,1.161-5.684c0.223-1.037,1.244-1.694,2.281-1.469
			c1.035,0.224,1.692,1.246,1.469,2.281c-0.404,1.862-0.785,3.728-1.144,5.596C517.219,567.259,516.699,567.804,516.048,568.009z
			 M520.375,549.324c-0.336,0.106-0.707,0.121-1.074,0.022c-1.022-0.276-1.627-1.329-1.352-2.352
			c0.503-1.864,1.028-3.724,1.572-5.58c0.298-1.018,1.367-1.6,2.379-1.301c1.017,0.298,1.6,1.364,1.301,2.379
			c-0.537,1.83-1.053,3.664-1.549,5.502C521.476,548.65,520.979,549.134,520.375,549.324z M526.025,530.993
			c-0.378,0.119-0.796,0.122-1.2-0.017c-1.001-0.346-1.532-1.438-1.187-2.44c0.63-1.825,1.28-3.644,1.948-5.456
			c0.365-0.995,1.472-1.504,2.461-1.138c0.995,0.366,1.503,1.468,1.138,2.462c-0.658,1.789-1.298,3.584-1.921,5.385
			C527.057,530.387,526.585,530.817,526.025,530.993z M532.88,513.08c-0.417,0.131-0.881,0.121-1.317-0.061
			c-0.976-0.41-1.436-1.534-1.026-2.511c0.748-1.778,1.511-3.551,2.291-5.317c0.429-0.967,1.561-1.406,2.53-0.979
			c0.968,0.429,1.407,1.561,0.979,2.53c-0.771,1.744-1.526,3.494-2.262,5.251C533.848,512.533,533.4,512.916,532.88,513.08z"/>
	</g>
	<g>
		<path fill="#BDD0FB" d="M849.45,1365.501c-6.773,6.846-18.336,4.549-22.095-4.317c-20.742-48.92-66.88-192.537,19.018-354.613
			c72.537-136.866,98.863-217.974,108.263-255.622c1.988-7.961,12.983-8.758,16.112-1.172
			C1005.267,833.466,1094.882,1117.455,849.45,1365.501z"/>
	</g>
	<g>
		<g opacity="0.54">
			<path fill="#BDD0FB" d="M1331.047,1332.564l-215.365-1.201c-8.816-0.049-14.293,9.566-9.755,17.125l1.081,1.801
				c2.044,3.402,5.723,5.484,9.692,5.484h214.284c6.242,0,11.305-5.061,11.305-11.303v-0.602
				C1342.289,1337.65,1337.266,1332.6,1331.047,1332.564z"/>
			<path fill="#BDD0FB" d="M1361.131,1344.119v0.352c0,6.242,5.063,11.303,11.305,11.303h47.809c5.119,0,9.6-3.439,10.922-8.385l0,0
				c1.908-7.146-3.443-14.17-10.838-14.223l-47.809-0.352C1366.242,1332.77,1361.131,1337.844,1361.131,1344.119z"/>
		</g>
		<g opacity="0.54">
			<path fill="#BDD0FB" d="M1279.242,1373.145l-163.56-1.201c-8.816-0.049-14.293,9.564-9.755,17.123l1.081,1.803
				c2.044,3.402,5.723,5.484,9.692,5.484h162.477c6.244,0,11.305-5.061,11.305-11.305v-0.602
				C1290.482,1378.229,1285.459,1373.178,1279.242,1373.145z"/>
			<path fill="#BDD0FB" d="M1309.326,1384.699v0.35c0,6.244,5.061,11.305,11.305,11.305h47.809c5.119,0,9.6-3.439,10.92-8.387l0,0
				c1.91-7.145-3.443-14.168-10.838-14.221l-47.809-0.352C1314.438,1373.35,1309.326,1378.424,1309.326,1384.699z"/>
		</g>
	</g>
	<g opacity="0.8">
		<g>
			<g>
				<path fill="#91B3FA" d="M1202.079,1324.313c-0.378-0.023-0.754-0.152-1.082-0.395c-2.191-1.619-4.383-3.303-6.513-5.006
					c-0.878-0.701-1.021-1.982-0.319-2.859c0.702-0.877,1.982-1.021,2.86-0.32c2.091,1.67,4.24,3.322,6.392,4.912
					c0.903,0.668,1.096,1.941,0.427,2.846C1203.417,1324.066,1202.746,1324.354,1202.079,1324.313z"/>
				<path fill="#91B3FA" d="M1175.425,1300.967c-0.489-0.031-0.97-0.236-1.337-0.617c-3.906-4.043-7.712-8.301-11.313-12.66
					c-0.715-0.867-0.592-2.15,0.274-2.865c0.865-0.719,2.148-0.594,2.865,0.273c3.532,4.277,7.268,8.457,11.101,12.422
					c0.781,0.809,0.759,2.098-0.049,2.879C1176.539,1300.813,1175.977,1301,1175.425,1300.967z M1148.188,1266.291
					c-0.63-0.039-1.232-0.369-1.596-0.943c-3.021-4.775-5.889-9.717-8.521-14.688c-0.525-0.992-0.146-2.225,0.847-2.75
					c0.994-0.529,2.225-0.146,2.751,0.844c2.583,4.881,5.397,9.73,8.363,14.418c0.602,0.949,0.319,2.207-0.632,2.807
					C1149.024,1266.217,1148.601,1266.316,1148.188,1266.291z M1128.522,1226.83c-0.776-0.047-1.489-0.539-1.781-1.314
					c-1.982-5.277-3.779-10.699-5.342-16.117c-0.312-1.08,0.313-2.207,1.392-2.52c1.078-0.313,2.209,0.311,2.521,1.393
					c1.532,5.314,3.296,10.635,5.241,15.811c0.395,1.053-0.137,2.227-1.189,2.623
					C1129.085,1226.809,1128.799,1226.848,1128.522,1226.83z M1117.356,1184.184c-0.935-0.059-1.735-0.76-1.884-1.723
					c-0.856-5.564-1.501-11.24-1.919-16.869c-0.083-1.121,0.758-2.098,1.878-2.182c1.122-0.09,2.099,0.758,2.182,1.879
					c0.41,5.525,1.043,11.094,1.883,16.553c0.171,1.111-0.592,2.15-1.703,2.322
					C1117.645,1184.186,1117.499,1184.191,1117.356,1184.184z M1115.174,1140.152c-1.113-0.068-1.965-1.021-1.907-2.139l0.11-1.916
					c0.31-4.994,0.797-10.038,1.451-14.992c0.146-1.112,1.135-1.896,2.284-1.751c1.113,0.147,1.897,1.169,1.751,2.284
					c-0.641,4.859-1.12,9.811-1.424,14.711l-0.107,1.879c-0.059,1.122-1.017,1.984-2.14,1.926
					C1115.187,1140.153,1115.18,1140.152,1115.174,1140.152z M1121.995,1096.6c-0.131-0.008-0.262-0.028-0.395-0.063
					c-1.086-0.286-1.736-1.399-1.449-2.487c1.434-5.449,3.102-10.911,4.956-16.234c0.369-1.063,1.525-1.625,2.592-1.253
					c1.062,0.37,1.622,1.53,1.252,2.592c-1.82,5.225-3.456,10.585-4.863,15.933
					C1123.835,1096.041,1122.945,1096.658,1121.995,1096.6z M1137.505,1055.344c-0.264-0.018-0.528-0.086-0.78-0.211
					c-1.007-0.502-1.416-1.723-0.914-2.729c2.514-5.046,5.257-10.052,8.157-14.884c0.579-0.963,1.827-1.275,2.793-0.697
					c0.964,0.578,1.276,1.83,0.698,2.793c-2.846,4.74-5.539,9.653-8.005,14.604
					C1139.08,1054.973,1138.297,1055.393,1137.505,1055.344z M1161.111,1018.129c-0.4-0.024-0.797-0.166-1.135-0.434
					c-0.882-0.696-1.031-1.977-0.335-2.859c3.492-4.42,7.204-8.756,11.035-12.889c0.765-0.824,2.05-0.873,2.876-0.107
					c0.824,0.764,0.873,2.051,0.108,2.876c-3.757,4.054-7.399,8.308-10.824,12.645
					C1162.406,1017.904,1161.754,1018.17,1161.111,1018.129z M1191.854,986.555c-0.539-0.033-1.063-0.28-1.437-0.729
					c-0.721-0.861-0.604-2.146,0.258-2.866c4.32-3.607,8.845-7.095,13.443-10.365c0.917-0.651,2.188-0.435,2.839,0.479
					c0.651,0.917,0.437,2.188-0.479,2.84c-4.515,3.208-8.953,6.63-13.194,10.171
					C1192.869,986.432,1192.355,986.586,1191.854,986.555z M1228.388,961.877c-0.68-0.042-1.323-0.425-1.669-1.069
					c-0.532-0.989-0.16-2.224,0.831-2.755c4.98-2.674,10.115-5.178,15.262-7.441c1.027-0.453,2.23,0.014,2.684,1.043
					s-0.016,2.23-1.043,2.683c-5.053,2.222-10.091,4.679-14.978,7.302C1229.129,961.824,1228.753,961.899,1228.388,961.877z
					 M1269.166,945.127c-0.83-0.053-1.578-0.614-1.826-1.458c-0.316-1.079,0.299-2.21,1.377-2.528
					c5.4-1.59,10.939-2.986,16.465-4.15c1.104-0.232,2.18,0.471,2.412,1.572c0.23,1.1-0.473,2.179-1.572,2.41
					c-5.422,1.143-10.855,2.513-16.154,4.074C1269.633,945.115,1269.396,945.141,1269.166,945.127z"/>
				<path fill="#91B3FA" d="M1312.613,937.094c-0.994-0.063-1.818-0.848-1.9-1.871c-0.088-1.12,0.748-2.102,1.869-2.189
					c2.729-0.217,5.486-0.383,8.197-0.495c1.137-0.062,2.072,0.827,2.117,1.949c0.047,1.124-0.826,2.072-1.949,2.118
					c-2.658,0.109-5.365,0.273-8.043,0.486C1312.807,937.1,1312.709,937.1,1312.613,937.094z"/>
			</g>
			<g>
				<path fill="#91B3FA" d="M1477.752,995.365c-0.461-0.028-0.914-0.213-1.275-0.556c-1.938-1.84-3.941-3.669-5.951-5.438
					c-0.844-0.743-0.926-2.029-0.184-2.873c0.742-0.846,2.031-0.926,2.873-0.184c2.049,1.803,4.09,3.668,6.064,5.545
					c0.816,0.773,0.848,2.062,0.074,2.877C1478.922,995.19,1478.332,995.402,1477.752,995.365z"/>
				<path fill="#91B3FA" d="M1363.979,1363.652c-0.93-0.057-1.729-0.752-1.881-1.709c-0.178-1.109,0.578-2.154,1.688-2.332
					c5.375-0.861,10.785-1.943,16.074-3.219c1.09-0.262,2.191,0.406,2.455,1.502c0.264,1.092-0.408,2.191-1.502,2.455
					c-5.391,1.299-10.904,2.404-16.385,3.281C1364.277,1363.654,1364.127,1363.662,1363.979,1363.652z M1405.898,1352.471
					c-0.773-0.047-1.484-0.539-1.777-1.311c-0.398-1.051,0.129-2.227,1.182-2.625c5.084-1.928,10.162-4.082,15.092-6.402
					c1.016-0.482,2.229-0.043,2.707,0.975c0.48,1.016,0.043,2.229-0.975,2.707c-5.023,2.365-10.199,4.563-15.383,6.527
					C1406.467,1352.447,1406.178,1352.488,1405.898,1352.471z M1444.699,1333.066c-0.629-0.039-1.232-0.369-1.596-0.943
					c-0.602-0.951-0.318-2.209,0.631-2.809c0.977-0.617,1.947-1.242,2.914-1.877c3.592-2.352,7.16-4.844,10.605-7.408
					c0.9-0.672,2.176-0.484,2.848,0.416c0.67,0.902,0.484,2.178-0.418,2.848c-3.51,2.615-7.145,5.154-10.805,7.551
					c-0.986,0.645-1.975,1.281-2.967,1.91C1445.535,1332.992,1445.111,1333.092,1444.699,1333.066z M1478.861,1306.332
					c-0.492-0.029-0.975-0.238-1.342-0.621c-0.777-0.813-0.752-2.1,0.059-2.879c3.928-3.766,7.752-7.732,11.369-11.787
					c0.75-0.84,2.039-0.91,2.875-0.164c0.838,0.748,0.912,2.033,0.164,2.873c-3.689,4.135-7.588,8.178-11.588,12.016
					C1479.971,1306.18,1479.41,1306.367,1478.861,1306.332z M1506.934,1273.291c-0.357-0.023-0.711-0.139-1.025-0.355
					c-0.928-0.637-1.162-1.904-0.523-2.83c3.08-4.48,6.027-9.141,8.754-13.848c0.564-0.971,1.807-1.305,2.781-0.74
					c0.975,0.563,1.307,1.809,0.742,2.781c-2.781,4.799-5.783,9.547-8.924,14.113
					C1508.318,1273.023,1507.623,1273.334,1506.934,1273.291z M1527.766,1235.256c-0.223-0.014-0.449-0.064-0.666-0.156
					c-1.035-0.439-1.52-1.633-1.082-2.668c2.115-5.004,4.064-10.162,5.795-15.33c0.357-1.064,1.512-1.641,2.576-1.283
					c1.066,0.357,1.643,1.51,1.285,2.576c-1.764,5.268-3.752,10.523-5.908,15.621
					C1529.422,1234.834,1528.604,1235.309,1527.766,1235.256z M1540.555,1193.811c-0.094-0.006-0.188-0.018-0.279-0.037
					c-1.102-0.221-1.816-1.295-1.594-2.396c1.074-5.338,1.955-10.783,2.619-16.184c0.137-1.115,1.145-1.928,2.27-1.771
					c1.115,0.137,1.908,1.15,1.771,2.268c-0.676,5.504-1.574,11.051-2.67,16.49
					C1542.469,1193.189,1541.553,1193.871,1540.555,1193.811z M1544.801,1150.639c-1.063-0.066-1.906-0.947-1.908-2.025
					c-0.016-5.443-0.24-10.954-0.674-16.38c-0.088-1.121,0.748-2.102,1.867-2.192c1.125-0.078,2.102,0.748,2.191,1.868
					c0.441,5.53,0.672,11.146,0.686,16.692c0.004,1.125-0.906,2.039-2.029,2.041
					C1544.889,1150.643,1544.844,1150.641,1544.801,1150.639z M1540.307,1107.494c-0.893-0.055-1.674-0.699-1.865-1.617
					c-1.107-5.326-2.441-10.678-3.961-15.906c-0.314-1.08,0.305-2.209,1.385-2.522c1.074-0.319,2.209,0.306,2.523,1.386
					c1.551,5.329,2.908,10.785,4.037,16.213c0.23,1.101-0.477,2.179-1.576,2.407
					C1540.666,1107.492,1540.484,1107.506,1540.307,1107.494z M1527.195,1066.145c-0.74-0.047-1.43-0.496-1.744-1.223
					c-2.164-4.99-4.549-9.964-7.094-14.781c-0.525-0.994-0.145-2.225,0.848-2.75c0.996-0.527,2.227-0.145,2.752,0.849
					c2.592,4.909,5.025,9.978,7.229,15.063c0.447,1.031-0.025,2.23-1.059,2.678
					C1527.822,1066.112,1527.504,1066.163,1527.195,1066.145z M1506.027,1028.267c-0.598-0.037-1.174-0.337-1.545-0.866
					c-3.119-4.471-6.447-8.871-9.889-13.077c-0.711-0.87-0.582-2.151,0.287-2.864c0.871-0.711,2.152-0.584,2.865,0.287
					c3.506,4.285,6.896,8.769,10.076,13.324c0.643,0.922,0.416,2.19-0.506,2.834
					C1506.924,1028.178,1506.471,1028.294,1506.027,1028.267z"/>
				<path fill="#91B3FA" d="M1328.973,1366.35c-1.068-0.066-1.912-0.957-1.908-2.043c0.006-1.123,0.922-2.029,2.047-2.023
					c2.664,0.014,5.375-0.025,8.059-0.113c1.117-0.033,2.064,0.844,2.102,1.969c0.037,1.123-0.846,2.064-1.969,2.102
					c-2.734,0.088-5.496,0.127-8.213,0.113C1329.051,1366.354,1329.012,1366.352,1328.973,1366.35z"/>
			</g>
			<g>
				<g>
					<path fill="#91B3FA" d="M1308.49,1313.074c1.07,0.26,2.188-0.189,2.779-1.115l16.926-26.447
						c14.664,0.105,29.449-2.127,43.781-6.846l24.189,19.988c0.848,0.701,2.049,0.785,2.988,0.213l32.145-19.625
						c0.939-0.574,1.41-1.682,1.174-2.756l-6.727-30.648c10.746-10.594,19.486-22.727,26.092-35.816l31.258-2.973
						c1.096-0.105,2.006-0.893,2.264-1.963l8.852-36.605c0.26-1.072-0.189-2.188-1.117-2.779l-26.445-16.926
						c0.105-14.663-2.127-29.449-6.846-43.781l19.988-24.189c0.701-0.849,0.785-2.048,0.213-2.987l-19.627-32.146
						c-0.572-0.939-1.68-1.411-2.754-1.175l-30.65,6.728c-10.594-10.746-22.725-19.487-35.816-26.092l-2.971-31.259
						c-0.105-1.095-0.893-2.005-1.963-2.263l-36.607-8.852c-1.07-0.26-2.186,0.189-2.779,1.116l-16.924,26.446
						c-14.664-0.105-29.449,2.127-43.783,6.846l-24.188-19.988c-0.85-0.701-2.049-0.786-2.988-0.213l-32.145,19.627
						c-0.939,0.572-1.411,1.68-1.175,2.754l6.728,30.649c-10.746,10.593-19.487,22.726-26.093,35.817l-31.257,2.971
						c-1.096,0.104-2.006,0.893-2.264,1.963l-8.853,36.607c-0.258,1.069,0.19,2.186,1.117,2.779l26.446,16.926
						c-0.105,14.662,2.127,29.447,6.846,43.781l-19.988,24.188c-0.7,0.848-0.786,2.049-0.212,2.988l19.625,32.145
						c0.574,0.939,1.68,1.41,2.755,1.176l30.649-6.729c10.593,10.746,22.726,19.486,35.816,26.094l2.973,31.256
						c0.104,1.096,0.893,2.006,1.961,2.264L1308.49,1313.074z"/>
				</g>
				<path opacity="0.5" fill="#FFFFFF" d="M1326.74,1184.342c-8.744-0.543-16.912-4.166-23.232-10.361
					c-6.963-6.824-10.85-15.949-10.947-25.697s3.605-18.949,10.43-25.912c14.086-14.371,37.238-14.603,51.609-0.518
					c14.371,14.087,14.604,37.238,0.518,51.609c-6.824,6.963-15.949,10.85-25.697,10.947
					C1328.521,1184.42,1327.629,1184.396,1326.74,1184.342z M1330.953,1117.602c-8.504-0.527-17.184,2.496-23.602,9.045
					c-11.73,11.965-11.537,31.244,0.43,42.973c5.799,5.682,13.463,8.775,21.576,8.686c8.117-0.082,15.717-3.318,21.398-9.115l0,0
					c11.729-11.967,11.535-31.245-0.432-42.975C1344.908,1120.904,1337.988,1118.037,1330.953,1117.602z"/>
				<path opacity="0.5" fill="#FFFFFF" d="M1360.055,1235.857l-2.014-5.766c5.861-2.045,11.549-4.74,16.902-8.008l0,0
					c37.406-22.84,51.686-69.367,35.352-108.637c-1.713-4.121-3.764-8.162-6.16-12.087c-25.238-41.333-79.396-54.429-120.725-29.192
					c-25.418,15.52-40.158,41.978-41.869,69.664c-1.072,17.332,2.961,35.146,12.678,51.061
					c8.295,13.588,20.096,24.654,34.121,32.002l-2.834,5.408c-15.004-7.861-27.627-19.697-36.5-34.229
					c-10.391-17.02-14.705-36.072-13.559-54.609c1.832-29.612,17.596-57.91,44.782-74.51
					c44.209-26.988,102.129-12.98,129.117,31.223c10.393,17.02,14.705,36.072,13.561,54.609
					c-1.832,29.611-17.596,57.91-44.781,74.508c-0.549,0.336-1.1,0.664-1.652,0.986l-0.002,0.002
					c-0.033,0.018-0.064,0.037-0.096,0.055c-0.008,0.004-0.012,0.008-0.02,0.012c-0.018,0.01-0.035,0.02-0.053,0.031
					c-4.174,2.422-8.521,4.52-12.986,6.268c-0.047,0.02-0.096,0.039-0.145,0.057c-0.066,0.027-0.133,0.053-0.199,0.078
					c-0.164,0.064-0.332,0.127-0.496,0.189C1361.672,1235.279,1360.865,1235.574,1360.055,1235.857z"/>
			</g>
		</g>
		<g>
			<path fill="#91B3FA" d="M1378.443,928.929l8.277-15.522c8.195-0.592,16.354-2.496,24.15-5.768l14.396,10.09
				c0.506,0.354,1.18,0.348,1.678-0.014l17.084-12.39c0.498-0.362,0.713-1.001,0.533-1.591l-5.119-16.819
				c5.531-6.394,9.875-13.558,12.982-21.163l17.328-3.049c0.607-0.106,1.08-0.587,1.176-1.195l3.318-20.84
				c0.098-0.609-0.203-1.213-0.746-1.502l-15.523-8.279c-0.592-8.194-2.496-16.353-5.768-24.149l10.09-14.398
				c0.354-0.505,0.348-1.179-0.014-1.678l-12.389-17.082c-0.363-0.499-1.002-0.714-1.592-0.534l-16.818,5.119
				c-6.395-5.532-13.559-9.875-21.164-12.983l-3.049-17.327c-0.105-0.606-0.586-1.08-1.195-1.176l-20.84-3.318
				c-0.609-0.097-1.213,0.203-1.502,0.747l-8.279,15.522c-8.193,0.592-16.354,2.496-24.148,5.768l-14.398-10.09
				c-0.504-0.354-1.18-0.349-1.678,0.013l-17.082,12.39c-0.5,0.362-0.715,1.001-0.535,1.591l5.119,16.819
				c-5.531,6.394-9.875,13.558-12.982,21.164l-17.326,3.048c-0.607,0.107-1.08,0.587-1.178,1.196l-3.318,20.839
				c-0.096,0.609,0.203,1.213,0.748,1.503l15.521,8.278c0.592,8.195,2.496,16.354,5.768,24.15l-10.088,14.396
				c-0.355,0.506-0.35,1.18,0.014,1.679l12.389,17.082c0.361,0.499,1,0.714,1.59,0.534l16.82-5.119
				c6.395,5.531,13.559,9.875,21.162,12.983l3.049,17.326c0.107,0.607,0.588,1.08,1.197,1.177l20.838,3.318
				C1377.549,929.773,1378.152,929.473,1378.443,928.929z"/>
		</g>
		<path opacity="0.5" fill="#FFFFFF" d="M1379.695,858.269c-4.6-0.284-8.975-2.018-12.576-5.028
			c-9.221-7.704-10.453-21.473-2.75-30.693c7.705-9.221,21.473-10.453,30.693-2.751c9.221,7.704,10.453,21.474,2.75,30.693
			c-3.732,4.467-8.98,7.212-14.777,7.732C1381.914,858.322,1380.797,858.337,1379.695,858.269z M1382.08,820.871
			c-4.814-0.298-9.703,1.614-13.025,5.591c-5.545,6.636-4.656,16.548,1.979,22.092s16.547,4.658,22.092-1.979
			c2.688-3.215,3.961-7.283,3.586-11.456c-0.373-4.173-2.35-7.95-5.564-10.636C1388.486,822.259,1385.301,821.071,1382.08,820.871z"
			/>
		<g>
			<path fill="#91B3FA" d="M1343.059,945.145c-0.186-0.011-0.371-0.049-0.555-0.115c-2.598-0.922-5.188-1.949-7.703-3.055
				c-1.029-0.452-1.496-1.652-1.045-2.682c0.451-1.03,1.652-1.5,2.682-1.045c2.426,1.064,4.924,2.057,7.428,2.947
				c1.061,0.377,1.613,1.539,1.236,2.599C1344.791,944.67,1343.941,945.199,1343.059,945.145z"/>
			<path fill="#91B3FA" d="M1314.279,929.914c-0.375-0.023-0.748-0.15-1.074-0.389c-2.027-1.482-4.031-3.05-5.957-4.658
				c-1.986-1.66-3.941-3.408-5.813-5.196c-0.813-0.776-0.842-2.064-0.064-2.878c0.775-0.813,2.061-0.844,2.877-0.064
				c1.807,1.727,3.693,3.412,5.609,5.014c1.859,1.553,3.795,3.066,5.75,4.497c0.908,0.663,1.105,1.938,0.443,2.845
				C1315.625,929.666,1314.949,929.955,1314.279,929.914z M1286.951,901.498c-0.611-0.037-1.197-0.35-1.564-0.898
				c-2.844-4.239-5.426-8.715-7.678-13.302c-0.494-1.009-0.078-2.229,0.932-2.724c1.008-0.499,2.227-0.08,2.723,0.931
				c2.172,4.423,4.662,8.739,7.404,12.829c0.625,0.934,0.375,2.198-0.559,2.823C1287.824,901.416,1287.383,901.525,1286.951,901.498
				z M1271.072,865.416c-0.867-0.054-1.635-0.663-1.852-1.551c-1.207-4.954-2.096-10.043-2.641-15.124
				c-0.119-1.118,0.689-2.121,1.807-2.241c1.125-0.125,2.121,0.69,2.242,1.807c0.525,4.904,1.383,9.814,2.547,14.595
				c0.266,1.092-0.402,2.193-1.496,2.46C1271.477,865.411,1271.271,865.428,1271.072,865.416z M1268.514,826.076
				c-0.033-0.002-0.064-0.004-0.098-0.008c-1.117-0.123-1.924-1.127-1.801-2.245c0.557-5.077,1.461-10.162,2.689-15.116
				c0.27-1.092,1.365-1.747,2.465-1.486c1.09,0.271,1.756,1.375,1.486,2.466c-1.184,4.778-2.059,9.684-2.594,14.581
				C1270.543,825.352,1269.592,826.144,1268.514,826.076z M1279.594,788.253c-0.262-0.017-0.527-0.084-0.777-0.21
				c-1.008-0.5-1.418-1.722-0.918-2.728c2.27-4.566,4.873-9.028,7.736-13.259c0.631-0.932,1.896-1.174,2.828-0.545
				c0.93,0.63,1.174,1.896,0.545,2.827c-2.764,4.082-5.275,8.385-7.465,12.788C1281.168,787.882,1280.387,788.302,1279.594,788.253z
				 M1303.008,756.536c-0.496-0.03-0.979-0.241-1.348-0.627c-0.775-0.814-0.744-2.103,0.068-2.877
				c3.703-3.53,7.674-6.836,11.799-9.828c0.912-0.659,2.184-0.457,2.844,0.452c0.66,0.91,0.457,2.183-0.453,2.843
				c-3.979,2.886-7.809,6.075-11.381,9.479C1304.109,756.386,1303.553,756.57,1303.008,756.536z"/>
			<path fill="#91B3FA" d="M1335.965,734.712c-0.74-0.046-1.43-0.496-1.744-1.223c-0.445-1.033,0.029-2.231,1.061-2.677
				c2.529-1.094,5.125-2.107,7.715-3.011c1.066-0.37,2.223,0.19,2.594,1.251c0.369,1.061-0.189,2.222-1.252,2.592
				c-2.498,0.872-5,1.849-7.441,2.904C1336.592,734.681,1336.273,734.731,1335.965,734.712z"/>
		</g>
		<g>
			<path fill="#91B3FA" d="M1435.014,739.131c-0.287-0.018-0.576-0.098-0.848-0.245c-2.326-1.269-4.732-2.469-7.148-3.569
				c-1.023-0.465-1.477-1.672-1.012-2.694c0.465-1.026,1.672-1.479,2.695-1.011c2.508,1.139,5.002,2.384,7.416,3.701
				c0.986,0.538,1.35,1.774,0.811,2.762C1436.537,738.792,1435.779,739.179,1435.014,739.131z"/>
			<path fill="#91B3FA" d="M1446.205,930.971c-0.594-0.036-1.166-0.332-1.537-0.856c-0.648-0.919-0.43-2.188,0.488-2.837
				c4.652-3.288,9.094-6.975,13.199-10.959c0.807-0.784,2.094-0.766,2.879,0.043c0.783,0.807,0.764,2.096-0.043,2.879
				c-4.258,4.13-8.861,7.952-13.686,11.361C1447.111,930.88,1446.652,930.999,1446.205,930.971z M1477.385,897.703
				c-0.322-0.02-0.645-0.117-0.938-0.299c-0.959-0.588-1.256-1.842-0.668-2.799c2.994-4.865,5.629-10,7.83-15.262
				c0.434-1.037,1.631-1.525,2.664-1.093c1.037,0.435,1.525,1.627,1.092,2.663c-2.283,5.457-5.014,10.781-8.119,15.824
				C1478.838,897.402,1478.111,897.748,1477.385,897.703z M1492.918,854.846c-0.057-0.003-0.113-0.008-0.168-0.018
				c-1.113-0.16-1.885-1.192-1.723-2.305c0.434-2.994,0.748-6.044,0.936-9.064c0.164-2.666,0.234-5.375,0.207-8.057
				c-0.012-1.124,0.891-2.044,2.016-2.057c1.139,0.006,2.045,0.893,2.055,2.016c0.029,2.778-0.043,5.587-0.215,8.35
				c-0.193,3.131-0.521,6.292-0.971,9.395C1494.902,854.162,1493.965,854.911,1492.918,854.846z M1490.26,809.332
				c-0.85-0.052-1.609-0.64-1.842-1.509c-1.471-5.524-3.381-10.971-5.68-16.189c-0.453-1.029,0.014-2.23,1.043-2.684
				c1.029-0.455,2.23,0.015,2.684,1.042c2.381,5.409,4.363,11.057,5.889,16.783c0.289,1.085-0.357,2.2-1.445,2.491
				C1490.691,809.324,1490.473,809.345,1490.26,809.332z M1469.873,768.552c-0.559-0.035-1.102-0.297-1.475-0.771
				c-3.525-4.47-7.441-8.713-11.637-12.611c-0.824-0.765-0.871-2.053-0.105-2.876c0.766-0.824,2.053-0.87,2.875-0.107
				c4.35,4.041,8.408,8.438,12.064,13.074c0.695,0.882,0.545,2.163-0.338,2.858C1470.85,768.441,1470.354,768.582,1469.873,768.552z
				"/>
			<path fill="#91B3FA" d="M1413.389,946.916c-0.828-0.051-1.574-0.609-1.826-1.451c-0.32-1.076,0.293-2.211,1.369-2.532
				c2.541-0.758,5.09-1.618,7.57-2.558c1.049-0.397,2.225,0.133,2.625,1.184c0.396,1.051-0.133,2.227-1.184,2.625
				c-2.572,0.973-5.213,1.864-7.848,2.65C1413.859,946.904,1413.621,946.93,1413.389,946.916z"/>
		</g>
		<path opacity="0.5" fill="#FFFFFF" d="M1359.9,885.702c-8.951-3.819-16.721-10.022-22.467-17.944
			c-7.635-10.527-10.906-22.912-10.158-34.979c0.965-15.545,8.598-30.562,22.16-40.398c24.088-17.473,57.904-12.089,75.379,12.002
			c7.635,10.528,10.904,22.914,10.156,34.98c-0.963,15.544-8.598,30.561-22.16,40.397v0.001c-2.924,2.119-6.055,3.947-9.314,5.436
			c-0.053,0.023-0.104,0.047-0.154,0.07c-0.162,0.074-0.326,0.146-0.49,0.219l-2.463-5.588c3.098-1.365,6.07-3.074,8.838-5.08l0,0
			c20.451-14.834,25.701-42.949,12.52-64.066c-0.588-0.942-1.213-1.872-1.875-2.784c-15.494-21.363-45.484-26.14-66.85-10.645
			c-12.027,8.723-18.799,22.042-19.654,35.828c-0.662,10.701,2.238,21.685,9.01,31.021c5.096,7.025,11.984,12.528,19.92,15.912
			L1359.9,885.702z"/>
	</g>
	<g>
		<path fill="#BDD0FB" d="M714.53,834.024c-7.271,58.481-43.636,419.095,148.157,534.165c5.807,3.483,13.257-0.396,13.746-7.149
			c3.112-42.98,5.055-179.566-73.83-340.769c-56.916-116.307-77.778-168.738-84.354-186.674
			C717.553,831.698,714.78,832.018,714.53,834.024z"/>
		<g>
			<path fill="#DCE5FE" d="M876.437,1364.378c-1.184,0-2.33-0.631-2.935-1.743c-96.278-177.004-140.384-396.055-138.048-403.52
				c0.551-1.759,2.418-2.737,4.182-2.188c1.591,0.499,2.545,2.08,2.304,3.68c0.113,9.956,42.209,223.79,137.425,398.839
				c0.88,1.619,0.281,3.646-1.337,4.526C877.521,1364.246,876.975,1364.378,876.437,1364.378z M741.825,961.101
				c-0.001,0.002-0.001,0.005-0.002,0.009C741.824,961.105,741.824,961.103,741.825,961.101z"/>
		</g>
	</g>
	<g>
		<g opacity="0.54">
			<path fill="#BDD0FB" d="M1206.25,538.574l-287.113-1.6c-11.753-0.065-19.055,12.751-13.004,22.828l1.441,2.401
				c2.724,4.538,7.629,7.313,12.921,7.313h285.671c8.323,0,15.07-6.748,15.07-15.071v-0.802
				C1221.237,545.354,1214.541,538.621,1206.25,538.574z"/>
			<path fill="#BDD0FB" d="M1246.356,553.979v0.467c0,8.323,6.748,15.071,15.071,15.071h63.735c6.825,0,12.798-4.586,14.561-11.181
				l0,0c2.545-9.525-4.591-18.888-14.45-18.96l-63.735-0.467C1253.172,538.848,1246.356,545.613,1246.356,553.979z"/>
		</g>
		<g opacity="0.54">
			<path fill="#BDD0FB" d="M1137.186,592.673l-218.048-1.599c-11.753-0.065-19.055,12.75-13.004,22.828l1.441,2.401
				c2.724,4.537,7.629,7.313,12.921,7.313h216.606c8.323,0,15.07-6.748,15.07-15.07v-0.802
				C1152.172,599.453,1145.476,592.719,1137.186,592.673z"/>
			<path fill="#BDD0FB" d="M1177.292,608.078v0.467c0,8.323,6.748,15.07,15.071,15.07h63.735c6.825,0,12.798-4.587,14.561-11.18l0,0
				c2.544-9.525-4.591-18.889-14.45-18.96l-63.735-0.467C1184.107,592.946,1177.292,599.711,1177.292,608.078z"/>
		</g>
	</g>
	<g>
		<g opacity="0.54">
			<path fill="#BDD0FB" d="M482.083,960.954l-287.113-1.6c-11.753-0.065-19.055,12.751-13.004,22.828l1.442,2.401
				c2.724,4.537,7.628,7.313,12.92,7.313H482c8.323,0,15.071-6.748,15.071-15.071v-0.802
				C497.07,967.734,490.374,961,482.083,960.954z"/>
			<path fill="#BDD0FB" d="M522.19,976.359v0.467c0,8.323,6.748,15.071,15.071,15.071h63.736c6.825,0,12.798-4.587,14.56-11.181l0,0
				c2.544-9.525-4.591-18.889-14.45-18.961l-63.735-0.467C529.005,961.228,522.19,967.993,522.19,976.359z"/>
		</g>
		<g opacity="0.54">
			<path fill="#BDD0FB" d="M413.019,1015.053l-218.048-1.6c-11.753-0.065-19.055,12.751-13.004,22.828l1.442,2.401
				c2.724,4.537,7.628,7.313,12.92,7.313h216.606c8.323,0,15.071-6.747,15.071-15.07v-0.802
				C428.006,1021.833,421.31,1015.099,413.019,1015.053z"/>
			<path fill="#BDD0FB" d="M453.125,1030.458v0.467c0,8.323,6.748,15.07,15.071,15.07h63.735c6.825,0,12.798-4.586,14.56-11.18l0,0
				c2.545-9.525-4.59-18.889-14.45-18.961l-63.735-0.467C459.94,1015.326,453.125,1022.092,453.125,1030.458z"/>
		</g>
	</g>
	<g>
		<g>
			<path fill="#7D97F4" d="M400.243,1252.492c-4.565,6.755-22.71,159.71-25.55,216.201c-0.192,3.82,2.864,7.006,6.689,7.006l0,0
				c3.299,0,6.106-2.402,6.614-5.662l33.188-212.681L400.243,1252.492z"/>
			<path fill="#7D97F4" d="M546.127,1252.492c4.565,6.755,22.71,159.71,25.55,216.201c0.192,3.82-2.864,7.006-6.689,7.006l0,0
				c-3.299,0-6.106-2.402-6.614-5.662l-33.188-212.681L546.127,1252.492z"/>
			<path fill="#7D97F4" d="M372.795,1240.555l-0.016,1.667c-0.109,12,10.229,21.843,23.172,22.063l153.403,2.609
				c12.758,0.217,23.393-9.002,24.011-20.816l0.08-1.525c0.646-12.321-9.817-22.7-23.122-22.939l-153.468-2.75
				C383.721,1218.627,372.906,1228.377,372.795,1240.555z"/>
		</g>
		<g>
			<g>
				<linearGradient id="SVGID_1_" gradientUnits="userSpaceOnUse" x1="626.4971" y1="1462.6719" x2="737.7329" y2="1462.6719">
					<stop  offset="0" style="stop-color:#09005D"/>
					<stop  offset="1" style="stop-color:#1A0F91"/>
				</linearGradient>
				<path fill="url(#SVGID_1_)" d="M671.227,1463.138c-27.27,0-39.335-2.339-44.73-4.473c1.048,4.479,5.037,8.014,10.077,8.014
					h96.472c3.249,0,5.299-3.109,4.523-5.926C726.572,1461.638,703.216,1463.138,671.227,1463.138z"/>
				<linearGradient id="SVGID_2_" gradientUnits="userSpaceOnUse" x1="712.2007" y1="1248.7764" x2="681.8078" y2="1458.7642">
					<stop  offset="0" style="stop-color:#09005D"/>
					<stop  offset="1" style="stop-color:#1A0F91"/>
				</linearGradient>
				<path fill="url(#SVGID_2_)" d="M737.569,1460.753c-0.157-0.567-0.387-1.126-0.79-1.642c-7.349-9.382-22.11-24.116-42.191-23.834
					c-29.417,0.414-39.674,3.605-62.534,0.18l-5.393,17.876c-0.549,1.821-0.559,3.642-0.164,5.332
					c5.395,2.134,17.46,4.473,44.73,4.473C703.216,1463.138,726.572,1461.638,737.569,1460.753z"/>
			</g>
			<linearGradient id="SVGID_3_" gradientUnits="userSpaceOnUse" x1="632.0537" y1="1429.1504" x2="662.1509" y2="1429.1504">
				<stop  offset="0" style="stop-color:#FF928E"/>
				<stop  offset="1" style="stop-color:#FEB3B1"/>
			</linearGradient>
			<path fill="url(#SVGID_3_)" d="M638.673,1416.194l-6.62,22.514c0,0,14.666,6.677,27.564,1.316l2.533-19.506L638.673,1416.194z"/>
			<g>
				<linearGradient id="SVGID_4_" gradientUnits="userSpaceOnUse" x1="800.9648" y1="1440.627" x2="890.7754" y2="1440.627">
					<stop  offset="0" style="stop-color:#09005D"/>
					<stop  offset="1" style="stop-color:#1A0F91"/>
				</linearGradient>
				<path fill="url(#SVGID_4_)" d="M838.622,1448.959c-21.257,17.081-32.122,22.823-37.657,24.547
					c3.609,2.817,8.922,3.063,12.851-0.095l75.204-60.425c2.532-2.035,2.192-5.732-0.168-7.431
					C880.831,1413.13,863.559,1428.923,838.622,1448.959z"/>
				<linearGradient id="SVGID_5_" gradientUnits="userSpaceOnUse" x1="862.7412" y1="1270.5674" x2="832.3487" y2="1480.5527">
					<stop  offset="0" style="stop-color:#09005D"/>
					<stop  offset="1" style="stop-color:#1A0F91"/>
				</linearGradient>
				<path fill="url(#SVGID_5_)" d="M888.852,1405.556c-0.476-0.342-1.004-0.632-1.639-0.778c-11.578-2.677-32.27-4.862-47.748,7.935
					c-22.674,18.747-28.68,27.647-48.636,39.308l6.939,17.247c0.708,1.757,1.834,3.176,3.197,4.239
					c5.535-1.724,16.399-7.466,37.657-24.547C863.559,1428.923,880.831,1413.13,888.852,1405.556z"/>
			</g>
			<linearGradient id="SVGID_6_" gradientUnits="userSpaceOnUse" x1="465.6318" y1="1293.3438" x2="703.8833" y2="1293.3438">
				<stop  offset="0" style="stop-color:#09005D"/>
				<stop  offset="1" style="stop-color:#1A0F91"/>
			</linearGradient>
			<path fill="url(#SVGID_6_)" d="M497.063,1159.682c0,0,163.264,13.331,196.756,29.098s-27.332,236.742-27.332,236.742
				s-9.118,4.388-29.406-1.919c0,0,20.805-163.071,5.324-198.432l-176.772-28.914L497.063,1159.682z"/>
			<linearGradient id="SVGID_7_" gradientUnits="userSpaceOnUse" x1="774.6074" y1="1431.6836" x2="810.5391" y2="1431.6836">
				<stop  offset="0" style="stop-color:#FF928E"/>
				<stop  offset="1" style="stop-color:#FEB3B1"/>
			</linearGradient>
			<path fill="url(#SVGID_7_)" d="M774.607,1420.979c1.516,1.382,16.221,31.041,16.221,31.041s16.372-3.542,19.71-13.902
				l-14.731-26.77L774.607,1420.979z"/>
			<linearGradient id="SVGID_8_" gradientUnits="userSpaceOnUse" x1="682.0479" y1="1194.0791" x2="420.4866" y2="1490.6379">
				<stop  offset="0" style="stop-color:#09005D"/>
				<stop  offset="1" style="stop-color:#1A0F91"/>
			</linearGradient>
			<path fill="url(#SVGID_8_)" d="M398.731,1158.317c0,0-5.321,12.802-5.104,29.814c0.3,23.527,19.215,42.62,42.715,43.793
				l193.004,8.801c4.076,0.187,7.524,3.007,8.545,6.957c4.535,17.543,26.704,71.415,135.069,178.912
				c2.883,2.86,7.375,3.347,10.808,1.178l15.426-9.744c1.62-1.022,2.137-3.146,1.168-4.799l-112.377-191.9
				c-5.902-9.74-15.39-16.777-26.425-19.598l-164.5-42.05L398.731,1158.317z"/>
			<linearGradient id="SVGID_9_" gradientUnits="userSpaceOnUse" x1="547.1787" y1="899.9941" x2="636.7266" y2="899.9941">
				<stop  offset="0" style="stop-color:#FF928E"/>
				<stop  offset="1" style="stop-color:#FEB3B1"/>
			</linearGradient>
			<path fill="url(#SVGID_9_)" d="M622.635,862.858c0,0-54.375,32.251-75.456,49.96l43.572,24.311c0,0,23.545-27.198,45.976-38.531
				L622.635,862.858z"/>
			<linearGradient id="SVGID_10_" gradientUnits="userSpaceOnUse" x1="395.2246" y1="1036.0088" x2="737.4419" y2="1036.0088">
				<stop  offset="0" style="stop-color:#4042E2"/>
				<stop  offset="1" style="stop-color:#4F52FF"/>
			</linearGradient>
			<path fill="url(#SVGID_10_)" d="M395.225,1159.682c0,0,52.104,12.698,101.838,0c0,0,69.592-93.551,96.515-119.013
				c0,0,42.945,67.768,138.533,77.371l5.331-11.913c0,0-76.099-35.079-99.525-88.979c-23.427-53.901-32.836-76.891-54.15-90.953
				c-13.273-8.759-21.221-14.741-25.329-18.009c-2.249-1.789-5.352-1.991-7.806-0.495
				C528.013,921.474,421.583,994.366,395.225,1159.682z"/>
			<path fill="#5566FF" d="M590.751,1038.233c-0.668,0-1.328-0.3-1.766-0.871c-16.493-21.508-25.969-45.96-26.062-46.205
				c-0.44-1.146,0.132-2.434,1.279-2.874c1.149-0.439,2.433,0.133,2.875,1.28c0.091,0.238,9.351,24.112,25.438,45.092
				c0.747,0.975,0.563,2.371-0.412,3.118C591.701,1038.083,591.224,1038.233,590.751,1038.233z"/>
			<linearGradient id="SVGID_11_" gradientUnits="userSpaceOnUse" x1="726.3633" y1="1099.082" x2="809.3613" y2="1099.082">
				<stop  offset="0" style="stop-color:#FF928E"/>
				<stop  offset="1" style="stop-color:#FEB3B1"/>
			</linearGradient>
			<path fill="url(#SVGID_11_)" d="M726.363,1099.905l10.76-2.867l32.667-7.565c3.933-0.91,8.066-0.214,11.482,1.936l28.088,17.673
				l-77.569-0.131L726.363,1099.905z"/>
			<g>
				
					<linearGradient id="SVGID_12_" gradientUnits="userSpaceOnUse" x1="305.8496" y1="2491.0664" x2="225.0778" y2="2597.9209" gradientTransform="matrix(0.9897 -0.1428 0.1428 0.9897 1.6642 -1579.7998)">
					<stop  offset="0" style="stop-color:#FF928E"/>
					<stop  offset="1" style="stop-color:#FEB3B1"/>
				</linearGradient>
				<path fill="url(#SVGID_12_)" d="M675.708,839.207c0.152,1.054-13.924,70.035-13.924,70.035l-39.217-8.874l3.628-67.362
					C626.195,833.006,673.162,821.563,675.708,839.207z"/>
				
					<linearGradient id="SVGID_13_" gradientUnits="userSpaceOnUse" x1="244.1626" y1="2516.8428" x2="340.646" y2="2516.8428" gradientTransform="matrix(0.9897 -0.1428 0.1428 0.9897 1.6642 -1579.7998)">
					<stop  offset="0" style="stop-color:#020039"/>
					<stop  offset="1" style="stop-color:#090056"/>
				</linearGradient>
				<path fill="url(#SVGID_13_)" d="M635.015,848.016l-4.687,35.312c-0.06,0.453-0.06,0.9,0.005,1.353
					c0.396,2.768,2.455,12.19,11.967,9.496c8.632-2.444,16.545-4.548,22.012-2.875c2.454,0.75,3.936,3.236,3.421,5.751
					c-1.281,6.267-4.427,20.336-9.026,32.142c-0.933,2.396-3.557,3.654-6.025,2.935c-7.438-2.168-22.997-7.181-34.569-14.145
					c-1.568-0.943-2.502-2.648-2.425-4.478c0.376-8.914,1.419-36.012,0.541-43.608c-0.823-7.129-9.573-11.4-13.375-12.932
					c-1.247-0.502-2.223-1.484-2.722-2.732c-1.76-4.411-4.187-14.62,8.678-18.804c2.692-0.875,4.111-3.778,3.155-6.442
					c-1.905-5.305-2.709-13.401,7.243-17.861c10.116-4.533,17.671,0.859,21.75,5.242c1.649,1.772,4.296,2.042,6.342,0.749
					c1.166-0.736,2.667-0.978,4.479,0.152c2.444,1.522,5.68,0.485,6.941-2.104c2.423-4.972,7.359-10.298,17.263-8.602
					c17.574,3.009,19.564,22.482,14.928,33.895c-4.636,11.411-23.503,7.065-32.968,1.313c-7.196-4.374-16.531,0.21-20.593,2.659
					C636.064,845.206,635.213,846.526,635.015,848.016z"/>
				
					<linearGradient id="SVGID_14_" gradientUnits="userSpaceOnUse" x1="187.5493" y1="2575.6865" x2="252.3351" y2="2509.218" gradientTransform="matrix(0.9897 -0.1428 0.1428 0.9897 1.6642 -1579.7998)">
					<stop  offset="0" style="stop-color:#FF928E"/>
					<stop  offset="1" style="stop-color:#FEB3B1"/>
				</linearGradient>
				<path fill="url(#SVGID_14_)" d="M614.65,882.771c0,0,7.225-20.23-0.198-25.185s-18.416-2.382-15.996,12.273
					C601.468,888.09,614.65,882.771,614.65,882.771z"/>
			</g>
		</g>
		<g>
			<g>
				<linearGradient id="SVGID_15_" gradientUnits="userSpaceOnUse" x1="894.165" y1="796.8315" x2="821.0036" y2="1001.2186">
					<stop  offset="0" style="stop-color:#09005D"/>
					<stop  offset="1" style="stop-color:#1A0F91"/>
				</linearGradient>
				<path fill="url(#SVGID_15_)" d="M696.396,1124.298c0.126,0.006,0.253,0.009,0.381,0.009l165.712-0.166
					c4.096-0.003,7.413-3.321,7.409-7.41c-0.004-4.091-3.341-7.47-7.427-7.396l-165.712,0.165c-4.097,0.003-7.414,3.321-7.409,7.41
					C689.354,1120.871,692.476,1124.104,696.396,1124.298z"/>
			</g>
			<g>
				
					<linearGradient id="SVGID_16_" gradientUnits="userSpaceOnUse" x1="5638.6201" y1="-11977.6221" x2="5416.6587" y2="-11763.0283" gradientTransform="matrix(0.6475 -1.2297 -1.2274 -0.6463 7293.9038 -7927.8438)">
					<stop  offset="0" style="stop-color:#09005D"/>
					<stop  offset="1" style="stop-color:#1A0F91"/>
				</linearGradient>
				<path fill="url(#SVGID_16_)" d="M926.664,962.013c-0.059,0.112-0.116,0.226-0.168,0.342l-69.725,150.33
					c-1.725,3.716-0.114,8.122,3.595,9.843c3.711,1.721,8.182,0.12,9.838-3.615l69.725-150.33c1.725-3.716,0.114-8.122-3.595-9.842
					C932.74,957.074,928.492,958.541,926.664,962.013z"/>
			</g>
		</g>
		<g>
			<path fill="#7D97F4" d="M770.182,1132.615c-0.725,2.998-69.869,262.324-87.4,328.067c-2.021,7.577,3.622,15.017,11.377,15.017
				l0,0c5.407,0,10.12-3.726,11.429-9.035l76.755-311.201L770.182,1132.615z"/>
			<path fill="#7D97F4" d="M808.045,1132.615c0.724,2.998,69.869,262.324,87.399,328.067c2.021,7.577-3.622,15.017-11.376,15.017
				l0,0c-5.407,0-10.12-3.726-11.429-9.035l-76.756-311.201L808.045,1132.615z"/>
			<path fill="#7D97F4" d="M810.926,1124.135h-43.063v34.584c0,4.97,3.981,8.999,8.893,8.999h5.907v77.68
				c0,3.763,3.014,6.813,6.732,6.813l0,0c3.718,0,6.732-3.051,6.732-6.813v-77.68h2.998c6.518,0,11.802-5.348,11.802-11.944
				V1124.135z"/>
			<linearGradient id="SVGID_17_" gradientUnits="userSpaceOnUse" x1="785.3262" y1="1114.2891" x2="754.7712" y2="1340.21">
				<stop  offset="0" style="stop-color:#020039"/>
				<stop  offset="1" style="stop-color:#090056"/>
			</linearGradient>
			<path fill="url(#SVGID_17_)" d="M661.977,1115.828h240.456c3.36,0,6.295,2.301,7.135,5.595l3.357,13.164
				c1.208,4.738-2.343,9.35-7.178,9.322l-246.732-1.436c-4.782-0.028-8.271-4.587-7.104-9.28l2.92-11.729
				C655.656,1118.15,658.601,1115.828,661.977,1115.828z"/>
		</g>
	</g>
	<g>
		<g>
			<path fill="#BDD0FB" d="M538.846,496.167c0,0,0.24-1.286,0.756-3.635c0.226-1.025,1.238-1.673,2.262-1.447
				c0.649,0.142,1.149,0.605,1.368,1.185c1.006-0.725,2.2-1.563,3.573-2.486c0.868-0.584,2.048-0.355,2.633,0.517
				c0.585,0.871,0.354,2.049-0.516,2.635c-3.217,2.163-5.433,3.855-6.498,4.667c-0.3,0.23-0.506,0.386-0.615,0.462l-3.822,2.71
				L538.846,496.167z M542.591,480.367c1.064-3.965,2.232-8.006,3.469-12.014c0.309-1,1.372-1.561,2.373-1.252
				c1.009,0.308,1.562,1.372,1.254,2.374c-1.223,3.96-2.377,7.958-3.43,11.879c-0.271,1.012-1.313,1.611-2.325,1.341
				c-0.177-0.047-0.34-0.117-0.49-0.208C542.736,482.061,542.367,481.204,542.591,480.367z M556.825,485.81
				c-0.503-0.921-0.162-2.076,0.758-2.577c3.781-2.064,7.606-3.908,11.37-5.486c0.966-0.406,2.075,0.056,2.485,1.017
				c0.404,0.969-0.051,2.08-1.018,2.486c-3.644,1.525-7.351,3.316-11.02,5.317c-0.614,0.335-1.332,0.296-1.891-0.041
				C557.23,486.357,556.993,486.114,556.825,485.81z M579.584,475.903c-0.282-1.008,0.308-2.055,1.319-2.338
				c4.221-1.178,8.413-2.016,12.46-2.491c1.041-0.124,1.984,0.621,2.107,1.664c0.123,1.04-0.623,1.984-1.663,2.105
				c-3.854,0.453-7.852,1.253-11.885,2.379c-0.523,0.146-1.057,0.057-1.489-0.204C580.034,476.777,579.72,476.39,579.584,475.903z
				 M549.962,456.48c1.37-3.934,2.826-7.877,4.328-11.723c0.381-0.978,1.482-1.461,2.459-1.079c0.972,0.382,1.458,1.482,1.078,2.458
				c-1.485,3.805-2.926,7.704-4.281,11.593c-0.345,0.99-1.427,1.514-2.417,1.169c-0.127-0.046-0.247-0.101-0.358-0.168
				C550.019,458.277,549.661,457.344,549.962,456.48z M604.089,472.514c0.077-1.047,0.988-1.832,2.034-1.754
				c3.065,0.225,6.102,0.684,9.026,1.362c1.171,0.272,2.313,0.516,3.425,0.733c1.032,0.201,1.699,1.2,1.499,2.227
				c-0.201,1.029-1.198,1.701-2.227,1.5c-1.156-0.227-2.342-0.479-3.557-0.762c-2.733-0.634-5.574-1.063-8.447-1.273
				c-0.306-0.023-0.593-0.117-0.84-0.266C604.41,473.923,604.035,473.252,604.089,472.514z M647.96,493.999
				c0.35-0.764,1.141-1.185,1.932-1.099c1.774-1.393,3.974-2.381,6.777-3.082c1.02-0.255,2.049,0.365,2.302,1.382
				c0.255,1.018-0.363,2.047-1.38,2.301c-3.542,0.885-5.726,2.217-7.305,4.458l-3.274-1.892L647.96,493.999z M628.626,476.099
				c0.028-1.048,0.902-1.875,1.951-1.847c4.295,0.117,8.271-0.257,11.818-1.114c1.02-0.243,2.047,0.382,2.29,1.401
				c0.246,1.021-0.381,2.045-1.4,2.292c-3.871,0.933-8.181,1.343-12.812,1.217c-0.339-0.009-0.656-0.106-0.928-0.27
				C628.979,477.437,628.607,476.807,628.626,476.099z M559.062,433.198c1.676-3.845,3.436-7.666,5.23-11.357
				c0.458-0.941,1.594-1.333,2.537-0.876c0.939,0.467,1.337,1.594,0.878,2.538c-1.771,3.643-3.511,7.417-5.167,11.214
				c-0.417,0.96-1.537,1.399-2.498,0.981c-0.078-0.036-0.153-0.072-0.224-0.115C559.015,435.099,558.676,434.082,559.062,433.198z
				 M653.05,482.65c1.932-4.396,3.569-8.237,4.862-11.41c0.396-0.971,1.503-1.437,2.475-1.041c0.958,0.405,1.436,1.504,1.041,2.475
				c-1.306,3.204-2.955,7.074-4.902,11.504c-0.42,0.958-1.542,1.396-2.501,0.974c-0.076-0.035-0.149-0.07-0.219-0.112
				C653,484.555,652.661,483.535,653.05,482.65z M667.519,490.104c-0.124-1.041,0.622-1.985,1.662-2.109
				c3.625-0.429,7.603-0.95,12.117-1.862c1.024-0.204,2.028,0.458,2.237,1.484c0.207,1.029-0.459,2.03-1.486,2.238
				c-4.648,0.938-8.717,1.473-12.422,1.911c-0.437,0.051-0.854-0.05-1.202-0.26C667.94,491.213,667.59,490.708,667.519,490.104z
				 M652.545,471.031c-0.616-0.848-0.429-2.035,0.419-2.652c3.296-2.396,5.315-5.02,6.651-6.755c0.54-0.701,0.981-1.264,1.345-1.643
				c0.178-0.185,0.342-0.335,0.487-0.455c0.809-0.671,1.921-0.471,2.585,0.335c0.669,0.806,0.469,2.087-0.34,2.756
				c-0.292,0.303-0.637,0.761-1.068,1.322c-1.38,1.794-3.689,4.793-7.426,7.51c-0.638,0.463-1.465,0.474-2.099,0.091
				C652.888,471.414,652.699,471.243,652.545,471.031z M570.02,410.712c1.787-3.283,3.641-6.522,5.513-9.626l0.738-1.218
				c0.545-0.893,1.706-1.176,2.6-0.636c0.002,0.001,0.005,0.003,0.008,0.005c0.896,0.545,1.179,1.713,0.633,2.608l-0.728,1.202
				c-1.842,3.056-3.67,6.247-5.432,9.482c-0.5,0.919-1.654,1.261-2.574,0.76c-0.025-0.015-0.049-0.029-0.073-0.043
				C569.84,412.723,569.532,411.608,570.02,410.712z M691.874,485.452c-0.321-0.998,0.231-2.068,1.229-2.387
				c3.774-1.209,7.616-2.667,11.418-4.332c0.96-0.418,2.082,0.02,2.5,0.978c0.42,0.961-0.016,2.081-0.977,2.501
				c-3.92,1.716-7.885,3.221-11.784,4.469c-0.543,0.174-1.106,0.09-1.559-0.184C692.322,486.269,692.02,485.908,691.874,485.452z
				 M714.748,475.897c-0.505-0.919-0.168-2.073,0.75-2.576c0.765-0.42,1.534-0.849,2.312-1.292c2.778-1.581,5.467-3.319,7.996-5.169
				c0.844-0.618,2.025-0.436,2.654,0.411c0.619,0.846,0.434,2.035-0.412,2.652c-2.645,1.936-5.457,3.753-8.359,5.405
				c-0.795,0.453-1.583,0.893-2.363,1.321c-0.615,0.337-1.335,0.3-1.895-0.038C715.152,476.444,714.914,476.202,714.748,475.897z
				 M583.577,392.002c-0.863-0.597-1.08-1.778-0.485-2.641c2.408-3.489,4.908-6.886,7.432-10.098
				c0.646-0.823,1.844-1.002,2.666-0.319c0.824,0.647,0.967,1.841,0.32,2.664c-2.476,3.15-4.929,6.485-7.293,9.91
				c-0.573,0.831-1.688,1.062-2.54,0.548C583.644,392.045,583.61,392.025,583.577,392.002z M735.018,461.672
				c-0.74-0.744-0.737-1.946,0.006-2.685c2.849-2.834,5.514-5.922,7.92-9.178c0.622-0.843,1.782-0.999,2.655-0.399
				c0.842,0.624,1.022,1.811,0.399,2.654c-2.52,3.411-5.311,6.646-8.296,9.614c-0.631,0.628-1.591,0.721-2.319,0.282
				C735.252,461.881,735.129,461.784,735.018,461.672z M598.749,372.346c-0.778-0.704-0.838-1.905-0.134-2.682
				c2.845-3.143,5.801-6.168,8.782-8.989c0.762-0.722,1.962-0.679,2.684,0.074c0.722,0.761,0.687,1.964-0.074,2.684
				c-2.912,2.755-5.797,5.709-8.576,8.78c-0.62,0.685-1.625,0.813-2.387,0.354C598.94,372.504,598.841,372.43,598.749,372.346z
				 M749.42,439.543c1.889-3.533,3.559-7.266,4.963-11.09c0.362-0.983,1.452-1.487,2.437-1.126c0.984,0.353,1.49,1.451,1.127,2.437
				c-1.464,3.987-3.208,7.882-5.18,11.572c-0.494,0.923-1.644,1.272-2.568,0.777c-0.031-0.015-0.059-0.032-0.086-0.049
				C749.254,441.545,748.941,440.438,749.42,439.543z M616.588,355.097c-0.652-0.821-0.515-2.016,0.307-2.668
				c3.318-2.635,6.755-5.109,10.215-7.358c0.878-0.569,2.053-0.32,2.626,0.558c0.571,0.879,0.321,2.055-0.558,2.627
				c-3.362,2.183-6.7,4.587-9.925,7.147c-0.638,0.505-1.502,0.537-2.16,0.14C616.904,355.429,616.732,355.28,616.588,355.097z
				 M757.785,416.785c1.338-6.165,1.516-10.395,1.453-11.343l-1.151-5.419c-0.218-1.024,0.436-2.032,1.461-2.25
				c1.025-0.22,2.032,0.438,2.252,1.462l1.116,5.251l-0.029,0.005c0.587,2.694-0.795,10.351-1.391,13.097
				c-0.223,1.024-1.234,1.675-2.258,1.452c-0.21-0.044-0.404-0.122-0.579-0.227C757.983,418.406,757.608,417.6,757.785,416.785z
				 M637.193,341.308c-0.477-0.933-0.108-2.076,0.825-2.554c3.757-1.925,7.632-3.651,11.52-5.138
				c0.979-0.374,2.074,0.12,2.451,1.098c0.374,0.979-0.116,2.074-1.096,2.45c-3.76,1.436-7.509,3.108-11.143,4.968
				c-0.607,0.312-1.304,0.265-1.847-0.063C637.608,341.893,637.36,341.635,637.193,341.308z M660.192,332.082
				c-0.265-1.015,0.344-2.05,1.358-2.317c4.031-1.049,8.188-1.892,12.359-2.504c1.035-0.152,2,0.566,2.154,1.602
				c0.153,1.039-0.564,2.002-1.602,2.154c-4.035,0.593-8.057,1.409-11.954,2.425c-0.516,0.134-1.035,0.042-1.458-0.213
				C660.641,332.98,660.323,332.58,660.192,332.082z M755.503,387.873l-2.583-12.15c-0.218-1.024,0.436-2.032,1.461-2.249
				c1.028-0.222,2.034,0.435,2.252,1.462l2.584,12.148c0.217,1.026-0.437,2.034-1.462,2.252c-0.492,0.106-0.977,0.009-1.375-0.231
				C755.945,388.842,755.616,388.409,755.503,387.873z M684.64,328.063c-0.043-1.048,0.77-1.933,1.818-1.978
				c4.103-0.17,8.336-0.139,12.585,0.091c1.049,0.058,1.852,0.949,1.792,1.999c-0.058,1.047-0.951,1.849-1.998,1.792
				c-4.128-0.225-8.241-0.254-12.223-0.088c-0.387,0.016-0.75-0.084-1.059-0.27C685.031,329.293,684.668,328.724,684.64,328.063z
				 M750.334,363.574l-2.583-12.152c-0.218-1.024,0.436-2.032,1.461-2.25c1.026-0.22,2.034,0.436,2.252,1.462l2.583,12.15
				c0.218,1.024-0.436,2.032-1.461,2.249c-0.492,0.106-0.977,0.009-1.375-0.231C750.777,364.542,750.448,364.108,750.334,363.574z
				 M709.403,329.04c0.149-1.038,1.112-1.758,2.15-1.608c4.037,0.584,8.19,1.352,12.342,2.288c1.031,0.222,1.667,1.246,1.436,2.268
				c-0.23,1.023-1.246,1.665-2.268,1.434c-4.058-0.913-8.112-1.664-12.053-2.232c-0.258-0.037-0.498-0.125-0.708-0.251
				C709.667,330.556,709.29,329.818,709.403,329.04z M733.659,334.189c0.303-1.005,1.361-1.574,2.364-1.272
				c3.806,1.145,7.706,2.451,11.593,3.881l0.984,0.361l0.281,1.325c0.218,1.024-0.436,2.032-1.462,2.251
				c-0.715,0.152-1.42-0.12-1.857-0.646c-3.568-1.299-7.142-2.486-10.631-3.536c-0.156-0.046-0.302-0.112-0.436-0.192
				C733.77,335.925,733.404,335.038,733.659,334.189z"/>
		</g>
		
			<linearGradient id="SVGID_18_" gradientUnits="userSpaceOnUse" x1="-852.5322" y1="-4243.2173" x2="-836.7453" y2="-4398.8311" gradientTransform="matrix(-0.3341 -0.9425 -0.9425 0.3341 -3684.2612 1056.3063)">
			<stop  offset="0" style="stop-color:#FF928E"/>
			<stop  offset="1" style="stop-color:#FE7062"/>
		</linearGradient>
		<path fill="url(#SVGID_18_)" d="M752.391,378.704c0,0-6.922,54.609-47.559,53.852s-81.448-11.607-95.289,1.595
			c0,0,33.566-102.273,136.743-73.883L752.391,378.704z"/>
		
			<linearGradient id="SVGID_19_" gradientUnits="userSpaceOnUse" x1="-987.0864" y1="-4332.4946" x2="-927.3211" y2="-4454.2803" gradientTransform="matrix(-0.3341 -0.9425 -0.9425 0.3341 -3684.2612 1056.3063)">
			<stop  offset="0" style="stop-color:#FEB3B1"/>
			<stop  offset="1" style="stop-color:#FF928E"/>
		</linearGradient>
		<path fill="url(#SVGID_19_)" d="M866.433,399.498c0,0,12.409,52.601-1.291,64.761c-13.031,11.566-131.154,43.487-142.651,46.575
			c-0.517,0.139-1.037-0.148-1.216-0.652l0,0c-1.479-4.173-0.885-8.789,1.612-12.445c12.06-17.661,48.52-70.084,64.628-82.399
			C806.968,400.464,866.433,399.498,866.433,399.498z"/>
		<path fill="#FFFFFF" d="M762.416,492.468c0.286,0.172,0.639,0.229,0.985,0.129c0.648-0.187,65.038-18.788,92.444-27.876
			c4.879-1.617,8.351-5.96,8.842-11.064c0.946-9.835,1.706-24.627-0.046-39.253c-0.081-0.681-0.698-1.168-1.381-1.085
			c-0.681,0.082-1.168,0.701-1.087,1.382c1.819,15.165,0.806,30.768,0.041,38.717c-0.398,4.126-3.205,7.638-7.15,8.945
			c-27.361,9.073-91.705,27.662-92.351,27.848c-0.659,0.189-1.039,0.877-0.85,1.539
			C761.954,492.062,762.157,492.312,762.416,492.468z"/>
		
			<linearGradient id="SVGID_20_" gradientUnits="userSpaceOnUse" x1="-674.8657" y1="-4326.8018" x2="-767.8947" y2="-4484.105" gradientTransform="matrix(-0.3341 -0.9425 -0.9425 0.3341 -3684.2612 1056.3063)">
			<stop  offset="0" style="stop-color:#FEB3B1"/>
			<stop  offset="1" style="stop-color:#FF928E"/>
		</linearGradient>
		<path fill="url(#SVGID_20_)" d="M824.479,281.159c0,0-23.495-48.671-41.794-49.486c-17.407-0.775-129.258,48.835-140.132,53.679
			c-0.489,0.218-0.712,0.768-0.533,1.272l0,0c1.479,4.173,4.849,7.383,9.091,8.651c20.491,6.12,81.83,23.872,102.098,23.291
			C777.685,317.864,824.479,281.159,824.479,281.159z"/>
		<path fill="#FFFFFF" d="M685.655,275.956c0.33,0.199,0.745,0.243,1.126,0.082c0.621-0.264,62.303-26.355,89.268-36.542
			c3.889-1.472,8.282-0.515,11.188,2.442c5.603,5.692,16.216,17.173,24.359,30.097c0.358,0.587,1.132,0.753,1.713,0.39
			c0.58-0.365,0.753-1.132,0.388-1.712c-8.265-13.122-19.017-24.752-24.689-30.517c-3.601-3.652-9.032-4.839-13.838-3.024
			c-27.009,10.206-88.736,36.318-89.357,36.578c-0.632,0.268-0.927,0.997-0.66,1.628
			C685.26,275.626,685.439,275.825,685.655,275.956z"/>
		
			<linearGradient id="SVGID_21_" gradientUnits="userSpaceOnUse" x1="-3134.9688" y1="-1328.5347" x2="-3065.4045" y2="-627.9288" gradientTransform="matrix(-0.8865 -0.4627 -0.4627 0.8865 -2462.1294 -12.4725)">
			<stop  offset="0" style="stop-color:#4F52FF"/>
			<stop  offset="1" style="stop-color:#4042E2"/>
		</linearGradient>
		<path fill="url(#SVGID_21_)" d="M1037.285,338.186c-20.822,16.029-46.148,30.979-76.463,41.826
			C866.7,413.688,791.696,422.161,770.305,424c-3.869,0.333-7.578-1.515-9.726-4.75c-16.925-25.497-27.059-53.434-30.443-83.797
			c-0.637-5.711,2.016-11.303,6.8-14.488c20.759-13.823,82.877-52.423,173.126-84.124c30.147-10.59,59.024-14.947,85.136-15.663
			C1024.805,263.247,1033.763,310.901,1037.285,338.186z"/>
		
			<linearGradient id="SVGID_22_" gradientUnits="userSpaceOnUse" x1="-791.9736" y1="-4768.1289" x2="-918.2695" y2="-4585.4512" gradientTransform="matrix(-0.3341 -0.9425 -0.9425 0.3341 -3684.2612 1056.3063)">
			<stop  offset="0" style="stop-color:#FEB3B1"/>
			<stop  offset="1" style="stop-color:#FF928E"/>
		</linearGradient>
		<path fill="url(#SVGID_22_)" d="M995.199,221.177c57.678-1.583,101.854,14.611,116.358,20.724
			c2.835,1.194,4.024,4.549,2.575,7.263c-7.389,13.835-31.361,54.007-76.848,89.022
			C1033.763,310.901,1024.805,263.247,995.199,221.177z"/>
		<g>
			
				<linearGradient id="SVGID_23_" gradientUnits="userSpaceOnUse" x1="-3575.4766" y1="-457.9146" x2="-3338.884" y2="-477.1497" gradientTransform="matrix(-0.9515 -0.3075 -0.3075 0.9515 -2329.0505 -244.3864)">
				<stop  offset="0" style="stop-color:#4F52FF"/>
				<stop  offset="1" style="stop-color:#4042E2"/>
			</linearGradient>
			<path fill="url(#SVGID_23_)" d="M924.856,258.891c-24.404,8.652-36.661,36.899-27.375,63.092s36.598,40.413,61.002,31.76
				c24.404-8.652,36.661-36.899,27.375-63.092C976.572,264.458,949.261,250.239,924.856,258.891z"/>
			
				<ellipse transform="matrix(-0.3341 -0.9425 0.9425 -0.3341 970.3042 1294.582)" fill="#91B3FA" cx="942.436" cy="304.552" rx="40.094" ry="37.357"/>
			<path fill="#FFFFFF" d="M958.367,328.697c0.417,0.251,0.963,0.244,1.381-0.065c10.662-7.902,14.88-22.527,10.258-35.563
				c-1.167-3.288-2.822-6.333-4.922-9.05c-0.42-0.542-1.2-0.644-1.743-0.223c-0.542,0.418-0.643,1.199-0.223,1.741
				c1.938,2.511,3.468,5.323,4.546,8.364c4.26,12.017,0.396,25.478-9.395,32.735c-0.552,0.41-0.667,1.187-0.258,1.737
				C958.109,328.508,958.231,328.616,958.367,328.697z"/>
		</g>
		<g>
			
				<linearGradient id="SVGID_24_" gradientUnits="userSpaceOnUse" x1="-3570.3594" y1="-394.978" x2="-3333.7668" y2="-414.2132" gradientTransform="matrix(-0.9515 -0.3075 -0.3075 0.9515 -2329.0505 -244.3864)">
				<stop  offset="0" style="stop-color:#4F52FF"/>
				<stop  offset="1" style="stop-color:#4042E2"/>
			</linearGradient>
			<path fill="url(#SVGID_24_)" d="M841.757,306.47c-16.123,5.715-24.219,24.376-18.085,41.68
				c6.135,17.304,24.178,26.698,40.3,20.982c16.123-5.716,24.219-24.377,18.084-41.681S857.879,300.753,841.757,306.47z"/>
			
				<ellipse transform="matrix(-0.3341 -0.9425 0.9425 -0.3341 821.2368 1253.4391)" fill="#91B3FA" cx="853.37" cy="336.634" rx="26.488" ry="24.68"/>
			<path fill="#FFFFFF" d="M863.677,352.947c0.417,0.252,0.963,0.244,1.381-0.065c7.191-5.328,10.04-15.187,6.924-23.974
				c-0.785-2.213-1.901-4.262-3.318-6.094c-0.412-0.543-1.199-0.644-1.742-0.223c-0.541,0.418-0.643,1.199-0.222,1.742
				c1.254,1.623,2.243,3.443,2.939,5.407c2.753,7.765,0.262,16.461-6.061,21.146c-0.552,0.41-0.667,1.187-0.258,1.737
				C863.419,352.758,863.542,352.865,863.677,352.947z"/>
		</g>
	</g>
</g>
</svg>
