<?xml version="1.0" encoding="utf-8"?>
<!-- Generator: Adobe Illustrator 16.0.3, SVG Export Plug-In . SVG Version: 6.00 Build 0)  -->
<!DOCTYPE svg PUBLIC "-//W3C//DTD SVG 1.1//EN" "http://www.w3.org/Graphics/SVG/1.1/DTD/svg11.dtd">
<svg version="1.1" id="Capa_1" xmlns="http://www.w3.org/2000/svg" xmlns:xlink="http://www.w3.org/1999/xlink" x="0px" y="0px"
	 width="650.689px" height="370px" viewBox="0 0 650.689 370" enable-background="new 0 0 650.689 370" xml:space="preserve">
<g id="Layer_1_1_">
</g>
<g>
	<path fill="#BDD0FB" d="M649.737,217.752c-0.044,0.083-0.118,0.147-0.214,0.178l-0.976,0.3c-0.215,0.067-0.461-0.063-0.549-0.288
		c-0.09-0.224,0.015-0.459,0.23-0.526l0.972-0.299c0.214-0.069,0.462,0.061,0.55,0.287
		C649.799,217.524,649.792,217.651,649.737,217.752z M646.028,218.873c-0.044,0.084-0.121,0.148-0.219,0.178
		c-0.393,0.114-0.785,0.229-1.181,0.342c-0.215,0.063-0.459-0.07-0.546-0.295c-0.083-0.228,0.022-0.461,0.24-0.521
		c0.392-0.113,0.784-0.228,1.175-0.341c0.216-0.063,0.462,0.068,0.546,0.294C646.091,218.649,646.08,218.773,646.028,218.873z
		 M642.099,219.983c-0.045,0.087-0.126,0.154-0.227,0.183c-0.396,0.106-0.792,0.215-1.188,0.319c-0.218,0.058-0.46-0.079-0.54-0.305
		c-0.081-0.229,0.029-0.461,0.249-0.519c0.395-0.104,0.789-0.211,1.18-0.317c0.22-0.061,0.463,0.075,0.544,0.302
		C642.16,219.767,642.151,219.888,642.099,219.983z M638.145,221.021c-0.049,0.09-0.13,0.157-0.237,0.185
		c-0.396,0.099-0.794,0.198-1.193,0.294c-0.22,0.054-0.459-0.086-0.535-0.315c-0.076-0.229,0.039-0.456,0.258-0.51
		c0.398-0.098,0.794-0.194,1.19-0.294c0.22-0.058,0.46,0.083,0.538,0.312C638.203,220.809,638.195,220.928,638.145,221.021z
		 M634.161,221.975c-0.049,0.093-0.133,0.161-0.242,0.186c-0.401,0.091-0.801,0.181-1.203,0.271c-0.222,0.049-0.457-0.1-0.53-0.327
		c-0.072-0.229,0.049-0.455,0.271-0.504c0.4-0.089,0.798-0.178,1.196-0.269c0.222-0.049,0.46,0.096,0.533,0.324
		C634.222,221.771,634.211,221.885,634.161,221.975z M630.153,222.841c-0.049,0.094-0.139,0.164-0.252,0.188
		c-0.402,0.08-0.808,0.162-1.209,0.24c-0.224,0.043-0.458-0.108-0.525-0.339c-0.065-0.229,0.061-0.452,0.284-0.494
		c0.399-0.079,0.803-0.16,1.204-0.242c0.222-0.044,0.458,0.105,0.525,0.336C630.212,222.641,630.2,222.752,630.153,222.841z
		 M626.117,223.606c-0.053,0.097-0.144,0.168-0.263,0.189c-0.406,0.071-0.813,0.142-1.219,0.209
		c-0.225,0.038-0.455-0.117-0.517-0.349c-0.062-0.232,0.071-0.451,0.296-0.487c0.404-0.07,0.809-0.141,1.213-0.211
		c0.224-0.039,0.457,0.117,0.52,0.347C626.175,223.415,626.162,223.521,626.117,223.606z M622.053,224.265
		c-0.055,0.102-0.151,0.174-0.272,0.192c-0.411,0.06-0.819,0.118-1.227,0.175c-0.228,0.031-0.455-0.132-0.509-0.364
		c-0.055-0.231,0.082-0.445,0.311-0.477c0.406-0.057,0.813-0.115,1.219-0.174c0.227-0.035,0.455,0.126,0.511,0.359
		C622.111,224.083,622.095,224.183,622.053,224.265z M617.96,224.806c-0.054,0.104-0.154,0.178-0.286,0.192
		c-0.41,0.047-0.822,0.094-1.233,0.137c-0.228,0.025-0.452-0.146-0.499-0.378c-0.049-0.232,0.097-0.44,0.325-0.466
		c0.409-0.043,0.818-0.089,1.228-0.138c0.226-0.024,0.452,0.143,0.501,0.375C618.017,224.63,618.001,224.728,617.96,224.806z
		 M613.841,225.216c-0.057,0.107-0.164,0.183-0.299,0.192c-0.415,0.035-0.828,0.066-1.242,0.096c-0.23,0.016-0.448-0.16-0.488-0.393
		c-0.041-0.234,0.113-0.437,0.342-0.454c0.41-0.029,0.822-0.06,1.233-0.096c0.23-0.018,0.448,0.155,0.494,0.39
		C613.898,225.05,613.882,225.14,613.841,225.216z M609.697,225.481c-0.059,0.11-0.173,0.188-0.313,0.192
		c-0.418,0.019-0.837,0.036-1.254,0.05c-0.231,0.007-0.442-0.177-0.475-0.41c-0.032-0.235,0.13-0.431,0.359-0.439
		c0.415-0.014,0.83-0.029,1.246-0.047c0.228-0.012,0.443,0.171,0.479,0.404C609.751,225.324,609.735,225.408,609.697,225.481z
		 M605.523,225.584c-0.062,0.116-0.183,0.193-0.328,0.194c-0.422,0.003-0.844,0.002-1.264-0.002
		c-0.23-0.003-0.437-0.194-0.459-0.429c-0.023-0.233,0.148-0.421,0.379-0.421c0.416,0.004,0.834,0.005,1.251,0.004
		c0.232-0.002,0.439,0.188,0.463,0.422C605.574,225.436,605.56,225.517,605.523,225.584z M601.329,225.51
		c-0.064,0.122-0.193,0.2-0.347,0.194c-0.422-0.017-0.846-0.036-1.267-0.061c-0.233-0.013-0.431-0.213-0.442-0.447
		c-0.012-0.233,0.167-0.412,0.4-0.4c0.418,0.023,0.835,0.043,1.254,0.062c0.232,0.01,0.433,0.205,0.447,0.439
		C601.381,225.375,601.364,225.447,601.329,225.51z M597.126,225.236c-0.068,0.13-0.207,0.209-0.37,0.193
		c-0.424-0.038-0.847-0.079-1.269-0.125c-0.232-0.023-0.419-0.233-0.422-0.466c0.002-0.234,0.19-0.402,0.423-0.377
		c0.418,0.044,0.836,0.084,1.257,0.122c0.231,0.021,0.423,0.228,0.426,0.46C597.173,225.115,597.156,225.181,597.126,225.236z
		 M592.919,224.745c-0.072,0.135-0.223,0.215-0.393,0.189c-0.423-0.062-0.846-0.125-1.269-0.193
		c-0.232-0.037-0.408-0.255-0.396-0.486c0.014-0.231,0.21-0.39,0.443-0.352c0.418,0.067,0.836,0.132,1.254,0.192
		c0.232,0.034,0.414,0.247,0.404,0.479C592.96,224.639,592.945,224.695,592.919,224.745z M588.72,224.017
		c-0.075,0.143-0.238,0.221-0.416,0.184c-0.424-0.083-0.843-0.175-1.264-0.269c-0.231-0.053-0.396-0.278-0.368-0.508
		c0.027-0.229,0.238-0.373,0.467-0.32c0.417,0.095,0.832,0.183,1.248,0.266c0.23,0.049,0.399,0.274,0.376,0.503
		C588.757,223.926,588.743,223.973,588.72,224.017z M584.55,223.022c-0.082,0.151-0.261,0.229-0.446,0.178
		c-0.313-0.086-0.626-0.174-0.938-0.266c-0.1,0.237-0.201,0.473-0.305,0.705c-0.092,0.203-0.338,0.279-0.552,0.165
		c-0.214-0.113-0.313-0.372-0.223-0.577c0.165-0.366,0.318-0.736,0.468-1.109c0.079-0.21,0.325-0.294,0.543-0.187
		c0.086,0.042,0.154,0.106,0.201,0.183c0.313,0.093,0.63,0.182,0.944,0.27c0.23,0.063,0.385,0.297,0.346,0.523
		C584.582,222.948,584.569,222.987,584.55,223.022z M581.573,226.191c-0.001,0.003-0.005,0.006-0.006,0.011
		c-0.204,0.354-0.415,0.705-0.632,1.05c-0.12,0.188-0.379,0.227-0.578,0.085c-0.198-0.14-0.265-0.404-0.145-0.593
		c0.212-0.336,0.416-0.676,0.614-1.022c0.11-0.192,0.366-0.243,0.57-0.11C581.598,225.742,581.676,225.998,581.573,226.191z
		 M579.318,229.514c-0.011,0.022-0.023,0.04-0.036,0.059c-0.258,0.317-0.522,0.633-0.787,0.932
		c-0.147,0.166-0.413,0.164-0.593-0.001c-0.181-0.164-0.208-0.433-0.062-0.6c0.262-0.296,0.517-0.597,0.765-0.905
		c0.137-0.172,0.401-0.184,0.587-0.024C579.36,229.115,579.409,229.344,579.318,229.514z M584.257,219.837
		c-0.092,0.168-0.296,0.24-0.492,0.163c-0.225-0.088-0.353-0.336-0.289-0.552c0.115-0.39,0.224-0.781,0.326-1.176
		c0.056-0.222,0.284-0.334,0.509-0.253c0.227,0.081,0.362,0.322,0.306,0.544c-0.102,0.404-0.213,0.804-0.33,1.202
		C584.278,219.79,584.268,219.813,584.257,219.837z M576.564,232.415c-0.019,0.037-0.045,0.071-0.08,0.101l-0.205,0.182
		c-0.239,0.208-0.48,0.407-0.727,0.604c-0.173,0.137-0.439,0.096-0.594-0.094c-0.156-0.19-0.141-0.456,0.031-0.594
		c0.238-0.188,0.472-0.383,0.702-0.583l0.202-0.177c0.166-0.148,0.432-0.118,0.596,0.065
		C576.619,232.067,576.645,232.266,576.564,232.415z M585.189,215.82c-0.081,0.152-0.259,0.23-0.445,0.178
		c-0.229-0.062-0.384-0.295-0.343-0.521c0.067-0.403,0.132-0.81,0.189-1.218c0.03-0.226,0.243-0.368,0.474-0.311
		c0.23,0.056,0.391,0.285,0.359,0.512c-0.059,0.417-0.123,0.833-0.193,1.245C585.223,215.746,585.208,215.785,585.189,215.82z
		 M580.432,221.723c-0.087,0.165-0.284,0.239-0.479,0.169c-0.411-0.148-0.821-0.302-1.23-0.459c-0.224-0.087-0.353-0.334-0.291-0.55
		c0.063-0.221,0.297-0.325,0.521-0.238c0.401,0.154,0.803,0.306,1.209,0.45c0.224,0.081,0.361,0.326,0.305,0.545
		C580.458,221.669,580.447,221.698,580.432,221.723z M585.675,211.681c-0.071,0.139-0.229,0.219-0.402,0.188
		c-0.231-0.038-0.407-0.258-0.394-0.488c0.028-0.414,0.048-0.83,0.063-1.246c0.008-0.231,0.201-0.394,0.435-0.362
		c0.231,0.032,0.415,0.245,0.406,0.479c-0.014,0.424-0.037,0.849-0.063,1.271C585.716,211.581,585.7,211.634,585.675,211.681z
		 M573.351,234.795c-0.028,0.057-0.072,0.105-0.13,0.142c-0.346,0.211-0.7,0.414-1.059,0.61c-0.195,0.105-0.455,0.022-0.582-0.187
		c-0.126-0.209-0.069-0.464,0.126-0.57c0.345-0.188,0.69-0.388,1.026-0.592c0.188-0.116,0.451-0.046,0.587,0.158
		C573.413,234.498,573.42,234.668,573.351,234.795z M585.736,207.469c-0.066,0.124-0.201,0.204-0.361,0.193
		c-0.231-0.017-0.427-0.22-0.435-0.453c-0.015-0.42-0.035-0.84-0.063-1.258c-0.015-0.235,0.162-0.418,0.394-0.408
		s0.432,0.207,0.445,0.441c0.029,0.428,0.051,0.854,0.064,1.284C585.784,207.341,585.766,207.41,585.736,207.469z M569.758,236.6
		c-0.041,0.074-0.103,0.133-0.185,0.166c-0.378,0.152-0.768,0.299-1.155,0.434c-0.212,0.074-0.462-0.046-0.558-0.269
		c-0.096-0.224-0.001-0.463,0.209-0.535c0.38-0.133,0.753-0.273,1.123-0.422c0.208-0.084,0.46,0.026,0.565,0.245
		C569.822,236.35,569.817,236.49,569.758,236.6z M576.407,220.082c-0.096,0.176-0.316,0.246-0.517,0.152
		c-0.402-0.185-0.801-0.374-1.197-0.571c-0.215-0.105-0.324-0.36-0.239-0.571c0.086-0.212,0.33-0.289,0.547-0.184
		c0.387,0.194,0.777,0.379,1.17,0.56c0.22,0.102,0.336,0.354,0.256,0.565C576.42,220.052,576.413,220.066,576.407,220.082z
		 M585.384,203.228c-0.061,0.111-0.177,0.189-0.319,0.193c-0.229,0.006-0.442-0.178-0.474-0.413c-0.055-0.42-0.115-0.841-0.183-1.26
		c-0.036-0.233,0.12-0.435,0.349-0.447c0.229-0.013,0.446,0.164,0.483,0.399c0.068,0.427,0.13,0.854,0.187,1.284
		C585.44,203.073,585.423,203.156,585.384,203.228z M565.88,237.821c-0.049,0.091-0.134,0.159-0.24,0.185
		c-0.405,0.096-0.813,0.182-1.223,0.259c-0.225,0.041-0.457-0.11-0.523-0.343c-0.064-0.229,0.064-0.45,0.287-0.492
		c0.398-0.077,0.795-0.159,1.188-0.253c0.219-0.052,0.458,0.093,0.533,0.321C565.94,237.613,565.928,237.729,565.88,237.821z
		 M584.627,198.996c-0.054,0.103-0.152,0.173-0.278,0.189c-0.227,0.032-0.453-0.133-0.507-0.364
		c-0.095-0.417-0.196-0.832-0.307-1.247c-0.06-0.23,0.071-0.448,0.296-0.486c0.224-0.037,0.457,0.118,0.516,0.352
		c0.112,0.422,0.217,0.848,0.314,1.274C584.685,198.815,584.67,198.916,584.627,198.996z M561.812,238.475
		c-0.056,0.107-0.161,0.181-0.296,0.194c-0.416,0.037-0.837,0.068-1.259,0.09c-0.229,0.013-0.444-0.166-0.481-0.401
		c-0.035-0.235,0.122-0.433,0.352-0.446c0.411-0.021,0.82-0.05,1.229-0.089c0.228-0.02,0.448,0.153,0.493,0.385
		C561.867,238.306,561.853,238.399,561.812,238.475z M572.52,218.063c-0.104,0.193-0.349,0.253-0.557,0.132
		c-0.261-0.151-0.52-0.307-0.778-0.464c-0.122-0.075-0.243-0.15-0.365-0.227c-0.203-0.129-0.285-0.389-0.182-0.585
		c0.001-0.001,0.002-0.002,0.002-0.004c0.108-0.195,0.362-0.249,0.568-0.12c0.119,0.074,0.237,0.147,0.358,0.221
		c0.251,0.154,0.505,0.306,0.759,0.454c0.21,0.122,0.299,0.385,0.197,0.585C572.523,218.056,572.523,218.061,572.52,218.063z
		 M583.425,194.828c-0.046,0.087-0.125,0.152-0.229,0.182c-0.22,0.058-0.461-0.082-0.542-0.309
		c-0.142-0.405-0.295-0.809-0.453-1.209c-0.091-0.224,0.011-0.461,0.225-0.528s0.462,0.06,0.552,0.285
		c0.165,0.41,0.319,0.825,0.468,1.244C583.488,194.613,583.477,194.731,583.425,194.828z M557.641,238.591
		c-0.065,0.121-0.192,0.2-0.347,0.196c-0.425-0.017-0.852-0.038-1.277-0.067c-0.232-0.017-0.429-0.219-0.436-0.453
		c-0.007-0.233,0.175-0.411,0.406-0.394c0.417,0.029,0.831,0.051,1.248,0.064c0.232,0.007,0.433,0.202,0.449,0.439
		C557.691,238.454,557.675,238.529,557.641,238.591z M568.835,215.641c-0.006,0.011-0.012,0.023-0.02,0.034
		c-0.123,0.183-0.384,0.214-0.58,0.067c-0.36-0.266-0.715-0.538-1.067-0.819c-0.191-0.152-0.239-0.417-0.106-0.599
		c0.133-0.177,0.395-0.197,0.585-0.047c0.343,0.274,0.688,0.541,1.039,0.801C568.87,215.214,568.934,215.459,568.835,215.641z
		 M581.683,190.809c-0.038,0.068-0.096,0.126-0.172,0.16c-0.202,0.092-0.459-0.008-0.571-0.224
		c-0.204-0.385-0.416-0.767-0.635-1.134c-0.121-0.21-0.063-0.464,0.133-0.569c0.196-0.104,0.457-0.02,0.58,0.193
		c0.225,0.378,0.446,0.775,0.656,1.177C581.745,190.546,581.743,190.695,581.683,190.809z M553.432,238.201
		c-0.073,0.135-0.224,0.215-0.396,0.188c-0.426-0.063-0.849-0.135-1.274-0.214c-0.231-0.043-0.404-0.265-0.387-0.494
		c0.021-0.23,0.222-0.383,0.454-0.341c0.415,0.077,0.832,0.147,1.247,0.21c0.231,0.035,0.411,0.252,0.401,0.484
		C553.473,238.096,553.458,238.152,553.432,238.201z M579.298,187.09c-0.026,0.047-0.061,0.087-0.104,0.119
		c-0.175,0.134-0.442,0.086-0.593-0.106c-0.267-0.345-0.547-0.682-0.829-1.003c-0.164-0.184-0.162-0.449,0.007-0.596
		c0.166-0.146,0.433-0.115,0.594,0.069c0.297,0.336,0.59,0.688,0.869,1.047C579.355,186.766,579.371,186.952,579.298,187.09z
		 M565.441,212.799c-0.016,0.026-0.034,0.051-0.055,0.074c-0.148,0.162-0.414,0.16-0.591-0.009
		c-0.328-0.309-0.651-0.622-0.967-0.943c-0.172-0.174-0.187-0.443-0.029-0.599c0.155-0.158,0.423-0.142,0.594,0.032
		c0.309,0.312,0.621,0.618,0.94,0.917C565.487,212.416,565.526,212.636,565.441,212.799z M549.247,237.332
		c-0.081,0.15-0.257,0.228-0.443,0.179c-0.42-0.111-0.839-0.229-1.258-0.354c-0.228-0.068-0.377-0.305-0.332-0.531
		c0.044-0.224,0.265-0.349,0.492-0.28c0.41,0.122,0.82,0.237,1.23,0.346c0.23,0.063,0.386,0.295,0.35,0.521
		C549.279,237.255,549.265,237.295,549.247,237.332z M576.218,183.909c-0.01,0.017-0.021,0.035-0.032,0.05
		c-0.134,0.176-0.397,0.194-0.587,0.04c-0.333-0.271-0.679-0.532-1.029-0.777c-0.201-0.138-0.266-0.404-0.148-0.592
		c0.118-0.19,0.377-0.229,0.576-0.089c0.371,0.259,0.736,0.534,1.088,0.82C576.257,183.5,576.31,183.735,576.218,183.909z
		 M562.4,209.565c-0.022,0.044-0.053,0.081-0.093,0.111c-0.171,0.14-0.438,0.101-0.594-0.089c-0.287-0.347-0.569-0.699-0.843-1.054
		c-0.148-0.193-0.125-0.457,0.054-0.59c0.177-0.131,0.443-0.08,0.592,0.115c0.268,0.345,0.54,0.687,0.818,1.024
		C562.457,209.23,562.478,209.423,562.4,209.565z M545.135,236.006c-0.089,0.167-0.291,0.24-0.488,0.164
		c-0.41-0.155-0.817-0.318-1.225-0.488c-0.222-0.093-0.348-0.342-0.275-0.558c0.07-0.215,0.305-0.314,0.527-0.221
		c0.396,0.165,0.796,0.324,1.197,0.478c0.224,0.086,0.356,0.331,0.294,0.55C545.157,235.958,545.148,235.982,545.135,236.006z
		 M559.795,205.985c-0.031,0.057-0.078,0.107-0.14,0.142c-0.194,0.111-0.454,0.033-0.584-0.174c-0.24-0.381-0.474-0.769-0.693-1.154
		c-0.12-0.212-0.058-0.464,0.139-0.564c0.2-0.101,0.458-0.012,0.58,0.201c0.212,0.372,0.439,0.749,0.672,1.118
		C559.858,205.695,559.862,205.858,559.795,205.985z M572.498,181.572c-0.096,0.179-0.318,0.248-0.521,0.152
		c-0.385-0.181-0.777-0.347-1.171-0.495c-0.223-0.086-0.355-0.331-0.293-0.55c0.06-0.217,0.291-0.326,0.516-0.242
		c0.414,0.156,0.832,0.332,1.235,0.522c0.221,0.103,0.334,0.357,0.253,0.568C572.511,181.544,572.505,181.558,572.498,181.572z
		 M541.15,234.241c-0.097,0.182-0.328,0.248-0.532,0.146c-0.394-0.201-0.788-0.409-1.176-0.621
		c-0.214-0.116-0.309-0.376-0.215-0.579c0.091-0.199,0.343-0.275,0.555-0.158c0.381,0.209,0.763,0.411,1.148,0.606
		c0.218,0.11,0.322,0.366,0.235,0.574C541.158,234.219,541.156,234.232,541.15,234.241z M557.723,202.099
		c-0.041,0.08-0.109,0.14-0.196,0.172c-0.211,0.078-0.463-0.041-0.561-0.264c-0.179-0.405-0.351-0.821-0.51-1.234
		c-0.089-0.227,0.018-0.46,0.232-0.525c0.217-0.065,0.461,0.065,0.547,0.291c0.154,0.4,0.321,0.801,0.494,1.191
		C557.785,201.86,557.78,201.994,557.723,202.099z M568.394,180.268c-0.072,0.14-0.229,0.219-0.401,0.188
		c-0.41-0.068-0.822-0.118-1.223-0.147c-0.232-0.018-0.427-0.221-0.434-0.454c-0.008-0.233,0.177-0.41,0.409-0.393
		c0.425,0.032,0.866,0.085,1.303,0.158c0.229,0.04,0.405,0.258,0.391,0.49C568.436,180.168,568.418,180.222,568.394,180.268z
		 M556.294,197.986c-0.053,0.098-0.148,0.17-0.268,0.19c-0.225,0.036-0.456-0.124-0.516-0.355c-0.108-0.426-0.206-0.856-0.293-1.286
		c-0.046-0.232,0.102-0.44,0.33-0.464c0.227-0.021,0.449,0.147,0.496,0.381c0.082,0.413,0.176,0.829,0.281,1.239
		C556.353,197.798,556.339,197.902,556.294,197.986z M537.345,232.048c-0.001,0.002-0.003,0.007-0.006,0.01
		c-0.111,0.191-0.368,0.242-0.571,0.108c-0.373-0.243-0.744-0.495-1.11-0.749c-0.199-0.141-0.268-0.41-0.146-0.593
		c0.12-0.19,0.376-0.229,0.575-0.089c0.357,0.251,0.72,0.495,1.084,0.73C537.37,231.598,537.448,231.854,537.345,232.048z
		 M564.227,180.252c-0.051,0.096-0.143,0.167-0.262,0.188c-0.39,0.07-0.774,0.163-1.145,0.276c-0.216,0.067-0.462-0.062-0.55-0.286
		c-0.088-0.225,0.013-0.46,0.229-0.527c0.399-0.123,0.816-0.224,1.238-0.3c0.224-0.04,0.455,0.115,0.52,0.347
		C564.287,180.059,564.275,180.165,564.227,180.252z M555.63,193.755c-0.066,0.124-0.198,0.203-0.354,0.193
		c-0.232-0.012-0.429-0.211-0.439-0.445c-0.023-0.433-0.03-0.867-0.022-1.296c0.005-0.233,0.194-0.398,0.428-0.37
		c0.231,0.026,0.417,0.238,0.413,0.471c-0.007,0.411-0.002,0.829,0.021,1.242C555.679,193.625,555.662,193.694,555.63,193.755z
		 M560.501,181.765c-0.024,0.051-0.063,0.095-0.112,0.13c-0.316,0.215-0.62,0.456-0.907,0.713c-0.166,0.147-0.432,0.119-0.596-0.063
		c-0.164-0.181-0.164-0.449,0.002-0.597c0.308-0.277,0.639-0.537,0.978-0.77c0.183-0.126,0.447-0.068,0.592,0.129
		C560.562,181.453,560.574,181.631,560.501,181.765z M555.892,189.579c-0.08,0.154-0.262,0.231-0.45,0.177
		c-0.229-0.064-0.38-0.3-0.338-0.525c0.077-0.418,0.169-0.836,0.276-1.239c0.055-0.218,0.287-0.33,0.512-0.248
		c0.226,0.081,0.361,0.326,0.303,0.545c-0.102,0.384-0.19,0.78-0.264,1.179C555.925,189.508,555.91,189.546,555.892,189.579z
		 M557.759,184.648c-0.006,0.007-0.01,0.017-0.016,0.024c-0.205,0.322-0.398,0.665-0.577,1.021
		c-0.098,0.194-0.353,0.261-0.563,0.138c-0.209-0.12-0.299-0.382-0.197-0.583c0.19-0.376,0.396-0.741,0.616-1.085
		c0.119-0.188,0.377-0.226,0.575-0.084C557.789,184.213,557.858,184.462,557.759,184.648z M533.773,229.446
		c-0.009,0.018-0.019,0.033-0.031,0.049c-0.133,0.177-0.394,0.196-0.585,0.044c-0.348-0.279-0.692-0.564-1.036-0.853
		c-0.186-0.159-0.225-0.427-0.085-0.599c0.137-0.174,0.399-0.187,0.587-0.027c0.335,0.282,0.673,0.563,1.016,0.836
		C533.812,229.037,533.865,229.272,533.773,229.446z M530.443,226.524c-0.015,0.027-0.033,0.054-0.054,0.077
		c-0.151,0.162-0.417,0.155-0.595-0.015c-0.324-0.309-0.643-0.624-0.958-0.94c-0.173-0.176-0.185-0.443-0.031-0.601
		c0.156-0.158,0.423-0.143,0.596,0.032c0.31,0.311,0.621,0.62,0.939,0.922C530.491,226.146,530.53,226.362,530.443,226.524z
		 M527.372,223.322c-0.021,0.038-0.049,0.073-0.082,0.102c-0.166,0.148-0.434,0.115-0.596-0.068
		c-0.296-0.335-0.587-0.676-0.877-1.019c-0.158-0.187-0.147-0.453,0.023-0.593c0.17-0.14,0.438-0.104,0.595,0.085
		c0.282,0.336,0.571,0.67,0.862,1C527.427,222.976,527.451,223.174,527.372,223.322z M524.568,219.883
		c-0.025,0.047-0.062,0.092-0.108,0.124c-0.18,0.129-0.445,0.075-0.594-0.119c-0.27-0.356-0.534-0.719-0.796-1.082
		c-0.142-0.199-0.109-0.46,0.073-0.586c0.184-0.123,0.449-0.063,0.592,0.137c0.258,0.357,0.517,0.711,0.782,1.062
		C524.626,219.563,524.641,219.745,524.568,219.883z M522.031,216.25c-0.029,0.057-0.076,0.105-0.136,0.141
		c-0.19,0.112-0.451,0.039-0.586-0.166c-0.24-0.374-0.479-0.752-0.714-1.132c-0.129-0.208-0.076-0.465,0.119-0.573
		c0.194-0.108,0.455-0.026,0.583,0.181c0.23,0.373,0.467,0.746,0.704,1.115C522.093,215.957,522.1,216.124,522.031,216.25z
		 M519.762,212.458c-0.035,0.066-0.09,0.12-0.162,0.155c-0.199,0.099-0.457,0.005-0.576-0.208c-0.215-0.39-0.427-0.78-0.635-1.173
		c-0.112-0.215-0.042-0.465,0.161-0.558c0.202-0.094,0.458,0.006,0.572,0.222c0.204,0.387,0.413,0.772,0.626,1.153
		C519.826,212.188,519.824,212.341,519.762,212.458z M517.75,208.54c-0.04,0.073-0.102,0.132-0.188,0.166
		c-0.206,0.083-0.459-0.027-0.563-0.247c-0.191-0.399-0.375-0.801-0.56-1.203c-0.098-0.221-0.009-0.464,0.2-0.542
		c0.209-0.079,0.46,0.037,0.561,0.258c0.18,0.397,0.363,0.794,0.55,1.188C517.814,208.291,517.809,208.431,517.75,208.54z
		 M515.99,204.522c-0.045,0.082-0.116,0.146-0.212,0.176c-0.214,0.069-0.461-0.059-0.552-0.283
		c-0.164-0.408-0.324-0.816-0.484-1.229c-0.085-0.224,0.02-0.458,0.236-0.523c0.215-0.063,0.459,0.066,0.546,0.291
		c0.156,0.407,0.315,0.813,0.479,1.215C516.052,204.292,516.044,204.422,515.99,204.522z"/>
</g>
<g>
	<path fill="#BDD0FB" d="M95.938,283.374c-0.899,0.909-2.435,0.604-2.934-0.574c-2.755-6.496-8.883-25.57,2.526-47.097
		c9.634-18.178,13.13-28.948,14.378-33.949c0.264-1.057,1.725-1.162,2.141-0.155C116.633,212.713,128.534,250.431,95.938,283.374z"
		/>
</g>
<g>
	<path fill="#BDD0FB" d="M78.019,212.788c-0.966,7.766-5.795,55.66,19.677,70.942c0.771,0.463,1.761-0.053,1.825-0.949
		c0.414-5.708,0.672-23.849-9.806-45.258c-7.559-15.447-10.329-22.41-11.203-24.793C78.421,212.479,78.052,212.521,78.019,212.788z"
		/>
	<g>
		<path fill="#DCE5FE" d="M99.522,283.225c-0.157,0-0.309-0.083-0.39-0.231c-12.787-23.509-18.645-52.601-18.334-53.592
			c0.074-0.234,0.321-0.364,0.556-0.291c0.211,0.067,0.338,0.276,0.306,0.489c0.015,1.322,5.605,29.722,18.251,52.97
			c0.118,0.216,0.038,0.485-0.177,0.602C99.666,283.207,99.594,283.225,99.522,283.225z M81.645,229.664c0,0,0,0.001,0,0.003
			C81.644,229.664,81.644,229.664,81.645,229.664z"/>
	</g>
</g>
<g>
	<g opacity="0.54">
		<path fill="#BDD0FB" d="M123.325,173.549l-38.132-0.213c-1.561-0.008-2.531,1.694-1.727,3.032l0.191,0.319
			c0.362,0.603,1.013,0.971,1.716,0.971h37.94c1.106,0,2.001-0.896,2.001-2.001v-0.107
			C125.316,174.449,124.426,173.555,123.325,173.549z"/>
		<path fill="#BDD0FB" d="M128.652,175.594v0.063c0,1.105,0.896,2.001,2.002,2.001h8.465c0.906,0,1.699-0.609,1.934-1.485l0,0
			c0.337-1.265-0.61-2.508-1.919-2.518l-8.465-0.062C129.557,173.585,128.652,174.483,128.652,175.594z"/>
	</g>
	<g opacity="0.54">
		<path fill="#BDD0FB" d="M114.153,180.733l-28.959-0.212c-1.561-0.008-2.53,1.692-1.727,3.032l0.191,0.318
			c0.362,0.604,1.013,0.972,1.716,0.972h28.769c1.105,0,2.001-0.896,2.001-2.002v-0.106
			C116.143,181.634,115.254,180.739,114.153,180.733z"/>
		<path fill="#BDD0FB" d="M119.479,182.779v0.062c0,1.105,0.896,2.002,2.001,2.002h8.466c0.906,0,1.699-0.609,1.933-1.485l0,0
			c0.338-1.266-0.609-2.509-1.918-2.518l-8.465-0.062C120.385,180.771,119.479,181.667,119.479,182.779z"/>
	</g>
</g>
<g>
	<g opacity="0.54">
		<path fill="#BDD0FB" d="M47.148,229.646l-38.132-0.213c-1.561-0.008-2.53,1.692-1.727,3.033l0.191,0.318
			c0.362,0.602,1.014,0.971,1.716,0.971h37.941c1.105,0,2.002-0.897,2.002-2.003v-0.104
			C49.138,230.546,48.249,229.651,47.148,229.646z"/>
		<path fill="#BDD0FB" d="M52.474,231.691v0.063c0,1.104,0.896,2.001,2.001,2.001h8.465c0.907,0,1.7-0.608,1.934-1.485l0,0
			c0.339-1.265-0.609-2.509-1.919-2.518l-8.465-0.063C53.379,229.682,52.474,230.579,52.474,231.691z"/>
	</g>
	<g opacity="0.54">
		<path fill="#BDD0FB" d="M37.975,236.83l-28.959-0.213c-1.561-0.007-2.53,1.693-1.727,3.032l0.192,0.319
			c0.361,0.602,1.013,0.971,1.715,0.971h28.768c1.105,0,2.001-0.896,2.001-2.001v-0.107C39.966,237.73,39.076,236.837,37.975,236.83
			z"/>
		<path fill="#BDD0FB" d="M43.302,238.877v0.062c0,1.104,0.896,2.001,2.001,2.001h8.465c0.907,0,1.7-0.609,1.934-1.484l0,0
			c0.338-1.266-0.609-2.509-1.919-2.52l-8.465-0.061C44.206,236.866,43.302,237.765,43.302,238.877z"/>
	</g>
</g>
<g>
	<g>
		<path fill="#7D97F4" d="M36.278,268.365c-0.606,0.896-3.016,21.211-3.393,28.715c-0.025,0.506,0.38,0.929,0.889,0.929l0,0
			c0.438,0,0.811-0.318,0.878-0.752l4.408-28.246L36.278,268.365z"/>
		<path fill="#7D97F4" d="M55.654,268.365c0.606,0.896,3.016,21.211,3.393,28.715c0.026,0.506-0.38,0.929-0.888,0.929l0,0
			c-0.438,0-0.811-0.318-0.878-0.752l-4.408-28.246L55.654,268.365z"/>
		<path fill="#7D97F4" d="M32.633,266.778l-0.001,0.223c-0.015,1.593,1.358,2.9,3.077,2.931l20.374,0.346
			c1.694,0.028,3.106-1.195,3.188-2.765l0.011-0.202c0.086-1.637-1.304-3.016-3.07-3.047l-20.383-0.365
			C34.084,263.867,32.648,265.162,32.633,266.778z"/>
	</g>
	<g>
		<g>
			
				<linearGradient id="SVGID_1_" gradientUnits="userSpaceOnUse" x1="57.9275" y1="49.8208" x2="72.7014" y2="49.8208" gradientTransform="matrix(1 0 0 -1 8.3999 346.0996)">
				<stop  offset="0" style="stop-color:#09005D"/>
				<stop  offset="1" style="stop-color:#1A0F91"/>
			</linearGradient>
			<path fill="url(#SVGID_1_)" d="M72.268,296.341c-3.621,0-5.224-0.311-5.94-0.595c0.139,0.597,0.669,1.065,1.338,1.065h12.813
				c0.432,0,0.704-0.412,0.601-0.786C79.618,296.142,76.516,296.341,72.268,296.341z"/>
			
				<linearGradient id="SVGID_2_" gradientUnits="userSpaceOnUse" x1="69.3108" y1="78.2275" x2="65.2745" y2="50.3404" gradientTransform="matrix(1 0 0 -1 8.3999 346.0996)">
				<stop  offset="0" style="stop-color:#09005D"/>
				<stop  offset="1" style="stop-color:#1A0F91"/>
			</linearGradient>
			<path fill="url(#SVGID_2_)" d="M81.079,296.025c-0.021-0.076-0.052-0.15-0.105-0.22c-0.976-1.245-2.937-3.202-5.604-3.165
				c-3.907,0.055-5.269,0.48-8.305,0.024l-0.717,2.373c-0.072,0.243-0.074,0.485-0.021,0.709c0.717,0.283,2.319,0.594,5.94,0.594
				C76.516,296.341,79.618,296.142,81.079,296.025z"/>
		</g>
		
			<linearGradient id="SVGID_3_" gradientUnits="userSpaceOnUse" x1="58.6658" y1="54.2725" x2="62.6628" y2="54.2725" gradientTransform="matrix(1 0 0 -1 8.3999 346.0996)">
			<stop  offset="0" style="stop-color:#FF928E"/>
			<stop  offset="1" style="stop-color:#FEB3B1"/>
		</linearGradient>
		<path fill="url(#SVGID_3_)" d="M67.945,290.106l-0.879,2.99c0,0,1.948,0.887,3.661,0.175l0.336-2.591L67.945,290.106z"/>
		<g>
			
				<linearGradient id="SVGID_4_" gradientUnits="userSpaceOnUse" x1="81.0994" y1="52.7476" x2="93.0271" y2="52.7476" gradientTransform="matrix(1 0 0 -1 8.3999 346.0996)">
				<stop  offset="0" style="stop-color:#09005D"/>
				<stop  offset="1" style="stop-color:#1A0F91"/>
			</linearGradient>
			<path fill="url(#SVGID_4_)" d="M94.5,294.458c-2.823,2.269-4.266,3.031-5,3.261c0.479,0.373,1.185,0.407,1.707-0.014l9.988-8.025
				c0.336-0.269,0.292-0.76-0.022-0.985C100.106,289.7,97.812,291.798,94.5,294.458z"/>
			
				<linearGradient id="SVGID_5_" gradientUnits="userSpaceOnUse" x1="89.304" y1="75.3354" x2="85.2672" y2="47.445" gradientTransform="matrix(1 0 0 -1 8.3999 346.0996)">
				<stop  offset="0" style="stop-color:#09005D"/>
				<stop  offset="1" style="stop-color:#1A0F91"/>
			</linearGradient>
			<path fill="url(#SVGID_5_)" d="M101.171,288.694c-0.063-0.046-0.133-0.084-0.217-0.104c-1.538-0.355-4.286-0.646-6.342,1.055
				c-3.011,2.488-3.809,3.671-6.459,5.22l0.922,2.291c0.093,0.234,0.244,0.422,0.425,0.563c0.735-0.229,2.178-0.992,5-3.261
				C97.812,291.798,100.106,289.7,101.171,288.694z"/>
		</g>
		
			<linearGradient id="SVGID_6_" gradientUnits="userSpaceOnUse" x1="36.5627" y1="72.3086" x2="68.2053" y2="72.3086" gradientTransform="matrix(1 0 0 -1 8.3999 346.0996)">
			<stop  offset="0" style="stop-color:#09005D"/>
			<stop  offset="1" style="stop-color:#1A0F91"/>
		</linearGradient>
		<path fill="url(#SVGID_6_)" d="M49.137,256.039c0,0,21.684,1.771,26.132,3.863c4.448,2.096-3.63,31.442-3.63,31.442
			s-1.211,0.583-3.906-0.254c0,0,2.763-21.657,0.708-26.354l-23.478-3.841L49.137,256.039z"/>
		
			<linearGradient id="SVGID_7_" gradientUnits="userSpaceOnUse" x1="77.5979" y1="53.9365" x2="82.3708" y2="53.9365" gradientTransform="matrix(1 0 0 -1 8.3999 346.0996)">
			<stop  offset="0" style="stop-color:#FF928E"/>
			<stop  offset="1" style="stop-color:#FEB3B1"/>
		</linearGradient>
		<path fill="url(#SVGID_7_)" d="M85.998,290.742c0.202,0.184,2.155,4.122,2.155,4.122s2.174-0.471,2.618-1.847l-1.957-3.556
			L85.998,290.742z"/>
		
			<linearGradient id="SVGID_8_" gradientUnits="userSpaceOnUse" x1="65.3059" y1="85.4927" x2="30.5673" y2="46.106" gradientTransform="matrix(1 0 0 -1 8.3999 346.0996)">
			<stop  offset="0" style="stop-color:#09005D"/>
			<stop  offset="1" style="stop-color:#1A0F91"/>
		</linearGradient>
		<path fill="url(#SVGID_8_)" d="M36.078,255.858c0,0-0.707,1.699-0.678,3.959c0.04,3.124,2.552,5.66,5.673,5.815l25.634,1.17
			c0.541,0.024,0.999,0.397,1.135,0.924c0.602,2.329,3.546,9.484,17.939,23.762c0.382,0.38,0.979,0.445,1.435,0.155l2.049-1.294
			c0.215-0.135,0.284-0.418,0.155-0.637l-14.925-25.487c-0.784-1.293-2.044-2.228-3.51-2.603l-21.848-5.585L36.078,255.858z"/>
		
			<linearGradient id="SVGID_9_" gradientUnits="userSpaceOnUse" x1="47.3928" y1="124.5508" x2="59.2864" y2="124.5508" gradientTransform="matrix(1 0 0 -1 8.3999 346.0996)">
			<stop  offset="0" style="stop-color:#FF928E"/>
			<stop  offset="1" style="stop-color:#FEB3B1"/>
		</linearGradient>
		<path fill="url(#SVGID_9_)" d="M65.815,216.617c0,0-7.222,4.283-10.022,6.635l5.787,3.229c0,0,3.127-3.611,6.106-5.116
			L65.815,216.617z"/>
		
			<linearGradient id="SVGID_10_" gradientUnits="userSpaceOnUse" x1="27.2122" y1="106.4863" x2="72.6628" y2="106.4863" gradientTransform="matrix(1 0 0 -1 8.3999 346.0996)">
			<stop  offset="0" style="stop-color:#4042E2"/>
			<stop  offset="1" style="stop-color:#4F52FF"/>
		</linearGradient>
		<path fill="url(#SVGID_10_)" d="M35.612,256.039c0,0,6.92,1.687,13.525,0c0,0,9.243-12.425,12.819-15.807
			c0,0,5.703,9,18.398,10.276l0.708-1.584c0,0-10.107-4.657-13.219-11.816c-3.111-7.159-4.361-10.212-7.191-12.079
			c-1.763-1.164-2.818-1.958-3.364-2.393c-0.299-0.237-0.711-0.265-1.037-0.065C53.248,224.402,39.113,234.082,35.612,256.039z"/>
		<path fill="#5566FF" d="M61.58,239.91c-0.088,0-0.176-0.04-0.234-0.117c-2.191-2.857-3.449-6.105-3.461-6.137
			c-0.059-0.151,0.018-0.323,0.169-0.382c0.152-0.058,0.323,0.018,0.382,0.171c0.013,0.031,1.242,3.202,3.378,5.988
			c0.099,0.129,0.075,0.315-0.055,0.415C61.706,239.89,61.642,239.91,61.58,239.91z"/>
		
			<linearGradient id="SVGID_11_" gradientUnits="userSpaceOnUse" x1="71.1917" y1="98.1094" x2="82.2146" y2="98.1094" gradientTransform="matrix(1 0 0 -1 8.3999 346.0996)">
			<stop  offset="0" style="stop-color:#FF928E"/>
			<stop  offset="1" style="stop-color:#FEB3B1"/>
		</linearGradient>
		<path fill="url(#SVGID_11_)" d="M79.592,248.1l1.428-0.381l4.338-1.005c0.523-0.12,1.072-0.028,1.525,0.257l3.731,2.347
			l-10.302-0.017L79.592,248.1z"/>
		<g>
			
				<linearGradient id="SVGID_12_" gradientUnits="userSpaceOnUse" x1="-229.469" y1="-1432.6812" x2="-240.1968" y2="-1446.8732" gradientTransform="matrix(0.9897 -0.1428 -0.1428 -0.9897 93.3068 -1236.8552)">
				<stop  offset="0" style="stop-color:#FF928E"/>
				<stop  offset="1" style="stop-color:#FEB3B1"/>
			</linearGradient>
			<path fill="url(#SVGID_12_)" d="M72.863,213.475c0.02,0.142-1.849,9.302-1.849,9.302l-5.208-1.178l0.481-8.946
				C66.287,212.652,72.526,211.133,72.863,213.475z"/>
			
				<linearGradient id="SVGID_13_" gradientUnits="userSpaceOnUse" x1="-237.6604" y1="-1436.1045" x2="-224.8469" y2="-1436.1045" gradientTransform="matrix(0.9897 -0.1428 -0.1428 -0.9897 93.3068 -1236.8552)">
				<stop  offset="0" style="stop-color:#020039"/>
				<stop  offset="1" style="stop-color:#090056"/>
			</linearGradient>
			<path fill="url(#SVGID_13_)" d="M67.459,214.646l-0.622,4.689c-0.009,0.06-0.009,0.121,0,0.18c0.052,0.368,0.326,1.62,1.59,1.262
				c1.146-0.325,2.197-0.605,2.923-0.382c0.326,0.1,0.523,0.43,0.455,0.764c-0.17,0.832-0.588,2.702-1.199,4.27
				c-0.124,0.317-0.473,0.484-0.801,0.389c-0.988-0.288-3.054-0.953-4.591-1.878c-0.208-0.126-0.333-0.352-0.322-0.595
				c0.05-1.184,0.188-4.783,0.072-5.792c-0.109-0.946-1.271-1.514-1.776-1.718c-0.166-0.065-0.295-0.196-0.361-0.362
				c-0.234-0.585-0.557-1.942,1.152-2.497c0.357-0.117,0.546-0.502,0.418-0.855c-0.253-0.705-0.359-1.781,0.962-2.373
				c1.343-0.602,2.347,0.115,2.889,0.697c0.219,0.236,0.571,0.271,0.842,0.099c0.155-0.098,0.354-0.13,0.595,0.021
				c0.324,0.202,0.754,0.064,0.922-0.279c0.321-0.66,0.977-1.368,2.292-1.142c2.334,0.398,2.599,2.985,1.982,4.501
				c-0.615,1.515-3.121,0.938-4.378,0.175c-0.956-0.581-2.195,0.027-2.735,0.353C67.598,214.272,67.486,214.448,67.459,214.646z"/>
			
				<linearGradient id="SVGID_14_" gradientUnits="userSpaceOnUse" x1="-245.1829" y1="-1443.9238" x2="-236.5752" y2="-1435.0927" gradientTransform="matrix(0.9897 -0.1428 -0.1428 -0.9897 93.3068 -1236.8552)">
				<stop  offset="0" style="stop-color:#FF928E"/>
				<stop  offset="1" style="stop-color:#FEB3B1"/>
			</linearGradient>
			<path fill="url(#SVGID_14_)" d="M64.754,219.262c0,0,0.959-2.688-0.026-3.346c-0.985-0.657-2.446-0.315-2.125,1.631
				C63.004,219.969,64.754,219.262,64.754,219.262z"/>
		</g>
	</g>
	<g>
		<g>
			
				<linearGradient id="SVGID_15_" gradientUnits="userSpaceOnUse" x1="93.4773" y1="138.25" x2="83.7609" y2="111.1058" gradientTransform="matrix(1 0 0 -1 8.3999 346.0996)">
				<stop  offset="0" style="stop-color:#09005D"/>
				<stop  offset="1" style="stop-color:#1A0F91"/>
			</linearGradient>
			<path fill="url(#SVGID_15_)" d="M75.611,251.339c0.017,0.002,0.034,0.002,0.051,0.002l22.008-0.022
				c0.544,0,0.985-0.44,0.984-0.984c-0.001-0.543-0.443-0.992-0.987-0.981l-22.008,0.021c-0.543,0-0.984,0.442-0.983,0.984
				C74.676,250.884,75.09,251.313,75.611,251.339z"/>
		</g>
		<g>
			
				<linearGradient id="SVGID_16_" gradientUnits="userSpaceOnUse" x1="-5958.9443" y1="531.2012" x2="-5988.4224" y2="502.7014" gradientTransform="matrix(0.6475 -1.2297 1.2274 0.6463 6595.5664 -8514.6641)">
				<stop  offset="0" style="stop-color:#09005D"/>
				<stop  offset="1" style="stop-color:#1A0F91"/>
			</linearGradient>
			<path fill="url(#SVGID_16_)" d="M106.193,229.785c-0.008,0.015-0.016,0.031-0.022,0.047l-9.26,19.964
				c-0.229,0.495-0.015,1.079,0.478,1.309c0.493,0.229,1.087,0.016,1.307-0.48l9.261-19.966c0.228-0.493,0.015-1.078-0.478-1.307
				C107.001,229.131,106.436,229.324,106.193,229.785z"/>
		</g>
	</g>
	<g>
		<path fill="#7D97F4" d="M85.41,252.442c-0.096,0.399-9.279,34.842-11.608,43.572c-0.268,1.007,0.481,1.994,1.512,1.994l0,0
			c0.718,0,1.344-0.494,1.518-1.199l10.194-41.331L85.41,252.442z"/>
		<path fill="#7D97F4" d="M90.44,252.442c0.096,0.399,9.279,34.842,11.607,43.572c0.269,1.007-0.481,1.994-1.511,1.994l0,0
			c-0.718,0-1.344-0.494-1.518-1.199l-10.193-41.331L90.44,252.442z"/>
		<path fill="#7D97F4" d="M90.822,251.318h-5.719v4.593c0,0.659,0.528,1.194,1.181,1.194h0.784v10.318
			c0,0.498,0.4,0.903,0.894,0.903l0,0c0.494,0,0.894-0.405,0.894-0.903v-10.318h0.399c0.866,0,1.567-0.71,1.567-1.586V251.318
			L90.822,251.318z"/>
		
			<linearGradient id="SVGID_17_" gradientUnits="userSpaceOnUse" x1="79.0212" y1="96.0894" x2="74.9633" y2="66.0857" gradientTransform="matrix(1 0 0 -1 8.3999 346.0996)">
			<stop  offset="0" style="stop-color:#020039"/>
			<stop  offset="1" style="stop-color:#090056"/>
		</linearGradient>
		<path fill="url(#SVGID_17_)" d="M71.04,250.214h31.936c0.446,0,0.835,0.306,0.947,0.745l0.446,1.747
			c0.16,0.629-0.311,1.241-0.953,1.237l-32.77-0.19c-0.635-0.005-1.098-0.608-0.943-1.232l0.388-1.558
			C70.2,250.522,70.592,250.214,71.04,250.214z"/>
	</g>
</g>
<g>
	<g>
		<path fill="#BDD0FB" d="M509.948,210.034c0,0-0.119-0.189-0.326-0.546c-0.092-0.156-0.039-0.354,0.116-0.444
			c0.099-0.058,0.214-0.058,0.31-0.011c0.042-0.206,0.097-0.452,0.161-0.727c0.042-0.176,0.218-0.283,0.393-0.242
			c0.174,0.042,0.282,0.217,0.241,0.392c-0.154,0.647-0.236,1.117-0.276,1.344c-0.011,0.063-0.02,0.106-0.024,0.129l-0.167,0.786
			L509.948,210.034z M508.583,207.608c-0.326-0.623-0.649-1.267-0.958-1.915c-0.078-0.163-0.01-0.356,0.153-0.434
			c0.162-0.079,0.355-0.01,0.434,0.153c0.306,0.64,0.625,1.277,0.948,1.894c0.082,0.161,0.021,0.356-0.138,0.44
			c-0.027,0.014-0.057,0.025-0.086,0.03C508.799,207.806,508.653,207.74,508.583,207.608z M511.008,206.642
			c-0.171-0.058-0.262-0.244-0.204-0.413c0.237-0.699,0.505-1.376,0.795-2.012c0.075-0.164,0.269-0.234,0.431-0.161
			c0.165,0.075,0.236,0.268,0.161,0.432c-0.282,0.615-0.54,1.271-0.77,1.95c-0.039,0.112-0.134,0.191-0.243,0.213
			C511.123,206.663,511.065,206.66,511.008,206.642z M512.723,202.748c-0.152-0.094-0.199-0.294-0.105-0.446
			c0.396-0.639,0.826-1.232,1.28-1.762c0.116-0.137,0.322-0.152,0.459-0.036c0.137,0.117,0.152,0.323,0.035,0.458
			c-0.434,0.506-0.844,1.071-1.22,1.682c-0.05,0.079-0.128,0.13-0.213,0.146C512.881,202.807,512.797,202.794,512.723,202.748z
			 M506.737,203.745c-0.285-0.655-0.56-1.321-0.817-1.979c-0.066-0.167,0.017-0.356,0.185-0.422
			c0.167-0.065,0.355,0.017,0.421,0.185c0.256,0.65,0.527,1.31,0.809,1.957c0.071,0.164-0.005,0.356-0.169,0.428
			c-0.021,0.009-0.044,0.017-0.065,0.021C506.952,203.964,506.799,203.889,506.737,203.745z M515.416,199.476
			c-0.112-0.143-0.088-0.347,0.053-0.457c0.411-0.329,0.847-0.624,1.295-0.877c0.179-0.104,0.352-0.205,0.517-0.307
			c0.152-0.096,0.353-0.047,0.446,0.105c0.095,0.154,0.048,0.354-0.106,0.448c-0.171,0.105-0.35,0.212-0.536,0.316
			c-0.418,0.238-0.824,0.515-1.211,0.822c-0.041,0.032-0.089,0.054-0.137,0.063C515.619,199.615,515.495,199.574,515.416,199.476z
			 M523.438,197.083c-0.044-0.137,0.006-0.282,0.116-0.363c0.06-0.382,0.223-0.761,0.494-1.175c0.1-0.15,0.301-0.191,0.45-0.094
			c0.151,0.099,0.192,0.3,0.095,0.45c-0.344,0.523-0.465,0.946-0.402,1.409l-0.632,0.144L523.438,197.083z M518.923,197.076
			c-0.118-0.137-0.104-0.342,0.031-0.461c0.554-0.482,1.011-0.992,1.358-1.513c0.101-0.148,0.302-0.19,0.451-0.09
			s0.189,0.302,0.09,0.452c-0.38,0.567-0.873,1.119-1.472,1.641c-0.045,0.039-0.095,0.063-0.148,0.075
			C519.122,197.202,519.003,197.167,518.923,197.076z M505.177,199.755c-0.235-0.679-0.458-1.364-0.661-2.038
			c-0.052-0.172,0.046-0.354,0.218-0.404c0.174-0.051,0.354,0.045,0.406,0.218c0.199,0.664,0.419,1.341,0.652,2.013
			c0.059,0.169-0.031,0.354-0.201,0.413c-0.014,0.005-0.027,0.01-0.041,0.012C505.393,200,505.231,199.911,505.177,199.755z
			 M522.76,195.063c-0.267-0.778-0.507-1.451-0.713-2.002c-0.063-0.168,0.021-0.354,0.19-0.419c0.168-0.06,0.356,0.023,0.418,0.191
			c0.208,0.554,0.45,1.233,0.72,2.018c0.058,0.17-0.032,0.355-0.202,0.413c-0.013,0.005-0.027,0.009-0.041,0.013
			C522.974,195.309,522.814,195.22,522.76,195.063z M525.448,194.319c-0.136-0.115-0.152-0.321-0.035-0.458
			c0.407-0.475,0.847-1.003,1.31-1.643c0.105-0.145,0.309-0.178,0.454-0.072s0.178,0.309,0.073,0.454
			c-0.478,0.658-0.927,1.198-1.342,1.684c-0.05,0.057-0.115,0.094-0.183,0.107C525.629,194.411,525.528,194.388,525.448,194.319z
			 M521.346,193.658c-0.176-0.035-0.29-0.206-0.255-0.384c0.137-0.685,0.086-1.248,0.054-1.622
			c-0.015-0.151-0.024-0.272-0.023-0.363c0.002-0.045,0.005-0.082,0.01-0.114c0.022-0.179,0.187-0.282,0.364-0.259
			c0.178,0.025,0.302,0.209,0.277,0.387c-0.002,0.073,0.008,0.171,0.019,0.291c0.035,0.386,0.093,1.033-0.062,1.809
			c-0.026,0.133-0.13,0.229-0.255,0.255C521.434,193.667,521.391,193.667,521.346,193.658z M503.946,195.649
			c-0.157-0.62-0.3-1.244-0.424-1.853l-0.05-0.239c-0.035-0.176,0.079-0.347,0.253-0.382c0.001-0.001,0.002-0.001,0.002-0.001
			c0.177-0.035,0.349,0.079,0.384,0.256l0.047,0.236c0.123,0.598,0.265,1.212,0.417,1.824c0.045,0.174-0.061,0.352-0.235,0.396
			c-0.005,0.001-0.009,0.001-0.014,0.003C504.156,195.924,503.987,195.819,503.946,195.649z M527.975,190.904
			c-0.155-0.089-0.211-0.287-0.122-0.442c0.335-0.592,0.648-1.222,0.934-1.872c0.072-0.165,0.265-0.239,0.429-0.168
			c0.165,0.072,0.239,0.265,0.168,0.429c-0.294,0.671-0.619,1.321-0.965,1.932c-0.048,0.085-0.129,0.139-0.218,0.158
			C528.126,190.956,528.047,190.944,527.975,190.904z M529.745,187.044c-0.171-0.057-0.262-0.242-0.204-0.413
			c0.047-0.141,0.094-0.284,0.14-0.43c0.167-0.523,0.304-1.054,0.407-1.581c0.034-0.175,0.204-0.29,0.382-0.256
			c0.177,0.035,0.291,0.206,0.256,0.382c-0.106,0.551-0.25,1.106-0.424,1.65c-0.048,0.15-0.096,0.298-0.145,0.442
			c-0.038,0.113-0.133,0.193-0.243,0.215C529.86,187.065,529.802,187.063,529.745,187.044z M503.478,191.718
			c-0.178,0.025-0.343-0.097-0.368-0.276c-0.101-0.719-0.182-1.438-0.236-2.135c-0.016-0.179,0.116-0.341,0.299-0.35
			c0.178-0.015,0.335,0.119,0.35,0.298c0.054,0.685,0.132,1.39,0.232,2.097c0.023,0.171-0.089,0.329-0.256,0.363
			C503.492,191.716,503.485,191.718,503.478,191.718z M530.646,182.896c-0.18-0.007-0.319-0.159-0.313-0.338
			c0.03-0.688,0.008-1.387-0.067-2.077c-0.02-0.179,0.107-0.333,0.288-0.359c0.178-0.02,0.339,0.11,0.358,0.288
			c0.079,0.722,0.104,1.454,0.072,2.175c-0.007,0.152-0.117,0.275-0.26,0.305C530.7,182.896,530.672,182.898,530.646,182.896z
			 M503.105,187.479c-0.18,0.003-0.326-0.143-0.328-0.321c-0.007-0.727,0.015-1.451,0.062-2.153
			c0.013-0.179,0.168-0.314,0.347-0.303c0.179,0.013,0.314,0.168,0.303,0.348c-0.047,0.685-0.067,1.392-0.061,2.103
			c0.002,0.157-0.109,0.291-0.259,0.322C503.147,187.478,503.126,187.48,503.105,187.479z M529.888,178.437
			c-0.172-0.664-0.396-1.328-0.663-1.974c-0.069-0.166,0.01-0.356,0.176-0.424c0.165-0.07,0.356,0.009,0.426,0.175
			c0.278,0.674,0.512,1.366,0.691,2.06c0.045,0.174-0.06,0.351-0.232,0.396c-0.007,0.002-0.012,0.002-0.018,0.003
			C530.1,178.708,529.932,178.604,529.888,178.437z M503.348,183.235c-0.178-0.027-0.3-0.194-0.271-0.371
			c0.112-0.718,0.257-1.429,0.432-2.114c0.045-0.174,0.222-0.278,0.396-0.235c0.174,0.044,0.278,0.223,0.235,0.396
			c-0.17,0.667-0.311,1.355-0.42,2.053c-0.022,0.139-0.127,0.242-0.257,0.27C503.425,183.24,503.388,183.241,503.348,183.235z
			 M528.297,174.599c-0.548-0.932-1.017-1.485-1.134-1.598l-0.775-0.548c-0.146-0.104-0.181-0.307-0.076-0.454
			c0.103-0.146,0.306-0.18,0.452-0.078l0.751,0.533l-0.004,0.003c0.387,0.271,1.104,1.396,1.347,1.811
			c0.092,0.155,0.04,0.355-0.114,0.446c-0.032,0.019-0.066,0.032-0.101,0.039C528.511,174.78,528.37,174.722,528.297,174.599z
			 M504.341,179.104c-0.169-0.062-0.255-0.249-0.193-0.418c0.25-0.678,0.537-1.346,0.854-1.984c0.081-0.162,0.275-0.227,0.437-0.146
			c0.161,0.08,0.227,0.274,0.146,0.436c-0.307,0.618-0.584,1.264-0.826,1.92c-0.04,0.11-0.133,0.185-0.239,0.206
			C504.46,179.13,504.4,179.126,504.341,179.104z M506.165,175.27c-0.15-0.097-0.195-0.298-0.098-0.449
			c0.386-0.601,0.811-1.19,1.266-1.751c0.112-0.139,0.316-0.16,0.457-0.048c0.14,0.112,0.161,0.317,0.047,0.457
			c-0.438,0.544-0.85,1.113-1.222,1.694c-0.05,0.077-0.126,0.125-0.208,0.142S506.239,175.317,506.165,175.27z M524.65,171.222
			l-1.735-1.229c-0.146-0.104-0.182-0.307-0.077-0.454c0.103-0.147,0.307-0.181,0.453-0.077l1.737,1.229
			c0.146,0.104,0.181,0.308,0.077,0.454c-0.051,0.071-0.122,0.115-0.2,0.131C524.82,171.293,524.727,171.277,524.65,171.222z
			 M508.777,171.924c-0.126-0.127-0.127-0.333,0-0.461c0.496-0.498,1.033-0.986,1.597-1.451c0.138-0.114,0.342-0.096,0.457,0.043
			c0.113,0.139,0.094,0.344-0.044,0.458c-0.546,0.451-1.067,0.926-1.55,1.409c-0.047,0.047-0.104,0.076-0.164,0.089
			C508.969,172.033,508.858,172.004,508.777,171.924z M521.176,168.764l-1.736-1.231c-0.146-0.103-0.181-0.307-0.078-0.452
			c0.104-0.148,0.308-0.182,0.454-0.078l1.736,1.23c0.146,0.103,0.182,0.307,0.078,0.454c-0.05,0.07-0.122,0.114-0.201,0.13
			C521.346,168.833,521.253,168.817,521.176,168.764z M512.009,169.169c-0.102-0.148-0.063-0.351,0.084-0.453
			c0.576-0.395,1.188-0.781,1.82-1.146c0.156-0.092,0.355-0.037,0.443,0.119c0.091,0.155,0.038,0.354-0.117,0.444
			c-0.618,0.355-1.216,0.732-1.778,1.12c-0.037,0.024-0.077,0.042-0.118,0.05C512.219,169.33,512.084,169.281,512.009,169.169z
			 M515.662,167c-0.079-0.162-0.011-0.356,0.149-0.435c0.613-0.298,1.255-0.586,1.911-0.858l0.166-0.069l0.188,0.135
			c0.147,0.104,0.182,0.307,0.078,0.453c-0.072,0.103-0.191,0.15-0.309,0.134c-0.6,0.251-1.188,0.517-1.75,0.79
			c-0.024,0.012-0.051,0.021-0.077,0.027C515.878,167.205,515.729,167.137,515.662,167z"/>
	</g>
	
		<linearGradient id="SVGID_18_" gradientUnits="userSpaceOnUse" x1="-742.2917" y1="4709.4121" x2="-739.5868" y2="4736.0752" gradientTransform="matrix(-0.8846 -0.4662 0.4662 -0.8846 -2340.7686 4016.2771)">
		<stop  offset="0" style="stop-color:#FF928E"/>
		<stop  offset="1" style="stop-color:#FE7062"/>
	</linearGradient>
	<path fill="url(#SVGID_18_)" d="M523.194,170.43c0,0,5.474,7.682,0.267,12.308c-5.204,4.626-11.604,8.001-11.814,11.271
		c0,0-7.656-16.779,8.637-25.191L523.194,170.43z"/>
	
		<linearGradient id="SVGID_19_" gradientUnits="userSpaceOnUse" x1="-765.3484" y1="4724.71" x2="-755.1074" y2="4745.5781" gradientTransform="matrix(-0.8846 -0.4662 0.4662 -0.8846 -2340.7686 4016.2771)">
		<stop  offset="0" style="stop-color:#FEB3B1"/>
		<stop  offset="1" style="stop-color:#FF928E"/>
	</linearGradient>
	<path fill="url(#SVGID_19_)" d="M539.972,159.797c0,0,7.675,5.183,7.362,8.306c-0.298,2.971-11.466,20.716-12.555,22.441
		c-0.048,0.076-0.147,0.102-0.229,0.059l0,0c-0.671-0.354-1.132-1.005-1.243-1.755c-0.533-3.625-2.032-14.463-1.435-17.887
		C532.595,166.829,539.972,159.797,539.972,159.797z"/>
	<path fill="#FFFFFF" d="M537.674,183.592c0.057-0.011,0.107-0.046,0.14-0.099c0.059-0.099,6.008-9.922,8.402-14.251
		c0.427-0.77,0.361-1.721-0.172-2.421c-1.022-1.349-2.646-3.3-4.566-4.938c-0.089-0.076-0.223-0.066-0.3,0.024
		c-0.076,0.089-0.065,0.223,0.023,0.299c1.991,1.699,3.677,3.782,4.505,4.872c0.429,0.566,0.483,1.334,0.138,1.957
		c-2.391,4.322-8.335,14.139-8.395,14.237c-0.062,0.101-0.028,0.231,0.071,0.293C537.57,183.595,537.624,183.603,537.674,183.592z"
		/>
	
		<linearGradient id="SVGID_20_" gradientUnits="userSpaceOnUse" x1="-711.8494" y1="4723.7344" x2="-727.7902" y2="4750.689" gradientTransform="matrix(-0.8846 -0.4662 0.4662 -0.8846 -2340.7686 4016.2771)">
		<stop  offset="0" style="stop-color:#FEB3B1"/>
		<stop  offset="1" style="stop-color:#FF928E"/>
	</linearGradient>
	<path fill="url(#SVGID_20_)" d="M520.94,149.768c0,0-8.614-3.399-11.014-1.376c-2.282,1.925-10.605,21.169-11.412,23.043
		c-0.036,0.083,0,0.178,0.081,0.221l0,0c0.671,0.354,1.468,0.367,2.149,0.034c3.293-1.61,13.079-6.502,15.565-8.93
		C519.311,159.828,520.94,149.768,520.94,149.768z"/>
	<path fill="#FFFFFF" d="M502.851,165.244c0.065-0.014,0.122-0.056,0.151-0.12c0.048-0.106,4.785-10.56,6.996-14.975
		c0.318-0.636,0.984-1.026,1.693-0.992c1.366,0.066,4.037,0.28,6.565,0.96c0.113,0.031,0.229-0.037,0.26-0.15
		c0.031-0.114-0.036-0.229-0.149-0.261c-2.565-0.692-5.271-0.907-6.655-0.975c-0.878-0.041-1.698,0.44-2.094,1.226
		c-2.216,4.424-6.956,14.885-7.005,14.991c-0.047,0.106,0,0.232,0.107,0.281C502.763,165.248,502.808,165.252,502.851,165.244z"/>
	
		<linearGradient id="SVGID_21_" gradientUnits="userSpaceOnUse" x1="-2796.2844" y1="1626.3086" x2="-2784.3647" y2="1506.2607" gradientTransform="matrix(-0.9653 0.261 -0.261 -0.9653 -1742.7489 2434.5117)">
		<stop  offset="0" style="stop-color:#4F52FF"/>
		<stop  offset="1" style="stop-color:#4042E2"/>
	</linearGradient>
	<path fill="url(#SVGID_21_)" d="M554.365,132.226c-0.759,4.438-2.211,9.263-4.769,14.152
		c-7.941,15.177-16.404,24.958-18.883,27.675c-0.45,0.492-1.131,0.69-1.777,0.532c-5.094-1.245-9.617-3.585-13.57-7.016
		c-0.744-0.646-1.06-1.658-0.827-2.615c1.009-4.153,4.348-16.232,12.029-30.709c2.566-4.837,5.697-8.741,8.902-11.866
		C544.087,124.237,550.752,129.198,554.365,132.226z"/>
	
		<linearGradient id="SVGID_22_" gradientUnits="userSpaceOnUse" x1="-731.9158" y1="4799.3555" x2="-753.557" y2="4768.0532" gradientTransform="matrix(-0.8846 -0.4662 0.4662 -0.8846 -2340.7686 4016.2771)">
		<stop  offset="0" style="stop-color:#FEB3B1"/>
		<stop  offset="1" style="stop-color:#FF928E"/>
	</linearGradient>
	<path fill="url(#SVGID_22_)" d="M535.47,122.379c7.08-6.9,14.525-9.994,17.063-10.91c0.494-0.179,1.033,0.106,1.167,0.616
		c0.677,2.6,2.325,10.445,0.664,20.14C550.752,129.198,544.087,124.237,535.47,122.379z"/>
	<g>
		
			<linearGradient id="SVGID_23_" gradientUnits="userSpaceOnUse" x1="-2930.7585" y1="866.6738" x2="-2890.2188" y2="869.9697" gradientTransform="matrix(-0.9079 0.4192 -0.4192 -0.9079 -1711.3723 2137.2666)">
			<stop  offset="0" style="stop-color:#4F52FF"/>
			<stop  offset="1" style="stop-color:#4042E2"/>
		</linearGradient>
		<path fill="url(#SVGID_23_)" d="M530.994,135.302c-2.069,3.925-0.332,8.907,3.882,11.126c4.212,2.22,9.305,0.837,11.373-3.087
			c2.067-3.925,0.329-8.906-3.883-11.127C538.154,129.995,533.062,131.376,530.994,135.302z"/>
		
			<ellipse transform="matrix(-0.4662 0.8847 -0.8847 -0.4662 912.5707 -272.5909)" fill="#91B3FA" cx="538.521" cy="139.01" rx="6.401" ry="6.87"/>
		<path fill="#FFFFFF" d="M543.324,140.2c0.082-0.018,0.148-0.081,0.165-0.169c0.425-2.233-0.743-4.566-2.84-5.671
			c-0.528-0.278-1.091-0.469-1.67-0.567c-0.117-0.02-0.226,0.057-0.246,0.173c-0.021,0.117,0.059,0.226,0.175,0.246
			c0.534,0.091,1.055,0.268,1.543,0.525c1.934,1.017,3.011,3.162,2.622,5.213c-0.023,0.116,0.053,0.228,0.168,0.249
			C543.269,140.206,543.298,140.205,543.324,140.2z"/>
	</g>
	<g>
		
			<linearGradient id="SVGID_24_" gradientUnits="userSpaceOnUse" x1="-2929.8782" y1="855.8906" x2="-2889.3403" y2="859.1864" gradientTransform="matrix(-0.9079 0.4192 -0.4192 -0.9079 -1711.3723 2137.2666)">
			<stop  offset="0" style="stop-color:#4F52FF"/>
			<stop  offset="1" style="stop-color:#4042E2"/>
		</linearGradient>
		<path fill="url(#SVGID_24_)" d="M526.056,150.949c-1.366,2.593-0.218,5.884,2.565,7.35s6.146,0.554,7.513-2.04
			c1.366-2.593,0.218-5.884-2.565-7.351C530.785,147.442,527.421,148.356,526.056,150.949z"/>
		
			<ellipse transform="matrix(-0.4661 0.8847 -0.8847 -0.4661 914.2802 -244.9041)" fill="#91B3FA" cx="531.031" cy="153.399" rx="4.229" ry="4.538"/>
		<path fill="#FFFFFF" d="M534.216,154.255c0.082-0.016,0.149-0.08,0.166-0.168c0.287-1.506-0.5-3.08-1.912-3.824
			c-0.357-0.187-0.735-0.315-1.127-0.381c-0.114-0.021-0.226,0.057-0.245,0.174c-0.019,0.115,0.059,0.226,0.174,0.245
			c0.347,0.06,0.684,0.173,0.999,0.339c1.249,0.658,1.945,2.043,1.693,3.369c-0.021,0.115,0.054,0.227,0.17,0.249
			C534.162,154.262,534.19,154.26,534.216,154.255z"/>
	</g>
</g>
</svg>
