<svg id="Capa_1" enable-background="new 0 0 512 512" height="512" viewBox="0 0 512 512" width="512" xmlns="http://www.w3.org/2000/svg" xmlns:xlink="http://www.w3.org/1999/xlink"><linearGradient id="SVGID_1_" gradientTransform="matrix(1 0 0 -1 -561.6 -8714.99)" gradientUnits="userSpaceOnUse" x1="1107.015" x2="706.535" y1="-8892.877" y2="-9035.37"><stop offset="0" stop-color="#d2dbfc" stop-opacity="0"/><stop offset="1" stop-color="#b8c1fb"/></linearGradient><g><path d="m364.823 55.215c-69.098-27.035-164.784-16.764-217.662 31.51-37.336 34.085-8.439 43.8 17.016 106.17 18.423 45.14-164.177 38.927-164.177 120.495 0 94.299 132.251 76.424 181.329 87.218 75.036 16.504 140.496 78.242 220.668 70.103 69.795-7.086 96.403-61.855 106.109-124.642 18.082-116.976-26.329-245.094-143.283-290.854z" fill="url(#SVGID_1_)"/><path d="m413.97 418.554h-20.52v-193.146c0-11.474 19-20.843 19-20.843v-107.011c0-5.523-4.477-10-10-10h-111c-5.523 0-10 4.477-10 10v107h-177.274c-11.447 0-20.726 9.33-20.726 20.85v193.15h-20.524c-6.89 0-12.476 5.586-12.476 12.476v11.55c0 12.132 9.8 21.974 21.904 21.974h332.192c12.104 0 21.904-9.842 21.904-21.974v-11.505c-.001-6.917-5.588-12.521-12.48-12.521z" fill="#2b2ab5" opacity=".11"/><path d="m411.45 207.423v209.126c0 2.763-2.243 5.005-5.008 5.005h-304.992v-214.13c0-11.531 9.344-20.87 20.872-20.87h268.257c11.526 0 20.871 9.339 20.871 20.869z" fill="#fff"/><path d="m238.45 375.554h-102v-127c0-2.761 2.238-5 5-5h92c2.761 0 5 2.239 5 5z" fill="#6e80f8"/><path d="m411.45 375.554v41c0 2.761-2.239 5-5 5h-305v-46z" fill="#fff"/><path d="m444.449 413.273v11.383c0 12.09-9.8 21.898-21.904 21.898h-332.192c-12.104 0-21.904-9.808-21.904-21.898v-11.626c0-6.89 5.586-12.476 12.476-12.476h107.073c1.864 0 3.573 1.037 4.435 2.689l6.579 12.621c.861 1.653 2.571 2.689 4.435 2.689h106.008c1.863 0 3.572-1.036 4.434-2.689l6.579-12.623c.861-1.652 2.57-2.689 4.434-2.689h107.068c6.892.002 12.479 5.696 12.479 12.721z" fill="#fff"/><path d="m149.45 418.554h-43c-2.761 0-5-2.239-5-5v-13h53v13c0 2.761-2.239 5-5 5z" fill="#6e80f8"/><path d="m405.45 418.554h-43c-2.761 0-5-2.239-5-5v-13h53v13c0 2.761-2.239 5-5 5z" fill="#6e80f8"/><path d="m423.451 284.554h-111.001c-5.523 0-10-4.477-10-10v-198c0-5.523 4.477-10 10-10h111c5.523 0 10 4.477 10 10v198.001c0 5.522-4.477 9.999-9.999 9.999z" fill="#fff"/><path d="m355.45 77.702v-12.148h25v12.531c0 7.293-6.215 13.131-13.626 12.48-6.519-.572-11.374-6.318-11.374-12.863z" fill="#6e80f8"/><path d="m214.046 320.554h-53.953c-2.403 0-4.612-1.609-5.084-3.965-.644-3.214 1.796-6.035 4.896-6.035h53.953c2.403 0 4.612 1.609 5.084 3.965.644 3.214-1.796 6.035-4.896 6.035z" fill="#2b2ab5"/><path d="m362.181 337.554h-202.087c-2.403 0-4.612-1.609-5.084-3.965-.644-3.214 1.796-6.035 4.896-6.035h202.087c2.403 0 4.612 1.609 5.084 3.965.644 3.214-1.796 6.035-4.896 6.035z" fill="#2b2ab5"/><path d="m362.181 355.554h-202.087c-2.403 0-4.612-1.609-5.084-3.965-.644-3.214 1.796-6.035 4.896-6.035h202.087c2.403 0 4.612 1.609 5.084 3.965.644 3.214-1.796 6.035-4.896 6.035z" fill="#2b2ab5"/><path d="m213.124 164.813c-3.74 0-7.479-1.423-10.326-4.271-5.693-5.692-5.693-14.957 0-20.651 5.695-5.694 14.959-5.693 20.652-.001 5.694 5.695 5.693 14.96 0 20.652v.001c-2.847 2.846-6.587 4.27-10.326 4.27zm6.959-8.259h.01zm-6.791-10.939c-1.179 0-2.357.448-3.255 1.346-1.794 1.795-1.795 4.716 0 6.511 1.794 1.793 4.714 1.794 6.51-.001 1.794-1.794 1.794-4.715-.001-6.51-.897-.897-2.075-1.346-3.254-1.346z" fill="#6e80f8"/><path d="m68.049 360.836c-3.739 0-7.479-1.423-10.326-4.271-5.693-5.693-5.693-14.957 0-20.65 5.695-5.696 14.958-5.694 20.652 0 5.693 5.693 5.693 14.957 0 20.65-2.847 2.848-6.586 4.271-10.326 4.271zm0-19.196c-1.178 0-2.357.449-3.254 1.346-1.794 1.795-1.794 4.715 0 6.51 1.795 1.793 4.714 1.792 6.509 0 1.794-1.795 1.794-4.715 0-6.51-.897-.897-2.076-1.346-3.255-1.346z" fill="#6e80f8"/><path d="m109.862 175.888c-3.901 0-7.568-1.52-10.326-4.278-5.693-5.693-5.693-14.957 0-20.65 5.693-5.695 14.958-5.695 20.652 0 5.693 5.693 5.693 14.957 0 20.65h.001c-.001 0-.001 0-.001 0-2.759 2.758-6.426 4.278-10.326 4.278zm0-19.204c-1.179 0-2.357.449-3.255 1.347-1.794 1.794-1.794 4.714 0 6.509.87.869 2.025 1.349 3.255 1.349 1.229 0 2.385-.479 3.254-1.349 1.794-1.795 1.794-4.715 0-6.51-.897-.897-2.075-1.346-3.254-1.346z" fill="#6e80f8"/><path d="m254.512 124.554h-3.063v-3.062c0-2.403-1.609-4.612-3.965-5.084-3.214-.644-6.035 1.796-6.035 4.896v3.25h-3.062c-2.404 0-4.613 1.61-5.085 3.968-.642 3.214 1.799 6.032 4.897 6.032h3.25v3.062c0 2.403 1.609 4.612 3.965 5.084 3.214.644 6.035-1.796 6.035-4.896v-3.25h3.25c3.099 0 5.539-2.818 4.897-6.032-.471-2.358-2.68-3.968-5.084-3.968z" fill="#6e80f8"/><path d="m452.512 316.554h-3.063v-3.063c0-2.404-1.611-4.613-3.968-5.084-3.214-.642-6.032 1.797-6.032 4.897v3.25h-3.063c-2.404 0-4.613 1.611-5.084 3.968-.642 3.214 1.797 6.032 4.897 6.032h3.25v3.063c0 2.404 1.611 4.613 3.968 5.084 3.214.642 6.032-1.797 6.032-4.897v-3.25h3.25c3.099 0 5.539-2.818 4.897-6.032-.471-2.358-2.681-3.968-5.084-3.968z" fill="#6e80f8"/><g fill="#2b2ab5"><path d="m431.971 395.554h-15.521v-106h7c8.284 0 15-6.716 15-15v-198c0-8.284-6.716-15-15-15h-111c-8.284 0-15 6.716-15 15v105h-178.6c-12.371 0-22.4 10.029-22.4 22.4v66.111c0 .273.102.544.29.742 4.358 4.569 9.71 1.551 9.71-2.719v-60.689c0-8.751 7.094-15.845 15.845-15.845h175.155v83.67c0 7.914 6.416 14.33 14.33 14.33h72.402c.516 0 1.007-.222 1.364-.594 4.118-4.304 1.142-9.406-3.028-9.406h-69.292c-3.19 0-5.776-2.586-5.776-5.776v-197.224c0-2.761 2.239-5 5-5h38v7.034c0 10.402 8.52 18.792 18.89 17.973 9.002-.712 16.11-8.278 16.11-17.476v-8.53h38c2.761 0 5 2.239 5 5v199c0 2.761-2.239 5-5 5h-12c-2.761 0-5 2.239-5 5v86h-300v-74.817c0-2.4-1.606-4.605-3.958-5.083-3.217-.654-6.042 1.803-6.042 4.925v99.975l-15.524-.001c-9.652-.001-17.476 7.823-17.476 17.475v11.629c0 14.855 12.042 26.897 26.897 26.897h332.205c14.855 0 26.898-12.043 26.898-26.898v-11.577c.001-9.663-7.842-17.526-17.479-17.526zm-56.522-317c0 5.255-4.774 9.344-9.938 7.588-3.084-1.049-5.062-4.073-5.062-7.331v-8.257h15zm30.004 335h-43.003v-8h43zm.997-33v15l-82.941.001c-3.779 0-7.229 2.073-9.003 5.411l-6.687 12.588h-104.686l-6.688-12.59c-1.774-3.337-5.224-5.41-9.003-5.41l-80.993-.001v-14.999zm-256.997 33h-43.003v-8h43zm288.995 11c0 9.374-7.627 17-17.001 17h-331.1c-9.332 0-16.897-7.565-16.897-16.897v-11.627c0-4.129 3.347-7.476 7.476-7.476h15.524v8c0 5.523 4.477 10 10 10h43c5.523 0 10-4.477 10-10v-8h27.943l6.56 12.587c1.739 3.339 5.124 5.413 8.832 5.413h105.976c3.728 0 7.146-2.073 8.869-5.379l6.577-12.62h28.242v7.999c0 5.523 4.477 10 10 10h43c5.523 0 10-4.477 10-10v-8h15.524c4.129 0 7.476 3.347 7.476 7.476v11.524z"/><path d="m247.329 401.554h17.154c2.404 0 4.613-1.61 5.084-3.968.642-3.214-1.797-6.032-4.897-6.032h-17.154c-2.404 0-4.613 1.611-5.084 3.968-.642 3.214 1.798 6.032 4.897 6.032z"/><path d="m409.129 139.823c-.296-.148-.808-.269-1.139-.269h-58.381l-3.083-9.538c-.667-2.064-2.589-3.462-4.758-3.462h-14.148c-2.404 0-4.613 1.611-5.084 3.968-.642 3.214 1.797 6.032 4.897 6.032h10.613l12.285 38h-.745c-2.404 0-4.613 1.611-5.084 3.968-.642 3.214 1.797 6.032 4.897 6.032h56.363c.364 0 .676-.261.74-.619l7.396-41.428c.029-.164-.053-.327-.202-.402zm-11.189 34.731h-37.085l-7.759-24h49.129z"/><path d="m360.104 215.039c-7.175 0-13.012-5.837-13.012-13.012s5.837-13.012 13.012-13.012 13.012 5.837 13.012 13.012-5.837 13.012-13.012 13.012zm0-16.023c-1.661 0-3.012 1.351-3.012 3.012s1.351 3.012 3.012 3.012 3.012-1.351 3.012-3.012-1.35-3.012-3.012-3.012z"/><path d="m397.44 215.039c-7.175 0-13.012-5.837-13.012-13.012s5.837-13.012 13.012-13.012 13.013 5.837 13.013 13.012-5.838 13.012-13.013 13.012zm0-16.023c-1.661 0-3.012 1.351-3.012 3.012s1.351 3.012 3.012 3.012 3.013-1.351 3.013-3.012-1.351-3.012-3.013-3.012z"/><g><path d="m255.995 254.908c3.087 0 5.59-2.503 5.59-5.59s-2.503-5.59-5.59-5.59-5.59 2.503-5.59 5.59c0 3.088 2.503 5.59 5.59 5.59z"/><path d="m255.995 260.639c-3.087 0-5.59 2.503-5.59 5.59s2.503 5.59 5.59 5.59 5.59-2.503 5.59-5.59c0-3.088-2.503-5.59-5.59-5.59z"/><circle cx="255.995" cy="283.139" r="5.59"/><path d="m216.545 224.554h-58.712l-3.083-9.537c-.667-2.064-2.589-3.463-4.758-3.463h-14.352c-2.374 0-4.511 1.734-4.716 4.099-.231 2.667 1.865 4.901 4.483 4.901h10.864l12.283 38h-.744c-2.404 0-4.614 1.611-5.085 3.968-.642 3.214 1.799 6.032 4.897 6.032h52.85c2.415 0 4.484-1.731 4.908-4.109l6.067-33.987c.107-.599.138-1.217.018-1.813-.509-2.508-2.623-4.091-4.92-4.091zm-10.382 34h-37.085l-7.758-24h49.128z"/><path d="m168.328 273.229c-7.175 0-13.012 5.837-13.012 13.012s5.837 13.012 13.012 13.012 13.012-5.837 13.012-13.012-5.837-13.012-13.012-13.012zm0 16.023c-1.661 0-3.012-1.351-3.012-3.012s1.351-3.012 3.012-3.012 3.012 1.351 3.012 3.012-1.351 3.012-3.012 3.012z"/><path d="m205.665 273.229c-7.175 0-13.012 5.837-13.012 13.012s5.837 13.012 13.012 13.012 13.012-5.837 13.012-13.012-5.838-13.012-13.012-13.012zm0 16.023c-1.661 0-3.012-1.351-3.012-3.012s1.351-3.012 3.012-3.012 3.012 1.351 3.012 3.012-1.352 3.012-3.012 3.012z"/></g><path d="m401.615 261.554h-67.288c-2.404 0-4.613-1.61-5.084-3.968-.642-3.214 1.798-6.032 4.897-6.032h67.288c2.404 0 4.613 1.611 5.085 3.968.642 3.214-1.799 6.032-4.898 6.032z"/></g></g></svg>