<?xml version="1.0" encoding="utf-8"?>
<!-- Generator: Adobe Illustrator 16.0.3, SVG Export Plug-In . SVG Version: 6.00 Build 0)  -->
<!DOCTYPE svg PUBLIC "-//W3C//DTD SVG 1.1//EN" "http://www.w3.org/Graphics/SVG/1.1/DTD/svg11.dtd">
<svg version="1.1" xmlns="http://www.w3.org/2000/svg" xmlns:xlink="http://www.w3.org/1999/xlink" x="0px" y="0px"
	 width="650.69px" height="370px" viewBox="0 0 650.69 370" enable-background="new 0 0 650.69 370" xml:space="preserve">
<g id="Layer_1_1_">
</g>
<g id="Capa_2">
	<g>
		<g>
			<g>
				<g>
					<path fill="#2121B5" d="M602.717,242.748l20.619-3.396l7.116,48.537h-3.991c0,0-6.209-19.533-11.551-37.738h-1.522
						l-3.139,17.909l-11.937,18.173l-3.208-3.359l8.018-16.953L602.717,242.748z"/>
				</g>
			</g>
		</g>
		<g>
			<g>
				<g>
					<path fill="#4355FF" d="M602.717,242.748l20.619-3.396l-1.938-27.813c-0.137-2.275-2.611-3.833-5.358-3.382l-16.419,2.704
						c-2.746,0.452-4.588,2.727-3.99,4.921L602.717,242.748z"/>
				</g>
			</g>
		</g>
		<g>
			<g>
				<g>
					<path fill="#FF768D" d="M630.395,287.828h-4.057v3.113h8.229c0.543,0,0.729-1.221,0.255-1.482L630.395,287.828z"/>
				</g>
			</g>
		</g>
		<g>
			<g>
				<g>
					<path fill="#FF768D" d="M597.974,285.741l-2.869-2.868l-2.202,2.202l5.819,5.817c0.386,0.385,1.38-0.347,1.229-0.869
						L597.974,285.741z"/>
				</g>
			</g>
		</g>
		<g>
			<g>
				<g>
					<path fill="#4F42E3" d="M470.648,245.161h19.974l-0.532,42.671h-3.815c0,0-2.888-21.467-3.976-33.331h-2.645l-2.684,15.599
						l-11.091,11.911l-2.912-2.562l8.41-12.889c0,0-0.767-15.891-0.716-18.648C470.562,247.433,470.648,245.161,470.648,245.161z"/>
				</g>
			</g>
		</g>
		<g>
			<g>
				<g>
					<path fill="#FF768D" d="M470.648,245.161h19.974l2.495-26.53c0.223-2.166-1.87-4.022-4.53-4.022h-15.903
						c-2.661,0-4.752,1.857-4.529,4.022L470.648,245.161z"/>
				</g>
			</g>
		</g>
		<g>
			<g>
				<g>
					<path fill="#315611" d="M493.214,217.775l5.092,9.801l7.875-9.129c0-0.341,3.652,1.027,3.197,1.826
						c-0.74,1.297-5.82,11.641-9.815,15.864c-2.23,2.357-8.773-6.254-9.13-6.848c-0.568-0.948-1.341-6.816-1.446-10.092
						c-0.025-0.757,0.541-1.401,1.293-1.479l1.181-2.124C492.112,215.526,492.985,217.163,493.214,217.775z"/>
				</g>
			</g>
		</g>
		<g>
			<g>
				<g>
					<path fill="#FF768D" d="M469.8,215.481c0,0-9.233,9.849-12.493,12.953c-1.797,1.709,0,2.996,1.026,4.279
						c2.85,3.56,12.069,9.93,12.069,9.93l-0.514-5.393l-5.563-6.507c0,0,7.825-6.042,8.086-6.476c0.713-1.189,0.12-6.414,0.12-6.414
						L469.8,215.481z"/>
				</g>
			</g>
		</g>
		<g>
			<g>
				<g>
					<path fill="#4355FF" d="M490.143,287.777h-3.879v2.975h7.866c0.52,0,0.698-1.168,0.243-1.418L490.143,287.777z"/>
				</g>
			</g>
		</g>
		<g>
			<g>
				<g>
					<path fill="#4355FF" d="M465.88,282.011l-2.912-2.562l-1.965,2.232l5.905,5.195c0.391,0.342,1.295-0.414,1.12-0.902
						L465.88,282.011z"/>
				</g>
			</g>
		</g>
		<g>
			<g>
				<g>
					<g>
						<rect x="491.475" y="222.248" fill="#7162FC" width="0.344" height="14.484"/>
					</g>
				</g>
			</g>
		</g>
		<g>
			<g>
				<g>
					<path fill="#FE0449" d="M491.673,206.78l35.003,35.005c0,0,7.182,15.813-14.62,28.896c-16.591,9.955-35.651-9.41-49.231-9.41
						s-16.298,4.752-16.298,4.752s-8.326-14.343,7.809-31.572c9.191-9.812,23.427-6.449,29.879-14.26
						C490.663,212.382,491.673,206.78,491.673,206.78z"/>
				</g>
			</g>
			<g>
				<g>
					<path fill="#FF768D" d="M505.942,210.007c-2.716,2.714-9.507,6.789-11.544,22.405c-1.363,10.455-19.353,14.601-19.353,14.601
						s24.445,16.297,40.403-0.339c9.027-9.412,5.431-19.691,5.431-19.691L505.942,210.007z"/>
				</g>
			</g>
		</g>
		<g>
			<g>
				<g>
					<g>
						<path fill="#3232DB" d="M496.45,200.39l-30.415-9.803c0,0,8.342-15.675,22.643-18.205c16.129-2.854,27.556,2.324,27.556,2.324
							L496.45,200.39z"/>
					</g>
				</g>
				<g>
					<g>
						<path fill="#3232DB" d="M532.48,236.416l9.801,30.418c0,0,15.675-8.344,18.205-22.643c2.854-16.129-2.325-27.556-2.325-27.556
							L532.48,236.416z"/>
					</g>
				</g>
			</g>
			<g>
				<g>
					<path fill="#4F42E3" d="M603.267,181.204c19.542-30.105,20.069-71.829,20.069-71.829s-43.838,1.737-71.678,20.221
						c-22.215,14.75-59.985,77.185-59.985,77.185l35.16,35.16C526.014,242.934,589.875,201.833,603.267,181.204z"/>
				</g>
			</g>
			<g>
				<g>
					<path fill="#FF768D" d="M572.62,185.74c-7.126,7.125-18.681,7.125-25.806,0c-7.129-7.127-7.129-18.681,0-25.808
						c7.125-7.125,18.68-7.125,25.806,0C579.747,167.059,579.747,178.613,572.62,185.74z"/>
				</g>
				<g>
					<path fill="#FFFFFF" d="M559.717,193.885c-5.622,0-10.907-2.19-14.882-6.164c-8.207-8.208-8.207-21.562,0-29.768
						c3.975-3.975,9.26-6.164,14.882-6.164s10.908,2.189,14.883,6.164c8.207,8.207,8.207,21.56,0,29.768
						C570.625,191.694,565.339,193.885,559.717,193.885z M559.717,157.388c-4.125,0-8.006,1.607-10.925,4.525
						c-6.023,6.021-6.023,15.823,0,21.848c2.919,2.915,6.8,4.524,10.925,4.524c4.126,0,8.006-1.609,10.924-4.524
						c6.023-6.025,6.023-15.826,0-21.848C567.723,158.995,563.843,157.388,559.717,157.388z"/>
				</g>
			</g>
			<g>
				<g>
					<circle fill="#FF768D" cx="588.239" cy="144.313" r="9.605"/>
				</g>
				<g>
					<path fill="#FFFFFF" d="M588.241,156.716c-3.314,0-6.429-1.29-8.771-3.63c-2.343-2.346-3.634-5.46-3.634-8.774
						c0-3.313,1.291-6.428,3.634-8.769c2.343-2.342,5.457-3.633,8.771-3.633c3.313,0,6.427,1.292,8.771,3.633
						c4.836,4.834,4.836,12.704,0,17.543C594.668,155.427,591.555,156.716,588.241,156.716z M588.241,137.508
						c-1.819,0-3.527,0.708-4.813,1.992c-1.285,1.286-1.992,2.996-1.992,4.812c0,1.819,0.707,3.526,1.992,4.813
						c1.286,1.286,2.994,1.992,4.813,1.992c1.817,0,3.525-0.706,4.81-1.992c2.654-2.652,2.654-6.97,0-9.625
						C591.767,138.216,590.059,137.508,588.241,137.508z"/>
				</g>
			</g>
			<g>
				<g>
					<circle fill="#FF768D" cx="530.288" cy="202.265" r="9.604"/>
				</g>
				<g>
					<path fill="#FFFFFF" d="M530.288,214.669c-3.313,0-6.427-1.292-8.771-3.633c-2.341-2.344-3.633-5.458-3.633-8.771
						c0-3.313,1.292-6.428,3.633-8.772c2.344-2.34,5.458-3.634,8.771-3.634c3.314,0,6.429,1.293,8.772,3.634
						c4.836,4.836,4.836,12.707,0,17.543C536.717,213.377,533.603,214.669,530.288,214.669z M530.288,195.461
						c-1.817,0-3.526,0.706-4.812,1.994c-2.652,2.65-2.652,6.968,0,9.623c1.285,1.284,2.994,1.992,4.812,1.992
						c1.818,0,3.528-0.708,4.813-1.992c2.652-2.654,2.652-6.972,0-9.623C533.816,196.167,532.106,195.461,530.288,195.461z"/>
				</g>
			</g>
		</g>
		<g>
			<g>
				<g>
					<path fill="#FF9966" d="M480.732,217.418c-3.539,0-3.519-2.406-3.519-2.98v-3.918c0-0.885,1.321-0.81,2.11-0.81h2.533
						c0.786,0,2.108,0.719,2.108,1.603v3.125C483.966,215.006,483.594,217.418,480.732,217.418z"/>
				</g>
			</g>
		</g>
		<g>
			<g>
				<circle fill="#FF768D" cx="506.69" cy="158.999" r="4.044"/>
			</g>
		</g>
		<g>
			<g>
				<circle fill="#FE0449" cx="570.853" cy="222.464" r="2.177"/>
			</g>
		</g>
		<g>
			<g>
				<circle fill="#FE0449" cx="461.867" cy="169.783" r="2.722"/>
			</g>
		</g>
		<g>
			<g>
				<circle fill="#FE0449" cx="636.7" cy="141.868" r="0.851"/>
			</g>
		</g>
		<g>
			<g>
				<circle fill="#4F42E3" cx="489.191" cy="135.201" r="1.497"/>
			</g>
		</g>
		<g>
			<g>
				<path fill="#4F42E3" d="M645.203,163.301c0,0.925-0.75,1.673-1.673,1.673s-1.673-0.748-1.673-1.673
					c0-0.921,0.75-1.672,1.673-1.672S645.203,162.38,645.203,163.301z"/>
			</g>
		</g>
		<g>
			<g>
				<circle fill="#9CA1FF" cx="521.233" cy="127.968" r="3.267"/>
			</g>
		</g>
		<g>
			<g>
				<circle fill="#9CA1FF" cx="626.227" cy="171.962" r="2.178"/>
			</g>
		</g>
		<g>
			<g>
				<g>
					<path fill="#FF9966" d="M608.408,212.393c-3.652,0.602-4.04-1.884-4.138-2.479l-0.667-4.044
						c-0.15-0.914,1.228-1.063,2.041-1.197l2.614-0.431c0.813-0.133,2.3,0.383,2.45,1.299l0.53,3.223
						C611.337,209.354,611.363,211.909,608.408,212.393z"/>
				</g>
			</g>
		</g>
		<g>
			<defs>
				<path id="SVGID_1_" d="M612.706,203.503c-0.465,3.729-3.526,3.674-7.253,3.21c-3.728-0.467-6.371-3.863-5.906-7.59
					c0.465-3.729,3.863-6.372,7.59-5.907S613.172,199.779,612.706,203.503z"/>
			</defs>
			<use xlink:href="#SVGID_1_"  overflow="visible" fill="#FFB185"/>
			<clipPath id="SVGID_2_">
				<use xlink:href="#SVGID_1_"  overflow="visible"/>
			</clipPath>
			<g clip-path="url(#SVGID_2_)">
				<g>
					<g>
						<path fill="#FE0449" d="M604.065,197.13c0,0,0.39,2.368,0.063,2.423c-0.326,0.053-1.634-0.235-2.343,1.058
							c-0.71,1.292,0.458,2.273,1.562,2.342c1.102,0.071,0.824,2.97-1.79,2.898c-2.612-0.073-4.494-5.892-3.564-8.395
							c0.932-2.502,4.682-5.724,6.179-5.801c1.498-0.078,12.056,3.544,12.056,3.544L604.065,197.13z"/>
					</g>
				</g>
			</g>
		</g>
		<g>
			<g>
				<path fill="#FFB185" d="M478.977,197.055c3.562-0.003,6.08,2.09,7.119,6.125c1.036,4.037,0.486,6.826-3.004,7.614
					c-3.513,0.794-7.838-0.385-9.195-4.015C472.539,203.151,475.444,197.061,478.977,197.055z"/>
			</g>
		</g>
		<g>
			<g>
				<g>
					<path fill="#4355FF" d="M479.911,194.182c-1.858-0.7-3.054,1.802-4.489,2.91c-1.438,1.107-4.737,0.535-5.743,2.668
						c-1.005,2.138,1.833,4.444,2.291,5.553c0.459,1.113,0.515,4.041,2.021,5.283c1.365,1.125,3.869,1.197,5.956-0.803
						c1.366-1.306-1.509-3.194-2.293-4.469c-0.782-1.271-1.105-3.061,1.317-2.284c1.096,0.351,2.901,0.567,2.048-1.582
						C479.938,198.752,483.98,195.718,479.911,194.182z"/>
				</g>
			</g>
		</g>
		<g>
			<g>
				<path fill="#FF768D" d="M493.246,204.222c0,0-3.109-7.708-2.519-8.125c0.593-0.414,4.485-1.624,4.633-0.914
					c0.257,1.222,1.251,3.672,1.251,3.672L493.246,204.222z"/>
			</g>
		</g>
		<g>
			<g>
				<path fill="#FFB185" d="M490.728,196.098c-0.343-0.909,0.17-4.573,0.945-5.679c0.988-1.401,2.651-2.49,3.585-0.959
					c0.683,1.12-1.202,2.813-0.348,3.953c0.379,0.505,1.241-1.593,1.701-1.335c1.053,0.591-1.251,3.106-1.251,3.106L490.728,196.098
					z"/>
			</g>
		</g>
		<g>
			<g>
				<path fill="#FFB185" d="M584.851,186.685c0,0-1.716-7.57,2.227-7.362c3.94,0.21,2.129,8.453,2.129,8.453L584.851,186.685z"/>
			</g>
		</g>
		<g>
			<g>
				<path fill="#FFB185" d="M610.815,178.717c0,0,0.366-8.918-2.935-6.755c-3.326,2.176,0.321,8.639,0.321,8.639L610.815,178.717z"
					/>
			</g>
		</g>
		<g>
			<g>
				<path fill="#4355FF" d="M601.65,211.16c-1.706,0.089-14.361-6.16-14.518-6.938c-0.156-0.779,2.695-15.671,2.073-16.446
					c-0.622-0.779-3.731-1.558-4.355-1.091c-0.622,0.467-4.821,18.692-4.354,20.248c0.467,1.556,16.176,12.884,16.176,12.884
					L601.65,211.16z"/>
			</g>
		</g>
		<g>
			<g>
				<path fill="#4355FF" d="M614.112,209.286c1.487-0.839,5.801-14.256,5.179-15.5c-0.354-0.711-11.518-12.602-11.41-13.594
					c0.108-0.989,2.316-3.314,3.092-3.254c0.775,0.061,15.967,14.663,16.408,16.224c0.441,1.563-5.974,22.099-5.974,22.099
					L614.112,209.286z"/>
			</g>
		</g>
	</g>
	<g>
		<g>
			<circle fill="#2121B5" cx="14.419" cy="57.338" r="3.204"/>
		</g>
	</g>
	<g>
		<g>
			<circle fill="#FE0449" cx="33.18" cy="72.905" r="1.259"/>
		</g>
	</g>
	<g>
		<g>
			<g>
				<g>
					<path fill="#FE0449" d="M65.837,103.781c4.58,1.932,13.876,14.239,13.876,14.239l22.856,4.681l-0.54,4.326l-27.002-3.422
						c0,0-9.911-8.469-11.172-12.794C62.593,106.484,63.181,102.663,65.837,103.781z"/>
				</g>
			</g>
		</g>
		<g>
			<g>
				<g>
					<path fill="#FF768D" d="M76.492,98.149l68.752,4.513l-55.496,13.151l-14.421-15.18C74.403,99.662,75.153,98.062,76.492,98.149z
						"/>
				</g>
			</g>
			<g>
				<g>
					<path fill="#FE0449" d="M145.244,102.663l-55.496,13.151l-5.034,14.568c-0.513,1.481,1.045,2.833,2.441,2.117L145.244,102.663z
						"/>
				</g>
			</g>
			<g>
				<g>
					<polygon fill="#DD0044" points="87.155,132.499 96.094,120.521 145.244,102.663 					"/>
				</g>
			</g>
			<g>
				<g>
					<path fill="#FF768D" d="M96.094,120.521l49.15-17.858l-34.103,39.54c-1.027,1.191-2.935,0.953-3.637-0.453L96.094,120.521z"/>
				</g>
			</g>
		</g>
		<g>
			<g>
				<g>
					<path fill="#FE0449" d="M55.847,137.153l20.263-0.034l-6.127-28.112c-0.474-2.237-4.179-5.705-6.368-5.047l-14.648,4.289
						c-2.189,0.659-3.346,3.048-2.506,5.175L55.847,137.153z"/>
				</g>
			</g>
		</g>
		<g>
			<g>
				<g>
					<path fill="#FF9966" d="M54.928,108.104l2.553-0.77c0.794-0.238,1.218-1.157,0.949-2.049l-0.948-3.146
						c-0.27-0.895-1.13-1.424-1.923-1.187l-2.553,0.77c-0.793,0.24-1.217,1.156-0.949,2.05l0.948,3.148
						C53.273,107.814,54.134,108.344,54.928,108.104z"/>
				</g>
			</g>
		</g>
		<g>
			<defs>
				<path id="SVGID_3_" d="M60.404,99.487c0.021,3.78-3.041,4.122-6.82,4.144c-3.779,0.02-6.858-3.027-6.878-6.807
					c-0.02-3.78,3.027-6.859,6.807-6.879C57.291,89.923,60.386,95.709,60.404,99.487z"/>
			</defs>
			<use xlink:href="#SVGID_3_"  overflow="visible" fill="#FFB185"/>
			<clipPath id="SVGID_4_">
				<use xlink:href="#SVGID_3_"  overflow="visible"/>
			</clipPath>
			<g clip-path="url(#SVGID_4_)">
				<g>
					<g>
						<path fill="#0004FC" d="M50.955,94.247c0,0,0.697,2.313,0.378,2.409c-0.319,0.097-1.66-0.02-2.201,1.359
							c-0.541,1.382,0.753,2.21,1.861,2.138c1.109-0.074,1.209,2.854-1.409,3.122c-2.616,0.265-5.249-5.293-4.646-7.912
							c0.604-2.619,3.928-6.317,5.412-6.591c1.485-0.272,16.698,0.599,16.698,0.599L50.955,94.247z"/>
					</g>
				</g>
			</g>
		</g>
		<g>
			<g>
				<g>
					<path fill="#4355FF" d="M55.847,137.153l20.263-0.034l0.001,45.808h-4.015c0,0-3.041-22.597-4.187-35.088h-2.783l0.184,17.777
						l-16.32,14.288l-2.182-3.668l10.839-14.044c0,0-2.044-18.156-1.985-21.286C55.554,140.398,55.847,137.153,55.847,137.153z"/>
				</g>
			</g>
		</g>
		<g>
			<g>
				<g>
					<path fill="#021096" d="M76.167,182.87h-4.083v3.131h8.28c0.547,0,0.734-1.229,0.256-1.492L76.167,182.87z"/>
				</g>
			</g>
		</g>
		<g>
			<g>
				<g>
					<path fill="#021096" d="M49.067,179.636l-2.26-3.4l-2.608,1.734l4.584,6.895c0.302,0.456,1.428-0.067,1.384-0.612
						L49.067,179.636z"/>
				</g>
			</g>
		</g>
		<g>
			<g>
				<g>
					<path fill="#FE0449" d="M49.618,108.826l13.876,14.24l20.905,6.307l-0.541,4.325l-25.229-2.524c0,0-9.731-10.992-10.993-15.317
						C46.374,111.53,46.735,108.826,49.618,108.826z"/>
				</g>
			</g>
		</g>
		<g>
			<g>
				<g>
					<path fill="#FFB185" d="M84.399,129.372l-0.541,4.325c0,0,6.847-1.351,7.388-2.524c0.541-1.169-0.36-1.711-0.36-1.711
						L84.399,129.372z"/>
				</g>
			</g>
		</g>
		<g>
			<g>
				<g>
					<g>
						<g>
							<path fill="#021096" d="M104.38,158.167c-0.916,1.863-3.168,2.629-5.03,1.713l-12.642-6.22
								c-1.862-0.919-2.629-3.168-1.713-5.032l2.626-5.336c0.916-1.864,3.168-2.629,5.031-1.713l12.643,6.223
								c1.862,0.915,2.629,3.168,1.712,5.027L104.38,158.167z"/>
						</g>
					</g>
				</g>
			</g>
			<g>
				<g>
					<g>
						<g>
							<path fill="#021096" d="M94.008,156.553c0,0,0.992,1.886,0.16,3.22c-0.832,1.336-2.016,2.324-2.016,2.324
								s3.296,0.75,5.595-1.086c2.299-1.835,2.078-3.513,2.078-3.513L94.008,156.553z"/>
						</g>
					</g>
				</g>
			</g>
		</g>
		<g>
			<g>
				<g>
					<g>
						<polygon fill="#FE0449" points="42.443,141.751 43.738,149.417 50.787,152.698 43.895,156.299 42.953,164.015 37.4,158.572 
							29.769,160.064 33.229,153.1 29.454,146.304 37.146,147.442 						"/>
					</g>
				</g>
			</g>
		</g>
		<g>
			<g>
				<g>
					<g>
						<g>
							<circle fill="#4F58FC" cx="71.984" cy="86.308" r="7.444"/>
						</g>
					</g>
				</g>
			</g>
			<g>
				<g>
					<g>
						<g>
							<g>
								<circle fill="#FFFFFF" cx="71.984" cy="86.308" r="4.406"/>
							</g>
						</g>
					</g>
				</g>
				<g>
					<g>
						<g>
							<g>
								<circle fill="#4F58FC" cx="70.362" cy="84.672" r="0.547"/>
							</g>
						</g>
					</g>
				</g>
				<g>
					<g>
						<g>
							<g>
								<circle fill="#4F58FC" cx="74.205" cy="85.99" r="0.548"/>
							</g>
						</g>
					</g>
				</g>
				<g>
					<g>
						<g>
							<g>
								<path fill="#4F58FC" d="M70.995,89.123c-0.18-0.062-0.357-0.145-0.531-0.249c-0.952-0.565-1.543-1.644-1.344-2.455
									c0.056-0.231,0.289-0.371,0.52-0.316c0.231,0.057,0.372,0.291,0.315,0.522c-0.095,0.39,0.29,1.121,0.948,1.512
									c0.438,0.262,1.326,0.556,2.364-0.383c0.176-0.16,0.448-0.146,0.607,0.029c0.16,0.175,0.147,0.446-0.03,0.606
									C72.956,89.197,71.943,89.449,70.995,89.123z"/>
							</g>
						</g>
					</g>
				</g>
			</g>
		</g>
		<g>
			<g>
				<circle fill="#021096" cx="31.392" cy="127.904" r="2.969"/>
			</g>
		</g>
		<g>
			<g>
				<circle fill="#FE0449" cx="29.833" cy="172.728" r="2.969"/>
			</g>
		</g>
		<g>
			<g>
				<circle fill="#2121B5" cx="12.624" cy="116.041" r="2.969"/>
			</g>
		</g>
		<g>
			<g>
				<circle fill="#FF768D" cx="92.521" cy="171.347" r="2.969"/>
			</g>
		</g>
		<g>
			<g>
				<circle fill="#FF768D" cx="26.088" cy="97.868" r="4.295"/>
			</g>
		</g>
		<g>
			<g>
				<circle fill="#B3D2FF" cx="122.629" cy="151.515" r="2.015"/>
			</g>
		</g>
		<g>
			<g>
				<circle fill="#B3D2FF" cx="117.568" cy="88.492" r="1.55"/>
			</g>
		</g>
		<g>
			<g>
				<circle fill="#FE0449" cx="37.498" cy="85.354" r="1.258"/>
			</g>
		</g>
		<g>
			<g>
				<circle fill="#B3D2FF" cx="53.378" cy="78.502" r="2.128"/>
			</g>
		</g>
		<g>
			<g>
				<circle fill="#FF768D" cx="19.737" cy="159.745" r="1.496"/>
			</g>
		</g>
		<g>
			<g>
				<circle fill="#B3D2FF" cx="16.52" cy="137.643" r="2.016"/>
			</g>
		</g>
		<g>
			<g>
				<path fill="#0004FC" d="M117.68,167.882c0,0.817-0.662,1.479-1.48,1.479s-1.481-0.662-1.481-1.479
					c0-0.82,0.663-1.484,1.481-1.484S117.68,167.062,117.68,167.882z"/>
			</g>
		</g>
		<g>
			<g>
				<circle fill="#0004FC" cx="96.296" cy="89.811" r="2.342"/>
			</g>
		</g>
		<g>
			<g>
				<circle fill="#FE0449" cx="89.287" cy="77.823" r="2.085"/>
			</g>
		</g>
	</g>
</g>
</svg>
